<svg id="svg" version="1.1" xmlns="http://www.w3.org/2000/svg" xmlns:xlink="http://www.w3.org/1999/xlink" width="400" height="400" viewBox="0, 0, 400,400"><g id="svgg"><path id="path0" d="M18.434 13.752 C 17.848 14.347,16.873 15.342,16.267 15.963 C 15.662 16.584,14.594 17.658,13.894 18.349 L 12.622 19.605 12.728 25.241 L 12.833 30.876 14.154 32.021 C 16.511 34.066,16.667 34.286,16.669 35.583 C 16.671 36.622,16.840 36.929,17.669 37.401 C 18.512 37.881,18.667 38.172,18.667 39.282 C 18.667 40.456,18.874 40.787,20.628 42.411 C 22.260 43.921,22.632 44.475,22.838 45.697 C 22.986 46.576,23.403 47.462,23.876 47.901 C 24.340 48.332,24.669 49.020,24.672 49.567 C 24.677 50.421,26.231 52.376,28.139 53.930 C 28.456 54.188,28.667 54.877,28.667 55.657 C 28.667 56.642,28.820 57.004,29.303 57.157 C 30.240 57.454,30.637 58.068,30.821 59.504 C 30.979 60.741,32.023 62.175,33.917 63.756 C 34.411 64.169,34.667 64.749,34.667 65.462 C 34.667 66.227,34.958 66.821,35.667 67.500 C 36.343 68.148,36.667 68.782,36.667 69.458 C 36.667 70.245,37.095 70.871,38.667 72.386 C 40.351 74.008,40.667 74.494,40.667 75.460 C 40.667 76.326,40.912 76.814,41.667 77.449 C 42.415 78.078,42.667 78.574,42.667 79.418 C 42.667 80.362,42.984 80.842,44.617 82.373 C 46.115 83.776,46.624 84.503,46.812 85.502 C 46.946 86.218,47.418 87.234,47.861 87.761 C 48.304 88.287,48.667 89.106,48.667 89.581 C 48.667 90.194,49.244 91.012,50.667 92.413 C 52.282 94.003,52.666 94.586,52.664 95.441 C 52.661 96.221,52.931 96.722,53.685 97.343 C 54.433 97.957,54.761 98.561,54.897 99.576 C 55.046 100.689,55.442 101.329,56.875 102.774 C 58.091 103.999,58.667 104.850,58.667 105.420 C 58.667 106.365,60.506 108.854,61.447 109.183 C 62.091 109.408,63.000 111.210,63.000 112.263 C 63.000 112.602,63.375 113.206,63.833 113.604 C 64.395 114.093,64.667 114.674,64.667 115.386 C 64.667 116.237,65.056 116.827,66.667 118.413 C 68.180 119.903,68.667 120.612,68.667 121.329 C 68.667 121.948,69.010 122.601,69.657 123.212 C 70.348 123.864,70.716 124.601,70.873 125.648 C 71.104 127.185,71.922 128.261,73.750 129.429 C 74.483 129.898,74.667 130.266,74.667 131.267 C 74.667 132.240,74.889 132.713,75.667 133.396 C 76.467 134.098,76.667 134.541,76.667 135.614 C 76.667 136.668,76.811 137.001,77.342 137.169 C 77.714 137.287,78.276 137.785,78.591 138.275 C 78.906 138.766,79.502 139.440,79.915 139.774 C 80.328 140.108,80.667 140.681,80.667 141.046 C 80.667 141.860,81.226 142.977,82.013 143.733 C 82.337 144.045,82.700 144.875,82.819 145.580 C 83.027 146.813,84.099 148.190,85.938 149.588 C 86.446 149.974,86.773 150.652,86.897 151.576 C 87.028 152.553,87.325 153.136,87.876 153.497 C 88.479 153.893,88.667 154.317,88.667 155.287 C 88.667 156.299,88.904 156.793,89.823 157.696 C 90.460 158.322,91.360 159.214,91.823 159.679 C 92.325 160.182,92.667 160.905,92.667 161.462 C 92.667 162.065,93.009 162.719,93.625 163.295 C 94.246 163.874,94.667 164.684,94.820 165.590 C 95.045 166.920,96.527 169.000,97.249 169.000 C 97.877 169.000,98.667 170.243,98.667 171.230 C 98.667 171.852,99.052 172.726,99.667 173.500 C 100.217 174.192,100.667 175.137,100.667 175.601 C 100.667 176.190,101.269 177.037,102.667 178.413 C 104.332 180.053,104.667 180.571,104.667 181.514 C 104.667 182.386,104.897 182.817,105.667 183.386 C 106.941 184.328,107.183 187.700,106.022 188.322 C 104.395 189.193,98.530 188.742,97.500 187.667 L 96.542 186.667 89.294 186.667 L 82.045 186.667 81.333 185.667 L 80.621 184.667 72.579 184.667 L 64.536 184.667 63.579 183.750 L 62.622 182.833 55.940 182.919 C 49.361 183.002,49.243 183.016,48.270 183.835 C 47.727 184.292,46.868 184.667,46.363 184.667 C 45.770 184.667,45.139 185.008,44.587 185.628 C 44.115 186.157,43.542 186.653,43.312 186.729 C 43.042 186.819,42.849 187.752,42.769 189.351 C 42.654 191.638,42.566 191.894,41.655 192.607 C 40.712 193.346,40.667 193.499,40.667 195.951 L 40.667 198.520 42.417 200.212 C 47.068 204.707,48.667 206.591,48.667 207.579 C 48.667 208.221,48.981 208.842,49.583 209.390 C 50.088 209.848,51.118 210.885,51.873 211.695 C 52.628 212.504,53.603 213.477,54.039 213.855 C 54.476 214.234,55.072 214.834,55.363 215.189 C 55.655 215.543,56.555 216.451,57.363 217.207 C 58.685 218.442,60.997 220.737,62.333 222.141 C 63.388 223.249,65.343 225.196,66.072 225.864 C 66.491 226.248,67.377 227.148,68.041 227.864 C 68.705 228.581,70.505 230.383,72.041 231.870 C 74.563 234.311,76.697 236.447,78.265 238.098 C 78.578 238.427,79.352 239.177,79.987 239.765 C 80.621 240.352,81.896 241.645,82.820 242.637 C 83.744 243.629,84.774 244.679,85.109 244.970 C 85.757 245.535,89.891 249.618,92.265 252.039 C 94.340 254.155,94.706 254.519,95.993 255.736 C 96.631 256.340,97.906 257.645,98.826 258.637 C 99.747 259.629,100.789 260.679,101.142 260.971 C 101.495 261.262,102.395 262.161,103.142 262.968 C 103.889 263.775,104.694 264.600,104.931 264.801 C 105.168 265.002,106.706 266.517,108.349 268.167 C 109.992 269.817,111.803 271.617,112.375 272.167 C 112.946 272.717,114.108 273.904,114.957 274.806 C 115.805 275.708,116.789 276.683,117.142 276.973 C 117.495 277.263,118.395 278.161,119.142 278.968 C 119.889 279.775,120.708 280.600,120.962 280.801 C 121.216 281.002,122.116 281.904,122.962 282.806 C 123.808 283.708,124.789 284.683,125.142 284.973 C 125.495 285.263,126.395 286.161,127.142 286.968 C 127.889 287.775,128.708 288.600,128.962 288.801 C 129.216 289.002,130.116 289.904,130.962 290.806 C 131.808 291.708,132.774 292.683,133.109 292.973 C 133.949 293.701,138.569 298.283,140.057 299.866 C 140.730 300.581,141.630 301.473,142.057 301.847 C 142.484 302.222,143.395 303.122,144.082 303.847 C 144.768 304.573,145.668 305.475,146.082 305.851 C 146.495 306.228,147.386 307.128,148.060 307.851 C 148.735 308.575,150.535 310.380,152.060 311.862 C 153.586 313.345,155.384 315.145,156.057 315.862 C 156.730 316.580,157.630 317.473,158.057 317.847 C 158.484 318.222,159.365 319.122,160.016 319.847 C 160.666 320.573,161.566 321.479,162.016 321.861 C 162.465 322.243,163.375 323.143,164.037 323.861 C 164.699 324.579,165.599 325.473,166.037 325.848 C 166.475 326.222,167.399 327.122,168.090 327.848 C 168.782 328.573,169.607 329.420,169.924 329.729 C 171.853 331.610,173.844 333.604,174.457 334.270 C 174.847 334.694,175.663 335.519,176.270 336.103 C 176.876 336.688,178.001 337.834,178.770 338.650 C 179.538 339.466,180.524 340.441,180.961 340.817 C 181.397 341.193,182.372 342.161,183.127 342.968 C 183.882 343.775,184.702 344.600,184.950 344.801 C 185.197 345.002,186.022 345.836,186.783 346.654 C 187.544 347.472,188.520 348.447,188.952 348.821 C 189.383 349.194,189.965 349.744,190.243 350.042 C 191.057 350.911,193.369 353.208,193.958 353.731 C 194.256 353.996,195.138 354.877,195.918 355.690 C 196.697 356.502,197.672 357.469,198.084 357.839 C 198.496 358.209,199.330 359.087,199.937 359.791 C 200.772 360.758,201.362 361.112,202.366 361.247 C 203.495 361.398,204.124 361.863,206.604 364.379 C 209.045 366.855,209.687 367.333,210.568 367.333 C 211.256 367.333,211.828 367.592,212.226 368.085 C 212.560 368.498,213.234 369.094,213.725 369.409 C 214.215 369.724,214.713 370.286,214.831 370.658 C 214.992 371.166,215.333 371.333,216.204 371.333 C 217.016 371.333,217.630 371.600,218.254 372.224 C 218.850 372.819,219.590 373.156,220.489 373.239 C 221.479 373.330,222.053 373.623,222.667 374.351 C 223.201 374.984,223.813 375.338,224.371 375.336 C 224.850 375.335,225.808 375.783,226.500 376.333 C 227.323 376.987,228.138 377.333,228.856 377.333 C 229.696 377.333,230.122 377.569,230.667 378.333 C 231.224 379.116,231.630 379.333,232.539 379.333 C 233.372 379.333,233.934 379.588,234.537 380.238 C 235.276 381.035,235.636 381.147,237.558 381.179 C 239.337 381.208,239.841 381.341,240.287 381.901 C 241.189 383.037,242.157 383.333,244.954 383.333 C 247.428 383.333,247.667 383.395,248.301 384.202 C 248.971 385.054,249.069 385.071,253.350 385.119 L 257.715 385.167 258.607 386.253 L 259.500 387.339 274.950 387.336 L 290.399 387.333 291.412 386.250 L 292.425 385.167 296.514 385.167 C 300.546 385.167,300.614 385.154,301.452 384.250 C 302.260 383.378,302.450 383.333,305.377 383.333 L 308.453 383.333 309.505 382.185 C 310.497 381.101,310.675 381.038,312.642 381.066 C 314.487 381.092,314.820 380.994,315.543 380.214 C 316.083 379.632,316.706 379.333,317.380 379.333 C 318.069 379.333,318.686 379.027,319.283 378.389 C 319.843 377.792,320.655 377.368,321.500 377.233 C 322.312 377.104,323.094 376.709,323.500 376.223 C 323.909 375.732,324.681 375.345,325.499 375.220 C 326.369 375.086,327.035 374.734,327.423 374.202 C 327.818 373.659,328.482 373.316,329.424 373.168 C 330.563 372.989,331.162 372.598,332.548 371.125 C 333.871 369.719,334.557 369.256,335.548 369.097 C 336.524 368.940,337.235 368.471,338.501 367.146 C 339.795 365.792,340.468 365.353,341.501 365.190 C 342.531 365.028,343.156 364.622,344.252 363.407 C 345.033 362.541,345.843 361.683,346.053 361.500 C 346.262 361.317,347.160 360.417,348.048 359.500 C 348.936 358.583,349.826 357.683,350.026 357.500 C 350.348 357.206,361.330 346.215,361.931 345.587 C 362.061 345.451,362.658 344.947,363.258 344.467 C 364.528 343.451,365.015 342.643,365.222 341.204 C 365.325 340.493,365.942 339.623,367.186 338.438 C 368.628 337.064,369.000 336.496,369.000 335.666 C 369.000 334.825,369.386 334.253,370.985 332.728 C 372.619 331.169,373.011 330.580,373.197 329.404 C 373.321 328.618,373.679 327.793,373.992 327.571 C 374.762 327.024,375.333 325.884,375.333 324.894 C 375.333 324.399,375.649 323.870,376.135 323.551 C 376.688 323.189,377.007 322.582,377.161 321.596 C 377.304 320.681,377.678 319.920,378.199 319.482 C 378.723 319.042,379.073 318.327,379.178 317.482 C 379.290 316.591,379.610 315.969,380.172 315.556 C 380.848 315.057,381.000 314.658,381.002 313.389 C 381.005 311.065,381.541 309.498,382.480 309.070 C 383.196 308.743,383.275 308.531,383.146 307.267 C 382.894 304.779,383.342 302.293,384.184 301.513 C 384.884 300.865,384.951 300.479,385.055 296.542 C 385.156 292.679,385.233 292.219,385.868 291.706 C 387.244 290.593,387.269 290.295,387.316 274.667 L 387.362 259.506 386.278 258.621 L 385.193 257.736 385.180 253.451 C 385.167 249.226,385.154 249.154,384.250 248.265 C 383.390 247.420,383.333 247.185,383.333 244.482 C 383.333 241.710,383.295 241.565,382.333 240.667 C 381.422 239.815,381.333 239.542,381.333 237.582 C 381.333 235.648,381.233 235.327,380.333 234.386 C 379.712 233.735,379.333 232.988,379.333 232.411 C 379.333 231.796,378.995 231.185,378.333 230.604 C 377.612 229.972,377.333 229.428,377.333 228.657 C 377.333 227.945,377.000 227.208,376.333 226.449 C 375.732 225.764,375.333 224.939,375.333 224.377 C 375.333 223.760,374.994 223.141,374.333 222.553 C 373.584 221.885,373.333 221.370,373.333 220.500 C 373.333 219.630,373.083 219.115,372.333 218.447 C 371.641 217.830,371.333 217.248,371.333 216.552 C 371.333 215.862,370.994 215.209,370.250 214.468 C 368.093 212.319,367.333 211.292,367.333 210.522 C 367.333 209.581,365.872 207.761,363.302 205.500 C 361.658 204.054,361.384 203.641,361.241 202.385 C 361.106 201.206,360.835 200.741,359.787 199.886 C 359.079 199.308,358.200 198.505,357.833 198.102 C 357.467 197.699,356.575 196.799,355.851 196.101 C 355.128 195.404,354.261 194.533,353.924 194.167 C 352.590 192.711,350.696 190.798,349.952 190.152 C 349.520 189.778,348.617 188.878,347.945 188.152 C 347.272 187.427,345.547 185.680,344.111 184.271 C 342.675 182.862,341.263 181.437,340.974 181.105 C 340.685 180.772,339.785 179.875,338.974 179.111 C 338.163 178.348,336.889 177.073,336.141 176.278 C 335.394 175.483,334.494 174.596,334.141 174.305 C 333.789 174.015,332.880 173.115,332.121 172.305 C 331.363 171.496,330.463 170.596,330.121 170.306 C 329.780 170.016,328.959 169.191,328.297 168.472 C 327.636 167.754,326.736 166.842,326.297 166.445 C 325.633 165.843,323.445 163.663,321.958 162.121 C 321.483 161.628,318.372 158.517,317.879 158.042 C 316.499 156.711,314.104 154.300,313.063 153.194 C 312.386 152.476,311.471 151.576,311.029 151.194 C 310.587 150.812,309.987 150.222,309.696 149.882 C 309.405 149.542,308.514 148.642,307.717 147.882 C 306.920 147.122,306.020 146.215,305.717 145.867 C 305.414 145.519,303.613 143.719,301.715 141.867 C 299.816 140.015,298.016 138.210,297.715 137.856 C 297.413 137.501,296.511 136.601,295.709 135.856 C 294.907 135.110,294.007 134.213,293.709 133.861 C 293.411 133.510,292.513 132.610,291.715 131.861 C 290.917 131.113,290.017 130.212,289.715 129.861 C 289.259 129.328,288.364 128.440,285.908 126.082 C 285.601 125.787,278.515 118.690,277.914 118.076 C 277.687 117.843,276.750 116.908,275.833 115.999 C 274.917 115.089,274.017 114.190,273.833 114.001 C 273.650 113.811,270.950 111.111,267.833 108.001 C 264.717 104.890,262.017 102.189,261.833 101.998 C 261.650 101.808,260.750 100.908,259.833 99.999 C 258.917 99.089,258.017 98.191,257.833 98.003 C 257.650 97.814,254.950 95.115,251.833 92.005 C 248.717 88.895,246.017 86.194,245.833 86.001 C 245.650 85.809,244.750 84.908,243.833 83.999 C 242.917 83.089,242.017 82.191,241.833 82.003 C 241.650 81.814,238.950 79.115,235.833 76.005 C 232.717 72.895,230.017 70.194,229.833 70.001 C 229.650 69.809,228.750 68.908,227.833 67.999 C 226.917 67.089,226.017 66.189,225.833 65.997 C 224.760 64.877,218.610 58.744,218.104 58.290 C 217.772 57.992,216.961 57.167,216.303 56.457 C 215.645 55.747,214.745 54.845,214.303 54.452 C 213.861 54.058,211.985 52.183,210.133 50.285 C 208.281 48.387,206.481 46.584,206.133 46.278 C 205.604 45.814,203.612 43.830,201.912 42.075 C 201.295 41.437,198.588 38.732,195.833 35.999 C 194.917 35.089,194.055 34.230,193.918 34.089 C 193.781 33.948,193.019 33.158,192.224 32.333 C 191.429 31.508,190.491 30.586,190.139 30.283 C 189.788 29.980,188.878 29.080,188.118 28.283 C 187.358 27.486,186.458 26.581,186.118 26.273 C 185.778 25.965,183.476 23.678,181.002 21.190 C 177.252 17.420,176.339 16.667,175.520 16.667 C 174.901 16.667,174.182 16.327,173.580 15.750 C 172.635 14.845,172.563 14.833,168.072 14.801 L 163.521 14.770 160.094 18.118 L 156.667 21.467 156.667 29.211 C 156.667 36.775,156.683 36.960,157.364 37.176 C 158.565 37.558,159.014 39.305,158.961 43.390 C 158.913 47.049,158.927 47.122,159.790 47.750 C 160.654 48.380,160.667 48.448,160.667 52.454 L 160.667 56.518 161.667 57.396 C 162.627 58.239,162.669 58.390,162.715 61.220 C 162.742 62.841,162.779 64.719,162.798 65.394 C 162.823 66.247,163.113 66.914,163.750 67.579 C 164.646 68.515,164.667 68.628,164.667 72.527 L 164.667 76.518 165.667 77.396 C 166.217 77.878,166.676 78.549,166.686 78.887 C 166.842 83.714,166.689 87.739,166.334 88.166 C 165.762 88.855,162.516 88.851,161.930 88.160 C 159.545 85.346,158.722 84.667,157.701 84.667 C 156.982 84.667,156.374 84.386,155.835 83.804 C 155.330 83.259,154.547 82.876,153.708 82.763 C 152.837 82.646,152.064 82.255,151.461 81.626 C 150.868 81.007,150.204 80.667,149.589 80.667 C 149.006 80.667,148.298 80.328,147.764 79.794 C 147.247 79.277,146.378 78.853,145.631 78.753 C 144.851 78.648,144.062 78.250,143.564 77.709 C 143.120 77.227,142.475 76.581,142.129 76.273 C 141.783 75.966,141.307 75.478,141.070 75.190 C 140.832 74.900,140.132 74.667,139.500 74.667 C 138.435 74.667,137.000 73.674,137.000 72.937 C 137.000 72.788,136.428 72.667,135.729 72.667 C 134.756 72.667,134.237 72.436,133.515 71.682 C 132.996 71.141,132.481 70.709,132.369 70.722 C 131.292 70.848,130.225 70.547,129.747 69.981 C 127.559 67.397,126.977 66.933,125.701 66.762 C 124.837 66.646,124.062 66.253,123.461 65.626 C 122.868 65.007,122.204 64.667,121.589 64.667 C 121.006 64.667,120.298 64.328,119.764 63.794 C 119.247 63.277,118.378 62.853,117.631 62.753 C 116.803 62.642,116.076 62.254,115.516 61.625 C 114.925 60.962,114.345 60.667,113.635 60.667 C 112.831 60.667,112.165 60.234,110.559 58.667 C 108.953 57.100,108.286 56.667,107.483 56.667 C 106.779 56.667,106.158 56.353,105.500 55.667 C 104.816 54.953,104.228 54.667,103.448 54.667 C 102.618 54.667,102.174 54.425,101.614 53.667 C 101.053 52.908,100.610 52.667,99.777 52.667 C 98.891 52.667,98.278 52.283,96.590 50.668 C 95.057 49.203,94.251 48.670,93.567 48.668 C 92.994 48.667,92.327 48.334,91.835 47.804 C 91.329 47.258,90.547 46.876,89.703 46.763 C 88.801 46.642,88.094 46.274,87.516 45.625 C 86.913 44.949,86.349 44.667,85.601 44.667 C 84.742 44.667,84.176 44.288,82.614 42.667 C 81.101 41.096,80.473 40.667,79.689 40.667 C 79.054 40.667,78.274 40.302,77.551 39.667 C 76.813 39.019,76.051 38.667,75.386 38.667 C 74.433 38.667,73.000 37.628,73.000 36.937 C 73.000 36.788,72.474 36.667,71.830 36.667 C 70.985 36.667,70.370 36.389,69.614 35.667 C 68.876 34.961,68.238 34.667,67.447 34.667 C 66.711 34.667,66.128 34.425,65.747 33.961 C 63.824 31.621,63.057 31.017,61.743 30.807 C 60.835 30.662,60.085 30.264,59.517 29.627 C 58.929 28.967,58.345 28.667,57.649 28.667 C 57.008 28.667,56.324 28.355,55.787 27.817 C 55.312 27.342,54.324 26.853,53.541 26.707 C 52.448 26.503,51.767 26.048,50.405 24.607 C 49.048 23.172,48.437 22.762,47.620 22.738 C 46.933 22.719,46.215 22.359,45.522 21.688 C 44.881 21.067,44.120 20.667,43.579 20.667 C 43.066 20.667,42.208 20.243,41.551 19.667 C 40.737 18.952,40.070 18.667,39.214 18.667 C 38.270 18.667,37.891 18.472,37.430 17.750 C 36.313 15.999,35.023 15.044,33.458 14.810 C 32.334 14.641,31.859 14.388,31.600 13.820 C 31.121 12.768,30.563 12.676,24.667 12.673 L 19.500 12.670 18.434 13.752 M283.641 188.641 C 284.742 189.742,285.398 189.904,289.000 189.963 C 293.118 190.031,294.368 190.212,296.167 191.005 C 296.900 191.328,298.175 191.699,299.000 191.828 C 299.825 191.958,301.100 192.407,301.833 192.826 C 302.567 193.245,303.842 193.696,304.667 193.829 C 305.492 193.961,306.842 194.414,307.667 194.834 C 308.492 195.255,310.667 196.306,312.500 197.171 C 314.333 198.036,316.058 198.931,316.333 199.160 C 316.608 199.389,317.279 199.683,317.823 199.813 C 318.367 199.943,319.409 200.488,320.138 201.025 C 320.868 201.561,321.683 202.000,321.951 202.000 C 322.674 202.000,324.433 203.440,327.985 206.941 C 332.419 211.311,333.251 212.000,334.095 212.000 C 335.222 212.000,338.000 214.856,338.000 216.015 C 338.000 216.757,338.765 217.733,341.692 220.725 C 345.582 224.703,346.000 225.239,346.000 226.253 C 346.000 226.600,346.367 227.229,346.816 227.650 C 347.501 228.294,347.924 229.272,348.081 230.578 C 348.098 230.718,348.987 231.850,350.056 233.092 C 351.125 234.334,352.003 235.609,352.006 235.925 C 352.009 236.241,352.459 237.160,353.006 237.967 C 353.553 238.774,354.000 239.690,354.000 240.004 C 354.000 240.317,354.396 241.157,354.879 241.870 C 355.432 242.684,355.839 243.846,355.975 245.000 C 356.112 246.165,356.492 247.241,357.012 247.945 C 357.719 248.900,357.848 249.481,357.938 252.111 C 358.035 254.959,358.103 255.217,358.938 255.912 L 359.833 256.657 359.937 262.987 L 360.040 269.317 361.050 270.035 L 362.059 270.754 361.946 275.071 C 361.835 279.340,361.823 279.394,360.917 280.055 L 360.000 280.722 360.000 287.004 L 360.000 293.285 358.949 294.107 C 357.965 294.878,357.896 295.071,357.866 297.163 C 357.836 299.182,357.745 299.467,356.917 300.128 C 356.086 300.790,356.000 301.060,356.003 303.013 C 356.006 305.030,355.939 305.222,354.947 306.037 C 353.946 306.860,353.891 307.022,353.961 308.951 L 354.035 310.994 352.017 312.898 C 350.270 314.547,350.000 314.964,350.000 316.012 C 350.000 316.937,349.764 317.433,349.000 318.114 C 348.271 318.764,348.000 319.303,348.000 320.106 C 348.000 321.186,345.212 324.333,344.256 324.333 C 344.052 324.333,344.002 324.758,344.129 325.394 C 344.427 326.884,327.918 343.866,326.090 343.950 C 325.264 343.988,324.527 344.465,322.923 345.998 C 321.329 347.522,320.596 347.998,319.833 348.003 C 318.693 348.011,318.318 348.226,317.800 349.167 C 317.552 349.616,317.013 349.868,316.148 349.941 C 315.085 350.030,314.528 350.390,312.923 352.024 L 310.984 354.000 308.880 354.000 C 306.963 354.000,306.698 354.089,305.886 355.000 C 305.070 355.915,304.813 356.000,302.850 356.000 C 301.146 356.000,300.615 356.126,300.269 356.614 C 299.573 357.594,298.504 358.000,296.618 358.000 C 295.098 358.000,294.759 358.125,294.128 358.917 L 293.397 359.833 286.878 359.947 C 280.539 360.058,280.353 360.081,280.135 360.780 C 279.786 361.899,279.425 361.990,275.333 361.990 C 270.806 361.991,270.072 361.840,269.935 360.883 C 269.836 360.184,269.670 360.162,263.000 359.983 C 259.242 359.881,256.140 359.769,256.107 359.733 C 256.073 359.696,255.998 359.329,255.940 358.917 C 255.839 358.204,255.655 358.158,252.218 358.000 C 248.824 357.844,248.559 357.780,247.885 356.963 C 247.287 356.239,246.877 356.089,245.438 356.066 C 243.571 356.037,241.872 355.348,241.542 354.488 C 241.420 354.172,241.028 353.987,240.585 354.038 C 239.493 354.163,238.382 353.715,237.996 352.992 C 237.806 352.637,237.115 352.260,236.413 352.129 C 235.075 351.878,231.833 349.525,231.571 348.615 C 231.457 348.220,231.060 348.074,230.169 348.099 C 229.143 348.128,228.768 347.941,228.021 347.026 C 227.310 346.154,226.961 345.968,226.385 346.150 C 225.631 346.390,224.070 345.079,218.959 339.917 C 217.523 338.467,216.828 338.000,216.102 338.000 C 214.637 338.000,211.882 335.290,212.066 334.031 C 212.188 333.205,211.617 332.508,207.102 327.967 C 202.896 323.738,202.000 322.669,202.000 321.879 C 202.000 321.290,201.615 320.483,201.000 319.782 C 200.450 319.156,200.000 318.311,199.999 317.905 C 199.999 317.499,199.549 316.642,199.000 316.000 C 198.451 315.358,198.001 314.458,198.000 314.000 C 198.000 313.542,197.624 312.730,197.165 312.196 C 196.706 311.663,196.177 310.657,195.990 309.961 C 195.802 309.266,195.452 308.499,195.211 308.258 C 194.360 307.408,194.000 306.360,194.000 304.738 C 194.000 303.372,193.834 302.925,193.000 302.052 C 192.101 301.112,192.000 300.789,192.000 298.864 C 192.000 296.911,191.919 296.663,191.083 296.055 L 190.167 295.388 190.060 290.027 C 189.959 284.910,189.921 284.648,189.227 284.283 C 188.033 283.654,188.010 283.484,188.005 274.979 L 188.000 266.791 189.000 265.833 L 190.000 264.875 190.000 259.949 L 190.000 255.023 191.000 253.884 C 191.851 252.915,192.000 252.473,192.000 250.918 C 192.000 249.391,192.164 248.886,193.000 247.833 C 193.933 246.660,194.000 246.386,194.000 243.763 L 194.000 240.951 195.786 239.059 C 196.769 238.018,197.664 236.783,197.776 236.315 C 197.888 235.847,198.432 234.797,198.984 233.982 C 199.536 233.167,199.991 232.272,199.994 231.994 C 199.997 231.716,200.353 230.966,200.784 230.327 C 201.215 229.689,201.757 228.589,201.988 227.882 C 202.278 226.994,203.580 225.401,206.209 222.715 C 209.198 219.663,209.974 218.682,209.843 218.125 C 209.538 216.837,217.061 209.430,218.281 209.817 C 218.678 209.943,219.468 209.373,220.844 207.964 C 224.197 204.535,227.291 202.000,228.124 202.000 C 228.549 202.000,229.182 201.685,229.531 201.299 C 230.313 200.435,231.756 199.667,232.598 199.667 C 232.946 199.667,233.496 199.372,233.822 199.013 C 234.148 198.653,234.958 198.184,235.624 197.971 C 236.818 197.589,237.920 196.856,239.794 195.197 C 240.861 194.253,241.871 193.991,244.872 193.883 C 246.311 193.831,247.080 193.634,247.504 193.210 C 248.283 192.432,249.096 192.138,251.319 191.834 C 252.319 191.697,253.558 191.274,254.073 190.893 C 255.038 190.180,260.279 189.625,263.584 189.887 C 264.624 189.969,265.072 189.846,265.399 189.389 C 266.310 188.115,266.975 188.021,275.083 188.010 C 282.459 188.001,283.044 188.044,283.641 188.641 " stroke="none" fill="#bf7404" fill-rule="evenodd"></path><path id="path1" d="M266.500 188.401 C 266.133 188.611,265.638 189.055,265.399 189.389 C 265.072 189.846,264.624 189.969,263.584 189.887 C 260.279 189.625,255.038 190.180,254.073 190.893 C 253.558 191.274,252.319 191.697,251.319 191.834 C 249.096 192.138,248.283 192.432,247.504 193.210 C 247.080 193.634,246.311 193.831,244.872 193.883 C 241.871 193.991,240.861 194.253,239.794 195.197 C 237.920 196.856,236.818 197.589,235.624 197.971 C 234.958 198.184,234.148 198.653,233.822 199.013 C 233.496 199.372,232.946 199.667,232.598 199.667 C 231.756 199.667,230.313 200.435,229.531 201.299 C 229.182 201.685,228.549 202.000,228.124 202.000 C 227.291 202.000,224.197 204.535,220.844 207.964 C 219.468 209.373,218.678 209.943,218.281 209.817 C 217.061 209.430,209.538 216.837,209.843 218.125 C 209.974 218.682,209.198 219.663,206.209 222.715 C 203.580 225.401,202.278 226.994,201.988 227.882 C 201.757 228.589,201.215 229.689,200.784 230.327 C 200.353 230.966,199.997 231.716,199.994 231.994 C 199.991 232.272,199.536 233.167,198.984 233.982 C 198.432 234.797,197.888 235.847,197.776 236.315 C 197.664 236.783,196.769 238.018,195.786 239.059 L 194.000 240.951 194.000 243.763 C 194.000 246.386,193.933 246.660,193.000 247.833 C 192.164 248.886,192.000 249.391,192.000 250.918 C 192.000 252.473,191.851 252.915,191.000 253.884 L 190.000 255.023 190.000 259.949 L 190.000 264.875 189.000 265.833 L 188.000 266.791 188.005 274.979 C 188.010 283.484,188.033 283.654,189.227 284.283 C 189.921 284.648,189.959 284.910,190.060 290.027 L 190.167 295.388 191.083 296.055 C 191.919 296.663,192.000 296.911,192.000 298.864 C 192.000 300.789,192.101 301.112,193.000 302.052 C 193.834 302.925,194.000 303.372,194.000 304.738 C 194.000 306.360,194.360 307.408,195.211 308.258 C 195.452 308.499,195.802 309.266,195.990 309.961 C 196.177 310.657,196.706 311.663,197.165 312.196 C 197.624 312.730,198.000 313.542,198.000 314.000 C 198.001 314.458,198.451 315.358,199.000 316.000 C 199.549 316.642,199.999 317.499,199.999 317.905 C 200.000 318.311,200.450 319.156,201.000 319.782 C 201.615 320.483,202.000 321.290,202.000 321.879 C 202.000 322.669,202.896 323.738,207.102 327.967 C 211.617 332.508,212.188 333.205,212.066 334.031 C 211.882 335.290,214.637 338.000,216.102 338.000 C 216.828 338.000,217.523 338.467,218.959 339.917 C 224.070 345.079,225.631 346.390,226.385 346.150 C 226.961 345.968,227.310 346.154,228.021 347.026 C 228.768 347.941,229.143 348.128,230.169 348.099 C 231.060 348.074,231.457 348.220,231.571 348.615 C 231.833 349.525,235.075 351.878,236.413 352.129 C 237.115 352.260,237.806 352.637,237.996 352.992 C 238.382 353.715,239.493 354.163,240.585 354.038 C 241.028 353.987,241.420 354.172,241.542 354.488 C 241.872 355.348,243.571 356.037,245.438 356.066 C 246.877 356.089,247.287 356.239,247.885 356.963 C 248.559 357.780,248.824 357.844,252.218 358.000 C 255.655 358.158,255.839 358.204,255.940 358.917 C 255.998 359.329,256.073 359.696,256.107 359.733 C 256.140 359.769,259.242 359.881,263.000 359.983 C 269.670 360.162,269.836 360.184,269.935 360.883 C 270.072 361.840,270.806 361.991,275.333 361.990 C 279.425 361.990,279.786 361.899,280.135 360.780 C 280.353 360.081,280.539 360.058,286.878 359.947 L 293.397 359.833 294.128 358.917 C 294.759 358.125,295.098 358.000,296.618 358.000 C 298.504 358.000,299.573 357.594,300.269 356.614 C 300.615 356.126,301.146 356.000,302.850 356.000 C 304.813 356.000,305.070 355.915,305.886 355.000 C 306.698 354.089,306.963 354.000,308.880 354.000 L 310.984 354.000 312.923 352.024 C 314.528 350.390,315.085 350.030,316.148 349.941 C 317.013 349.868,317.552 349.616,317.800 349.167 C 318.318 348.226,318.693 348.011,319.833 348.003 C 320.596 347.998,321.329 347.522,322.923 345.998 C 324.527 344.465,325.264 343.988,326.090 343.950 C 327.918 343.866,344.427 326.884,344.129 325.394 C 344.002 324.758,344.052 324.333,344.256 324.333 C 345.212 324.333,348.000 321.186,348.000 320.106 C 348.000 319.303,348.271 318.764,349.000 318.114 C 349.764 317.433,350.000 316.937,350.000 316.012 C 350.000 314.964,350.270 314.547,352.017 312.898 L 354.035 310.994 353.961 308.951 C 353.891 307.022,353.946 306.860,354.947 306.037 C 355.939 305.222,356.006 305.030,356.003 303.013 C 356.000 301.060,356.086 300.790,356.917 300.128 C 357.745 299.467,357.836 299.182,357.866 297.163 C 357.896 295.071,357.965 294.878,358.949 294.107 L 360.000 293.285 360.000 287.004 L 360.000 280.722 360.917 280.055 C 361.823 279.394,361.835 279.340,361.946 275.071 L 362.059 270.754 361.050 270.035 L 360.040 269.317 359.937 262.987 L 359.833 256.657 358.938 255.912 C 358.103 255.217,358.035 254.959,357.938 252.111 C 357.848 249.481,357.719 248.900,357.012 247.945 C 356.492 247.241,356.112 246.165,355.975 245.000 C 355.839 243.846,355.432 242.684,354.879 241.870 C 354.396 241.157,354.000 240.317,354.000 240.004 C 354.000 239.690,353.553 238.774,353.006 237.967 C 352.459 237.160,352.009 236.241,352.006 235.925 C 352.003 235.609,351.125 234.334,350.056 233.092 C 348.987 231.850,348.098 230.718,348.081 230.578 C 347.924 229.272,347.501 228.294,346.816 227.650 C 346.367 227.229,346.000 226.600,346.000 226.253 C 346.000 225.239,345.582 224.703,341.692 220.725 C 338.765 217.733,338.000 216.757,338.000 216.015 C 338.000 214.856,335.222 212.000,334.095 212.000 C 333.251 212.000,332.419 211.311,327.985 206.941 C 324.433 203.440,322.674 202.000,321.951 202.000 C 321.683 202.000,320.868 201.561,320.138 201.025 C 319.409 200.488,318.367 199.943,317.823 199.813 C 317.279 199.683,316.608 199.389,316.333 199.160 C 316.058 198.931,314.333 198.036,312.500 197.171 C 310.667 196.306,308.492 195.255,307.667 194.834 C 306.842 194.414,305.492 193.961,304.667 193.829 C 303.842 193.696,302.567 193.245,301.833 192.826 C 301.100 192.407,299.825 191.958,299.000 191.828 C 298.175 191.699,296.900 191.328,296.167 191.005 C 294.368 190.212,293.118 190.031,289.000 189.963 C 285.398 189.904,284.742 189.742,283.641 188.641 C 282.872 187.872,267.797 187.660,266.500 188.401 " stroke="none" fill="#fbfbfa" fill-rule="evenodd"></path><path id="path2" d="M19.007 11.942 C 18.828 12.002,17.151 13.577,15.282 15.442 L 11.883 18.833 11.896 25.041 L 11.909 31.248 13.954 33.262 C 15.680 34.961,16.000 35.457,16.000 36.433 C 16.000 37.299,16.209 37.727,16.833 38.136 C 17.407 38.512,17.667 38.985,17.667 39.654 C 17.667 40.602,19.594 43.238,21.031 44.255 C 21.374 44.497,21.724 45.324,21.855 46.198 C 22.027 47.343,22.276 47.807,22.862 48.074 C 23.443 48.338,23.696 48.804,23.862 49.910 C 24.048 51.146,24.409 51.707,26.042 53.295 C 27.638 54.847,28.000 55.400,28.000 56.282 C 28.000 57.009,28.274 57.619,28.833 58.137 C 29.292 58.562,29.667 59.240,29.667 59.643 C 29.667 60.705,30.157 61.473,31.968 63.254 C 33.149 64.414,33.639 65.187,33.814 66.167 C 33.958 66.972,34.377 67.764,34.870 68.167 C 35.369 68.573,35.768 69.335,35.893 70.120 C 36.053 71.119,36.544 71.839,38.094 73.346 C 39.492 74.705,40.026 75.450,39.879 75.834 C 39.629 76.485,40.196 77.661,41.053 78.269 C 41.413 78.525,41.667 79.113,41.667 79.693 C 41.667 80.630,43.480 83.069,45.054 84.248 C 45.358 84.476,45.707 85.301,45.829 86.081 C 45.971 86.989,46.346 87.748,46.870 88.188 C 47.367 88.605,47.772 89.391,47.901 90.187 C 48.067 91.209,48.508 91.862,49.897 93.146 C 51.265 94.410,51.726 95.088,51.882 96.060 C 51.993 96.757,52.440 97.711,52.875 98.181 C 53.311 98.650,53.667 99.401,53.667 99.850 C 53.667 100.628,55.311 102.793,56.872 104.069 C 57.278 104.400,57.671 105.229,57.798 106.020 C 57.974 107.119,58.382 107.734,59.839 109.093 C 61.155 110.321,61.720 111.121,61.877 111.979 C 61.997 112.632,62.524 113.659,63.048 114.262 C 63.607 114.905,64.000 115.741,64.000 116.289 C 64.000 116.981,64.516 117.746,66.000 119.253 C 67.667 120.946,68.000 121.476,68.000 122.437 C 68.000 123.287,68.211 123.728,68.802 124.115 C 69.343 124.470,69.681 125.098,69.841 126.046 C 70.029 127.160,70.451 127.806,71.873 129.162 C 73.143 130.373,73.667 131.124,73.667 131.738 C 73.667 132.239,74.158 133.191,74.833 134.000 C 75.549 134.857,76.000 135.753,76.000 136.319 C 76.000 136.998,76.528 137.780,78.000 139.279 C 79.655 140.966,80.000 141.513,80.000 142.454 C 80.000 143.280,80.215 143.731,80.787 144.106 C 81.315 144.452,81.647 145.077,81.796 146.007 C 81.972 147.110,82.387 147.745,83.823 149.114 C 85.109 150.340,85.687 151.170,85.833 152.001 C 85.945 152.642,86.424 153.570,86.896 154.064 C 87.385 154.575,87.810 155.465,87.883 156.132 C 87.982 157.024,88.454 157.738,89.868 159.129 C 91.351 160.589,91.760 161.226,91.905 162.301 C 92.024 163.192,92.336 163.810,92.830 164.134 C 93.314 164.451,93.652 165.106,93.796 166.007 C 93.973 167.117,94.389 167.748,95.883 169.171 C 97.233 170.459,97.782 171.243,97.872 172.012 C 97.940 172.596,98.447 173.587,98.998 174.215 C 99.616 174.919,100.000 175.725,100.000 176.316 C 100.000 177.042,100.453 177.719,101.859 179.091 C 103.361 180.558,103.753 181.169,103.901 182.276 C 104.028 183.220,104.330 183.807,104.876 184.164 C 106.094 184.962,106.014 187.216,104.750 187.703 C 102.883 188.422,99.154 187.939,97.994 186.828 L 96.956 185.833 89.922 185.769 L 82.887 185.705 82.097 184.853 C 81.662 184.384,81.200 183.997,81.070 183.993 C 80.940 183.989,77.257 183.952,72.887 183.910 C 64.954 183.833,64.940 183.832,64.296 183.037 C 63.428 181.964,62.245 181.813,55.072 181.858 L 48.977 181.897 48.046 182.789 C 47.531 183.283,46.515 183.790,45.774 183.924 C 43.581 184.321,41.802 186.647,41.738 189.201 C 41.696 190.887,41.566 191.266,40.821 191.865 C 40.000 192.525,39.950 192.742,39.893 195.869 L 39.833 199.176 43.917 203.223 C 47.316 206.593,48.000 207.436,48.000 208.262 C 48.000 209.796,200.025 361.806,201.910 362.157 C 202.899 362.341,203.744 362.979,205.875 365.145 C 208.042 367.349,208.832 367.940,209.827 368.101 C 210.760 368.253,211.518 368.765,212.861 370.151 C 213.846 371.168,214.768 372.017,214.909 372.038 C 215.051 372.059,215.587 372.126,216.102 372.186 C 216.616 372.247,217.558 372.755,218.196 373.315 C 218.896 373.929,219.725 374.333,220.285 374.333 C 220.860 374.333,221.489 374.651,221.938 375.167 C 222.336 375.625,222.851 376.012,223.081 376.028 C 224.573 376.127,225.076 376.331,226.152 377.276 C 226.814 377.857,227.715 378.333,228.153 378.333 C 228.591 378.333,229.387 378.702,229.923 379.153 C 230.458 379.604,231.407 380.058,232.032 380.162 C 232.656 380.266,233.414 380.645,233.716 381.004 C 234.475 381.906,235.750 382.333,237.681 382.333 C 239.043 382.333,239.406 382.468,239.844 383.136 C 240.331 383.880,240.612 383.947,243.682 384.053 C 246.799 384.160,247.045 384.221,247.844 385.083 C 248.732 386.042,250.593 386.289,255.063 386.042 C 256.414 385.968,256.772 386.095,257.696 386.978 C 258.317 387.571,259.129 388.004,259.633 388.009 C 260.110 388.015,267.473 388.010,275.995 388.000 L 291.490 387.981 292.210 387.078 C 292.916 386.193,293.009 386.174,296.882 386.130 C 301.638 386.076,301.020 386.205,302.281 385.000 C 303.284 384.041,303.450 384.000,306.317 384.000 C 309.109 384.000,309.360 383.943,310.111 383.133 C 310.790 382.400,311.264 382.244,313.157 382.133 C 315.133 382.016,315.510 381.881,316.333 381.000 C 316.983 380.304,317.582 380.000,318.303 380.000 C 318.981 380.000,319.578 379.723,320.035 379.198 C 320.419 378.756,321.281 378.294,321.950 378.171 C 322.619 378.048,323.562 377.573,324.046 377.114 C 324.565 376.622,325.483 376.205,326.286 376.097 C 327.201 375.975,327.808 375.667,328.143 375.156 C 328.454 374.681,329.120 374.315,329.917 374.181 C 330.864 374.021,331.733 373.450,333.286 371.967 C 334.786 370.535,335.552 370.024,335.989 370.163 C 336.589 370.354,339.286 368.337,340.248 366.979 C 340.476 366.656,341.260 366.292,341.990 366.168 C 343.896 365.846,365.677 344.086,366.095 342.085 C 366.281 341.200,366.891 340.312,368.179 339.055 C 369.604 337.663,370.000 337.054,370.000 336.252 C 370.000 335.446,370.419 334.808,371.958 333.268 C 373.426 331.801,373.966 331.000,374.115 330.072 C 374.224 329.391,374.633 328.571,375.025 328.251 C 375.417 327.931,375.880 327.031,376.054 326.251 C 376.229 325.471,376.720 324.458,377.146 324.000 C 377.571 323.542,378.014 322.629,378.131 321.973 C 378.247 321.316,378.715 320.455,379.171 320.058 C 379.706 319.593,380.000 318.987,380.000 318.347 C 380.000 317.722,380.369 316.937,381.000 316.218 C 381.856 315.243,382.000 314.810,382.000 313.218 C 382.000 311.625,382.144 311.192,383.000 310.218 C 383.947 309.140,384.000 308.924,384.000 306.190 C 384.000 303.589,384.078 303.228,384.783 302.567 C 386.147 301.288,386.330 300.563,386.281 296.636 C 386.235 292.977,386.256 292.866,387.106 292.134 L 387.979 291.384 388.013 275.149 L 388.047 258.913 387.010 257.844 L 385.973 256.774 386.070 252.717 L 386.167 248.660 385.167 247.862 C 384.195 247.086,384.163 246.971,384.054 243.782 C 383.948 240.696,383.888 240.457,383.055 239.783 C 382.299 239.170,382.159 238.779,382.099 237.116 C 382.061 236.044,382.023 235.047,382.015 234.901 C 382.007 234.754,381.632 234.294,381.182 233.877 C 380.732 233.460,380.273 232.604,380.163 231.976 C 380.053 231.347,379.596 230.450,379.148 229.982 C 378.700 229.513,378.333 228.731,378.333 228.243 C 378.333 227.734,377.909 226.874,377.338 226.223 C 376.460 225.223,376.110 224.399,376.025 223.133 C 376.011 222.931,375.550 222.295,375.000 221.719 C 374.393 221.084,374.000 220.318,374.000 219.771 C 374.000 219.267,373.637 218.491,373.176 218.010 C 372.441 217.242,372.101 216.376,372.025 215.076 C 372.011 214.843,371.168 213.846,370.151 212.861 C 368.742 211.497,368.254 210.767,368.095 209.790 C 367.925 208.744,367.376 208.012,365.095 205.792 C 362.883 203.638,362.263 202.824,362.107 201.866 C 361.913 200.671,177.951 16.052,176.875 15.972 C 175.312 15.856,174.851 15.658,174.171 14.804 L 173.397 13.833 168.949 13.752 C 162.956 13.642,163.228 13.539,159.276 17.438 L 155.833 20.833 155.736 28.333 C 155.627 36.764,155.654 36.986,156.921 38.160 C 157.819 38.993,157.834 39.071,157.856 43.192 L 157.879 47.378 158.856 48.157 C 159.824 48.928,159.834 48.972,159.909 52.718 C 159.950 54.798,159.988 56.681,159.992 56.903 C 159.996 57.125,160.409 57.685,160.908 58.149 C 161.797 58.972,161.818 59.084,161.885 63.214 C 161.952 67.388,161.963 67.446,162.871 68.169 C 163.783 68.896,163.788 68.925,163.718 72.621 C 163.647 76.372,163.820 77.153,164.973 78.307 C 165.621 78.954,166.148 83.831,165.805 86.000 C 165.394 88.603,163.872 88.605,161.312 86.005 C 159.748 84.417,159.070 83.966,157.985 83.792 C 157.100 83.651,156.449 83.310,156.129 82.823 C 155.793 82.310,155.163 82.000,154.145 81.848 C 153.114 81.693,152.498 81.387,152.150 80.854 C 151.803 80.326,151.206 80.026,150.241 79.897 C 149.314 79.772,148.610 79.432,148.169 78.896 C 147.767 78.408,146.968 77.990,146.167 77.849 C 145.172 77.673,144.452 77.211,143.333 76.028 C 141.682 74.282,140.732 73.667,139.689 73.667 C 139.310 73.667,138.711 73.378,138.359 73.025 C 137.465 72.132,136.515 71.667,135.584 71.667 C 135.138 71.667,134.372 71.229,133.833 70.667 C 133.207 70.013,132.546 69.667,131.923 69.667 C 131.209 69.667,130.506 69.198,129.116 67.797 C 127.648 66.317,126.985 65.890,125.941 65.750 C 125.074 65.634,124.453 65.317,124.133 64.829 C 123.804 64.327,123.189 64.024,122.241 63.897 C 121.308 63.771,120.613 63.434,120.169 62.890 C 119.739 62.363,118.990 61.988,118.070 61.837 C 117.121 61.682,116.474 61.348,116.143 60.844 C 115.807 60.332,115.201 60.025,114.276 59.901 C 113.163 59.752,112.571 59.369,111.125 57.863 C 109.713 56.394,109.059 55.964,107.976 55.791 C 107.225 55.671,106.529 55.363,106.431 55.107 C 106.207 54.523,104.583 53.667,103.700 53.667 C 103.334 53.667,102.630 53.292,102.135 52.833 C 101.600 52.337,100.839 52.000,100.256 52.000 C 99.501 52.000,98.832 51.549,97.342 50.036 C 95.815 48.485,95.119 48.022,94.035 47.839 C 93.281 47.712,92.476 47.345,92.248 47.023 C 91.686 46.231,90.554 45.667,89.530 45.667 C 89.005 45.667,88.484 45.365,88.163 44.874 C 87.811 44.338,87.191 44.009,86.242 43.857 C 85.115 43.677,84.494 43.270,83.077 41.784 C 81.650 40.287,81.055 39.899,79.961 39.753 C 79.218 39.653,78.529 39.362,78.431 39.107 C 78.187 38.471,76.553 37.667,75.506 37.667 C 75.033 37.667,74.557 37.436,74.449 37.154 C 74.192 36.485,72.589 35.667,71.535 35.667 C 71.078 35.667,70.508 35.390,70.269 35.053 C 69.706 34.259,68.575 33.667,67.624 33.667 C 67.147 33.667,66.237 33.000,65.133 31.842 C 63.746 30.388,63.112 29.973,62.007 29.796 C 61.101 29.651,60.451 29.314,60.129 28.823 C 59.796 28.314,59.165 28.000,58.179 27.853 C 57.163 27.700,56.564 27.393,56.201 26.838 C 55.832 26.275,55.237 25.976,54.164 25.816 C 53.321 25.689,52.469 25.333,52.241 25.012 C 51.334 23.731,48.592 21.667,47.797 21.667 C 47.341 21.667,46.633 21.305,46.222 20.862 C 45.812 20.419,44.882 19.948,44.155 19.814 C 43.428 19.681,42.341 19.143,41.738 18.619 C 41.136 18.095,40.267 17.667,39.807 17.667 C 39.238 17.667,38.401 17.092,37.187 15.869 C 35.815 14.486,35.089 14.017,34.042 13.840 C 33.125 13.685,32.473 13.324,32.041 12.732 L 31.401 11.853 25.367 11.843 C 22.049 11.838,19.187 11.882,19.007 11.942 M31.684 13.352 C 32.301 14.013,33.079 14.436,33.901 14.557 C 34.882 14.701,35.563 15.160,36.932 16.600 C 38.342 18.084,38.935 18.476,39.883 18.551 C 40.640 18.610,41.353 18.950,41.852 19.489 C 42.405 20.085,42.980 20.333,43.810 20.333 C 44.675 20.333,45.120 20.540,45.497 21.115 C 46.109 22.050,47.459 22.725,48.170 22.453 C 48.506 22.324,49.354 22.942,50.649 24.261 C 52.179 25.820,52.910 26.316,53.934 26.489 C 54.710 26.620,55.542 27.045,55.957 27.522 C 56.421 28.056,57.016 28.333,57.697 28.333 C 58.408 28.333,59.013 28.634,59.628 29.292 C 60.207 29.912,61.018 30.334,61.923 30.487 C 63.021 30.672,63.630 31.065,64.745 32.306 C 66.348 34.089,67.384 34.754,68.118 34.473 C 68.412 34.360,69.059 34.703,69.692 35.307 C 70.451 36.033,71.091 36.333,71.875 36.333 C 72.671 36.333,73.129 36.554,73.497 37.115 C 74.095 38.028,75.455 38.727,76.128 38.469 C 76.386 38.370,77.068 38.749,77.644 39.311 C 78.359 40.010,79.018 40.333,79.731 40.333 C 80.568 40.333,81.149 40.726,82.693 42.333 C 84.251 43.955,84.814 44.333,85.673 44.333 C 86.418 44.333,87.007 44.627,87.657 45.323 C 88.260 45.968,89.049 46.387,89.930 46.527 C 90.739 46.657,91.557 47.062,91.971 47.538 C 92.430 48.066,93.020 48.333,93.727 48.333 C 94.592 48.333,95.153 48.708,96.719 50.333 C 98.268 51.941,98.850 52.333,99.689 52.333 C 100.419 52.333,101.014 52.634,101.667 53.333 C 102.312 54.024,102.917 54.333,103.622 54.333 C 104.308 54.333,104.980 54.662,105.667 55.333 C 106.356 56.008,107.025 56.333,107.719 56.333 C 108.538 56.333,109.144 56.741,110.693 58.333 C 112.256 59.941,112.843 60.333,113.685 60.333 C 114.405 60.333,115.009 60.629,115.616 61.277 C 116.169 61.868,116.992 62.301,117.814 62.433 C 118.590 62.559,119.449 62.991,119.911 63.489 C 120.455 64.076,121.042 64.333,121.837 64.333 C 122.711 64.333,123.148 64.560,123.692 65.296 C 124.197 65.980,124.802 66.323,125.774 66.478 C 126.867 66.653,127.524 67.090,129.028 68.641 C 130.501 70.160,131.100 70.564,131.772 70.490 C 132.354 70.426,132.961 70.709,133.647 71.365 C 134.369 72.055,134.995 72.333,135.823 72.333 C 136.674 72.333,137.122 72.542,137.497 73.115 C 138.102 74.039,139.457 74.726,140.149 74.461 C 140.457 74.342,141.383 75.019,142.647 76.287 C 144.133 77.777,144.981 78.361,145.911 78.533 C 146.601 78.660,147.497 79.118,147.901 79.549 C 148.402 80.085,149.006 80.333,149.807 80.333 C 150.715 80.333,151.142 80.552,151.696 81.301 C 152.217 82.007,152.795 82.327,153.824 82.481 C 154.723 82.616,155.495 82.991,155.949 83.513 C 156.429 84.065,157.011 84.333,157.727 84.333 C 158.592 84.333,159.153 84.708,160.719 86.333 C 162.373 88.050,162.816 88.333,163.845 88.333 C 166.261 88.333,166.333 88.183,166.333 83.158 L 166.333 78.672 165.333 77.781 L 164.333 76.890 164.333 72.707 C 164.333 68.558,164.326 68.519,163.429 67.804 C 162.525 67.083,162.525 67.083,162.608 63.009 L 162.690 58.934 161.512 57.823 L 160.333 56.711 160.333 52.673 C 160.333 48.696,160.319 48.622,159.417 47.786 C 158.519 46.954,158.498 46.849,158.424 42.718 L 158.349 38.500 157.341 37.642 L 156.333 36.785 156.333 29.068 L 156.333 21.352 159.702 17.981 L 163.071 14.610 168.048 14.610 C 173.005 14.610,173.029 14.613,173.704 15.471 C 174.202 16.104,174.691 16.333,175.545 16.333 C 177.240 16.333,361.253 200.247,361.581 202.268 C 361.742 203.257,362.360 204.068,364.724 206.389 C 367.129 208.752,367.667 209.462,367.667 210.280 C 367.667 211.058,368.111 211.724,369.667 213.280 C 371.248 214.861,371.667 215.496,371.667 216.310 C 371.667 217.003,371.999 217.687,372.685 218.405 C 373.443 219.199,373.654 219.672,373.508 220.254 C 373.355 220.865,373.571 221.267,374.489 222.080 C 375.386 222.874,375.667 223.383,375.667 224.217 C 375.667 224.989,375.969 225.619,376.693 226.360 C 377.457 227.142,377.670 227.609,377.525 228.187 C 377.375 228.782,377.604 229.230,378.498 230.099 C 379.322 230.899,379.667 231.529,379.667 232.234 C 379.667 232.891,380.010 233.594,380.667 234.281 C 381.561 235.216,381.667 235.549,381.667 237.423 C 381.667 239.334,381.755 239.595,382.667 240.396 C 383.646 241.255,383.667 241.338,383.667 244.442 C 383.667 247.456,383.708 247.641,384.518 248.231 C 385.347 248.835,385.371 248.964,385.435 253.085 L 385.500 257.318 386.583 258.307 L 387.667 259.296 387.667 274.970 L 387.667 290.644 386.500 291.811 L 385.333 292.978 385.333 296.974 C 385.333 300.792,385.296 301.007,384.500 301.803 C 383.735 302.568,383.667 302.881,383.667 305.635 C 383.667 308.567,383.644 308.654,382.618 309.613 C 381.682 310.488,381.553 310.840,381.418 312.880 C 381.296 314.736,381.123 315.292,380.502 315.833 C 380.054 316.225,379.659 317.039,379.547 317.806 C 379.443 318.525,379.164 319.242,378.928 319.399 C 378.693 319.557,378.314 319.799,378.087 319.938 C 377.859 320.076,377.539 320.908,377.375 321.786 C 377.187 322.794,376.816 323.566,376.372 323.877 C 375.891 324.214,375.667 324.729,375.667 325.495 C 375.667 326.586,375.186 327.343,374.112 327.944 C 373.817 328.109,373.519 328.857,373.425 329.668 C 373.285 330.880,372.958 331.394,371.296 333.010 C 369.808 334.457,369.332 335.150,369.328 335.876 C 369.322 336.757,367.798 338.686,365.861 340.263 C 365.562 340.507,365.333 341.198,365.333 341.860 C 365.333 342.801,365.060 343.283,363.917 344.356 C 362.055 346.104,362.239 345.925,360.350 347.833 C 359.443 348.750,358.548 349.650,358.361 349.833 C 358.173 350.017,357.276 350.917,356.366 351.833 C 355.457 352.750,354.552 353.650,354.356 353.833 C 354.160 354.017,353.257 354.917,352.350 355.833 C 351.443 356.750,350.547 357.650,350.359 357.833 C 350.171 358.017,348.458 359.756,346.552 361.699 C 343.743 364.563,342.859 365.269,341.885 365.427 C 341.023 365.567,340.146 366.147,338.783 367.478 C 337.347 368.879,336.642 369.333,335.900 369.333 C 335.139 369.333,334.483 369.782,332.974 371.333 C 331.337 373.016,330.846 373.333,329.877 373.333 C 328.999 373.333,328.520 373.578,327.857 374.366 C 327.235 375.106,326.606 375.450,325.638 375.579 C 324.715 375.703,324.124 376.010,323.772 376.547 C 323.394 377.124,322.948 377.333,322.095 377.333 C 321.227 377.333,320.691 377.593,319.971 378.365 C 319.304 379.079,318.590 379.452,317.647 379.578 C 316.715 379.703,316.125 380.008,315.772 380.547 C 315.319 381.238,314.998 381.333,313.112 381.333 C 311.112 381.333,310.886 381.412,309.766 382.500 C 308.568 383.663,308.555 383.667,305.473 383.667 C 302.545 383.667,302.346 383.712,301.704 384.529 C 301.043 385.368,300.917 385.392,296.814 385.445 L 292.603 385.500 291.806 386.500 L 291.009 387.500 275.120 387.593 L 259.231 387.686 258.319 386.593 L 257.407 385.500 253.137 385.457 C 248.954 385.415,248.854 385.397,248.172 384.540 C 247.511 383.712,247.317 383.667,244.421 383.667 C 241.409 383.667,241.353 383.652,240.361 382.590 C 239.436 381.600,239.178 381.510,237.183 381.475 C 235.252 381.442,234.934 381.340,234.315 380.552 C 233.791 379.886,233.320 379.667,232.417 379.667 C 231.475 379.667,231.024 379.438,230.334 378.611 C 229.694 377.845,229.123 377.529,228.258 377.461 C 227.513 377.402,226.743 377.046,226.214 376.517 C 225.654 375.957,224.996 375.667,224.289 375.667 C 223.480 375.667,222.941 375.369,222.111 374.463 C 221.246 373.518,220.838 373.302,220.215 373.458 C 219.623 373.607,219.158 373.405,218.381 372.662 C 217.692 372.004,216.996 371.667,216.326 371.667 C 215.524 371.667,214.911 371.250,213.386 369.667 C 211.795 368.016,211.267 367.667,210.359 367.667 C 209.415 367.667,208.847 367.247,206.364 364.717 C 204.057 362.365,203.214 361.718,202.205 361.529 C 200.259 361.164,48.333 209.229,48.333 207.648 C 48.333 206.765,47.734 206.010,44.333 202.612 L 40.333 198.616 40.330 195.891 C 40.327 193.248,40.358 193.141,41.360 192.318 C 42.283 191.559,42.406 191.244,42.514 189.352 C 42.615 187.601,42.796 187.057,43.567 186.201 C 45.055 184.549,45.398 184.333,46.536 184.333 C 47.292 184.333,47.792 184.089,48.222 183.510 L 48.833 182.687 55.958 182.641 L 63.083 182.596 63.888 183.465 L 64.694 184.333 72.740 184.333 L 80.786 184.333 81.848 185.493 L 82.910 186.652 89.974 186.631 L 97.038 186.610 97.836 187.472 C 98.952 188.676,104.873 188.794,106.031 187.635 C 106.995 186.672,106.657 184.805,105.312 183.667 C 104.583 183.050,104.328 182.545,104.330 181.721 C 104.333 180.801,103.988 180.269,102.333 178.640 C 100.766 177.097,100.333 176.453,100.333 175.666 C 100.333 175.001,99.991 174.302,99.321 173.602 C 98.765 173.019,98.389 172.335,98.487 172.081 C 98.749 171.399,98.096 170.378,96.312 168.679 C 95.071 167.497,94.675 166.857,94.500 165.752 C 94.336 164.718,94.015 164.152,93.304 163.646 C 92.547 163.107,92.333 162.697,92.333 161.782 C 92.333 160.790,92.026 160.306,90.333 158.640 C 88.755 157.086,88.333 156.456,88.333 155.653 C 88.333 154.990,88.037 154.360,87.484 153.848 C 86.985 153.385,86.552 152.532,86.433 151.780 C 86.280 150.805,85.816 150.103,84.482 148.833 C 83.138 147.553,82.680 146.858,82.507 145.833 C 82.363 144.984,81.928 144.174,81.307 143.602 C 80.616 142.964,80.333 142.391,80.333 141.623 C 80.333 140.737,79.971 140.192,78.333 138.614 C 76.667 137.009,76.333 136.500,76.333 135.565 C 76.333 134.738,76.070 134.209,75.329 133.548 C 74.565 132.868,74.371 132.465,74.521 131.870 C 74.681 131.230,74.349 130.725,72.708 129.120 C 71.073 127.520,70.657 126.890,70.472 125.735 C 70.313 124.738,69.982 124.128,69.359 123.685 C 68.712 123.224,68.451 122.719,68.389 121.811 C 68.320 120.778,67.969 120.242,66.320 118.653 C 64.717 117.109,64.333 116.537,64.333 115.687 C 64.333 115.008,64.053 114.374,63.543 113.901 C 63.089 113.480,62.654 112.582,62.521 111.797 C 62.336 110.697,61.941 110.119,60.519 108.865 C 59.101 107.615,58.704 107.036,58.533 105.965 C 58.367 104.928,57.871 104.167,56.326 102.578 C 54.717 100.923,54.333 100.319,54.333 99.441 C 54.333 98.619,54.089 98.173,53.333 97.614 C 52.562 97.044,52.333 96.614,52.333 95.738 C 52.333 94.792,51.998 94.268,50.333 92.613 C 48.806 91.096,48.333 90.397,48.333 89.660 C 48.333 89.050,48.017 88.400,47.475 87.898 C 46.917 87.380,46.551 86.610,46.428 85.695 C 46.299 84.735,45.998 84.129,45.483 83.792 C 44.277 83.001,42.333 80.299,42.333 79.412 C 42.333 78.940,41.915 78.210,41.333 77.667 C 40.624 77.004,40.333 76.422,40.333 75.663 C 40.333 74.792,39.962 74.236,38.333 72.667 C 36.638 71.033,36.333 70.562,36.333 69.575 C 36.333 68.712,36.125 68.274,35.531 67.885 C 34.991 67.531,34.652 66.902,34.493 65.958 C 34.305 64.847,33.851 64.153,32.295 62.602 C 30.688 61.000,30.333 60.446,30.333 59.540 C 30.333 58.703,30.090 58.246,29.333 57.667 C 28.572 57.083,28.333 56.632,28.333 55.778 C 28.333 54.666,25.964 51.667,25.086 51.667 C 24.710 51.667,24.345 50.576,24.338 49.430 C 24.335 49.025,23.963 48.350,23.511 47.930 C 23.032 47.486,22.602 46.620,22.481 45.859 C 22.321 44.847,21.850 44.137,20.402 42.724 C 19.139 41.490,18.511 40.604,18.469 39.994 C 18.387 38.809,17.809 37.766,16.992 37.329 C 16.525 37.079,16.333 36.631,16.333 35.785 C 16.333 34.765,16.045 34.316,14.333 32.667 L 12.333 30.740 12.333 25.045 L 12.333 19.351 15.750 15.875 L 19.167 12.399 24.950 12.366 L 30.733 12.333 31.684 13.352 " stroke="none" fill="#794a06" fill-rule="evenodd"></path><path id="path3" d="M17.748 13.874 C 16.503 15.172,16.446 15.292,17.282 14.860 C 17.806 14.589,18.485 13.985,18.792 13.517 L 19.349 12.667 24.591 12.671 C 30.605 12.676,31.118 12.763,31.619 13.862 C 31.857 14.385,32.250 14.657,32.743 14.640 C 33.252 14.623,33.336 14.550,33.000 14.419 C 32.725 14.311,32.102 13.798,31.616 13.278 L 30.733 12.333 24.950 12.365 L 19.167 12.396 17.748 13.874 M159.855 17.835 L 156.333 21.340 156.333 29.062 L 156.333 36.785 157.341 37.642 L 158.349 38.500 158.424 42.734 C 158.480 45.851,158.623 47.082,158.966 47.400 C 159.349 47.757,159.386 47.753,159.173 47.380 C 159.031 47.130,158.936 45.293,158.962 43.297 C 159.014 39.309,158.556 37.555,157.364 37.176 C 156.683 36.960,156.667 36.775,156.667 29.211 L 156.667 21.467 160.110 18.102 C 163.203 15.080,163.653 14.756,164.527 14.914 C 165.714 15.130,165.515 14.844,164.271 14.546 C 163.471 14.354,163.001 14.704,159.855 17.835 M172.000 14.667 C 172.000 14.850,172.199 15.000,172.442 15.000 C 172.685 15.000,173.236 15.375,173.667 15.833 C 174.173 16.372,174.812 16.667,175.476 16.667 C 176.352 16.667,177.166 17.334,181.002 21.190 C 183.476 23.678,185.778 25.965,186.118 26.273 C 186.458 26.581,187.358 27.486,188.118 28.283 C 188.878 29.080,189.788 29.980,190.139 30.283 C 190.491 30.586,191.429 31.508,192.224 32.333 C 193.019 33.158,193.781 33.948,193.918 34.089 C 194.055 34.230,194.917 35.089,195.833 35.999 C 198.590 38.734,201.408 41.551,201.958 42.121 C 203.475 43.693,205.607 45.817,206.133 46.278 C 206.481 46.584,208.281 48.387,210.133 50.285 C 211.985 52.183,213.861 54.058,214.303 54.452 C 214.745 54.845,215.645 55.747,216.303 56.457 C 216.961 57.167,217.772 57.992,218.104 58.290 C 218.610 58.744,224.760 64.877,225.833 65.997 C 226.017 66.189,226.917 67.089,227.833 67.999 C 228.750 68.908,229.650 69.809,229.833 70.001 C 230.017 70.194,232.717 72.895,235.833 76.005 C 238.950 79.115,241.650 81.814,241.833 82.003 C 242.017 82.191,242.917 83.089,243.833 83.999 C 244.750 84.908,245.650 85.809,245.833 86.001 C 246.017 86.194,248.717 88.895,251.833 92.005 C 254.950 95.115,257.650 97.814,257.833 98.003 C 258.017 98.191,258.917 99.089,259.833 99.999 C 260.750 100.908,261.650 101.808,261.833 101.999 C 263.470 103.702,267.318 107.333,267.486 107.333 C 267.603 107.333,247.225 86.858,222.203 61.833 C 179.631 19.258,176.634 16.333,175.575 16.333 C 174.738 16.333,174.212 16.073,173.553 15.333 C 172.657 14.329,172.000 14.046,172.000 14.667 M34.238 14.900 C 35.075 15.062,36.562 16.390,37.430 17.750 C 37.752 18.254,38.230 18.667,38.491 18.667 C 38.753 18.667,38.105 17.767,37.052 16.667 C 35.656 15.209,34.915 14.679,34.319 14.712 C 33.552 14.755,33.547 14.767,34.238 14.900 M14.174 17.507 L 12.333 19.348 12.333 25.044 L 12.333 30.740 14.333 32.667 C 16.045 34.316,16.333 34.765,16.333 35.785 C 16.333 36.632,16.525 37.079,16.994 37.330 C 17.357 37.524,17.876 38.092,18.147 38.592 C 18.622 39.466,18.640 39.472,18.653 38.734 C 18.662 38.225,18.333 37.779,17.669 37.401 C 16.840 36.929,16.671 36.622,16.669 35.583 C 16.667 34.286,16.511 34.066,14.154 32.021 L 12.833 30.876 12.728 25.241 L 12.622 19.605 13.894 18.339 C 15.779 16.464,16.476 15.667,16.232 15.667 C 16.112 15.667,15.186 16.495,14.174 17.507 M41.589 19.676 C 42.251 20.279,43.042 20.667,43.610 20.667 C 44.210 20.667,44.883 21.022,45.500 21.667 C 46.027 22.217,46.692 22.661,46.979 22.655 C 47.336 22.647,47.263 22.511,46.747 22.225 C 46.333 21.995,45.762 21.475,45.478 21.070 C 45.113 20.549,44.621 20.333,43.799 20.333 C 42.985 20.333,42.402 20.082,41.863 19.500 C 41.438 19.042,40.957 18.671,40.795 18.676 C 40.633 18.682,40.990 19.132,41.589 19.676 M47.836 22.663 C 47.724 22.844,47.835 22.915,48.082 22.820 C 48.342 22.720,49.350 23.498,50.463 24.657 C 51.940 26.194,52.602 26.656,53.280 26.621 C 54.090 26.580,54.100 26.563,53.400 26.429 C 52.978 26.349,51.761 25.394,50.695 24.308 C 48.768 22.345,48.225 22.033,47.836 22.663 M54.602 26.894 C 54.842 26.990,55.398 27.428,55.837 27.867 C 56.330 28.360,57.025 28.667,57.649 28.667 C 58.345 28.667,58.929 28.967,59.517 29.627 C 60.085 30.264,60.835 30.662,61.743 30.807 C 63.057 31.017,63.824 31.621,65.747 33.961 C 66.066 34.349,66.591 34.661,66.913 34.655 C 67.422 34.645,67.410 34.590,66.816 34.238 C 66.439 34.016,65.494 33.133,64.714 32.276 C 63.616 31.070,62.984 30.666,61.910 30.485 C 61.018 30.334,60.204 29.909,59.628 29.292 C 59.013 28.634,58.408 28.333,57.697 28.333 C 57.009 28.333,56.420 28.054,55.938 27.500 C 55.539 27.042,54.978 26.679,54.690 26.693 C 54.319 26.712,54.293 26.770,54.602 26.894 M68.420 34.695 C 68.742 34.883,69.373 35.403,69.821 35.852 C 70.379 36.410,71.009 36.667,71.818 36.667 C 72.468 36.667,73.000 36.788,73.000 36.937 C 73.000 37.454,74.363 38.667,74.930 38.655 C 75.376 38.646,75.337 38.552,74.747 38.225 C 74.333 37.995,73.762 37.475,73.478 37.070 C 73.123 36.563,72.619 36.333,71.864 36.333 C 71.098 36.333,70.449 36.030,69.719 35.333 C 69.144 34.783,68.484 34.338,68.253 34.343 C 68.017 34.349,68.091 34.503,68.420 34.695 M77.333 39.500 C 78.233 40.251,79.078 40.667,79.709 40.667 C 80.469 40.667,81.118 41.114,82.614 42.667 C 84.176 44.288,84.742 44.667,85.601 44.667 C 86.359 44.667,86.916 44.952,87.553 45.667 C 88.049 46.224,88.751 46.650,89.138 46.628 C 89.792 46.592,89.795 46.580,89.182 46.424 C 88.824 46.333,88.126 45.825,87.632 45.296 C 87.005 44.625,86.411 44.333,85.673 44.333 C 84.814 44.333,84.251 43.955,82.693 42.333 C 81.149 40.726,80.568 40.333,79.731 40.333 C 79.024 40.333,78.362 40.013,77.667 39.333 C 77.104 38.783,76.485 38.333,76.290 38.333 C 76.096 38.333,76.565 38.858,77.333 39.500 M18.354 40.073 C 18.343 40.388,19.221 41.531,20.306 42.613 C 21.826 44.129,22.325 44.875,22.483 45.873 C 22.602 46.620,23.036 47.489,23.511 47.930 C 23.963 48.350,24.335 49.025,24.338 49.430 C 24.346 50.699,24.726 51.667,25.216 51.667 C 25.475 51.667,25.774 51.892,25.879 52.167 C 25.985 52.442,26.235 52.667,26.434 52.667 C 26.634 52.667,26.318 52.172,25.732 51.567 C 25.058 50.873,24.667 50.131,24.667 49.552 C 24.667 49.015,24.338 48.330,23.876 47.901 C 23.402 47.460,22.986 46.576,22.836 45.689 C 22.631 44.470,22.268 43.920,20.759 42.541 C 19.753 41.621,18.805 40.561,18.653 40.185 C 18.429 39.631,18.372 39.610,18.354 40.073 M90.667 46.910 C 90.942 47.015,91.497 47.454,91.901 47.884 C 92.336 48.348,93.019 48.667,93.577 48.667 C 94.273 48.667,95.026 49.161,96.456 50.557 C 98.172 52.232,101.914 53.876,101.133 52.612 C 101.038 52.459,100.440 52.333,99.803 52.333 C 98.825 52.333,98.348 52.024,96.719 50.333 C 95.153 48.708,94.592 48.333,93.727 48.333 C 93.007 48.333,92.428 48.064,91.938 47.500 C 91.539 47.042,90.978 46.679,90.690 46.693 C 90.240 46.716,90.236 46.746,90.667 46.910 M159.945 48.228 C 160.176 48.662,160.333 50.524,160.333 52.834 L 160.333 56.711 161.500 57.812 C 162.142 58.417,162.667 58.768,162.667 58.593 C 162.667 58.417,162.217 57.878,161.667 57.396 L 160.667 56.518 160.667 52.467 C 160.667 49.093,160.574 48.338,160.112 47.957 C 159.611 47.544,159.595 47.570,159.945 48.228 M27.814 54.074 C 28.100 54.482,28.333 55.284,28.333 55.858 C 28.333 56.624,28.599 57.104,29.333 57.667 C 30.090 58.246,30.333 58.703,30.333 59.540 C 30.333 60.447,30.689 61.001,32.304 62.611 C 33.388 63.692,34.343 64.934,34.425 65.371 C 34.569 66.128,34.578 66.123,34.621 65.274 C 34.650 64.716,34.386 64.147,33.917 63.756 C 32.023 62.175,30.979 60.741,30.821 59.504 C 30.637 58.068,30.240 57.454,29.303 57.157 C 28.821 57.004,28.667 56.642,28.667 55.668 C 28.667 54.942,28.438 54.152,28.143 53.857 C 27.385 53.100,27.212 53.214,27.814 54.074 M101.802 53.940 C 102.203 54.399,102.824 54.667,103.489 54.667 C 104.224 54.667,104.832 54.969,105.500 55.667 C 106.158 56.353,106.779 56.667,107.483 56.667 C 108.286 56.667,108.953 57.100,110.559 58.667 C 112.165 60.234,112.831 60.667,113.635 60.667 C 114.345 60.667,114.925 60.962,115.516 61.625 C 116.076 62.254,116.803 62.642,117.631 62.753 C 118.378 62.853,119.247 63.277,119.764 63.794 C 120.298 64.328,121.006 64.667,121.589 64.667 C 122.213 64.667,122.873 65.012,123.500 65.667 C 124.116 66.309,124.763 66.653,125.312 66.627 L 126.167 66.588 125.276 66.377 C 124.786 66.261,124.063 65.754,123.668 65.250 C 123.138 64.572,122.658 64.333,121.823 64.333 C 121.043 64.333,120.452 64.072,119.911 63.489 C 119.449 62.991,118.590 62.559,117.814 62.433 C 116.992 62.301,116.169 61.868,115.616 61.277 C 115.009 60.629,114.405 60.333,113.685 60.333 C 112.843 60.333,112.256 59.941,110.693 58.333 C 109.144 56.741,108.538 56.333,107.719 56.333 C 107.025 56.333,106.356 56.008,105.667 55.333 C 105.033 54.714,104.296 54.333,103.729 54.333 C 103.226 54.333,102.444 54.081,101.991 53.773 L 101.167 53.213 101.802 53.940 M162.576 64.201 C 162.443 64.335,162.338 64.757,162.343 65.139 C 162.353 65.780,162.380 65.788,162.700 65.237 C 163.073 64.597,162.978 63.800,162.576 64.201 M162.667 66.814 C 162.667 67.091,163.042 67.564,163.500 67.864 C 164.317 68.399,164.333 68.495,164.333 72.650 L 164.333 76.890 165.333 77.781 L 166.333 78.672 166.333 83.158 C 166.333 88.183,166.261 88.333,163.845 88.333 C 162.816 88.333,162.373 88.050,160.719 86.333 C 159.153 84.708,158.592 84.333,157.727 84.333 C 157.007 84.333,156.428 84.064,155.938 83.500 C 155.539 83.042,154.978 82.679,154.690 82.693 C 154.240 82.716,154.236 82.746,154.667 82.910 C 154.942 83.015,155.497 83.454,155.901 83.884 C 156.375 84.389,157.013 84.667,157.701 84.667 C 158.722 84.667,159.545 85.346,161.930 88.160 C 162.516 88.851,165.762 88.855,166.334 88.166 C 166.689 87.739,166.842 83.714,166.686 78.887 C 166.676 78.549,166.217 77.878,165.667 77.396 L 164.667 76.518 164.667 72.553 C 164.667 68.623,164.658 68.578,163.667 67.449 C 163.054 66.752,162.667 66.506,162.667 66.814 M34.667 66.930 C 34.667 67.143,35.042 67.564,35.500 67.864 C 36.126 68.274,36.333 68.700,36.333 69.575 C 36.333 70.562,36.638 71.033,38.333 72.667 C 39.990 74.263,40.333 74.784,40.333 75.701 C 40.333 76.492,40.579 77.004,41.193 77.494 C 41.666 77.871,42.175 78.701,42.326 79.340 L 42.598 80.500 42.633 79.395 C 42.659 78.553,42.429 78.090,41.667 77.449 C 40.912 76.814,40.667 76.326,40.667 75.460 C 40.667 74.494,40.351 74.008,38.667 72.386 C 37.095 70.871,36.667 70.245,36.667 69.458 C 36.667 68.782,36.343 68.148,35.667 67.500 C 35.117 66.973,34.667 66.717,34.667 66.930 M126.667 66.913 C 127.123 67.090,128.246 68.208,129.747 69.981 C 130.066 70.358,130.476 70.667,130.659 70.667 C 130.842 70.667,130.119 69.767,129.053 68.667 C 127.986 67.567,126.901 66.679,126.640 66.693 C 126.256 66.714,126.261 66.756,126.667 66.913 M131.651 70.637 C 131.917 70.813,132.232 70.896,132.350 70.823 C 132.468 70.750,132.991 71.135,133.511 71.679 C 134.237 72.436,134.755 72.667,135.729 72.667 C 136.428 72.667,137.000 72.788,137.000 72.937 C 137.000 73.454,138.363 74.667,138.930 74.655 C 139.376 74.646,139.337 74.552,138.747 74.225 C 138.333 73.995,137.762 73.475,137.478 73.070 C 137.114 72.549,136.621 72.333,135.799 72.333 C 134.992 72.333,134.372 72.069,133.773 71.470 C 133.298 70.995,132.517 70.541,132.038 70.463 C 131.399 70.357,131.296 70.404,131.651 70.637 M140.576 74.737 C 140.984 74.934,141.407 75.374,141.515 75.714 C 141.623 76.055,141.839 76.333,141.995 76.333 C 142.151 76.333,142.774 76.858,143.380 77.500 C 143.993 78.150,144.780 78.650,145.157 78.628 C 145.743 78.594,145.753 78.569,145.232 78.434 C 144.902 78.348,143.747 77.390,142.666 76.306 C 141.584 75.221,140.505 74.343,140.266 74.356 C 140.028 74.368,140.168 74.540,140.576 74.737 M146.602 78.894 C 146.842 78.990,147.398 79.428,147.837 79.867 C 148.308 80.338,149.028 80.667,149.589 80.667 C 150.213 80.667,150.873 81.012,151.500 81.667 C 152.116 82.309,152.763 82.653,153.312 82.627 L 154.167 82.588 153.276 82.377 C 152.786 82.261,152.063 81.754,151.668 81.250 C 151.131 80.563,150.661 80.333,149.793 80.333 C 148.986 80.333,148.401 80.081,147.863 79.500 C 147.438 79.042,146.882 78.679,146.628 78.693 C 146.266 78.714,146.260 78.757,146.602 78.894 M43.657 81.913 C 44.270 82.690,45.102 83.542,45.506 83.806 C 45.997 84.129,46.302 84.751,46.428 85.695 C 46.551 86.610,46.917 87.380,47.475 87.898 C 48.017 88.400,48.333 89.050,48.333 89.660 C 48.333 90.397,48.806 91.096,50.333 92.613 C 51.998 94.268,52.333 94.792,52.333 95.738 C 52.333 96.614,52.562 97.044,53.333 97.614 C 54.089 98.173,54.333 98.619,54.333 99.441 C 54.333 100.318,54.715 100.921,56.300 102.551 C 57.382 103.663,58.339 104.857,58.428 105.203 C 58.585 105.817,58.590 105.817,58.628 105.206 C 58.649 104.859,57.867 103.773,56.875 102.774 C 55.442 101.329,55.046 100.689,54.897 99.576 C 54.761 98.561,54.433 97.957,53.685 97.343 C 52.931 96.722,52.661 96.221,52.664 95.441 C 52.666 94.586,52.282 94.003,50.667 92.413 C 49.244 91.012,48.667 90.194,48.667 89.581 C 48.667 89.106,48.304 88.287,47.861 87.761 C 47.418 87.234,46.947 86.221,46.813 85.509 C 46.649 84.635,46.153 83.818,45.286 82.993 C 42.930 80.752,42.533 80.488,43.657 81.913 M58.667 106.747 C 58.667 107.014,59.482 107.951,60.479 108.829 C 61.940 110.118,62.335 110.691,62.521 111.797 C 62.654 112.582,63.089 113.480,63.543 113.901 C 64.053 114.374,64.333 115.008,64.333 115.687 C 64.333 116.537,64.717 117.109,66.320 118.653 C 67.969 120.242,68.320 120.778,68.389 121.811 C 68.451 122.719,68.712 123.224,69.359 123.685 C 69.982 124.128,70.313 124.738,70.472 125.735 C 70.707 127.202,74.667 131.725,74.667 130.526 C 74.667 130.245,74.254 129.752,73.750 129.429 C 71.922 128.261,71.104 127.185,70.873 125.648 C 70.716 124.601,70.348 123.864,69.657 123.212 C 69.010 122.601,68.667 121.948,68.667 121.329 C 68.667 120.612,68.180 119.903,66.667 118.413 C 65.056 116.827,64.667 116.237,64.667 115.386 C 64.667 114.674,64.395 114.093,63.833 113.604 C 63.375 113.206,63.000 112.602,63.000 112.263 C 63.000 111.210,62.091 109.408,61.447 109.183 C 61.110 109.065,60.346 108.360,59.750 107.615 C 59.154 106.870,58.667 106.480,58.667 106.747 M270.517 110.653 C 272.157 112.296,273.650 113.798,273.833 113.992 C 274.017 114.186,274.917 115.089,275.833 115.999 C 276.750 116.908,277.687 117.843,277.914 118.076 C 278.142 118.309,279.980 120.136,281.998 122.135 C 284.016 124.134,285.667 125.864,285.667 125.979 C 285.667 126.095,286.149 126.475,286.739 126.823 C 287.328 127.171,283.357 123.004,277.914 117.561 C 272.471 112.119,267.909 107.667,267.776 107.667 C 267.642 107.667,268.876 109.011,270.517 110.653 M288.368 128.443 C 288.807 128.870,289.413 129.508,289.715 129.860 C 290.017 130.212,290.917 131.123,291.715 131.884 C 292.513 132.644,293.604 133.732,294.139 134.300 C 294.674 134.868,295.227 135.333,295.369 135.333 C 295.512 135.333,293.923 133.608,291.840 131.500 C 289.757 129.392,287.944 127.667,287.811 127.667 C 287.678 127.667,287.929 128.016,288.368 128.443 M74.333 132.342 C 74.333 132.518,74.783 133.062,75.333 133.553 C 76.070 134.209,76.333 134.739,76.333 135.565 C 76.333 136.500,76.667 137.009,78.333 138.614 C 79.971 140.192,80.333 140.737,80.333 141.623 C 80.333 142.391,80.616 142.964,81.307 143.602 C 81.928 144.174,82.363 144.984,82.507 145.833 C 82.680 146.858,83.138 147.553,84.482 148.833 C 85.816 150.103,86.280 150.805,86.433 151.780 C 86.552 152.532,86.985 153.385,87.484 153.848 C 88.037 154.360,88.333 154.990,88.333 155.653 C 88.333 156.456,88.755 157.086,90.333 158.640 C 92.026 160.306,92.333 160.790,92.333 161.782 C 92.333 162.699,92.547 163.107,93.314 163.653 C 94.047 164.175,94.350 164.717,94.512 165.797 C 94.685 166.948,95.043 167.534,96.281 168.685 C 97.135 169.478,98.016 170.437,98.238 170.814 L 98.643 171.500 98.655 170.802 C 98.666 170.139,97.741 169.000,97.191 169.000 C 96.518 169.000,95.036 166.869,94.820 165.590 C 94.667 164.684,94.246 163.874,93.625 163.295 C 93.009 162.719,92.667 162.065,92.667 161.462 C 92.667 160.905,92.325 160.182,91.823 159.679 C 91.360 159.214,90.460 158.322,89.823 157.696 C 88.904 156.793,88.667 156.299,88.667 155.287 C 88.667 154.317,88.479 153.893,87.876 153.497 C 87.325 153.136,87.028 152.553,86.897 151.576 C 86.773 150.652,86.446 149.974,85.938 149.588 C 84.099 148.190,83.027 146.813,82.819 145.580 C 82.700 144.875,82.337 144.045,82.013 143.733 C 81.226 142.977,80.667 141.860,80.667 141.046 C 80.667 140.681,80.328 140.108,79.915 139.774 C 79.502 139.440,78.906 138.766,78.591 138.275 C 78.276 137.785,77.714 137.287,77.342 137.169 C 76.816 137.002,76.667 136.668,76.667 135.655 C 76.667 134.614,76.434 134.123,75.500 133.189 C 74.858 132.547,74.333 132.166,74.333 132.342 M296.562 136.685 C 297.078 137.244,297.770 137.957,298.101 138.268 C 299.424 139.513,305.202 145.279,305.717 145.869 C 306.020 146.216,306.920 147.122,307.717 147.882 C 308.514 148.642,309.405 149.542,309.696 149.882 C 309.987 150.222,310.587 150.812,311.029 151.194 C 311.471 151.576,312.386 152.476,313.063 153.194 C 313.739 153.912,315.014 155.215,315.896 156.088 C 317.990 158.162,317.926 158.098,319.667 159.776 C 320.492 160.571,321.414 161.509,321.717 161.861 C 322.020 162.212,322.920 163.122,323.717 163.882 C 324.514 164.642,325.405 165.542,325.696 165.882 C 325.987 166.222,326.587 166.812,327.029 167.194 C 327.471 167.576,328.378 168.476,329.043 169.194 C 329.708 169.912,330.533 170.734,330.876 171.020 C 331.219 171.306,332.054 172.159,332.731 172.916 C 333.408 173.673,334.383 174.563,334.898 174.894 C 335.412 175.225,326.877 166.534,315.930 155.581 C 304.983 144.628,295.936 135.667,295.825 135.667 C 295.715 135.667,296.047 136.125,296.562 136.685 M98.333 172.228 C 98.333 172.415,98.783 173.039,99.333 173.614 C 99.992 174.303,100.333 175.004,100.333 175.666 C 100.333 176.453,100.766 177.097,102.333 178.640 C 104.026 180.306,104.333 180.790,104.333 181.782 C 104.333 182.698,104.547 183.107,105.311 183.651 C 105.849 184.034,106.353 184.681,106.432 185.090 C 106.563 185.764,106.580 185.754,106.621 184.979 C 106.653 184.386,106.362 183.900,105.667 183.386 C 104.897 182.817,104.667 182.386,104.667 181.514 C 104.667 180.571,104.332 180.053,102.667 178.413 C 101.269 177.037,100.667 176.190,100.667 175.601 C 100.667 175.137,100.204 174.175,99.638 173.463 C 98.338 171.826,98.333 171.821,98.333 172.228 M336.562 176.694 C 337.078 177.259,338.163 178.346,338.974 179.110 C 339.785 179.875,340.685 180.772,340.974 181.105 C 341.263 181.437,342.675 182.862,344.111 184.271 C 345.547 185.680,347.272 187.427,347.945 188.152 C 348.617 188.878,349.520 189.778,349.952 190.152 C 350.696 190.798,352.590 192.711,353.924 194.167 C 354.261 194.533,355.128 195.404,355.851 196.101 C 356.575 196.799,357.467 197.699,357.833 198.102 C 358.200 198.505,359.072 199.302,359.771 199.872 C 360.769 200.687,361.092 201.224,361.271 202.372 C 361.457 203.560,361.818 204.129,363.201 205.417 C 365.502 207.558,365.727 207.426,363.538 205.219 C 362.270 203.941,361.715 203.097,361.575 202.229 C 361.402 201.163,336.665 175.667,335.804 175.667 C 335.705 175.667,336.047 176.129,336.562 176.694 M61.508 182.653 C 61.383 182.856,61.623 183.000,62.089 183.000 C 62.526 183.000,63.236 183.375,63.667 183.833 L 64.450 184.667 72.535 184.667 L 80.621 184.667 81.333 185.667 C 81.725 186.217,82.243 186.667,82.484 186.667 C 82.727 186.667,82.446 186.146,81.855 185.500 L 80.786 184.333 72.740 184.333 L 64.694 184.333 63.930 183.536 C 63.037 182.603,61.815 182.157,61.508 182.653 M48.157 183.583 L 47.571 184.500 48.377 183.762 C 49.081 183.118,49.624 183.011,52.675 182.916 L 56.167 182.807 52.455 182.737 L 48.743 182.667 48.157 183.583 M44.972 184.750 C 44.124 185.474,43.124 186.806,43.667 186.490 C 43.942 186.329,44.433 185.863,44.758 185.453 C 45.083 185.043,45.833 184.647,46.425 184.574 L 47.500 184.440 46.480 184.387 C 45.920 184.357,45.241 184.521,44.972 184.750 M97.289 187.500 L 98.581 188.667 101.979 188.667 C 105.443 188.667,106.667 188.359,106.667 187.488 C 106.667 187.119,106.504 187.162,106.000 187.667 C 104.789 188.878,99.010 188.647,97.667 187.333 C 97.104 186.783,96.498 186.333,96.321 186.333 C 96.143 186.333,96.579 186.858,97.289 187.500 M42.379 190.894 C 42.354 191.294,41.883 191.942,41.333 192.333 C 40.359 193.027,40.333 193.116,40.333 195.830 L 40.333 198.616 44.333 202.612 C 47.749 206.025,48.333 206.762,48.333 207.657 C 48.333 208.630,67.271 228.333,68.206 228.333 C 68.487 228.333,66.845 226.457,65.877 225.672 C 65.345 225.240,63.777 223.678,62.250 222.058 C 61.124 220.863,58.678 218.435,57.363 217.207 C 56.555 216.451,55.655 215.543,55.363 215.189 C 55.072 214.834,54.476 214.234,54.039 213.855 C 53.603 213.477,52.628 212.504,51.873 211.695 C 51.118 210.885,50.087 209.848,49.583 209.390 C 48.981 208.842,48.667 208.221,48.667 207.579 C 48.667 206.591,47.068 204.707,42.417 200.212 L 40.667 198.520 40.667 195.951 C 40.667 193.476,40.704 193.352,41.697 192.576 C 42.469 191.971,42.689 191.569,42.575 190.968 C 42.436 190.229,42.421 190.223,42.379 190.894 M366.250 208.428 C 366.846 209.122,367.333 210.054,367.333 210.498 C 367.333 211.290,368.080 212.306,370.250 214.468 C 370.995 215.211,371.333 215.862,371.333 216.555 C 371.333 217.175,371.613 217.808,372.060 218.198 L 372.787 218.833 372.227 218.009 C 371.919 217.556,371.667 216.752,371.667 216.223 C 371.667 215.494,371.206 214.808,369.762 213.387 C 368.264 211.912,367.820 211.236,367.679 210.214 C 367.543 209.231,367.217 208.704,366.333 208.041 L 365.167 207.167 366.250 208.428 M373.333 221.359 C 373.333 221.525,373.783 222.062,374.333 222.553 C 374.994 223.141,375.333 223.760,375.333 224.377 C 375.333 224.925,375.726 225.762,376.284 226.405 C 376.807 227.007,377.320 227.725,377.425 228.000 C 377.578 228.404,377.619 228.390,377.640 227.928 C 377.655 227.614,377.217 226.896,376.667 226.333 C 375.967 225.617,375.667 224.982,375.667 224.217 C 375.667 223.385,375.386 222.875,374.500 222.090 C 373.858 221.522,373.333 221.193,373.333 221.359 M116.080 276.417 C 142.432 302.771,164.097 324.333,164.225 324.333 C 164.516 324.333,162.733 322.361,161.833 321.687 C 161.467 321.413,160.642 320.590,160.000 319.858 C 159.358 319.126,158.484 318.222,158.057 317.847 C 157.630 317.473,156.730 316.580,156.057 315.862 C 155.384 315.145,153.586 313.345,152.060 311.862 C 150.535 310.380,148.735 308.575,148.060 307.851 C 147.386 307.128,146.495 306.228,146.082 305.851 C 145.668 305.475,144.768 304.573,144.082 303.847 C 143.395 303.122,142.484 302.222,142.057 301.847 C 141.630 301.473,140.730 300.581,140.057 299.866 C 138.569 298.283,133.949 293.701,133.109 292.973 C 132.774 292.683,131.808 291.708,130.962 290.806 C 130.116 289.904,129.216 289.002,128.962 288.801 C 128.708 288.600,127.889 287.775,127.142 286.968 C 126.395 286.161,125.495 285.263,125.142 284.973 C 124.789 284.683,123.808 283.708,122.962 282.806 C 122.116 281.904,121.216 281.002,120.962 280.801 C 120.708 280.600,119.889 279.775,119.142 278.968 C 118.395 278.161,117.495 277.263,117.142 276.973 C 116.789 276.683,115.805 275.708,114.957 274.806 C 114.108 273.904,112.946 272.717,112.375 272.167 C 111.803 271.617,109.992 269.817,108.349 268.167 C 106.706 266.517,105.168 265.002,104.931 264.801 C 104.694 264.600,103.889 263.775,103.142 262.968 C 102.395 262.161,101.495 261.262,101.142 260.971 C 100.789 260.679,99.747 259.629,98.826 258.637 C 97.906 257.645,96.631 256.340,95.993 255.736 C 94.706 254.519,94.340 254.155,92.265 252.039 C 89.891 249.618,85.757 245.535,85.109 244.970 C 84.774 244.679,83.744 243.629,82.820 242.637 C 81.896 241.645,80.621 240.352,79.987 239.765 C 79.352 239.177,78.578 238.427,78.265 238.098 C 74.647 234.287,69.815 229.561,69.003 229.038 C 68.543 228.742,89.728 250.063,116.080 276.417 M377.333 229.347 C 377.333 229.556,377.783 230.122,378.333 230.604 C 378.995 231.185,379.333 231.796,379.333 232.411 C 379.333 232.988,379.712 233.735,380.333 234.386 C 381.237 235.331,381.333 235.644,381.333 237.620 C 381.333 239.608,381.417 239.875,382.250 240.538 C 383.101 241.215,383.180 241.492,383.358 244.384 L 383.550 247.500 383.608 244.387 C 383.666 241.314,383.654 241.262,382.667 240.396 C 381.755 239.595,381.667 239.334,381.667 237.423 C 381.667 235.549,381.561 235.216,380.667 234.281 C 380.010 233.594,379.667 232.891,379.667 232.234 C 379.667 231.529,379.322 230.900,378.500 230.101 C 377.858 229.478,377.333 229.139,377.333 229.347 M384.214 248.255 C 384.607 248.600,385.002 249.171,385.092 249.524 C 385.241 250.106,385.260 250.100,385.295 249.455 C 385.319 249.010,384.990 248.534,384.417 248.185 C 383.508 247.632,383.506 247.633,384.214 248.255 M385.151 256.324 C 385.260 257.497,385.511 257.995,386.326 258.661 L 387.362 259.506 387.316 274.667 C 387.269 290.295,387.244 290.593,385.868 291.706 C 385.233 292.219,385.156 292.679,385.055 296.542 C 384.951 300.479,384.884 300.865,384.184 301.513 C 383.344 302.291,382.894 304.778,383.145 307.250 C 383.267 308.448,383.176 308.726,382.561 309.050 C 381.744 309.480,381.346 309.974,381.338 310.567 C 381.336 310.787,381.858 310.426,382.500 309.766 C 383.656 308.576,383.667 308.537,383.667 305.600 C 383.667 302.883,383.736 302.567,384.500 301.803 C 385.296 301.007,385.333 300.792,385.333 296.974 L 385.333 292.978 386.500 291.811 L 387.667 290.644 387.667 274.970 L 387.667 259.296 386.678 258.392 C 386.134 257.896,385.536 256.892,385.350 256.161 L 385.012 254.833 385.151 256.324 M381.000 313.139 C 381.000 314.676,380.877 315.035,380.172 315.556 C 379.610 315.969,379.290 316.591,379.178 317.482 C 379.066 318.381,378.732 319.022,378.126 319.505 C 377.610 319.917,377.317 320.413,377.426 320.690 C 377.578 321.074,377.619 321.065,377.640 320.640 C 377.655 320.350,378.029 319.919,378.472 319.682 C 379.282 319.248,379.654 318.446,379.662 317.111 C 379.665 316.714,380.026 316.114,380.466 315.778 C 381.268 315.164,381.968 311.333,381.277 311.333 C 381.125 311.333,381.000 312.146,381.000 313.139 M377.000 322.326 C 377.000 322.688,376.625 323.230,376.167 323.531 C 375.653 323.867,375.333 324.390,375.333 324.894 C 375.333 325.903,374.759 327.026,373.947 327.602 C 373.610 327.842,373.333 328.178,373.333 328.349 C 373.333 328.638,374.103 328.107,375.204 327.060 C 375.458 326.817,375.667 326.132,375.667 325.536 C 375.667 324.797,375.931 324.224,376.500 323.729 C 377.211 323.111,377.678 321.667,377.167 321.667 C 377.075 321.667,377.000 321.963,377.000 322.326 M171.683 332.021 C 179.647 339.966,181.278 341.469,179.168 338.917 C 178.448 338.046,177.628 337.260,177.346 337.170 C 177.064 337.080,176.383 336.454,175.833 335.777 C 174.748 334.443,174.440 334.128,172.389 332.258 C 171.639 331.575,170.782 330.644,170.483 330.188 C 170.185 329.732,169.691 329.272,169.387 329.165 C 169.082 329.058,168.238 328.240,167.511 327.347 C 166.783 326.455,165.737 325.458,165.187 325.133 C 164.636 324.808,167.559 327.907,171.683 332.021 M373.045 330.158 C 373.020 330.520,372.100 331.672,371.000 332.719 C 369.380 334.260,369.000 334.822,369.000 335.674 C 369.000 336.522,368.644 337.055,367.167 338.421 C 365.530 339.934,364.526 341.351,365.861 340.263 C 367.798 338.686,369.322 336.757,369.328 335.876 C 369.332 335.147,369.815 334.450,371.356 332.952 C 372.896 331.454,373.344 330.809,373.234 330.243 C 373.111 329.605,373.084 329.593,373.045 330.158 M190.585 350.960 C 196.464 356.848,201.181 361.316,201.417 361.221 C 201.705 361.104,201.679 361.040,201.333 361.010 C 201.058 360.987,200.165 360.150,199.349 359.151 C 198.532 358.153,197.632 357.260,197.349 357.168 C 197.065 357.076,196.158 356.177,195.333 355.169 C 194.508 354.162,193.721 353.337,193.583 353.336 C 193.226 353.332,190.667 350.726,190.667 350.366 C 190.667 350.201,190.237 349.788,189.712 349.449 C 189.187 349.111,188.119 348.083,187.338 347.167 C 186.558 346.250,185.675 345.375,185.376 345.222 C 185.078 345.069,184.238 344.220,183.511 343.334 C 182.783 342.449,181.734 341.456,181.179 341.128 C 180.623 340.800,184.856 345.225,190.585 350.960 M364.882 342.563 C 364.746 342.964,364.079 343.756,363.401 344.323 C 362.722 344.889,362.061 345.461,361.931 345.593 C 360.621 346.926,350.302 357.248,350.026 357.500 C 349.826 357.683,348.936 358.583,348.048 359.500 C 347.160 360.417,346.262 361.317,346.053 361.500 C 345.843 361.683,345.033 362.528,344.252 363.378 C 343.472 364.227,342.608 365.003,342.333 365.101 C 341.935 365.244,341.951 365.286,342.409 365.307 C 342.726 365.321,344.567 363.721,346.501 361.750 C 348.435 359.779,350.171 358.017,350.359 357.833 C 350.547 357.650,351.443 356.750,352.350 355.833 C 353.257 354.917,354.160 354.017,354.356 353.833 C 354.552 353.650,355.457 352.750,356.366 351.833 C 357.276 350.917,358.173 350.017,358.361 349.833 C 358.548 349.650,359.443 348.750,360.350 347.833 C 362.238 345.926,362.048 346.111,363.939 344.334 C 364.817 343.509,365.330 342.758,365.254 342.408 C 365.150 341.931,365.087 341.957,364.882 342.563 M202.632 361.575 C 203.071 361.658,204.742 363.062,206.344 364.696 C 208.846 367.246,209.415 367.667,210.359 367.667 C 211.267 367.667,211.795 368.016,213.386 369.667 C 214.843 371.179,215.541 371.667,216.249 371.667 C 216.764 371.667,217.556 371.904,218.009 372.193 L 218.833 372.720 218.046 372.027 C 217.587 371.622,216.799 371.333,216.152 371.333 C 215.333 371.333,214.989 371.158,214.831 370.658 C 214.713 370.286,214.215 369.724,213.725 369.409 C 213.234 369.094,212.560 368.498,212.226 368.085 C 211.828 367.592,211.256 367.333,210.568 367.333 C 209.686 367.333,209.041 366.851,206.559 364.333 C 204.219 361.959,203.417 361.343,202.718 361.379 C 201.865 361.422,201.862 361.430,202.632 361.575 M340.833 365.244 C 340.467 365.336,339.417 366.194,338.500 367.151 C 337.236 368.470,336.523 368.940,335.548 369.097 C 334.555 369.256,333.873 369.718,332.548 371.131 C 331.605 372.136,330.458 373.023,330.000 373.101 C 329.200 373.237,329.203 373.244,330.098 373.288 C 330.827 373.323,331.451 372.899,332.974 371.333 C 334.483 369.782,335.139 369.333,335.900 369.333 C 336.641 369.333,337.344 368.882,338.760 367.500 C 339.793 366.492,340.785 365.667,340.966 365.667 C 341.146 365.667,341.387 365.517,341.500 365.333 C 341.613 365.150,341.660 365.017,341.603 365.039 C 341.546 365.060,341.200 365.152,340.833 365.244 M222.145 374.500 C 222.943 375.371,223.486 375.667,224.289 375.667 C 224.973 375.667,225.649 375.952,226.149 376.452 C 226.580 376.883,227.206 377.341,227.540 377.469 C 228.261 377.746,228.212 377.692,226.537 376.362 C 225.788 375.767,224.849 375.333,224.310 375.333 C 223.656 375.333,223.167 375.036,222.667 374.333 C 222.275 373.783,221.757 373.333,221.516 373.333 C 221.273 373.333,221.554 373.854,222.145 374.500 M327.432 374.189 C 326.992 374.793,326.393 375.100,325.392 375.234 C 324.471 375.358,323.855 375.649,323.632 376.064 C 323.444 376.416,322.962 376.836,322.562 376.998 L 321.833 377.291 322.545 377.312 C 322.952 377.324,323.490 376.977,323.803 376.500 C 324.112 376.028,324.671 375.665,325.091 375.662 C 325.499 375.660,326.133 375.571,326.500 375.464 C 327.226 375.254,328.926 373.333,328.386 373.333 C 328.205 373.333,327.775 373.718,327.432 374.189 M230.188 378.500 C 231.027 379.389,231.558 379.667,232.423 379.667 C 233.262 379.667,233.788 379.926,234.447 380.667 C 234.938 381.217,235.508 381.667,235.716 381.667 C 235.923 381.667,235.537 381.142,234.856 380.500 C 233.948 379.643,233.321 379.333,232.499 379.333 C 231.635 379.333,231.216 379.105,230.667 378.333 C 230.275 377.783,229.760 377.333,229.521 377.333 C 229.283 377.333,229.583 377.858,230.188 378.500 M319.288 378.346 C 318.675 379.036,318.101 379.333,317.385 379.333 C 316.733 379.333,316.082 379.627,315.597 380.140 C 315.177 380.584,314.458 381.014,314.000 381.095 C 313.279 381.223,313.308 381.249,314.212 381.288 C 314.973 381.321,315.397 381.120,315.772 380.547 C 316.125 380.008,316.715 379.703,317.647 379.578 C 318.898 379.410,321.630 377.310,320.550 377.346 C 320.339 377.353,319.771 377.803,319.288 378.346 M237.001 381.207 C 237.002 381.368,237.540 381.512,238.197 381.526 C 239.088 381.546,239.642 381.820,240.379 382.610 C 241.350 383.648,241.421 383.667,244.421 383.667 C 247.252 383.667,247.525 383.726,248.154 384.481 C 248.585 384.998,249.320 385.364,250.167 385.482 C 251.109 385.615,251.353 385.573,251.000 385.340 C 250.725 385.159,250.147 385.008,249.715 385.005 C 249.278 385.002,248.638 384.630,248.274 384.167 C 247.672 383.402,247.399 383.333,244.954 383.333 C 242.208 383.333,241.197 383.036,240.333 381.974 C 239.816 381.338,236.999 380.690,237.001 381.207 M309.521 382.167 L 308.453 383.333 305.404 383.333 C 302.364 383.333,302.352 383.337,301.189 384.500 C 300.547 385.142,300.166 385.667,300.342 385.667 C 300.518 385.667,301.062 385.217,301.553 384.667 C 302.422 383.691,302.520 383.667,305.538 383.667 C 308.568 383.667,308.653 383.645,309.597 382.635 C 310.127 382.068,311.072 381.484,311.697 381.336 L 312.833 381.068 311.712 381.034 C 310.832 381.007,310.359 381.252,309.521 382.167 M255.319 385.309 C 257.163 385.539,257.597 385.729,258.351 386.632 L 259.231 387.686 275.120 387.593 L 291.009 387.500 291.801 386.506 C 292.548 385.569,292.770 385.500,295.713 385.289 L 298.833 385.065 295.615 385.130 C 292.458 385.193,292.378 385.215,291.398 386.264 L 290.399 387.333 274.950 387.336 L 259.500 387.339 258.648 386.303 C 257.867 385.353,257.603 385.257,255.482 385.153 L 253.167 385.039 255.319 385.309 " stroke="none" fill="#7f5214" fill-rule="evenodd"></path></g></svg>