<svg id="svg" version="1.1" xmlns="http://www.w3.org/2000/svg" xmlns:xlink="http://www.w3.org/1999/xlink" width="400" height="400" viewBox="0, 0, 400,400"><g id="svgg"><path id="path0" d="M160.089 154.223 C 159.263 154.801,159.200 155.154,159.200 159.194 C 159.200 164.964,159.012 164.800,165.629 164.800 C 172.387 164.800,172.400 164.789,172.400 159.200 C 172.400 153.643,172.350 153.600,165.889 153.600 C 162.092 153.600,160.776 153.741,160.089 154.223 M181.062 156.331 C 180.075 157.422,180.043 214.785,181.029 215.771 C 181.535 216.278,182.659 216.400,186.814 216.400 C 192.654 216.400,192.800 216.322,192.800 213.192 L 192.800 211.532 194.652 213.162 C 200.500 218.310,210.492 218.878,216.958 214.429 C 226.711 207.719,227.700 183.986,218.574 175.646 C 212.323 169.933,200.251 169.624,195.156 175.047 C 193.272 177.052,193.200 176.729,193.200 166.280 C 193.200 159.253,193.067 156.427,192.720 156.080 C 191.857 155.217,181.876 155.432,181.062 156.331 M29.720 157.001 C 29.247 157.332,28.644 158.277,28.379 159.101 C 28.114 159.926,26.315 164.830,24.382 170.000 C 22.448 175.170,19.511 183.090,17.856 187.600 C 16.200 192.110,13.305 199.940,11.423 205.000 C 6.846 217.305,6.588 216.400,14.672 216.400 L 20.384 216.400 21.125 214.900 C 21.533 214.075,22.550 211.555,23.384 209.300 L 24.900 205.200 37.191 205.200 L 49.482 205.200 51.383 210.176 C 52.429 212.913,53.594 215.433,53.974 215.776 C 54.857 216.576,65.141 216.699,65.920 215.920 C 66.812 215.028,67.314 216.536,55.623 185.000 C 53.258 178.620,50.005 169.834,48.394 165.475 C 46.472 160.276,45.182 157.353,44.643 156.975 C 43.428 156.124,30.941 156.146,29.720 157.001 M72.080 156.880 C 71.385 157.575,71.385 215.225,72.080 215.920 C 72.409 216.249,74.391 216.400,78.400 216.400 C 82.409 216.400,84.391 216.249,84.720 215.920 C 85.415 215.225,85.415 157.575,84.720 156.880 C 84.391 156.551,82.409 156.400,78.400 156.400 C 74.391 156.400,72.409 156.551,72.080 156.880 M112.623 157.289 C 112.073 158.073,112.000 161.504,112.000 186.400 C 112.000 211.296,112.073 214.727,112.623 215.511 L 113.245 216.400 133.609 216.400 C 157.346 216.400,154.800 217.086,154.800 210.688 C 154.800 204.713,156.142 205.200,139.669 205.200 L 126.000 205.200 126.000 181.689 C 126.000 153.298,126.859 156.400,119.000 156.400 C 113.507 156.400,113.217 156.440,112.623 157.289 M38.223 171.700 C 38.601 172.855,40.509 178.205,42.463 183.590 C 44.418 188.974,45.929 193.609,45.821 193.890 C 45.557 194.578,28.400 194.639,28.400 193.951 C 28.400 192.829,36.941 169.600,37.354 169.600 C 37.454 169.600,37.845 170.545,38.223 171.700 M160.080 172.480 C 159.388 173.172,159.388 215.228,160.080 215.920 C 160.404 216.244,162.258 216.400,165.800 216.400 C 169.342 216.400,171.196 216.244,171.520 215.920 C 172.212 215.228,172.212 173.172,171.520 172.480 C 170.854 171.814,160.746 171.814,160.080 172.480 M232.229 172.629 C 231.462 173.395,231.258 214.214,232.014 215.626 C 232.529 216.589,243.147 216.828,243.921 215.895 C 244.189 215.572,244.387 210.606,244.470 202.163 L 244.600 188.935 245.800 187.004 C 247.162 184.812,249.132 183.600,251.824 183.296 C 253.554 183.101,253.601 183.059,253.631 181.648 C 253.647 180.852,253.722 179.885,253.795 179.500 C 253.869 179.115,253.809 178.800,253.662 178.800 C 253.515 178.800,253.445 177.378,253.505 175.641 L 253.614 172.482 251.972 172.851 C 249.842 173.329,247.567 174.503,245.858 176.002 C 244.074 177.569,244.000 177.539,244.000 175.262 C 244.000 172.259,243.499 172.000,237.697 172.000 C 233.830 172.000,232.731 172.126,232.229 172.629 M206.631 181.959 C 210.162 183.562,211.400 186.741,211.400 194.200 C 211.400 203.392,209.346 206.807,203.624 207.131 C 196.021 207.560,192.714 202.716,193.303 192.015 C 193.784 183.299,199.720 178.820,206.631 181.959 M218.958 241.366 C 218.432 242.735,218.968 243.397,220.703 243.523 C 222.382 243.645,222.400 243.632,222.399 242.323 C 222.399 240.835,219.474 240.022,218.958 241.366 M124.400 250.000 L 124.400 258.800 126.200 258.800 C 127.471 258.800,128.000 258.636,128.000 258.243 C 128.000 257.807,128.326 257.856,129.500 258.468 C 135.949 261.831,141.071 251.028,135.102 246.652 C 133.881 245.757,130.274 245.566,129.486 246.354 C 128.394 247.446,128.000 246.820,128.000 244.000 L 128.000 241.200 126.200 241.200 L 124.400 241.200 124.400 250.000 M174.400 250.000 L 174.400 258.800 176.157 258.800 C 178.336 258.800,178.400 258.652,178.400 253.616 C 178.400 249.204,178.699 248.640,181.037 248.640 C 183.135 248.640,183.379 249.161,183.600 254.118 L 183.800 258.600 185.600 258.600 L 187.400 258.600 187.514 254.289 C 187.640 249.503,187.148 247.782,185.309 246.577 C 183.982 245.708,180.718 245.700,179.400 246.563 L 178.400 247.218 178.400 244.842 C 178.400 241.476,178.230 241.200,176.157 241.200 L 174.400 241.200 174.400 250.000 M158.000 250.200 L 158.000 258.800 160.000 258.800 L 162.000 258.800 162.000 255.600 L 162.000 252.400 164.900 252.377 C 170.029 252.337,172.402 250.649,172.399 247.041 C 172.395 242.886,170.177 241.600,163.013 241.600 L 158.000 241.600 158.000 250.200 M167.669 245.062 C 169.880 247.064,168.004 249.600,164.311 249.600 L 162.000 249.600 162.000 247.000 L 162.000 244.400 164.469 244.400 C 166.204 244.400,167.154 244.597,167.669 245.062 M138.400 246.553 C 138.400 246.883,139.487 249.634,140.814 252.666 L 143.229 258.179 142.214 260.440 C 140.847 263.487,140.885 263.670,142.847 263.523 L 144.493 263.400 148.247 255.060 C 152.603 245.379,152.479 245.919,150.320 246.077 L 148.639 246.200 147.092 249.800 C 145.029 254.600,145.146 254.590,143.291 250.121 L 141.664 246.200 140.032 246.077 C 138.794 245.984,138.400 246.099,138.400 246.553 M188.977 247.051 C 189.122 247.628,190.246 250.326,191.475 253.045 L 193.710 257.988 192.655 260.421 C 191.297 263.551,191.306 263.600,193.205 263.600 C 194.754 263.600,194.843 263.527,195.760 261.500 C 203.349 244.724,202.968 245.913,200.700 246.077 L 199.000 246.200 197.422 250.100 C 196.554 252.245,195.716 254.000,195.559 254.000 C 195.314 254.000,193.718 250.466,192.418 247.046 C 191.808 245.443,188.574 245.447,188.977 247.051 M205.352 246.764 C 202.405 248.561,202.414 255.881,205.367 257.815 C 206.752 258.723,210.005 258.751,211.355 257.866 L 212.400 257.182 212.400 258.762 C 212.400 261.627,209.174 262.784,207.275 260.600 C 206.041 259.181,202.976 259.289,203.486 260.733 C 204.872 264.656,213.050 265.443,215.385 261.878 C 216.222 260.602,216.553 256.112,216.212 250.661 L 215.921 246.000 214.361 246.000 C 213.240 246.000,212.800 246.169,212.800 246.600 C 212.800 247.357,212.366 247.361,211.376 246.613 C 210.245 245.757,206.864 245.842,205.352 246.764 M219.200 252.400 L 219.200 258.800 220.167 258.800 C 222.394 258.800,222.400 258.782,222.400 252.404 C 222.400 246.613,222.382 246.488,221.500 246.252 C 219.131 245.617,219.200 245.432,219.200 252.400 M132.618 249.382 C 134.087 250.851,134.046 254.391,132.546 255.571 C 130.512 257.171,128.601 256.216,128.177 253.388 C 127.592 249.485,130.289 247.052,132.618 249.382 M211.418 249.382 C 213.429 251.392,212.284 256.000,209.775 256.000 C 206.654 256.000,205.609 249.978,208.526 248.803 C 209.913 248.244,210.372 248.336,211.418 249.382 " stroke="none" fill="#b968fc" fill-rule="evenodd"></path><path id="path1" d="M0.000 200.000 L 0.000 400.000 200.000 400.000 L 400.000 400.000 400.000 200.000 L 400.000 0.000 200.000 0.000 L 0.000 0.000 0.000 200.000 M171.818 154.182 C 173.200 155.564,173.306 162.449,171.971 164.146 C 170.828 165.599,161.001 165.801,159.600 164.400 C 158.355 163.155,158.407 155.470,159.670 154.126 C 161.042 152.665,170.345 152.708,171.818 154.182 M193.024 155.767 C 193.748 156.296,193.808 156.968,193.921 165.772 L 194.041 175.210 195.883 173.943 C 202.885 169.125,213.675 169.929,219.282 175.685 C 227.965 184.598,227.214 206.220,217.947 214.153 C 212.328 218.962,200.364 218.779,194.852 213.799 L 193.200 212.307 193.200 213.822 C 193.200 216.534,192.611 216.800,186.618 216.800 C 183.062 216.800,181.205 216.645,180.880 216.320 C 180.245 215.685,180.181 157.156,180.814 155.974 C 181.355 154.963,191.683 154.788,193.024 155.767 M45.117 156.911 C 45.588 157.413,46.804 160.158,47.819 163.011 C 48.834 165.865,50.539 170.450,51.608 173.200 C 52.677 175.950,55.085 182.452,56.959 187.648 C 58.833 192.844,60.934 198.514,61.627 200.248 C 64.004 206.191,66.800 214.167,66.800 215.003 C 66.800 216.624,66.128 216.800,59.943 216.800 C 52.967 216.800,53.720 217.349,51.170 210.409 L 49.403 205.600 37.332 205.600 L 25.261 205.600 23.403 210.350 C 20.670 217.340,21.406 216.800,14.606 216.800 C 8.227 216.800,7.324 216.489,7.735 214.435 C 7.956 213.333,13.015 199.442,17.654 187.200 C 19.196 183.130,21.594 176.650,22.983 172.800 C 27.547 160.145,28.476 157.810,29.313 156.900 C 30.603 155.495,43.795 155.505,45.117 156.911 M84.971 156.629 C 85.799 157.457,85.944 215.496,85.120 216.320 C 84.306 217.134,72.857 216.976,71.931 216.138 C 70.888 215.194,70.784 158.373,71.823 156.889 C 72.642 155.720,83.841 155.498,84.971 156.629 M125.777 156.889 C 126.324 157.669,126.400 160.657,126.400 181.289 L 126.400 204.800 140.000 204.800 C 156.567 204.800,155.200 204.245,155.200 210.971 C 155.200 214.594,155.070 215.673,154.571 216.171 C 153.492 217.251,112.995 217.111,112.414 216.026 C 111.625 214.553,111.863 157.614,112.662 156.731 C 113.773 155.504,124.901 155.637,125.777 156.889 M36.425 172.100 C 36.149 173.035,34.320 178.128,32.361 183.418 C 30.403 188.708,28.800 193.253,28.800 193.518 C 28.800 193.879,30.914 194.000,37.200 194.000 C 41.820 194.000,45.600 193.923,45.600 193.828 C 45.600 192.881,37.422 170.400,37.078 170.400 C 36.995 170.400,36.701 171.165,36.425 172.100 M294.365 171.929 C 299.211 173.492,302.849 176.903,304.680 181.600 C 305.749 184.343,305.997 214.899,304.959 216.045 C 304.355 216.713,303.663 216.800,298.967 216.800 C 292.867 216.800,292.400 216.594,292.400 213.897 L 292.400 212.250 291.300 213.261 C 281.117 222.615,262.586 216.625,262.653 204.000 C 262.699 195.362,268.846 191.371,286.148 188.744 L 292.096 187.841 291.881 185.766 C 291.174 178.916,284.033 177.328,278.732 182.841 L 276.464 185.200 272.132 185.194 C 265.631 185.185,264.362 183.966,266.468 179.750 C 270.154 172.369,283.838 168.533,294.365 171.929 M171.511 172.223 L 172.400 172.845 172.400 194.091 C 172.400 213.299,172.337 215.407,171.738 216.069 C 170.794 217.111,161.070 217.168,159.931 216.138 C 158.856 215.165,158.790 173.516,159.862 172.331 C 160.774 171.324,170.103 171.236,171.511 172.223 M243.669 172.262 C 244.167 172.714,244.400 173.487,244.400 174.696 L 244.400 176.467 245.966 175.227 C 249.116 172.732,251.739 171.864,256.712 171.672 C 262.848 171.436,262.800 171.389,262.800 177.633 C 262.800 184.098,263.032 183.915,254.600 184.091 C 245.357 184.284,245.221 184.548,245.209 202.211 C 245.198 218.253,245.896 216.800,238.200 216.800 C 230.368 216.800,231.200 219.487,231.200 194.200 C 231.200 176.002,231.278 173.266,231.823 172.489 C 232.657 171.297,242.396 171.111,243.669 172.262 M325.269 172.262 C 325.767 172.714,326.000 173.487,326.000 174.696 L 326.000 176.467 327.500 175.288 C 331.852 171.868,341.910 170.084,343.878 172.383 C 344.544 173.160,344.553 173.160,345.097 172.383 C 345.860 171.293,355.955 171.182,356.844 172.254 C 357.366 172.882,359.144 177.153,365.277 192.509 C 366.838 196.419,368.164 199.569,368.224 199.509 C 368.283 199.449,369.984 195.260,372.005 190.200 C 380.134 169.837,378.839 171.600,385.661 171.600 C 393.065 171.600,392.963 171.298,388.858 181.055 C 385.263 189.598,383.328 194.095,381.998 197.000 C 381.495 198.100,379.234 203.320,376.976 208.600 C 370.011 224.881,366.834 232.078,366.358 232.650 C 365.750 233.383,355.604 233.444,354.880 232.720 C 354.034 231.874,354.376 230.306,356.428 225.600 C 357.532 223.070,359.079 219.418,359.866 217.484 L 361.297 213.968 360.587 212.084 C 360.197 211.048,359.342 209.030,358.686 207.600 C 358.031 206.170,355.376 199.960,352.787 193.800 C 350.197 187.640,347.296 180.807,346.339 178.615 L 344.600 174.629 344.400 178.697 C 344.140 183.986,344.455 183.757,337.081 184.000 C 326.804 184.338,326.821 184.309,326.809 202.211 C 326.798 218.255,327.498 216.800,319.787 216.800 C 314.164 216.800,314.003 216.776,313.399 215.854 C 312.335 214.231,312.692 172.960,313.776 172.168 C 314.981 171.287,324.276 171.363,325.269 172.262 M198.363 182.531 C 192.388 185.686,191.914 201.459,197.673 205.451 C 202.731 208.955,209.557 206.187,210.816 200.121 C 213.494 187.222,206.959 177.991,198.363 182.531 M286.572 197.042 C 278.431 198.403,276.072 199.690,275.702 202.973 C 275.455 205.160,277.155 207.217,279.819 207.957 C 286.343 209.768,292.406 204.733,291.923 197.904 L 291.800 196.168 286.572 197.042 M223.000 242.200 L 223.000 243.800 220.900 243.921 L 218.800 244.042 218.800 242.200 L 218.800 240.358 220.900 240.479 L 223.000 240.600 223.000 242.200 M128.317 243.661 L 128.435 246.322 129.990 245.711 C 136.677 243.084,141.268 254.344,135.211 258.518 C 134.079 259.299,130.792 259.438,129.524 258.759 C 128.916 258.434,128.469 258.442,127.819 258.790 C 127.335 259.049,126.322 259.202,125.569 259.131 L 124.200 259.000 124.092 250.410 C 123.964 240.228,123.850 240.721,126.296 240.878 L 128.200 241.000 128.317 243.661 M178.316 243.848 L 178.433 246.697 179.916 245.923 C 184.632 243.464,187.980 246.899,187.985 254.200 C 187.988 259.090,187.885 259.284,185.361 259.124 L 183.400 259.000 183.200 254.284 C 182.990 249.326,182.784 248.820,180.976 248.806 C 178.993 248.791,178.614 249.625,178.400 254.466 L 178.200 259.000 176.200 259.000 L 174.200 259.000 174.092 250.410 C 173.964 240.228,173.850 240.721,176.296 240.878 L 178.200 241.000 178.316 243.848 M230.320 241.280 C 230.584 241.544,230.800 242.624,230.800 243.680 L 230.800 245.600 232.592 245.600 C 234.170 245.600,234.415 245.720,234.636 246.599 C 235.062 248.300,234.603 248.800,232.613 248.800 L 230.800 248.800 230.800 251.992 C 230.800 255.472,230.719 255.365,233.600 255.688 C 234.481 255.787,234.600 255.990,234.600 257.400 L 234.600 259.000 232.158 258.998 C 227.616 258.996,226.400 257.569,226.400 252.245 L 226.400 248.851 225.100 248.725 C 223.905 248.610,223.800 248.487,223.800 247.200 C 223.800 245.913,223.905 245.790,225.100 245.675 C 226.389 245.550,226.400 245.531,226.400 243.408 C 226.400 242.069,226.587 241.191,226.900 241.065 C 227.858 240.678,229.843 240.803,230.320 241.280 M254.200 250.000 L 254.200 259.000 252.400 259.000 L 250.600 259.000 250.492 250.410 C 250.365 240.318,250.281 240.717,252.496 240.877 L 254.200 241.000 254.200 250.000 M268.400 244.200 L 268.400 247.600 271.992 247.600 C 275.459 247.600,275.593 247.634,275.828 248.568 C 276.386 250.792,276.096 250.990,272.111 251.115 L 268.431 251.230 268.315 254.715 L 268.200 258.200 266.400 258.200 L 264.600 258.200 264.485 254.715 L 264.369 251.231 260.885 251.115 L 257.400 251.000 257.400 249.400 L 257.400 247.800 260.900 247.684 L 264.400 247.569 264.400 244.184 L 264.400 240.800 266.400 240.800 L 268.400 240.800 268.400 244.200 M170.306 242.332 C 175.723 246.196,172.521 252.800,165.230 252.800 L 162.434 252.800 162.317 255.900 L 162.200 259.000 160.000 259.000 L 157.800 259.000 157.692 250.610 C 157.632 245.996,157.678 241.974,157.794 241.672 C 158.196 240.625,168.689 241.178,170.306 242.332 M162.400 247.000 L 162.400 249.200 164.426 249.200 C 167.190 249.200,168.000 248.701,168.000 247.000 C 168.000 245.299,167.190 244.800,164.426 244.800 L 162.400 244.800 162.400 247.000 M210.893 245.946 C 212.079 246.550,212.396 246.588,212.565 246.146 C 212.971 245.089,216.344 245.439,216.627 246.567 C 217.269 249.122,216.622 260.713,215.775 261.847 C 212.798 265.831,205.573 265.697,203.518 261.620 C 202.631 259.860,202.849 259.600,205.210 259.600 C 206.723 259.600,207.264 259.773,207.575 260.354 C 208.654 262.370,212.000 261.624,212.000 259.367 C 212.000 258.121,211.900 257.963,211.300 258.254 C 208.301 259.708,204.121 258.190,203.168 255.302 C 201.108 249.062,205.818 243.358,210.893 245.946 M244.200 245.588 C 247.458 246.340,248.040 247.617,247.911 253.719 L 247.800 259.000 246.096 259.123 C 244.885 259.211,244.328 259.077,244.168 258.661 C 243.974 258.156,243.799 258.152,242.872 258.636 C 238.008 261.173,232.459 256.102,236.252 252.586 C 237.162 251.744,238.086 251.453,242.726 250.552 C 243.414 250.418,243.620 250.144,243.526 249.486 C 243.366 248.360,241.549 248.079,240.188 248.971 C 238.793 249.885,236.000 249.821,236.000 248.875 C 236.000 246.453,240.365 244.703,244.200 245.588 M141.907 246.100 C 142.130 246.375,142.942 248.128,143.711 249.996 L 145.109 253.392 145.761 251.831 C 146.120 250.972,146.889 249.210,147.470 247.915 L 148.527 245.561 150.363 245.681 C 152.798 245.839,152.810 245.772,148.587 255.200 C 144.477 264.376,144.727 264.000,142.738 264.000 C 140.697 264.000,140.550 263.466,141.807 260.623 C 142.994 257.937,143.086 258.401,140.012 251.496 C 138.860 248.909,138.020 246.524,138.146 246.196 C 138.431 245.454,141.324 245.380,141.907 246.100 M192.313 246.100 C 192.539 246.375,193.358 248.130,194.133 250.000 L 195.541 253.400 196.315 251.600 C 199.173 244.952,198.704 245.600,200.662 245.600 C 202.842 245.600,203.133 246.179,202.035 248.331 C 201.584 249.215,199.944 252.868,198.391 256.448 C 195.074 264.096,195.140 264.000,193.175 264.000 C 191.084 264.000,190.958 263.557,192.211 260.610 L 193.294 258.061 190.809 252.253 C 189.443 249.059,188.442 246.256,188.586 246.023 C 188.950 245.433,191.813 245.492,192.313 246.100 M222.957 246.233 C 223.091 246.581,223.200 249.439,223.200 252.584 C 223.200 259.021,223.072 259.335,220.528 259.126 L 219.000 259.000 218.889 252.817 C 218.828 249.416,218.868 246.401,218.977 246.117 C 219.276 245.335,222.651 245.434,222.957 246.233 M129.200 249.600 C 127.359 251.441,128.424 255.733,130.722 255.733 C 132.672 255.733,133.200 255.019,133.200 252.380 C 133.200 248.992,131.199 247.601,129.200 249.600 M207.823 249.689 C 206.387 251.738,207.490 255.600,209.511 255.600 C 211.847 255.600,213.123 251.141,211.269 249.462 C 210.224 248.517,208.567 248.626,207.823 249.689 M241.586 253.569 C 238.989 254.078,238.323 255.286,240.237 256.014 C 241.721 256.578,243.362 255.721,243.527 254.297 C 243.596 253.694,243.506 253.221,243.327 253.246 C 243.147 253.271,242.364 253.417,241.586 253.569 " stroke="none" fill="#fbfbfc" fill-rule="evenodd"></path><path id="path2" d="M277.600 171.955 C 270.955 174.106,265.706 179.105,266.077 182.929 L 266.200 184.200 271.606 184.311 L 277.013 184.421 278.563 182.567 C 283.324 176.871,292.000 179.101,292.000 186.019 L 292.000 188.250 284.694 189.317 C 269.952 191.470,263.856 195.282,262.959 202.908 C 261.497 215.350,281.558 222.668,290.800 213.063 C 292.614 211.178,292.800 211.220,292.800 213.520 C 292.800 216.311,292.995 216.400,299.066 216.400 C 305.831 216.400,305.200 218.042,305.200 200.446 C 305.200 180.470,304.064 176.800,296.800 173.301 C 292.206 171.089,282.401 170.401,277.600 171.955 M252.400 172.432 C 251.406 172.783,251.407 172.784,252.507 172.647 L 253.614 172.508 253.504 175.654 C 253.444 177.384,253.498 178.800,253.624 178.800 C 253.750 178.800,253.778 179.790,253.685 181.000 L 253.517 183.200 257.478 183.200 C 262.525 183.200,262.400 183.342,262.400 177.600 C 262.400 174.524,262.238 172.798,261.920 172.480 C 261.357 171.917,253.967 171.880,252.400 172.432 M313.823 172.889 C 313.062 173.975,312.865 214.227,313.614 215.626 C 313.994 216.336,314.503 216.400,319.800 216.400 C 327.081 216.400,326.398 217.876,326.409 202.126 C 326.421 184.093,327.003 183.200,338.740 183.200 C 344.174 183.200,344.000 183.386,344.000 177.569 C 344.000 171.681,344.191 171.866,338.307 172.068 C 333.179 172.243,330.597 173.140,327.711 175.747 C 325.854 177.425,325.600 177.313,325.600 174.813 C 325.600 172.109,325.365 172.000,319.543 172.000 C 314.729 172.000,314.411 172.049,313.823 172.889 M345.180 172.838 C 344.691 173.752,345.184 175.029,354.669 197.400 C 357.187 203.340,359.786 209.469,360.443 211.021 L 361.639 213.842 358.192 222.326 C 353.798 233.143,353.710 232.569,359.800 232.716 C 362.440 232.780,364.969 232.740,365.420 232.628 C 366.391 232.387,366.506 232.157,371.811 219.800 C 375.986 210.073,384.114 191.245,388.951 180.093 C 392.617 171.642,392.766 172.000,385.582 172.000 C 379.281 172.000,380.494 170.486,373.782 186.717 C 370.753 194.041,368.146 199.891,367.989 199.717 C 367.642 199.332,364.321 191.211,360.416 181.200 C 356.446 171.024,357.445 172.000,351.005 172.000 C 345.957 172.000,345.601 172.051,345.180 172.838 M244.578 202.800 C 244.578 209.510,244.632 212.255,244.699 208.900 C 244.766 205.545,244.766 200.055,244.699 196.700 C 244.632 193.345,244.578 196.090,244.578 202.800 M292.269 198.644 C 291.785 203.825,289.478 207.032,285.377 208.224 C 276.636 210.765,271.056 202.375,278.991 198.621 C 281.109 197.620,291.408 195.503,292.153 195.916 C 292.347 196.024,292.399 197.252,292.269 198.644 M265.067 241.067 C 264.920 241.213,264.800 242.833,264.800 244.667 L 264.800 248.000 261.176 248.000 L 257.552 248.000 257.676 249.500 L 257.800 251.000 261.285 251.115 L 264.769 251.231 264.885 254.715 L 265.000 258.200 266.124 258.329 C 268.007 258.545,268.400 257.857,268.400 254.351 L 268.400 251.200 271.500 251.194 C 275.133 251.187,275.711 250.924,275.532 249.357 L 275.400 248.200 271.900 248.084 L 268.400 247.969 268.400 245.017 C 268.400 243.394,268.291 241.781,268.157 241.433 C 267.913 240.797,265.609 240.524,265.067 241.067 M226.800 243.575 L 226.800 245.949 225.500 246.075 C 224.350 246.186,224.200 246.339,224.200 247.400 C 224.200 248.461,224.350 248.614,225.500 248.725 L 226.800 248.851 226.800 251.966 C 226.800 257.415,227.933 258.800,232.387 258.800 L 234.400 258.800 234.400 257.400 C 234.400 256.046,234.350 256.000,232.880 256.000 C 230.706 256.000,230.400 255.496,230.400 251.920 L 230.400 248.800 232.200 248.800 C 233.990 248.800,234.000 248.793,234.000 247.400 C 234.000 246.007,233.990 246.000,232.200 246.000 L 230.400 246.000 230.400 243.600 L 230.400 241.200 228.600 241.200 L 226.800 241.200 226.800 243.575 M250.400 250.000 L 250.400 258.800 252.200 258.800 L 254.000 258.800 254.000 250.000 L 254.000 241.200 252.200 241.200 L 250.400 241.200 250.400 250.000 M237.959 246.914 C 237.212 247.416,236.542 248.226,236.472 248.714 C 236.295 249.942,239.073 250.008,240.107 248.800 C 241.311 247.394,244.000 248.041,244.000 249.736 C 244.000 250.555,243.704 250.694,240.972 251.153 C 235.009 252.155,233.183 257.358,238.296 258.778 C 240.370 259.354,240.804 259.316,242.600 258.400 C 244.482 257.441,244.400 257.449,244.400 258.223 C 244.400 258.709,244.775 258.819,246.100 258.723 L 247.800 258.600 247.924 254.600 C 248.140 247.652,246.997 246.004,241.959 246.001 C 239.870 246.000,239.034 246.191,237.959 246.914 M244.098 254.000 C 243.870 256.245,241.238 257.415,239.544 256.025 C 238.354 255.049,238.842 254.027,240.838 253.314 C 243.000 252.542,244.220 252.799,244.098 254.000 " stroke="none" fill="#eb5efc" fill-rule="evenodd"></path><path id="path3" d="M180.962 156.100 C 180.203 156.996,180.203 156.997,181.018 156.313 C 181.678 155.757,182.829 155.601,187.018 155.499 L 192.200 155.374 186.962 155.287 C 181.969 155.204,181.688 155.242,180.962 156.100 M192.700 155.999 C 193.071 156.415,193.200 159.070,193.200 166.280 C 193.200 176.805,193.274 177.119,195.230 174.900 L 196.200 173.800 195.174 174.700 C 194.610 175.195,194.025 175.600,193.874 175.600 C 193.723 175.600,193.600 171.302,193.600 166.049 C 193.600 157.421,193.532 156.447,192.900 155.968 C 192.304 155.518,192.275 155.522,192.700 155.999 M33.900 156.298 C 35.715 156.372,38.685 156.372,40.500 156.298 C 42.315 156.223,40.830 156.163,37.200 156.163 C 33.570 156.163,32.085 156.223,33.900 156.298 M75.682 156.296 C 77.158 156.373,79.678 156.373,81.282 156.297 C 82.887 156.221,81.680 156.158,78.600 156.158 C 75.520 156.157,74.207 156.219,75.682 156.296 M116.082 156.296 C 117.558 156.373,120.078 156.373,121.682 156.297 C 123.287 156.221,122.080 156.158,119.000 156.158 C 115.920 156.157,114.607 156.219,116.082 156.296 M84.700 156.799 C 85.412 157.598,85.432 215.208,84.720 215.920 C 84.400 216.240,82.306 216.429,78.420 216.488 L 72.600 216.576 78.356 216.699 C 83.303 216.805,84.217 216.728,84.856 216.149 C 85.979 215.133,86.021 157.617,84.900 156.768 C 84.304 156.318,84.275 156.322,84.700 156.799 M71.390 186.400 C 71.390 202.350,71.439 208.875,71.500 200.900 C 71.560 192.925,71.560 179.875,71.500 171.900 C 71.439 163.925,71.390 170.450,71.390 186.400 M204.900 171.091 C 205.725 171.178,207.075 171.178,207.900 171.091 C 208.725 171.005,208.050 170.934,206.400 170.934 C 204.750 170.934,204.075 171.005,204.900 171.091 M283.300 171.094 C 284.345 171.176,286.055 171.176,287.100 171.094 C 288.145 171.012,287.290 170.944,285.200 170.944 C 283.110 170.944,282.255 171.012,283.300 171.094 M159.949 172.300 C 159.466 172.916,159.475 172.942,160.026 172.513 C 160.422 172.204,162.548 171.979,165.826 171.899 L 171.000 171.774 165.749 171.687 C 161.159 171.611,160.429 171.688,159.949 172.300 M232.660 171.900 C 232.558 172.065,234.032 172.152,235.937 172.093 C 242.328 171.895,243.038 171.745,237.924 171.672 C 235.132 171.632,232.763 171.735,232.660 171.900 M256.112 171.895 C 257.164 171.977,258.784 171.976,259.712 171.892 C 260.640 171.808,259.780 171.741,257.800 171.742 C 255.820 171.743,255.060 171.812,256.112 171.895 M313.862 172.331 C 313.498 172.734,313.200 173.204,313.200 173.376 C 313.200 173.548,313.515 173.310,313.900 172.848 C 314.532 172.089,315.087 171.996,319.600 171.890 L 324.600 171.773 319.562 171.686 C 315.122 171.610,314.445 171.687,313.862 172.331 M337.900 171.893 C 338.835 171.977,340.365 171.977,341.300 171.893 C 342.235 171.809,341.470 171.740,339.600 171.740 C 337.730 171.740,336.965 171.809,337.900 171.893 M348.517 171.897 C 350.011 171.974,352.351 171.974,353.717 171.896 C 355.082 171.818,353.860 171.755,351.000 171.755 C 348.140 171.756,347.022 171.820,348.517 171.897 M383.100 171.896 C 384.475 171.974,386.725 171.974,388.100 171.896 C 389.475 171.818,388.350 171.754,385.600 171.754 C 382.850 171.754,381.725 171.818,383.100 171.896 M273.500 173.227 C 272.675 173.663,272.000 174.108,272.000 174.218 C 272.000 174.396,275.159 172.919,275.567 172.551 C 276.027 172.134,274.825 172.528,273.500 173.227 M216.000 173.483 C 216.550 173.877,217.810 174.913,218.800 175.784 L 220.600 177.369 219.107 175.775 C 218.286 174.898,217.026 173.862,216.307 173.473 C 215.044 172.789,215.034 172.790,216.000 173.483 M243.937 175.037 C 244.093 177.494,244.275 177.614,245.630 176.157 C 246.164 175.584,247.500 174.596,248.600 173.961 C 250.704 172.748,250.817 172.357,248.756 173.423 C 248.094 173.765,246.843 174.686,245.976 175.469 L 244.400 176.893 244.400 175.070 C 244.400 174.068,244.265 173.163,244.100 173.061 C 243.935 172.958,243.862 173.848,243.937 175.037 M159.386 194.200 C 159.386 205.860,159.437 210.572,159.500 204.672 C 159.562 198.771,159.562 189.231,159.500 183.472 C 159.437 177.712,159.386 182.540,159.386 194.200 M325.672 174.876 C 325.580 177.261,325.987 177.494,327.439 175.886 L 328.600 174.600 327.324 175.752 L 326.048 176.904 325.896 174.952 L 325.744 173.000 325.672 174.876 M344.000 177.600 C 344.000 180.093,344.079 182.054,344.175 181.958 C 344.457 181.676,344.529 173.595,344.252 173.318 C 344.113 173.180,344.000 175.107,344.000 177.600 M172.186 194.200 C 172.186 205.640,172.237 210.262,172.300 204.472 C 172.362 198.682,172.362 189.322,172.300 183.672 C 172.237 178.022,172.186 182.760,172.186 194.200 M262.550 177.800 C 262.551 180.220,262.616 181.158,262.696 179.885 C 262.776 178.612,262.775 176.632,262.694 175.485 C 262.614 174.338,262.549 175.380,262.550 177.800 M300.400 175.800 C 301.146 176.570,301.847 177.200,301.957 177.200 C 302.067 177.200,301.546 176.570,300.800 175.800 C 300.054 175.030,299.353 174.400,299.243 174.400 C 299.133 174.400,299.654 175.030,300.400 175.800 M303.078 179.395 C 303.444 180.162,303.814 180.719,303.901 180.632 C 304.084 180.449,302.870 178.000,302.596 178.000 C 302.495 178.000,302.712 178.628,303.078 179.395 M196.336 183.500 C 195.041 184.905,194.000 186.462,194.001 186.989 C 194.002 187.215,194.381 186.770,194.842 186.000 C 195.304 185.230,196.147 184.105,196.716 183.500 C 197.284 182.895,197.660 182.400,197.550 182.400 C 197.440 182.400,196.894 182.895,196.336 183.500 M261.773 182.787 C 261.560 183.000,259.139 183.231,256.393 183.300 L 251.400 183.427 256.451 183.514 C 260.529 183.583,261.598 183.484,262.000 183.000 C 262.551 182.336,262.383 182.177,261.773 182.787 M343.374 182.786 C 343.161 182.999,340.830 183.230,338.194 183.300 L 333.400 183.428 338.251 183.514 C 342.151 183.583,343.200 183.482,343.600 183.000 C 344.151 182.336,343.983 182.177,343.374 182.786 M246.647 186.001 C 245.851 186.882,245.205 187.827,245.212 188.101 C 245.219 188.376,245.423 188.240,245.665 187.800 C 245.907 187.360,246.657 186.415,247.331 185.700 C 248.005 184.985,248.453 184.400,248.325 184.400 C 248.197 184.400,247.442 185.121,246.647 186.001 M269.317 184.697 C 270.811 184.774,273.151 184.774,274.517 184.696 C 275.882 184.618,274.660 184.555,271.800 184.555 C 268.940 184.556,267.822 184.620,269.317 184.697 M328.575 185.700 L 327.400 187.000 328.700 185.825 C 329.415 185.179,330.000 184.594,330.000 184.525 C 330.000 184.216,329.670 184.488,328.575 185.700 M385.665 187.417 C 384.995 188.888,385.123 189.202,385.847 187.865 C 386.186 187.240,386.388 186.654,386.296 186.563 C 386.205 186.471,385.921 186.856,385.665 187.417 M305.200 200.826 C 305.200 209.847,305.049 215.164,304.778 215.726 C 304.370 216.570,304.377 216.574,304.978 215.824 C 305.581 215.070,305.993 186.800,305.400 186.800 C 305.290 186.800,305.200 193.112,305.200 200.826 M224.501 188.600 C 224.505 189.480,224.587 189.793,224.683 189.295 C 224.779 188.798,224.775 188.078,224.675 187.695 C 224.575 187.313,224.496 187.720,224.501 188.600 M193.346 193.800 C 193.347 196.000,193.414 196.849,193.495 195.687 C 193.576 194.524,193.576 192.724,193.493 191.687 C 193.411 190.649,193.345 191.600,193.346 193.800 M224.937 194.200 C 224.939 195.960,225.009 196.630,225.093 195.689 C 225.178 194.749,225.177 193.309,225.091 192.489 C 225.005 191.670,224.936 192.440,224.937 194.200 M32.478 194.298 C 34.831 194.369,38.791 194.369,41.278 194.299 C 43.765 194.229,41.840 194.171,37.000 194.170 C 32.160 194.170,30.125 194.228,32.478 194.298 M265.775 196.100 L 264.600 197.400 265.900 196.225 C 266.615 195.579,267.200 194.994,267.200 194.925 C 267.200 194.616,266.870 194.888,265.775 196.100 M291.993 197.719 L 292.185 199.800 292.318 198.046 C 292.391 197.081,292.305 196.144,292.126 195.965 C 291.947 195.785,291.887 196.575,291.993 197.719 M263.781 198.837 C 263.429 199.518,263.212 200.145,263.299 200.232 C 263.386 200.319,263.756 199.762,264.122 198.995 C 264.944 197.270,264.659 197.138,263.781 198.837 M224.501 199.800 C 224.505 200.680,224.587 200.993,224.683 200.495 C 224.779 199.998,224.775 199.278,224.675 198.895 C 224.575 198.513,224.496 198.920,224.501 199.800 M276.029 200.654 C 275.573 201.234,275.215 202.089,275.234 202.554 C 275.261 203.220,275.342 203.157,275.611 202.257 C 275.800 201.628,276.262 200.773,276.639 200.357 C 277.016 199.941,277.219 199.600,277.091 199.600 C 276.963 199.600,276.485 200.074,276.029 200.654 M195.114 203.400 C 195.341 203.840,196.038 204.649,196.663 205.199 L 197.800 206.197 196.603 204.799 C 194.707 202.582,194.680 202.558,195.114 203.400 M223.280 205.080 C 223.030 205.894,222.892 206.626,222.973 206.706 C 223.054 206.787,223.336 206.199,223.600 205.400 C 223.864 204.601,224.002 203.869,223.907 203.774 C 223.812 203.678,223.530 204.266,223.280 205.080 M208.749 204.665 C 208.447 205.030,207.660 205.660,207.000 206.063 C 206.340 206.467,206.028 206.798,206.306 206.799 C 206.808 206.800,210.029 204.032,209.549 204.011 C 209.411 204.005,209.051 204.299,208.749 204.665 M132.700 205.099 C 136.495 205.165,142.705 205.165,146.500 205.099 C 150.295 205.034,147.190 204.980,139.600 204.980 C 132.010 204.980,128.905 205.034,132.700 205.099 M288.975 206.100 L 287.800 207.400 289.100 206.225 C 289.815 205.579,290.400 204.994,290.400 204.925 C 290.400 204.616,290.070 204.888,288.975 206.100 M30.900 205.499 C 34.365 205.566,40.035 205.566,43.500 205.499 C 46.965 205.433,44.130 205.378,37.200 205.378 C 30.270 205.378,27.435 205.433,30.900 205.499 M154.948 210.800 C 154.948 213.110,155.014 214.055,155.095 212.900 C 155.176 211.745,155.176 209.855,155.095 208.700 C 155.014 207.545,154.948 208.490,154.948 210.800 M281.905 208.683 C 282.402 208.779,283.122 208.775,283.505 208.675 C 283.887 208.575,283.480 208.496,282.600 208.501 C 281.720 208.505,281.407 208.587,281.905 208.683 M375.665 210.617 C 374.995 212.088,375.123 212.402,375.847 211.065 C 376.186 210.440,376.388 209.854,376.296 209.763 C 376.205 209.671,375.921 210.056,375.665 210.617 M192.822 211.900 C 192.834 212.065,193.419 212.638,194.122 213.174 L 195.400 214.149 194.225 212.874 C 193.003 211.549,192.785 211.397,192.822 211.900 M291.549 212.300 C 291.056 212.929,291.069 212.946,291.676 212.471 C 292.284 211.995,292.367 212.115,292.506 213.671 L 292.660 215.400 292.730 213.500 C 292.804 211.496,292.456 211.143,291.549 212.300 M66.446 214.620 C 66.356 216.217,65.687 216.400,59.949 216.400 C 54.493 216.400,54.453 216.393,53.629 215.346 C 53.173 214.766,52.800 214.465,52.800 214.676 C 52.800 216.284,54.565 216.800,60.064 216.800 C 65.860 216.800,67.154 216.356,66.681 214.530 C 66.517 213.892,66.487 213.904,66.446 214.620 M112.000 215.049 C 112.000 216.785,112.375 216.813,133.636 216.700 L 153.800 216.592 133.523 216.496 L 113.245 216.400 112.623 215.511 C 112.280 215.022,112.000 214.814,112.000 215.049 M269.200 214.996 C 269.200 215.270,271.649 216.484,271.832 216.301 C 271.919 216.214,271.362 215.844,270.595 215.478 C 269.828 215.112,269.200 214.895,269.200 214.996 M287.200 215.600 C 286.430 216.022,285.944 216.374,286.120 216.383 C 286.544 216.405,288.800 215.232,288.800 214.990 C 288.800 214.728,288.777 214.737,287.200 215.600 M8.349 216.100 C 8.832 216.716,9.578 216.789,14.549 216.712 L 20.200 216.625 14.627 216.500 C 11.026 216.420,8.832 216.204,8.427 215.888 C 7.875 215.458,7.865 215.483,8.349 216.100 M159.968 216.100 C 160.426 216.705,161.219 216.800,165.800 216.800 C 170.381 216.800,171.174 216.705,171.632 216.100 C 172.082 215.504,172.078 215.475,171.601 215.900 C 171.213 216.246,169.426 216.400,165.800 216.400 C 162.174 216.400,160.387 216.246,159.999 215.900 C 159.522 215.475,159.518 215.504,159.968 216.100 M181.551 216.513 C 181.724 216.685,184.101 216.774,186.833 216.711 L 191.800 216.597 186.519 216.398 C 183.614 216.289,181.379 216.341,181.551 216.513 M238.200 216.400 L 232.600 216.635 238.076 216.717 C 241.388 216.767,243.650 216.642,243.800 216.400 C 243.936 216.180,243.992 216.037,243.924 216.083 C 243.856 216.128,241.280 216.271,238.200 216.400 M296.517 216.697 C 298.011 216.774,300.351 216.774,301.717 216.696 C 303.082 216.618,301.860 216.555,299.000 216.555 C 296.140 216.556,295.022 216.620,296.517 216.697 M316.882 216.696 C 318.358 216.773,320.878 216.773,322.482 216.697 C 324.087 216.621,322.880 216.558,319.800 216.558 C 316.720 216.557,315.407 216.619,316.882 216.696 M203.300 217.476 C 203.685 217.576,204.315 217.576,204.700 217.476 C 205.085 217.375,204.770 217.293,204.000 217.293 C 203.230 217.293,202.915 217.375,203.300 217.476 M208.100 217.476 C 208.485 217.576,209.115 217.576,209.500 217.476 C 209.885 217.375,209.570 217.293,208.800 217.293 C 208.030 217.293,207.715 217.375,208.100 217.476 M355.265 228.617 C 354.595 230.088,354.723 230.402,355.447 229.065 C 355.786 228.440,355.988 227.854,355.896 227.763 C 355.805 227.671,355.521 228.056,355.265 228.617 M357.900 233.096 C 359.275 233.174,361.525 233.174,362.900 233.096 C 364.275 233.018,363.150 232.954,360.400 232.954 C 357.650 232.954,356.525 233.018,357.900 233.096 M219.400 240.603 C 220.314 240.921,222.729 241.009,222.548 240.716 C 222.441 240.542,221.598 240.414,220.676 240.432 C 219.754 240.449,219.180 240.526,219.400 240.603 M125.300 241.076 C 125.685 241.176,126.315 241.176,126.700 241.076 C 127.085 240.975,126.770 240.893,126.000 240.893 C 125.230 240.893,124.915 240.975,125.300 241.076 M264.667 241.067 C 264.520 241.213,264.400 242.736,264.400 244.450 L 264.400 247.568 261.100 247.702 L 257.800 247.837 261.272 247.919 L 264.743 248.000 264.872 244.399 C 264.942 242.419,264.985 240.799,264.967 240.799 C 264.948 240.800,264.813 240.920,264.667 241.067 M128.134 244.000 C 128.134 245.650,128.205 246.325,128.291 245.500 C 128.378 244.675,128.378 243.325,128.291 242.500 C 128.205 241.675,128.134 242.350,128.134 244.000 M160.300 241.496 C 161.675 241.574,163.925 241.574,165.300 241.496 C 166.675 241.418,165.550 241.354,162.800 241.354 C 160.050 241.354,158.925 241.418,160.300 241.496 M174.171 250.000 C 174.171 254.950,174.228 256.975,174.299 254.500 C 174.369 252.025,174.369 247.975,174.299 245.500 C 174.228 243.025,174.171 245.050,174.171 250.000 M124.170 250.200 C 124.171 255.040,124.229 256.965,124.299 254.478 C 124.369 251.991,124.369 248.031,124.298 245.678 C 124.228 243.325,124.170 245.360,124.170 250.200 M254.170 250.000 C 254.170 254.730,254.228 256.665,254.298 254.300 C 254.369 251.935,254.369 248.065,254.298 245.700 C 254.228 243.335,254.170 245.270,254.170 250.000 M220.800 243.600 L 219.000 243.880 220.676 243.940 C 221.598 243.973,222.464 243.820,222.600 243.600 C 222.736 243.380,222.792 243.227,222.724 243.260 C 222.656 243.293,221.790 243.446,220.800 243.600 M164.392 244.699 C 166.071 244.792,167.269 245.082,167.792 245.521 C 168.595 246.196,168.595 246.195,167.838 245.300 C 167.175 244.517,166.734 244.410,164.438 244.477 L 161.800 244.554 164.392 244.699 M138.267 245.867 C 138.120 246.013,138.003 246.328,138.006 246.567 C 138.009 246.805,138.168 246.754,138.359 246.453 C 138.588 246.091,139.249 245.959,140.319 246.061 C 141.206 246.145,141.847 246.076,141.743 245.907 C 141.510 245.531,138.636 245.497,138.267 245.867 M148.657 245.907 C 148.553 246.076,149.172 246.148,150.034 246.065 C 150.895 245.983,151.600 245.845,151.600 245.758 C 151.600 245.460,148.847 245.600,148.657 245.907 M188.667 245.867 C 188.520 246.013,188.403 246.328,188.406 246.567 C 188.409 246.805,188.568 246.754,188.759 246.453 C 188.988 246.091,189.649 245.959,190.719 246.061 C 191.606 246.145,192.247 246.076,192.143 245.907 C 191.910 245.531,189.036 245.497,188.667 245.867 M199.057 245.907 C 198.953 246.076,199.572 246.148,200.434 246.065 C 201.295 245.983,202.000 245.845,202.000 245.758 C 202.000 245.460,199.247 245.600,199.057 245.907 M205.300 246.396 C 204.585 246.832,204.000 247.285,204.000 247.403 C 204.000 247.522,204.487 247.299,205.082 246.909 C 205.677 246.519,207.162 246.091,208.382 245.959 L 210.600 245.718 208.600 245.660 C 207.230 245.621,206.190 245.853,205.300 246.396 M213.700 245.876 C 214.085 245.976,214.715 245.976,215.100 245.876 C 215.485 245.775,215.170 245.693,214.400 245.693 C 213.630 245.693,213.315 245.775,213.700 245.876 M218.985 246.094 C 218.872 246.391,218.833 249.416,218.900 252.817 L 219.022 259.000 219.111 252.500 L 219.200 246.000 220.790 246.000 L 222.380 246.000 222.505 252.300 L 222.630 258.600 222.615 252.200 L 222.600 245.800 220.896 245.677 C 219.743 245.593,219.126 245.728,218.985 246.094 M232.077 245.880 C 233.881 246.036,233.961 246.096,234.119 247.424 C 234.282 248.794,234.283 248.793,234.242 247.303 L 234.200 245.800 232.200 245.759 L 230.200 245.718 232.077 245.880 M240.700 245.889 C 241.415 245.978,242.585 245.978,243.300 245.889 C 244.015 245.801,243.430 245.728,242.000 245.728 C 240.570 245.728,239.985 245.801,240.700 245.889 M216.124 248.200 C 216.126 249.520,216.201 250.012,216.290 249.293 C 216.379 248.574,216.377 247.494,216.286 246.893 C 216.195 246.292,216.122 246.880,216.124 248.200 M269.900 247.893 C 270.835 247.977,272.365 247.977,273.300 247.893 C 274.235 247.809,273.470 247.740,271.600 247.740 C 269.730 247.740,268.965 247.809,269.900 247.893 M257.200 249.576 C 257.200 250.223,257.342 250.841,257.516 250.948 C 257.690 251.056,257.761 250.527,257.673 249.772 C 257.476 248.091,257.200 247.977,257.200 249.576 M202.924 252.200 C 202.926 253.520,203.001 254.012,203.090 253.293 C 203.179 252.574,203.177 251.494,203.086 250.893 C 202.995 250.292,202.922 250.880,202.924 252.200 M206.909 252.000 C 206.909 252.990,206.987 253.395,207.082 252.900 C 207.178 252.405,207.178 251.595,207.082 251.100 C 206.987 250.605,206.909 251.010,206.909 252.000 M128.101 252.200 C 128.105 253.080,128.187 253.393,128.283 252.895 C 128.379 252.398,128.375 251.678,128.275 251.295 C 128.175 250.913,128.096 251.320,128.101 252.200 M194.026 250.886 C 193.982 251.379,195.333 254.000,195.631 254.000 C 196.003 254.000,196.479 252.746,196.209 252.476 C 196.094 252.361,196.000 252.477,196.000 252.733 C 196.000 253.617,195.344 253.197,194.698 251.900 C 194.342 251.185,194.040 250.729,194.026 250.886 M264.540 254.400 C 264.540 256.270,264.609 257.035,264.693 256.100 C 264.777 255.165,264.777 253.635,264.693 252.700 C 264.609 251.765,264.540 252.530,264.540 254.400 M162.079 255.500 L 162.159 258.600 162.297 255.719 L 162.434 252.839 164.717 252.695 L 167.000 252.551 164.500 252.476 L 162.000 252.400 162.079 255.500 M242.800 253.077 C 243.350 253.189,243.949 253.488,244.130 253.740 C 244.351 254.048,244.407 254.001,244.300 253.600 C 244.209 253.262,243.629 252.972,242.969 252.937 C 241.962 252.882,241.939 252.901,242.800 253.077 M230.412 254.651 C 230.390 255.480,231.534 256.056,232.874 255.891 L 234.200 255.728 232.720 255.664 C 231.783 255.623,231.090 255.343,230.832 254.900 C 230.608 254.515,230.419 254.403,230.412 254.651 M209.800 255.600 L 208.600 255.905 209.676 255.953 C 210.268 255.979,210.864 255.820,211.000 255.600 C 211.136 255.380,211.192 255.221,211.124 255.247 C 211.056 255.273,210.460 255.432,209.800 255.600 M193.044 257.400 C 193.373 258.871,193.602 259.190,193.594 258.167 C 193.591 257.745,193.405 257.130,193.182 256.800 C 192.885 256.362,192.848 256.524,193.044 257.400 M145.665 260.617 C 144.995 262.088,145.123 262.402,145.847 261.065 C 146.186 260.440,146.388 259.854,146.296 259.763 C 146.205 259.671,145.921 260.056,145.665 260.617 M196.065 260.617 C 195.395 262.088,195.523 262.402,196.247 261.065 C 196.586 260.440,196.788 259.854,196.696 259.763 C 196.605 259.671,196.321 260.056,196.065 260.617 M207.275 260.600 C 207.753 261.150,208.283 261.600,208.453 261.600 C 208.623 261.600,208.345 261.150,207.835 260.600 C 207.325 260.050,206.795 259.600,206.657 259.600 C 206.518 259.600,206.797 260.050,207.275 260.600 M203.206 260.859 C 203.200 261.564,205.733 264.000,206.473 264.000 C 206.718 264.000,206.309 263.590,205.565 263.088 C 204.821 262.586,203.987 261.731,203.712 261.188 C 203.377 260.527,203.210 260.418,203.206 260.859 " stroke="none" fill="#e4bcfc" fill-rule="evenodd"></path><path id="path4" d="M162.900 153.497 C 164.385 153.574,166.815 153.574,168.300 153.497 C 169.785 153.420,168.570 153.357,165.600 153.357 C 162.630 153.357,161.415 153.420,162.900 153.497 M158.951 159.200 C 158.951 161.730,159.016 162.765,159.096 161.500 C 159.175 160.235,159.175 158.165,159.096 156.900 C 159.016 155.635,158.951 156.670,158.951 159.200 M172.548 159.200 C 172.548 161.510,172.614 162.455,172.695 161.300 C 172.776 160.145,172.776 158.255,172.695 157.100 C 172.614 155.945,172.548 156.890,172.548 159.200 M193.692 166.300 C 193.602 175.399,193.728 176.332,194.851 174.900 C 195.347 174.267,195.333 174.252,194.708 174.743 C 194.056 175.253,194.008 174.745,193.900 166.143 L 193.784 157.000 193.692 166.300 M126.188 181.200 C 126.188 194.290,126.238 199.645,126.300 193.100 C 126.361 186.555,126.361 175.845,126.300 169.300 C 126.238 162.755,126.188 168.110,126.188 181.200 M162.882 165.096 C 164.358 165.173,166.878 165.173,168.482 165.097 C 170.087 165.021,168.880 164.958,165.800 164.958 C 162.720 164.957,161.407 165.019,162.882 165.096 M231.386 194.200 C 231.386 205.860,231.437 210.572,231.500 204.672 C 231.562 198.771,231.562 189.231,231.500 183.472 C 231.437 177.712,231.386 182.540,231.386 194.200 M312.986 194.400 C 312.986 205.950,313.037 210.675,313.100 204.900 C 313.162 199.125,313.162 189.675,313.100 183.900 C 313.037 178.125,312.986 182.850,312.986 194.400 M201.905 181.483 C 202.402 181.579,203.122 181.575,203.505 181.475 C 203.887 181.375,203.480 181.296,202.600 181.301 C 201.720 181.305,201.407 181.387,201.905 181.483 M253.317 183.897 C 254.811 183.974,257.151 183.974,258.517 183.896 C 259.882 183.818,258.660 183.755,255.800 183.755 C 252.940 183.756,251.822 183.820,253.317 183.897 M334.917 183.897 C 336.411 183.974,338.751 183.974,340.117 183.896 C 341.482 183.818,340.260 183.755,337.400 183.755 C 334.540 183.756,333.422 183.820,334.917 183.897 M269.700 185.096 C 270.965 185.175,273.035 185.175,274.300 185.096 C 275.565 185.016,274.530 184.951,272.000 184.951 C 269.470 184.951,268.435 185.016,269.700 185.096 M224.901 189.800 C 224.905 190.680,224.987 190.993,225.083 190.495 C 225.179 189.998,225.175 189.278,225.075 188.895 C 224.975 188.513,224.896 188.920,224.901 189.800 M193.701 190.600 C 193.705 191.480,193.787 191.793,193.883 191.295 C 193.979 190.798,193.975 190.078,193.875 189.695 C 193.775 189.313,193.696 189.720,193.701 190.600 M244.978 202.800 C 244.978 209.730,245.033 212.565,245.099 209.100 C 245.166 205.635,245.166 199.965,245.099 196.500 C 245.033 193.035,244.978 195.870,244.978 202.800 M326.578 203.200 C 326.578 209.910,326.632 212.655,326.699 209.300 C 326.766 205.945,326.766 200.455,326.699 197.100 C 326.632 193.745,326.578 196.490,326.578 203.200 M211.331 194.200 C 211.333 195.740,211.405 196.321,211.492 195.491 C 211.579 194.661,211.577 193.401,211.489 192.691 C 211.400 191.981,211.329 192.660,211.331 194.200 M193.709 197.200 C 193.709 198.190,193.787 198.595,193.882 198.100 C 193.978 197.605,193.978 196.795,193.882 196.300 C 193.787 195.805,193.709 196.210,193.709 197.200 M224.893 198.400 C 224.893 199.170,224.975 199.485,225.076 199.100 C 225.176 198.715,225.176 198.085,225.076 197.700 C 224.975 197.315,224.893 197.630,224.893 198.400 M262.501 204.200 C 262.505 205.080,262.587 205.393,262.683 204.895 C 262.779 204.398,262.775 203.678,262.675 203.295 C 262.575 202.913,262.496 203.320,262.501 204.200 M201.705 207.087 C 202.314 207.179,203.214 207.177,203.705 207.082 C 204.197 206.987,203.700 206.911,202.600 206.914 C 201.500 206.917,201.097 206.995,201.705 207.087 M290.975 213.300 L 289.800 214.600 291.100 213.425 C 291.815 212.779,292.400 212.194,292.400 212.125 C 292.400 211.816,292.070 212.088,290.975 213.300 M192.909 214.000 C 192.909 214.990,192.987 215.395,193.082 214.900 C 193.178 214.405,193.178 213.595,193.082 213.100 C 192.987 212.605,192.909 213.010,192.909 214.000 M222.600 242.200 C 222.600 243.148,222.735 243.840,222.900 243.738 C 223.065 243.636,223.200 242.944,223.200 242.200 C 223.200 241.456,223.065 240.764,222.900 240.662 C 222.735 240.560,222.600 241.252,222.600 242.200 M175.305 241.087 C 175.914 241.179,176.814 241.177,177.305 241.082 C 177.797 240.987,177.300 240.911,176.200 240.914 C 175.100 240.917,174.697 240.995,175.305 241.087 M227.905 241.083 C 228.402 241.179,229.122 241.175,229.505 241.075 C 229.887 240.975,229.480 240.896,228.600 240.901 C 227.720 240.905,227.407 240.987,227.905 241.083 M251.000 241.003 C 251.914 241.321,254.329 241.409,254.148 241.116 C 254.041 240.942,253.198 240.814,252.276 240.832 C 251.354 240.849,250.780 240.926,251.000 241.003 M226.524 243.400 C 226.526 244.720,226.601 245.212,226.690 244.493 C 226.779 243.774,226.777 242.694,226.686 242.093 C 226.595 241.492,226.522 242.080,226.524 243.400 M157.788 250.167 C 157.798 257.613,157.890 258.958,158.400 259.097 C 158.836 259.216,158.865 259.165,158.508 258.912 C 158.152 258.659,157.983 256.197,157.896 249.981 L 157.775 241.400 157.788 250.167 M230.520 243.600 C 230.520 244.810,230.595 245.305,230.687 244.700 C 230.778 244.095,230.778 243.105,230.687 242.500 C 230.595 241.895,230.520 242.390,230.520 243.600 M162.167 247.098 L 162.200 249.400 164.000 249.433 L 165.800 249.465 164.119 249.312 L 162.439 249.158 162.286 246.977 L 162.134 244.796 162.167 247.098 M131.300 245.476 C 131.685 245.576,132.315 245.576,132.700 245.476 C 133.085 245.375,132.770 245.293,132.000 245.293 C 131.230 245.293,130.915 245.375,131.300 245.476 M181.700 245.476 C 182.085 245.576,182.715 245.576,183.100 245.476 C 183.485 245.375,183.170 245.293,182.400 245.293 C 181.630 245.293,181.315 245.375,181.700 245.476 M207.700 245.476 C 208.085 245.576,208.715 245.576,209.100 245.476 C 209.485 245.375,209.170 245.293,208.400 245.293 C 207.630 245.293,207.315 245.375,207.700 245.476 M241.105 245.483 C 241.602 245.579,242.322 245.575,242.705 245.475 C 243.087 245.375,242.680 245.296,241.800 245.301 C 240.920 245.305,240.607 245.387,241.105 245.483 M223.756 246.171 C 223.635 246.485,223.616 247.160,223.714 247.671 C 223.852 248.397,223.903 248.323,223.946 247.333 C 223.975 246.637,224.225 245.976,224.500 245.865 C 224.892 245.707,224.889 245.656,224.487 245.632 C 224.206 245.614,223.876 245.857,223.756 246.171 M216.564 253.000 C 216.563 256.740,216.623 258.324,216.697 256.520 C 216.771 254.715,216.772 251.655,216.698 249.720 C 216.625 247.784,216.564 249.260,216.564 253.000 M222.961 252.400 C 222.961 255.810,223.022 257.205,223.097 255.500 C 223.172 253.795,223.172 251.005,223.097 249.300 C 223.022 247.595,222.961 248.990,222.961 252.400 M275.568 249.700 C 275.449 250.560,275.510 251.050,275.712 250.848 C 275.905 250.655,275.998 249.981,275.919 249.349 C 275.787 248.291,275.759 248.319,275.568 249.700 M230.534 251.600 C 230.534 253.250,230.605 253.925,230.691 253.100 C 230.778 252.275,230.778 250.925,230.691 250.100 C 230.605 249.275,230.534 249.950,230.534 251.600 M226.542 252.600 C 226.541 254.580,226.608 255.440,226.692 254.512 C 226.776 253.584,226.777 251.964,226.695 250.912 C 226.612 249.860,226.543 250.620,226.542 252.600 M187.750 254.200 C 187.751 256.620,187.816 257.558,187.896 256.285 C 187.976 255.012,187.975 253.032,187.894 251.885 C 187.814 250.738,187.749 251.780,187.750 254.200 M137.701 252.200 C 137.705 253.080,137.787 253.393,137.883 252.895 C 137.979 252.398,137.975 251.678,137.875 251.295 C 137.775 250.913,137.696 251.320,137.701 252.200 M183.377 254.800 L 183.400 259.000 185.502 259.035 L 187.605 259.070 185.616 258.914 L 183.628 258.759 183.491 254.680 L 183.354 250.600 183.377 254.800 M133.293 252.400 C 133.293 253.170,133.375 253.485,133.476 253.100 C 133.576 252.715,133.576 252.085,133.476 251.700 C 133.375 251.315,133.293 251.630,133.293 252.400 M234.846 255.124 C 234.817 255.713,234.633 255.944,234.338 255.762 C 234.041 255.578,233.985 255.653,234.183 255.973 C 234.619 256.678,235.323 255.872,235.084 254.942 C 234.930 254.345,234.884 254.381,234.846 255.124 M232.400 258.800 L 230.200 259.070 232.276 259.135 C 233.418 259.171,234.464 259.020,234.600 258.800 C 234.736 258.580,234.792 258.429,234.724 258.465 C 234.656 258.501,233.610 258.652,232.400 258.800 M252.400 258.800 L 250.600 259.080 252.276 259.140 C 253.198 259.173,254.064 259.020,254.200 258.800 C 254.336 258.580,254.392 258.427,254.324 258.460 C 254.256 258.493,253.390 258.646,252.400 258.800 M175.305 259.087 C 175.914 259.179,176.814 259.177,177.305 259.082 C 177.797 258.987,177.300 258.911,176.200 258.914 C 175.100 258.917,174.697 258.995,175.305 259.087 M219.900 259.082 C 220.395 259.178,221.205 259.178,221.700 259.082 C 222.195 258.987,221.790 258.909,220.800 258.909 C 219.810 258.909,219.405 258.987,219.900 259.082 M245.100 259.082 C 245.595 259.178,246.405 259.178,246.900 259.082 C 247.395 258.987,246.990 258.909,246.000 258.909 C 245.010 258.909,244.605 258.987,245.100 259.082 M141.166 263.726 C 141.347 263.907,142.193 263.993,143.047 263.919 L 144.600 263.783 142.719 263.590 C 141.684 263.484,140.985 263.545,141.166 263.726 M191.566 263.726 C 191.747 263.907,192.593 263.993,193.447 263.919 L 195.000 263.783 193.119 263.590 C 192.084 263.484,191.385 263.545,191.566 263.726 M208.905 264.687 C 209.514 264.779,210.414 264.777,210.905 264.682 C 211.397 264.587,210.900 264.511,209.800 264.514 C 208.700 264.517,208.297 264.595,208.905 264.687 " stroke="none" fill="#f0d9fc" fill-rule="evenodd"></path></g></svg>