<?xml version="1.0" standalone="no"?>
<!DOCTYPE svg PUBLIC "-//W3C//DTD SVG 20010904//EN"
 "http://www.w3.org/TR/2001/REC-SVG-20010904/DTD/svg10.dtd">
<svg version="1.0" xmlns="http://www.w3.org/2000/svg"
 width="332.000000pt" height="780.000000pt" viewBox="0 0 332.000000 780.000000"
 preserveAspectRatio="xMidYMid meet">

<g transform="translate(0.000000,780.000000) scale(0.100000,-0.100000)"
fill="#766FDE" stroke="none">
<path d="M1080 7172 l-1065 -618 -3 -324 c-2 -179 0 -384 3 -456 l7 -131 316
-7 c581 -13 726 -44 873 -185 38 -36 69 -62 69 -56 0 5 11 98 25 205 14 107
25 196 25 198 0 1 443 2 983 2 l984 0 6 173 c4 94 7 542 7 995 l0 822 -582 -1
-583 0 -1065 -617z"/>
<path d="M1516 5543 c-3 -21 -38 -281 -76 -578 -38 -297 -72 -550 -74 -562
l-3 -23 163 0 164 0 0 54 c0 29 3 74 6 100 l7 46 58 0 c66 0 63 6 74 -132 l7
-78 155 0 155 0 -6 28 c-3 15 -42 277 -86 582 -44 305 -82 565 -85 578 l-5 22
-224 0 -224 0 -6 -37z m273 -503 c12 -113 21 -211 21 -217 0 -14 -110 -19
-110 -5 -2 29 56 440 61 434 3 -4 16 -99 28 -212z"/>
<path d="M2210 4980 l0 -600 250 0 250 0 0 120 0 120 -88 0 -89 0 -6 308 c-4
169 -7 385 -7 480 l0 172 -155 0 -155 0 0 -600z"/>
<path d="M2810 4980 l0 -600 250 0 250 0 0 120 0 120 -88 0 -89 0 -6 308 c-4
169 -7 385 -7 480 l0 172 -155 0 -155 0 0 -600z"/>
<path d="M2188 4263 l-78 -4 1 -1002 c1 -551 4 -1013 8 -1027 l7 -25 222 -3
222 -2 0 447 1 448 79 -250 c43 -137 105 -334 137 -437 l58 -188 233 0 232 0
0 1020 0 1020 -225 0 -225 0 -2 -447 -3 -448 -134 400 c-74 220 -142 424 -153
453 l-19 52 -142 -2 c-78 -1 -177 -4 -219 -5z"/>
<path d="M1366 3238 c3 -563 7 -1023 8 -1023 0 -1 117 1 259 3 l257 4 0 807
c0 444 -3 903 -7 1019 l-6 212 -259 0 -260 0 8 -1022z"/>
<path d="M2298 1993 l-938 -3 1 -823 c1 -452 5 -895 8 -985 l6 -163 925 947
c509 520 942 966 963 990 l39 44 -34 -2 c-18 -2 -455 -4 -970 -5z"/>
</g>
</svg>
