<svg id="svg" version="1.1" xmlns="http://www.w3.org/2000/svg" xmlns:xlink="http://www.w3.org/1999/xlink" width="400" height="400" viewBox="0, 0, 400,400"><g id="svgg"><path id="path0" d="M180.530 31.100 C 191.272 31.159,208.732 31.159,219.330 31.100 C 229.929 31.041,221.140 30.992,199.800 30.992 C 178.460 30.992,169.789 31.041,180.530 31.100 M238.562 31.598 C 238.305 31.855,224.501 32.032,199.582 32.098 L 161.000 32.200 161.000 40.100 L 161.000 48.000 153.200 48.040 C 148.910 48.062,145.040 48.197,144.600 48.340 C 143.814 48.595,143.800 48.953,143.800 68.661 C 143.800 87.959,143.828 88.706,144.530 88.330 C 145.180 87.982,145.211 88.032,144.808 88.785 L 144.356 89.630 152.078 89.600 C 156.325 89.583,160.032 89.576,160.316 89.584 C 160.724 89.597,160.808 91.280,160.716 97.600 L 160.600 105.601 173.896 105.600 L 187.192 105.600 187.300 124.700 L 187.408 143.800 187.504 124.700 C 187.568 111.976,187.737 105.600,188.010 105.600 C 188.287 105.600,188.385 111.969,188.310 125.100 L 188.200 144.600 115.300 144.701 L 42.400 144.802 42.400 152.801 L 42.400 160.800 35.300 160.800 L 28.200 160.800 28.308 189.600 L 28.415 218.400 21.858 218.400 L 15.300 218.400 15.050 219.650 C 14.913 220.338,14.800 235.278,14.800 252.850 L 14.800 284.800 21.595 284.800 L 28.390 284.800 28.295 313.996 C 28.213 339.117,28.280 343.222,28.777 343.412 C 29.094 343.534,32.064 343.618,35.377 343.598 C 38.690 343.579,41.625 343.571,41.900 343.581 C 42.283 343.596,42.400 345.477,42.400 351.600 L 42.400 359.600 199.600 359.600 L 356.800 359.600 356.800 351.600 L 356.800 343.600 363.800 343.600 L 370.800 343.600 370.800 314.183 L 370.800 284.765 377.996 284.883 L 385.192 285.000 385.191 251.879 C 385.191 230.162,385.055 218.843,384.795 219.003 C 384.578 219.137,384.400 219.057,384.400 218.824 C 384.400 218.086,372.140 218.258,371.855 219.000 C 370.936 221.395,370.800 217.989,370.703 190.300 L 370.600 161.000 363.700 160.891 L 356.800 160.781 356.800 152.791 L 356.800 144.800 284.100 144.753 C 244.115 144.727,211.265 144.727,211.100 144.753 C 210.935 144.779,210.800 144.620,210.800 144.400 C 210.800 144.180,210.980 144.000,211.200 144.000 C 211.461 144.000,211.600 137.333,211.600 124.800 L 211.600 105.600 225.400 105.600 L 239.200 105.600 239.200 97.608 L 239.200 89.617 247.100 89.508 L 255.000 89.400 255.104 68.700 L 255.207 48.000 247.104 47.913 L 239.000 47.826 246.800 47.600 L 254.600 47.374 246.900 47.287 L 239.200 47.200 239.137 39.700 C 239.102 35.575,239.082 31.975,239.093 31.700 C 239.115 31.097,239.072 31.088,238.562 31.598 M148.880 47.498 C 150.794 47.571,154.034 47.571,156.080 47.498 C 158.126 47.426,156.560 47.366,152.600 47.365 C 148.640 47.365,146.966 47.424,148.880 47.498 M144.700 77.872 C 144.637 83.333,144.585 78.980,144.585 68.200 C 144.585 57.420,144.637 52.953,144.700 58.272 C 144.763 63.592,144.763 72.412,144.700 77.872 M230.088 68.300 L 229.976 79.400 199.788 79.295 L 169.600 79.190 169.600 68.195 L 169.600 57.200 199.900 57.200 L 230.200 57.199 230.088 68.300 M184.470 57.900 C 192.539 57.960,205.859 57.960,214.070 57.900 C 222.282 57.839,215.680 57.790,199.400 57.790 C 183.120 57.790,176.402 57.839,184.470 57.900 M214.070 80.300 C 205.859 80.360,192.539 80.360,184.470 80.300 C 176.402 80.239,183.120 80.190,199.400 80.190 C 215.680 80.190,222.282 80.239,214.070 80.300 M157.600 88.674 C 151.202 88.962,145.290 88.975,145.461 88.700 C 145.563 88.535,148.922 88.435,152.924 88.478 C 156.926 88.521,159.030 88.609,157.600 88.674 M250.700 88.698 C 248.555 88.770,245.045 88.770,242.900 88.698 C 240.755 88.626,242.510 88.567,246.800 88.567 C 251.090 88.567,252.845 88.626,250.700 88.698 M31.919 160.298 C 33.744 160.372,36.624 160.372,38.319 160.297 C 40.014 160.222,38.520 160.161,35.000 160.162 C 31.480 160.162,30.094 160.224,31.919 160.298 M360.719 160.298 C 362.544 160.372,365.424 160.372,367.119 160.297 C 368.814 160.222,367.320 160.161,363.800 160.162 C 360.280 160.162,358.894 160.224,360.719 160.298 M200.219 170.300 C 119.050 170.356,52.504 170.536,52.339 170.701 C 52.175 170.865,118.541 170.955,199.820 170.899 L 347.600 170.798 347.600 251.999 L 347.600 333.200 199.900 333.299 L 52.200 333.398 200.000 333.600 L 347.800 333.802 200.400 333.906 C 119.330 333.964,52.596 334.119,52.103 334.251 L 51.206 334.492 51.206 252.246 L 51.206 170.000 199.503 170.099 L 347.800 170.199 200.219 170.300 M104.234 215.457 C 104.034 215.976,104.096 216.018,104.528 215.660 C 104.920 215.335,112.261 215.176,130.437 215.100 L 155.800 214.994 130.143 214.897 C 106.668 214.808,104.464 214.856,104.234 215.457 M243.538 214.900 C 243.504 214.955,243.369 218.600,243.238 223.000 L 243.000 231.000 235.400 231.209 L 227.800 231.417 235.200 231.618 L 242.600 231.819 235.287 231.910 C 229.099 231.986,227.939 231.908,227.745 231.400 C 227.618 231.070,227.332 230.800,227.108 230.800 C 226.863 230.800,226.887 231.023,227.170 231.364 C 227.691 231.991,227.100 232.632,226.400 232.200 C 226.135 232.036,226.000 238.729,226.000 251.976 C 226.000 262.989,226.045 272.029,226.100 272.064 C 226.155 272.099,229.980 272.234,234.600 272.364 L 243.000 272.600 243.200 280.400 L 243.400 288.200 269.700 288.303 L 296.000 288.406 296.000 280.411 L 296.000 272.417 303.900 272.308 L 311.800 272.200 311.883 251.600 L 311.967 231.000 303.983 231.116 L 296.000 231.232 296.000 223.016 L 296.000 214.800 269.800 214.800 C 255.390 214.800,243.572 214.845,243.538 214.900 M282.500 215.500 C 275.405 215.561,263.795 215.561,256.700 215.500 C 249.605 215.439,255.410 215.389,269.600 215.389 C 283.790 215.389,289.595 215.439,282.500 215.500 M102.884 223.430 L 103.000 231.246 95.350 231.123 C 90.365 231.043,87.754 231.139,87.854 231.400 C 87.949 231.647,90.792 231.793,95.304 231.782 L 102.600 231.764 95.800 231.885 C 92.060 231.952,88.730 232.123,88.400 232.266 C 88.070 232.409,87.572 232.489,87.293 232.444 C 86.663 232.342,86.579 272.616,87.209 273.006 C 87.419 273.135,87.501 273.007,87.390 272.721 C 87.205 272.238,94.916 272.120,101.350 272.507 L 102.900 272.600 102.828 280.494 L 102.757 288.389 129.407 288.388 C 144.065 288.388,156.217 288.487,156.413 288.608 C 156.617 288.734,156.733 285.332,156.684 280.622 L 156.600 272.416 164.600 272.308 L 172.600 272.200 172.600 251.668 L 172.600 231.135 164.700 231.183 L 156.800 231.230 156.797 223.915 L 156.794 216.600 155.717 216.100 C 154.096 215.347,105.084 215.376,104.458 216.130 C 104.186 216.458,103.970 219.392,103.892 223.830 L 103.766 231.000 103.783 223.504 C 103.796 217.737,103.681 215.962,103.284 215.810 C 102.870 215.652,102.791 217.172,102.884 223.430 M168.300 231.898 C 166.155 231.970,162.645 231.970,160.500 231.898 C 158.355 231.826,160.110 231.767,164.400 231.767 C 168.690 231.767,170.445 231.826,168.300 231.898 M307.500 231.898 C 305.355 231.970,301.845 231.970,299.700 231.898 C 297.555 231.826,299.310 231.767,303.600 231.767 C 307.890 231.767,309.645 231.826,307.500 231.898 M138.327 240.299 C 133.777 240.364,126.217 240.364,121.527 240.300 C 116.837 240.236,120.560 240.183,129.800 240.183 C 139.040 240.183,142.877 240.235,138.327 240.299 M277.700 240.300 C 273.025 240.364,265.375 240.364,260.700 240.300 C 256.025 240.236,259.850 240.183,269.200 240.183 C 278.550 240.183,282.375 240.236,277.700 240.300 M147.600 251.800 L 147.600 263.200 130.400 263.200 L 113.200 263.200 113.200 251.992 L 113.200 240.783 130.200 240.892 C 139.550 240.951,147.200 240.865,147.200 240.700 C 147.200 240.535,147.290 240.400,147.400 240.400 C 147.510 240.400,147.600 245.530,147.600 251.800 M285.900 241.052 L 286.800 241.293 286.800 252.247 L 286.800 263.200 269.600 263.200 L 252.400 263.200 252.400 252.267 C 252.400 246.253,252.520 241.213,252.667 241.067 C 252.999 240.735,284.664 240.721,285.900 241.052 M103.898 284.100 C 103.825 286.135,103.766 284.470,103.766 280.400 C 103.766 276.330,103.825 274.665,103.898 276.700 C 103.971 278.735,103.971 282.065,103.898 284.100 M117.129 289.500 C 124.240 289.561,135.760 289.561,142.729 289.500 C 149.698 289.438,143.880 289.388,129.800 289.388 C 115.720 289.388,110.018 289.439,117.129 289.500 M256.700 289.500 C 263.795 289.561,275.405 289.561,282.500 289.500 C 289.595 289.439,283.790 289.389,269.600 289.389 C 255.410 289.389,249.605 289.439,256.700 289.500 " stroke="none" fill="#0c0404" fill-rule="evenodd"></path><path id="path1" d="M159.600 38.900 L 159.600 46.800 151.600 46.800 C 143.710 46.800,143.600 46.812,143.600 47.650 C 143.600 48.389,143.764 48.467,144.850 48.250 C 145.537 48.113,149.453 48.000,153.550 48.000 L 161.000 48.000 161.000 40.100 L 161.000 32.200 199.900 32.000 C 225.647 31.868,238.854 31.935,238.959 32.200 C 239.047 32.420,239.102 32.240,239.082 31.800 C 239.045 31.006,238.766 31.000,199.322 31.000 L 159.600 31.000 159.600 38.900 M246.800 47.178 L 254.600 47.383 246.800 47.604 L 239.000 47.826 247.067 47.913 C 253.065 47.978,255.190 48.128,255.356 48.500 C 255.479 48.775,255.539 48.550,255.490 48.000 L 255.400 47.000 247.200 46.987 L 239.000 46.973 246.800 47.178 M156.080 47.498 C 154.034 47.571,150.794 47.571,148.880 47.498 C 146.966 47.424,148.640 47.365,152.600 47.365 C 156.560 47.366,158.126 47.426,156.080 47.498 M143.785 68.400 C 143.785 79.290,143.837 83.745,143.900 78.300 C 143.963 72.855,143.963 63.945,143.900 58.500 C 143.837 53.055,143.785 57.510,143.785 68.400 M144.585 68.200 C 144.585 78.980,144.637 83.333,144.700 77.872 C 144.763 72.412,144.763 63.592,144.700 58.272 C 144.637 52.953,144.585 57.420,144.585 68.200 M169.693 68.300 L 169.786 79.400 169.900 68.900 L 170.013 58.400 199.407 58.400 L 228.800 58.400 228.800 68.757 C 228.800 77.500,228.892 79.150,229.388 79.340 C 229.895 79.535,229.991 78.026,230.088 68.383 L 230.200 57.199 199.900 57.200 L 169.600 57.200 169.693 68.300 M214.070 57.900 C 205.859 57.960,192.539 57.960,184.470 57.900 C 176.402 57.839,183.120 57.790,199.400 57.790 C 215.680 57.790,222.282 57.839,214.070 57.900 M184.470 80.300 C 192.539 80.360,205.859 80.360,214.070 80.300 C 222.282 80.239,215.680 80.190,199.400 80.190 C 183.120 80.190,176.402 80.239,184.470 80.300 M144.300 88.432 C 143.548 88.870,143.352 89.600,143.986 89.600 C 144.198 89.600,144.565 89.240,144.800 88.800 C 145.287 87.890,145.262 87.872,144.300 88.432 M145.461 88.700 C 145.358 88.865,147.463 88.953,150.137 88.895 C 159.256 88.699,160.209 88.557,152.924 88.478 C 148.922 88.435,145.563 88.535,145.461 88.700 M242.900 88.698 C 245.045 88.770,248.555 88.770,250.700 88.698 C 252.845 88.626,251.090 88.567,246.800 88.567 C 242.510 88.567,240.755 88.626,242.900 88.698 M159.600 97.446 C 159.600 103.845,159.711 105.630,160.100 105.500 C 160.919 105.228,161.023 89.771,160.208 89.459 C 159.676 89.254,159.600 90.253,159.600 97.446 M187.600 124.600 L 187.600 143.600 114.400 143.600 L 41.200 143.600 41.200 151.600 L 41.200 159.600 34.600 159.600 C 29.000 159.600,28.000 159.691,28.000 160.200 C 28.000 160.711,29.067 160.800,35.200 160.800 L 42.400 160.800 42.400 152.801 L 42.400 144.802 115.300 144.701 L 188.200 144.600 188.310 125.100 C 188.385 111.969,188.287 105.600,188.010 105.600 C 187.736 105.600,187.600 111.882,187.600 124.600 M211.696 124.700 C 211.634 137.236,211.460 144.000,211.200 144.000 C 210.980 144.000,210.800 144.180,210.800 144.400 C 210.800 144.620,210.935 144.779,211.100 144.753 C 211.265 144.727,244.115 144.727,284.100 144.753 L 356.800 144.800 356.800 152.791 L 356.800 160.781 363.700 160.891 L 370.600 161.000 370.703 190.332 C 370.784 213.502,370.910 219.630,371.303 219.499 C 371.693 219.369,371.800 212.941,371.800 189.567 L 371.800 159.800 364.900 159.691 L 358.000 159.581 358.000 152.223 C 358.000 148.176,357.891 144.581,357.757 144.233 C 357.537 143.659,350.734 143.600,284.761 143.600 L 212.008 143.600 211.900 124.500 L 211.792 105.400 211.696 124.700 M38.319 160.297 C 36.624 160.372,33.744 160.372,31.919 160.298 C 30.094 160.224,31.480 160.162,35.000 160.162 C 38.520 160.161,40.014 160.222,38.319 160.297 M367.119 160.297 C 365.424 160.372,362.544 160.372,360.719 160.298 C 358.894 160.224,360.280 160.162,363.800 160.162 C 367.320 160.161,368.814 160.222,367.119 160.297 M28.190 190.000 C 28.190 205.730,28.239 212.165,28.300 204.300 C 28.360 196.435,28.360 183.565,28.300 175.700 C 28.239 167.835,28.190 174.270,28.190 190.000 M51.206 252.100 L 51.206 334.200 164.703 334.100 C 227.126 334.045,293.860 333.954,313.000 333.897 C 332.140 333.841,281.335 333.752,200.100 333.698 L 52.400 333.600 52.400 252.400 C 52.400 207.740,52.355 171.065,52.300 170.900 C 52.245 170.735,118.710 170.510,200.000 170.399 L 347.800 170.198 199.503 170.099 L 51.206 170.000 51.206 252.100 M199.699 171.100 L 347.198 171.201 347.300 252.301 L 347.402 333.400 347.501 252.100 L 347.600 170.800 199.900 170.899 L 52.200 170.999 199.699 171.100 M102.800 215.298 C 102.800 215.478,103.025 215.711,103.300 215.816 C 103.676 215.960,103.796 217.863,103.783 223.504 L 103.766 231.000 103.892 223.830 C 103.970 219.392,104.186 216.458,104.458 216.130 C 105.013 215.462,154.989 215.334,155.400 216.000 C 155.812 216.666,156.754 216.448,156.698 215.700 C 156.643 214.973,149.543 214.908,113.500 215.301 C 108.494 215.355,104.399 215.276,104.400 215.125 C 104.400 214.974,104.040 214.877,103.600 214.910 C 103.160 214.943,102.800 215.118,102.800 215.298 M242.000 222.800 L 242.000 230.800 234.800 230.800 C 229.467 230.800,227.600 230.924,227.600 231.280 C 227.600 231.653,227.493 231.653,227.120 231.280 C 226.474 230.634,226.000 230.675,226.000 231.376 C 226.000 232.091,226.660 232.534,227.215 232.190 C 227.444 232.049,230.999 231.913,235.115 231.889 L 242.600 231.844 235.200 231.608 L 227.800 231.373 235.313 231.286 C 240.903 231.222,242.868 231.072,242.994 230.700 C 243.532 229.103,243.375 214.888,242.823 215.334 C 242.376 215.695,242.314 215.688,242.547 215.300 C 242.712 215.025,242.657 214.800,242.424 214.800 C 242.140 214.800,242.000 217.436,242.000 222.800 M256.700 215.500 C 263.795 215.561,275.405 215.561,282.500 215.500 C 289.595 215.439,283.790 215.389,269.600 215.389 C 255.410 215.389,249.605 215.439,256.700 215.500 M296.091 223.100 L 296.000 231.200 303.792 231.200 C 311.542 231.200,311.586 231.205,311.803 232.100 C 311.923 232.595,311.972 241.820,311.911 252.600 L 311.800 272.200 303.900 272.308 L 296.000 272.417 296.000 280.411 L 296.000 288.406 269.700 288.303 L 243.400 288.200 243.291 280.484 C 243.212 274.822,243.052 272.724,242.691 272.602 C 240.834 271.974,225.999 272.239,226.000 272.900 C 226.000 273.543,226.647 273.600,233.992 273.600 L 241.983 273.600 242.092 281.420 L 242.200 289.239 269.200 289.224 L 296.200 289.208 296.308 281.404 L 296.417 273.600 304.808 273.600 L 313.200 273.600 313.200 252.175 C 313.200 232.009,313.159 230.754,312.500 230.821 C 312.115 230.860,308.339 230.871,304.108 230.846 L 296.417 230.800 296.300 222.900 L 296.182 215.000 296.091 223.100 M13.600 252.025 C 13.600 283.810,13.638 285.646,14.300 285.579 C 14.685 285.540,17.924 285.529,21.497 285.554 L 27.995 285.600 28.102 314.100 L 28.210 342.600 28.295 313.700 L 28.380 284.800 21.579 284.800 L 14.778 284.800 14.889 251.600 C 14.994 220.205,14.962 218.400,14.300 218.400 C 13.639 218.400,13.600 220.268,13.600 252.025 M86.927 231.500 C 86.919 232.380,87.633 232.871,88.216 232.387 C 88.460 232.184,91.796 231.962,95.630 231.892 L 102.600 231.765 95.304 231.782 C 89.822 231.796,87.960 231.676,87.816 231.300 C 87.533 230.559,86.934 230.694,86.927 231.500 M92.121 231.098 C 94.277 231.171,97.697 231.170,99.721 231.098 C 101.744 231.025,99.980 230.966,95.800 230.967 C 91.620 230.967,89.964 231.026,92.121 231.098 M160.500 231.098 C 162.645 231.170,166.155 231.170,168.300 231.098 C 170.445 231.026,168.690 230.967,164.400 230.967 C 160.110 230.967,158.355 231.026,160.500 231.098 M160.500 231.898 C 162.645 231.970,166.155 231.970,168.300 231.898 C 170.445 231.826,168.690 231.767,164.400 231.767 C 160.110 231.767,158.355 231.826,160.500 231.898 M299.700 231.898 C 301.845 231.970,305.355 231.970,307.500 231.898 C 309.645 231.826,307.890 231.767,303.600 231.767 C 299.310 231.767,297.555 231.826,299.700 231.898 M121.527 240.300 C 126.217 240.364,133.777 240.364,138.327 240.299 C 142.877 240.235,139.040 240.183,129.800 240.183 C 120.560 240.183,116.837 240.236,121.527 240.300 M260.700 240.300 C 265.375 240.364,273.025 240.364,277.700 240.300 C 282.375 240.236,278.550 240.183,269.200 240.183 C 259.850 240.183,256.025 240.236,260.700 240.300 M147.200 240.700 C 147.200 240.865,139.595 240.996,130.300 240.991 L 113.400 240.983 129.900 241.096 L 146.400 241.209 146.400 252.204 C 146.400 261.712,146.481 263.200,147.000 263.200 C 147.519 263.200,147.600 261.667,147.600 251.800 C 147.600 245.530,147.510 240.400,147.400 240.400 C 147.290 240.400,147.200 240.535,147.200 240.700 M252.581 241.306 C 252.474 241.584,252.438 246.669,252.500 252.606 L 252.614 263.400 252.707 252.300 L 252.800 241.200 269.200 241.200 L 285.600 241.200 285.600 252.200 C 285.600 261.711,285.681 263.200,286.200 263.200 C 286.719 263.200,286.800 261.716,286.800 252.247 L 286.800 241.293 285.900 241.052 C 283.971 240.535,252.785 240.773,252.581 241.306 M86.942 272.634 L 86.885 273.600 95.042 273.600 C 102.407 273.600,104.085 273.394,102.865 272.640 C 102.680 272.526,99.215 272.410,95.165 272.382 C 91.114 272.354,87.620 272.182,87.400 272.000 C 87.154 271.796,86.978 272.040,86.942 272.634 M164.516 272.299 C 157.575 272.400,156.464 272.500,156.659 273.008 C 157.066 274.071,172.609 273.869,172.690 272.800 C 172.723 272.360,172.716 272.041,172.675 272.091 C 172.634 272.141,168.962 272.235,164.516 272.299 M103.766 280.400 C 103.766 284.470,103.825 286.135,103.898 284.100 C 103.971 282.065,103.971 278.735,103.898 276.700 C 103.825 274.665,103.766 276.330,103.766 280.400 M370.800 314.200 C 370.800 340.067,370.872 343.600,371.400 343.600 C 371.928 343.600,372.000 340.111,372.000 314.600 L 372.000 285.600 378.624 285.600 C 382.937 285.600,385.161 285.461,385.000 285.200 C 384.850 284.958,381.996 284.800,377.776 284.800 L 370.800 284.800 370.800 314.200 M102.967 288.367 C 102.015 289.318,104.137 289.400,129.768 289.400 C 153.492 289.400,156.730 289.328,156.690 288.800 C 156.647 288.234,103.528 287.806,102.967 288.367 M41.200 351.413 C 41.200 358.424,41.286 359.600,41.800 359.600 C 42.313 359.600,42.400 358.449,42.400 351.643 C 42.400 344.939,42.306 343.649,41.800 343.455 C 41.279 343.255,41.200 344.299,41.200 351.413 M356.800 351.600 C 356.800 358.444,356.887 359.600,357.400 359.600 C 357.913 359.600,358.000 358.444,358.000 351.600 C 358.000 344.756,357.913 343.600,357.400 343.600 C 356.887 343.600,356.800 344.756,356.800 351.600 " stroke="none" fill="#040404" fill-rule="evenodd"></path><path id="path2" d="M255.385 68.400 C 255.385 79.290,255.437 83.745,255.500 78.300 C 255.563 72.855,255.563 63.945,255.500 58.500 C 255.437 53.055,255.385 57.510,255.385 68.400 " stroke="none" fill="#100404" fill-rule="evenodd"></path><path id="path3" d="M255.385 68.400 C 255.385 79.290,255.437 83.745,255.500 78.300 C 255.563 72.855,255.563 63.945,255.500 58.500 C 255.437 53.055,255.385 57.510,255.385 68.400 " stroke="none" fill="#100404" fill-rule="evenodd"></path><path id="path4" d="M255.385 68.400 C 255.385 79.290,255.437 83.745,255.500 78.300 C 255.563 72.855,255.563 63.945,255.500 58.500 C 255.437 53.055,255.385 57.510,255.385 68.400 " stroke="none" fill="#100404" fill-rule="evenodd"></path></g></svg>