<?xml version="1.0" encoding="UTF-8" standalone="no"?>
<!DOCTYPE svg PUBLIC "-//W3C//DTD SVG 1.1//EN" "http://www.w3.org/Graphics/SVG/1.1/DTD/svg11.dtd">
<svg xmlns="http://www.w3.org/2000/svg" version="1.1" viewBox="0.00 0.00 48.00 48.00">
<g stroke-width="2.00" fill="none" stroke-linecap="butt">
<path stroke="#849df2" vector-effect="non-scaling-stroke" d="
  M 17.46 0.00
  L 17.20 3.40
  Q 17.16 3.82 17.56 3.97
  Q 18.01 4.12 17.90 4.65
  Q 17.83 4.96 18.13 5.08
  Q 18.35 5.17 18.48 5.14
  Q 18.53 5.13 18.47 5.12
  Q 17.95 5.09 17.48 5.22"
/>
<path stroke="#798ff4" vector-effect="non-scaling-stroke" d="
  M 17.48 5.22
  C 15.14 5.46 12.81 7.00 11.89 9.34
  C 11.43 10.51 10.68 11.37 10.35 12.43
  Q 9.57 15.00 9.65 17.29
  A 2.26 2.25 73.6 0 1 8.56 19.29
  L 0.25 24.27"
/>
<path stroke="#c491dc" vector-effect="non-scaling-stroke" d="
  M 24.89 0.00
  L 25.47 4.10
  Q 25.54 4.54 25.88 4.82
  Q 27.27 5.94 26.40 7.21"
/>
<path stroke="#ccccf4" vector-effect="non-scaling-stroke" d="
  M 26.40 7.21
  L 15.94 7.25"
/>
<path stroke="#918eee" vector-effect="non-scaling-stroke" d="
  M 15.94 7.25
  Q 16.47 5.98 17.48 5.22"
/>
<path stroke="#e66cc9" vector-effect="non-scaling-stroke" d="
  M 47.79 21.05
  Q 46.65 21.04 46.85 23.18
  A 0.85 0.85 0.0 0 1 46.00 24.11
  L 44.62 24.11
  Q 44.49 24.11 44.50 23.98
  Q 44.52 23.85 44.56 23.70
  Q 44.62 23.52 44.43 23.48
  L 40.42 22.80
  A 1.49 1.48 5.0 0 1 39.18 21.33
  Q 39.20 19.53 38.63 17.76
  Q 38.51 17.39 38.48 17.78
  Q 38.32 19.80 38.39 21.88
  Q 38.42 21.88 38.36 21.88
  Q 38.35 21.87 38.35 21.86
  Q 38.59 17.26 37.70 12.54
  A 0.66 0.66 0.0 0 0 36.54 12.24
  Q 36.54 12.24 36.69 12.79"
/>
<path stroke="#f4c1e4" vector-effect="non-scaling-stroke" d="
  M 36.69 12.79
  C 35.42 6.77 31.39 7.22 26.40 7.21"
/>
<path stroke="#c1bef6" vector-effect="non-scaling-stroke" d="
  M 15.94 7.25
  Q 11.86 8.61 11.67 13.50
  Q 11.45 19.51 11.32 25.15"
/>
<path stroke="#9176ec" vector-effect="non-scaling-stroke" d="
  M 11.32 25.15
  Q 10.67 24.69 10.10 26.25
  C 9.69 27.39 10.01 28.55 9.26 29.78
  A 0.14 0.13 -55.2 0 1 9.07 29.82
  Q 8.97 29.74 8.80 29.76
  Q 8.71 29.77 8.72 29.86
  Q 8.80 30.90 7.99 31.33
  C 6.60 32.07 5.12 32.54 3.85 33.52
  Q 2.31 34.71 0.40 35.73"
/>
<path stroke="#eea7e2" vector-effect="non-scaling-stroke" d="
  M 36.69 12.79
  Q 37.01 24.31 36.68 31.50
  C 36.55 34.49 34.57 37.39 31.36 37.66
  Q 29.55 37.81 28.04 37.67"
/>
<path stroke="#daaaed" vector-effect="non-scaling-stroke" d="
  M 28.04 37.67
  Q 20.72 38.13 14.38 37.20"
/>
<path stroke="#cdb4f3" vector-effect="non-scaling-stroke" d="
  M 14.38 37.20
  C 10.66 33.17 11.71 29.84 11.32 25.15"
/>
<path stroke="#96b9fd" vector-effect="non-scaling-stroke" d="
  M 16.1347 10.1236
  A 0.83 0.69 -26.2 0 0 15.0854 9.8709
  A 0.83 0.69 -26.2 0 0 14.6453 10.8564
  A 0.83 0.69 -26.2 0 0 15.6946 11.1091
  A 0.83 0.69 -26.2 0 0 16.1347 10.1236"
/>
<path stroke="#96b9fd" vector-effect="non-scaling-stroke" d="
  M 19.00 11.11
  Q 19.49 10.99 19.49 10.46
  A 0.65 0.64 -79.3 0 0 19.09 9.86
  Q 18.84 9.77 18.59 9.78
  A 0.67 0.67 0.0 0 0 17.97 10.62
  Q 18.17 11.32 19.00 11.11"
/>
<path stroke="#96b9fd" vector-effect="non-scaling-stroke" d="
  M 32.62 30.67
  C 36.78 28.17 35.96 22.34 35.55 18.21
  C 35.21 14.83 33.36 13.57 29.97 13.56
  Q 23.86 13.56 17.75 13.50
  C 13.77 13.46 12.90 16.04 12.88 19.60
  C 12.86 23.58 11.40 31.25 17.75 31.10
  C 21.05 31.03 24.81 30.59 27.91 31.81
  Q 29.95 32.62 31.90 33.69
  Q 32.34 33.93 32.71 33.59
  Q 33.06 33.28 32.85 32.74
  Q 32.57 32.02 32.35 31.46
  A 0.65 0.64 63.9 0 1 32.62 30.67"
/>
<path stroke="#cc55d2" vector-effect="non-scaling-stroke" d="
  M 19.10 48.00
  Q 19.98 47.42 20.26 45.36
  Q 20.42 44.15 22.89 41.07
  C 23.80 39.93 25.42 40.37 26.46 39.52
  Q 27.41 38.74 28.04 37.67"
/>
<path stroke="#8bb1fb" vector-effect="non-scaling-stroke" d="
  M 29.9596 19.7299
  A 0.61 0.61 0.0 0 0 29.3485 19.1209
  L 18.9485 19.1391
  A 0.61 0.61 0.0 0 0 18.3396 19.7501
  L 18.3404 20.2501
  A 0.61 0.61 0.0 0 0 18.9515 20.8591
  L 29.3515 20.8409
  A 0.61 0.61 0.0 0 0 29.9604 20.2299
  L 29.9596 19.7299"
/>
<path stroke="#8bb1fb" vector-effect="non-scaling-stroke" d="
  M 29.9998 23.1694
  A 0.72 0.72 0.0 0 0 29.2773 22.4520
  L 18.9374 22.4881
  A 0.72 0.72 0.0 0 0 18.2199 23.2106
  L 18.2202 23.2906
  A 0.72 0.72 0.0 0 0 18.9427 24.0080
  L 29.2826 23.9719
  A 0.72 0.72 0.0 0 0 30.0001 23.2494
  L 29.9998 23.1694"
/>
<path stroke="#8bb1fb" vector-effect="non-scaling-stroke" d="
  M 24.4795 26.2675
  A 0.78 0.78 0.0 0 0 23.6914 25.4957
  L 19.0516 25.5443
  A 0.78 0.78 0.0 0 0 18.2799 26.3325
  L 18.2805 26.3925
  A 0.78 0.78 0.0 0 0 19.0686 27.1643
  L 23.7084 27.1157
  A 0.78 0.78 0.0 0 0 24.4801 26.3275
  L 24.4795 26.2675"
/>
<path stroke="#ab62e3" vector-effect="non-scaling-stroke" d="
  M 14.38 37.20
  Q 13.95 37.84 13.41 37.92
  Q 13.02 37.98 12.43 37.50
  Q 11.92 37.09 11.37 36.78
  Q 11.06 36.62 10.91 36.93
  Q 10.80 37.16 10.86 37.32
  Q 11.06 37.83 10.59 38.11
  L 6.84 40.33
  A 0.31 0.23 -53.0 0 1 6.70 40.37
  Q 5.95 40.36 5.80 40.96
  Q 5.70 41.37 5.28 41.37
  L 4.56 41.37
  Q 4.11 41.37 4.11 41.83
  Q 4.12 42.03 4.14 42.21
  Q 4.18 42.59 3.80 42.63
  Q 3.63 42.64 3.42 42.62"
/>
</g>
<path fill="#000000" fill-opacity="0.004" d="
  M 0.00 0.00
  L 13.58 0.00
  Q 1.09 2.20 0.00 15.30
  L 0.00 0.00
  Z"
/>
<path fill="#6c9df8" d="
  M 13.58 0.00
  L 17.46 0.00
  L 17.20 3.40
  Q 17.16 3.82 17.56 3.97
  Q 18.01 4.12 17.90 4.65
  Q 17.83 4.96 18.13 5.08
  Q 18.35 5.17 18.48 5.14
  Q 18.53 5.13 18.47 5.12
  Q 17.95 5.09 17.48 5.22
  C 15.14 5.46 12.81 7.00 11.89 9.34
  C 11.43 10.51 10.68 11.37 10.35 12.43
  Q 9.57 15.00 9.65 17.29
  A 2.26 2.25 73.6 0 1 8.56 19.29
  L 0.25 24.27
  L 0.00 17.87
  L 0.00 15.30
  Q 1.09 2.20 13.58 0.00
  Z"
/>
<path fill="#9c9cec" d="
  M 17.46 0.00
  L 24.89 0.00
  L 25.47 4.10
  Q 25.54 4.54 25.88 4.82
  Q 27.27 5.94 26.40 7.21
  L 15.94 7.25
  Q 16.47 5.98 17.48 5.22
  Q 17.95 5.09 18.47 5.12
  Q 18.53 5.13 18.48 5.14
  Q 18.35 5.17 18.13 5.08
  Q 17.83 4.96 17.90 4.65
  Q 18.01 4.12 17.56 3.97
  Q 17.16 3.82 17.20 3.40
  L 17.46 0.00
  Z"
/>
<path fill="#ec85cb" d="
  M 24.89 0.00
  L 34.17 0.00
  Q 43.83 1.30 46.90 9.43
  C 48.20 12.88 47.82 17.18 47.79 21.05
  Q 46.65 21.04 46.85 23.18
  A 0.85 0.85 0.0 0 1 46.00 24.11
  L 44.62 24.11
  Q 44.49 24.11 44.50 23.98
  Q 44.52 23.85 44.56 23.70
  Q 44.62 23.52 44.43 23.48
  L 40.42 22.80
  A 1.49 1.48 5.0 0 1 39.18 21.33
  Q 39.20 19.53 38.63 17.76
  Q 38.51 17.39 38.48 17.78
  Q 38.32 19.80 38.39 21.88
  Q 38.42 21.88 38.36 21.88
  Q 38.35 21.87 38.35 21.86
  Q 38.59 17.26 37.70 12.54
  A 0.66 0.66 0.0 0 0 36.54 12.24
  Q 36.54 12.24 36.69 12.79
  C 35.42 6.77 31.39 7.22 26.40 7.21
  Q 27.27 5.94 25.88 4.82
  Q 25.54 4.54 25.47 4.10
  L 24.89 0.00
  Z"
/>
<path fill="#000000" fill-opacity="0.004" d="
  M 34.17 0.00
  L 48.00 0.00
  L 48.00 29.64
  L 47.79 21.05
  C 47.82 17.18 48.20 12.88 46.90 9.43
  Q 43.83 1.30 34.17 0.00
  Z"
/>
<path fill="#8580ef" d="
  M 17.48 5.22
  Q 16.47 5.98 15.94 7.25
  Q 11.86 8.61 11.67 13.50
  Q 11.45 19.51 11.32 25.15
  Q 10.67 24.69 10.10 26.25
  C 9.69 27.39 10.01 28.55 9.26 29.78
  A 0.14 0.13 -55.2 0 1 9.07 29.82
  Q 8.97 29.74 8.80 29.76
  Q 8.71 29.77 8.72 29.86
  Q 8.80 30.90 7.99 31.33
  C 6.60 32.07 5.12 32.54 3.85 33.52
  Q 2.31 34.71 0.40 35.73
  L 0.25 24.27
  L 8.56 19.29
  A 2.26 2.25 73.6 0 0 9.65 17.29
  Q 9.57 15.00 10.35 12.43
  C 10.68 11.37 11.43 10.51 11.89 9.34
  C 12.81 7.00 15.14 5.46 17.48 5.22
  Z"
/>
<path fill="#fcfcfc" d="
  M 15.94 7.25
  L 26.40 7.21
  C 31.39 7.22 35.42 6.77 36.69 12.79
  Q 37.01 24.31 36.68 31.50
  C 36.55 34.49 34.57 37.39 31.36 37.66
  Q 29.55 37.81 28.04 37.67
  Q 20.72 38.13 14.38 37.20
  C 10.66 33.17 11.71 29.84 11.32 25.15
  Q 11.45 19.51 11.67 13.50
  Q 11.86 8.61 15.94 7.25
  Z
  M 16.1347 10.1236
  A 0.83 0.69 -26.2 0 0 15.0854 9.8709
  A 0.83 0.69 -26.2 0 0 14.6453 10.8564
  A 0.83 0.69 -26.2 0 0 15.6946 11.1091
  A 0.83 0.69 -26.2 0 0 16.1347 10.1236
  Z
  M 19.00 11.11
  Q 19.49 10.99 19.49 10.46
  A 0.65 0.64 -79.3 0 0 19.09 9.86
  Q 18.84 9.77 18.59 9.78
  A 0.67 0.67 0.0 0 0 17.97 10.62
  Q 18.17 11.32 19.00 11.11
  Z
  M 32.62 30.67
  C 36.78 28.17 35.96 22.34 35.55 18.21
  C 35.21 14.83 33.36 13.57 29.97 13.56
  Q 23.86 13.56 17.75 13.50
  C 13.77 13.46 12.90 16.04 12.88 19.60
  C 12.86 23.58 11.40 31.25 17.75 31.10
  C 21.05 31.03 24.81 30.59 27.91 31.81
  Q 29.95 32.62 31.90 33.69
  Q 32.34 33.93 32.71 33.59
  Q 33.06 33.28 32.85 32.74
  Q 32.57 32.02 32.35 31.46
  A 0.65 0.64 63.9 0 1 32.62 30.67
  Z"
/>
<ellipse fill="#2f75fd" cx="0.00" cy="0.00" transform="translate(15.39,10.49) rotate(-26.2)" rx="0.83" ry="0.69"/>
<path fill="#2f75fd" d="
  M 19.00 11.11
  Q 18.17 11.32 17.97 10.62
  A 0.67 0.67 0.0 0 1 18.59 9.78
  Q 18.84 9.77 19.09 9.86
  A 0.65 0.64 -79.3 0 1 19.49 10.46
  Q 19.49 10.99 19.00 11.11
  Z"
/>
<path fill="#e052c7" d="
  M 47.79 21.05
  L 48.00 29.64
  L 48.00 31.74
  Q 48.06 45.37 35.18 48.00
  L 19.10 48.00
  Q 19.98 47.42 20.26 45.36
  Q 20.42 44.15 22.89 41.07
  C 23.80 39.93 25.42 40.37 26.46 39.52
  Q 27.41 38.74 28.04 37.67
  Q 29.55 37.81 31.36 37.66
  C 34.57 37.39 36.55 34.49 36.68 31.50
  Q 37.01 24.31 36.69 12.79
  Q 36.54 12.24 36.54 12.24
  A 0.66 0.66 0.0 0 1 37.70 12.54
  Q 38.59 17.26 38.35 21.86
  Q 38.35 21.87 38.36 21.88
  Q 38.42 21.88 38.39 21.88
  Q 38.32 19.80 38.48 17.78
  Q 38.51 17.39 38.63 17.76
  Q 39.20 19.53 39.18 21.33
  A 1.49 1.48 5.0 0 0 40.42 22.80
  L 44.43 23.48
  Q 44.62 23.52 44.56 23.70
  Q 44.52 23.85 44.50 23.98
  Q 44.49 24.11 44.62 24.11
  L 46.00 24.11
  A 0.85 0.85 0.0 0 0 46.85 23.18
  Q 46.65 21.04 47.79 21.05
  Z"
/>
<path fill="#2f75fd" d="
  M 32.35 31.46
  Q 32.57 32.02 32.85 32.74
  Q 33.06 33.28 32.71 33.59
  Q 32.34 33.93 31.90 33.69
  Q 29.95 32.62 27.91 31.81
  C 24.81 30.59 21.05 31.03 17.75 31.10
  C 11.40 31.25 12.86 23.58 12.88 19.60
  C 12.90 16.04 13.77 13.46 17.75 13.50
  Q 23.86 13.56 29.97 13.56
  C 33.36 13.57 35.21 14.83 35.55 18.21
  C 35.96 22.34 36.78 28.17 32.62 30.67
  A 0.65 0.64 63.9 0 0 32.35 31.46
  Z
  M 29.9596 19.7299
  A 0.61 0.61 0.0 0 0 29.3485 19.1209
  L 18.9485 19.1391
  A 0.61 0.61 0.0 0 0 18.3396 19.7501
  L 18.3404 20.2501
  A 0.61 0.61 0.0 0 0 18.9515 20.8591
  L 29.3515 20.8409
  A 0.61 0.61 0.0 0 0 29.9604 20.2299
  L 29.9596 19.7299
  Z
  M 29.9998 23.1694
  A 0.72 0.72 0.0 0 0 29.2773 22.4520
  L 18.9374 22.4881
  A 0.72 0.72 0.0 0 0 18.2199 23.2106
  L 18.2202 23.2906
  A 0.72 0.72 0.0 0 0 18.9427 24.0080
  L 29.2826 23.9719
  A 0.72 0.72 0.0 0 0 30.0001 23.2494
  L 29.9998 23.1694
  Z
  M 24.4795 26.2675
  A 0.78 0.78 0.0 0 0 23.6914 25.4957
  L 19.0516 25.5443
  A 0.78 0.78 0.0 0 0 18.2799 26.3325
  L 18.2805 26.3925
  A 0.78 0.78 0.0 0 0 19.0686 27.1643
  L 23.7084 27.1157
  A 0.78 0.78 0.0 0 0 24.4801 26.3275
  L 24.4795 26.2675
  Z"
/>
<path fill="#000000" fill-opacity="0.004" d="
  M 0.00 17.87
  L 0.25 24.27
  L 0.40 35.73
  Q 1.27 40.01 3.42 42.62
  Q 7.03 47.06 13.05 48.00
  L 0.00 48.00
  L 0.00 17.87
  Z"
/>
<rect fill="#e7edf9" x="-5.81" y="-0.86" transform="translate(24.15,19.99) rotate(-0.1)" width="11.62" height="1.72" rx="0.61"/>
<rect fill="#e7edf9" x="-5.89" y="-0.76" transform="translate(24.11,23.23) rotate(-0.2)" width="11.78" height="1.52" rx="0.72"/>
<path fill="#9d6be9" d="
  M 11.32 25.15
  C 11.71 29.84 10.66 33.17 14.38 37.20
  Q 13.95 37.84 13.41 37.92
  Q 13.02 37.98 12.43 37.50
  Q 11.92 37.09 11.37 36.78
  Q 11.06 36.62 10.91 36.93
  Q 10.80 37.16 10.86 37.32
  Q 11.06 37.83 10.59 38.11
  L 6.84 40.33
  A 0.31 0.23 -53.0 0 1 6.70 40.37
  Q 5.95 40.36 5.80 40.96
  Q 5.70 41.37 5.28 41.37
  L 4.56 41.37
  Q 4.11 41.37 4.11 41.83
  Q 4.12 42.03 4.14 42.21
  Q 4.18 42.59 3.80 42.63
  Q 3.63 42.64 3.42 42.62
  Q 1.27 40.01 0.40 35.73
  Q 2.31 34.71 3.85 33.52
  C 5.12 32.54 6.60 32.07 7.99 31.33
  Q 8.80 30.90 8.72 29.86
  Q 8.71 29.77 8.80 29.76
  Q 8.97 29.74 9.07 29.82
  A 0.14 0.13 -55.2 0 0 9.26 29.78
  C 10.01 28.55 9.69 27.39 10.10 26.25
  Q 10.67 24.69 11.32 25.15
  Z"
/>
<rect fill="#e7edf9" x="-3.10" y="-0.81" transform="translate(21.38,26.33) rotate(-0.6)" width="6.20" height="1.62" rx="0.78"/>
<path fill="#000000" fill-opacity="0.004" d="
  M 48.00 31.74
  L 48.00 48.00
  L 35.18 48.00
  Q 48.06 45.37 48.00 31.74
  Z"
/>
<path fill="#b858dd" d="
  M 14.38 37.20
  Q 20.72 38.13 28.04 37.67
  Q 27.41 38.74 26.46 39.52
  C 25.42 40.37 23.80 39.93 22.89 41.07
  Q 20.42 44.15 20.26 45.36
  Q 19.98 47.42 19.10 48.00
  L 13.05 48.00
  Q 7.03 47.06 3.42 42.62
  Q 3.63 42.64 3.80 42.63
  Q 4.18 42.59 4.14 42.21
  Q 4.12 42.03 4.11 41.83
  Q 4.11 41.37 4.56 41.37
  L 5.28 41.37
  Q 5.70 41.37 5.80 40.96
  Q 5.95 40.36 6.70 40.37
  A 0.31 0.23 -53.0 0 0 6.84 40.33
  L 10.59 38.11
  Q 11.06 37.83 10.86 37.32
  Q 10.80 37.16 10.91 36.93
  Q 11.06 36.62 11.37 36.78
  Q 11.92 37.09 12.43 37.50
  Q 13.02 37.98 13.41 37.92
  Q 13.95 37.84 14.38 37.20
  Z"
/>
</svg>
