<?xml version="1.0" encoding="UTF-8" standalone="no"?>
<!DOCTYPE svg PUBLIC "-//W3C//DTD SVG 1.1//EN" "http://www.w3.org/Graphics/SVG/1.1/DTD/svg11.dtd">
<svg xmlns="http://www.w3.org/2000/svg" version="1.1" viewBox="0.00 0.00 32.00 32.00">
<g stroke-width="2.00" fill="none" stroke-linecap="butt">
<path stroke="#9e97e4" vector-effect="non-scaling-stroke" d="
  M 7.81 7.13
  A 0.68 0.68 0.0 0 0 7.13 7.81
  L 7.12 16.43
  Q 7.12 16.90 7.58 17.01
  Q 10.82 17.80 12.67 15.75
  C 14.41 13.81 13.75 10.32 13.69 7.77
  A 0.69 0.69 0.0 0 0 13.00 7.10
  L 7.81 7.13"
/>
<path stroke="#9e97e4" vector-effect="non-scaling-stroke" d="
  M 24.86 13.30
  L 24.86 7.76
  A 0.60 0.60 0.0 0 0 24.26 7.16
  L 16.49 7.19
  Q 13.94 7.21 14.73 9.63
  L 15.28 11.33
  A 3.53 3.52 -9.0 0 0 18.65 13.77
  L 24.44 13.73
  A 0.43 0.43 0.0 0 0 24.86 13.30"
/>
<path stroke="#9e97e4" vector-effect="non-scaling-stroke" d="
  M 24.34 14.92
  C 21.77 14.20 20.00 15.14 18.52 17.25
  Q 18.21 17.70 18.21 18.24
  L 18.28 24.24
  A 0.66 0.65 0.4 0 0 18.93 24.89
  L 24.16 24.89
  A 0.67 0.67 0.0 0 0 24.83 24.22
  L 24.81 15.54
  Q 24.81 15.05 24.34 14.92"
/>
<path stroke="#9e97e4" vector-effect="non-scaling-stroke" d="
  M 16.72 24.80
  A 0.40 0.40 0.0 0 0 17.11 24.49
  Q 17.92 21.14 15.77 19.30
  C 13.79 17.61 10.33 18.29 7.77 18.30
  A 0.68 0.67 90.0 0 0 7.10 18.98
  L 7.15 24.24
  A 0.59 0.59 0.0 0 0 7.74 24.82
  L 16.72 24.80"
/>
</g>
<path fill="#3c2ec9" d="
  M 0.00 0.00
  L 32.00 0.00
  L 32.00 32.00
  L 0.00 32.00
  L 0.00 0.00
  Z
  M 7.81 7.13
  A 0.68 0.68 0.0 0 0 7.13 7.81
  L 7.12 16.43
  Q 7.12 16.90 7.58 17.01
  Q 10.82 17.80 12.67 15.75
  C 14.41 13.81 13.75 10.32 13.69 7.77
  A 0.69 0.69 0.0 0 0 13.00 7.10
  L 7.81 7.13
  Z
  M 24.86 13.30
  L 24.86 7.76
  A 0.60 0.60 0.0 0 0 24.26 7.16
  L 16.49 7.19
  Q 13.94 7.21 14.73 9.63
  L 15.28 11.33
  A 3.53 3.52 -9.0 0 0 18.65 13.77
  L 24.44 13.73
  A 0.43 0.43 0.0 0 0 24.86 13.30
  Z
  M 24.34 14.92
  C 21.77 14.20 20.00 15.14 18.52 17.25
  Q 18.21 17.70 18.21 18.24
  L 18.28 24.24
  A 0.66 0.65 0.4 0 0 18.93 24.89
  L 24.16 24.89
  A 0.67 0.67 0.0 0 0 24.83 24.22
  L 24.81 15.54
  Q 24.81 15.05 24.34 14.92
  Z
  M 16.72 24.80
  A 0.40 0.40 0.0 0 0 17.11 24.49
  Q 17.92 21.14 15.77 19.30
  C 13.79 17.61 10.33 18.29 7.77 18.30
  A 0.68 0.67 90.0 0 0 7.10 18.98
  L 7.15 24.24
  A 0.59 0.59 0.0 0 0 7.74 24.82
  L 16.72 24.80
  Z"
/>
<path fill="#ffffff" d="
  M 7.81 7.13
  L 13.00 7.10
  A 0.69 0.69 0.0 0 1 13.69 7.77
  C 13.75 10.32 14.41 13.81 12.67 15.75
  Q 10.82 17.80 7.58 17.01
  Q 7.12 16.90 7.12 16.43
  L 7.13 7.81
  A 0.68 0.68 0.0 0 1 7.81 7.13
  Z"
/>
<path fill="#ffffff" d="
  M 24.86 13.30
  A 0.43 0.43 0.0 0 1 24.44 13.73
  L 18.65 13.77
  A 3.53 3.52 -9.0 0 1 15.28 11.33
  L 14.73 9.63
  Q 13.94 7.21 16.49 7.19
  L 24.26 7.16
  A 0.60 0.60 0.0 0 1 24.86 7.76
  L 24.86 13.30
  Z"
/>
<path fill="#ffffff" d="
  M 18.52 17.25
  C 20.00 15.14 21.77 14.20 24.34 14.92
  Q 24.81 15.05 24.81 15.54
  L 24.83 24.22
  A 0.67 0.67 0.0 0 1 24.16 24.89
  L 18.93 24.89
  A 0.66 0.65 0.4 0 1 18.28 24.24
  L 18.21 18.24
  Q 18.21 17.70 18.52 17.25
  Z"
/>
<path fill="#ffffff" d="
  M 16.72 24.80
  L 7.74 24.82
  A 0.59 0.59 0.0 0 1 7.15 24.24
  L 7.10 18.98
  A 0.68 0.67 -90.0 0 1 7.77 18.30
  C 10.33 18.29 13.79 17.61 15.77 19.30
  Q 17.92 21.14 17.11 24.49
  A 0.40 0.40 0.0 0 1 16.72 24.80
  Z"
/>
</svg>
