<svg id="SvgjsSvg1001" width="288" height="288" xmlns="http://www.w3.org/2000/svg" version="1.1" xmlns:xlink="http://www.w3.org/1999/xlink" xmlns:svgjs="http://svgjs.com/svgjs"><defs id="SvgjsDefs1002"></defs><g id="SvgjsG1008"><svg xmlns="http://www.w3.org/2000/svg" version="1.0" viewBox="0 0 436.5 64.5" width="288" height="288"><defs><clipPath id="a"><path d="M 27.296875 6.402344 L 78.707031 6.402344 L 78.707031 57.8125 L 27.296875 57.8125 Z M 27.296875 6.402344 " fill="#000000" class="color000 svgShape"></path></clipPath><clipPath id="b"><path d="M 29.089844 17 L 63 17 L 63 51.441406 L 29.089844 51.441406 Z M 29.089844 17 " fill="#000000" class="color000 svgShape"></path></clipPath><clipPath id="c"><path d="M 51 12.695312 L 76.773438 12.695312 L 76.773438 38 L 51 38 Z M 51 12.695312 " fill="#000000" class="color000 svgShape"></path></clipPath></defs><path d="M 9.234375 -23.953125 L 17.984375 -23.953125 L 17.984375 -17.796875 L 9.234375 -17.796875 L 9.234375 0 L 2.46875 0 L 2.46875 -43.109375 L 20.390625 -43.109375 L 20.390625 -36.953125 L 9.234375 -36.953125 Z M 9.234375 -23.953125 " transform="translate(87.212 53.564)" fill="#000000" class="color000 svgShape"></path><path d="M 16.625 0 C 16.539062 -0.289062 16.457031 -0.554688 16.375 -0.796875 C 16.300781 -1.046875 16.234375 -1.351562 16.171875 -1.71875 C 16.109375 -2.09375 16.066406 -2.566406 16.046875 -3.140625 C 16.023438 -3.710938 16.015625 -4.429688 16.015625 -5.296875 L 16.015625 -12.078125 C 16.015625 -14.085938 15.664062 -15.5 14.96875 -16.3125 C 14.269531 -17.132812 13.140625 -17.546875 11.578125 -17.546875 L 9.234375 -17.546875 L 9.234375 0 L 2.46875 0 L 2.46875 -43.109375 L 12.6875 -43.109375 C 16.21875 -43.109375 18.773438 -42.285156 20.359375 -40.640625 C 21.941406 -39.003906 22.734375 -36.523438 22.734375 -33.203125 L 22.734375 -29.8125 C 22.734375 -25.375 21.253906 -22.457031 18.296875 -21.0625 C 20.015625 -20.363281 21.191406 -19.222656 21.828125 -17.640625 C 22.472656 -16.066406 22.796875 -14.148438 22.796875 -11.890625 L 22.796875 -5.234375 C 22.796875 -4.171875 22.832031 -3.238281 22.90625 -2.4375 C 22.988281 -1.632812 23.195312 -0.820312 23.53125 0 Z M 9.234375 -36.953125 L 9.234375 -23.71875 L 11.890625 -23.71875 C 13.160156 -23.71875 14.15625 -24.046875 14.875 -24.703125 C 15.59375 -25.359375 15.953125 -26.546875 15.953125 -28.265625 L 15.953125 -32.515625 C 15.953125 -34.078125 15.675781 -35.207031 15.125 -35.90625 C 14.570312 -36.601562 13.695312 -36.953125 12.5 -36.953125 Z M 9.234375 -36.953125 " transform="translate(108.398 53.564)" fill="#000000" class="color000 svgShape"></path><path d="M 9.234375 -24.953125 L 18.546875 -24.953125 L 18.546875 -18.78125 L 9.234375 -18.78125 L 9.234375 -6.15625 L 20.9375 -6.15625 L 20.9375 0 L 2.46875 0 L 2.46875 -43.109375 L 20.9375 -43.109375 L 20.9375 -36.953125 L 9.234375 -36.953125 Z M 9.234375 -24.953125 " transform="translate(133.155 53.564)" fill="#000000" class="color000 svgShape"></path><path d="M 9.234375 -24.953125 L 18.546875 -24.953125 L 18.546875 -18.78125 L 9.234375 -18.78125 L 9.234375 -6.15625 L 20.9375 -6.15625 L 20.9375 0 L 2.46875 0 L 2.46875 -43.109375 L 20.9375 -43.109375 L 20.9375 -36.953125 L 9.234375 -36.953125 Z M 9.234375 -24.953125 " transform="translate(155.819 53.564)" fill="#000000" class="color000 svgShape"></path><path d="M 0.609375 -43.109375 L 21.5625 -43.109375 L 21.5625 -36.953125 L 14.46875 -36.953125 L 14.46875 0 L 7.703125 0 L 7.703125 -36.953125 L 0.609375 -36.953125 Z M 0.609375 -43.109375 " transform="translate(188.028 53.564)" fill="#000000" class="color000 svgShape"></path><path d="M 2.46875 -43.109375 L 9.234375 -43.109375 L 9.234375 0 L 2.46875 0 Z M 2.46875 -43.109375 " transform="translate(210.199 53.564)" fill="#000000" class="color000 svgShape"></path><path d="M 8.5 -31.234375 L 8.5 0 L 2.40625 0 L 2.40625 -43.109375 L 10.90625 -43.109375 L 17.859375 -17.3125 L 17.859375 -43.109375 L 23.890625 -43.109375 L 23.890625 0 L 16.9375 0 Z M 8.5 -31.234375 " transform="translate(221.9 53.564)" fill="#000000" class="color000 svgShape"></path><path d="M 8.8125 -14.296875 L 0.25 -43.109375 L 7.328125 -43.109375 L 12.5 -23.46875 L 17.671875 -43.109375 L 24.140625 -43.109375 L 15.578125 -14.296875 L 15.578125 0 L 8.8125 0 Z M 8.8125 -14.296875 " transform="translate(248.197 53.564)" fill="#000000" class="color000 svgShape"></path><path d="M 0.609375 -43.109375 L 21.5625 -43.109375 L 21.5625 -36.953125 L 14.46875 -36.953125 L 14.46875 0 L 7.703125 0 L 7.703125 -36.953125 L 0.609375 -36.953125 Z M 0.609375 -43.109375 " transform="translate(282.13 53.564)" fill="#000000" class="color000 svgShape"></path><path d="M 8.6875 -9.921875 C 8.6875 -8.359375 9.003906 -7.257812 9.640625 -6.625 C 10.273438 -5.988281 11.128906 -5.671875 12.203125 -5.671875 C 13.265625 -5.671875 14.113281 -5.988281 14.75 -6.625 C 15.382812 -7.257812 15.703125 -8.359375 15.703125 -9.921875 L 15.703125 -33.203125 C 15.703125 -34.765625 15.382812 -35.863281 14.75 -36.5 C 14.113281 -37.132812 13.265625 -37.453125 12.203125 -37.453125 C 11.128906 -37.453125 10.273438 -37.132812 9.640625 -36.5 C 9.003906 -35.863281 8.6875 -34.765625 8.6875 -33.203125 Z M 1.90625 -32.765625 C 1.90625 -36.253906 2.785156 -38.929688 4.546875 -40.796875 C 6.316406 -42.671875 8.867188 -43.609375 12.203125 -43.609375 C 15.523438 -43.609375 18.066406 -42.671875 19.828125 -40.796875 C 21.597656 -38.929688 22.484375 -36.253906 22.484375 -32.765625 L 22.484375 -10.34375 C 22.484375 -6.851562 21.597656 -4.171875 19.828125 -2.296875 C 18.066406 -0.429688 15.523438 0.5 12.203125 0.5 C 8.867188 0.5 6.316406 -0.429688 4.546875 -2.296875 C 2.785156 -4.171875 1.90625 -6.851562 1.90625 -10.34375 Z M 1.90625 -32.765625 " transform="translate(304.302 53.564)" fill="#000000" class="color000 svgShape"></path><path d="M 8.6875 -9.921875 C 8.6875 -8.359375 9.003906 -7.257812 9.640625 -6.625 C 10.273438 -5.988281 11.128906 -5.671875 12.203125 -5.671875 C 13.265625 -5.671875 14.113281 -5.988281 14.75 -6.625 C 15.382812 -7.257812 15.703125 -8.359375 15.703125 -9.921875 L 15.703125 -33.203125 C 15.703125 -34.765625 15.382812 -35.863281 14.75 -36.5 C 14.113281 -37.132812 13.265625 -37.453125 12.203125 -37.453125 C 11.128906 -37.453125 10.273438 -37.132812 9.640625 -36.5 C 9.003906 -35.863281 8.6875 -34.765625 8.6875 -33.203125 Z M 1.90625 -32.765625 C 1.90625 -36.253906 2.785156 -38.929688 4.546875 -40.796875 C 6.316406 -42.671875 8.867188 -43.609375 12.203125 -43.609375 C 15.523438 -43.609375 18.066406 -42.671875 19.828125 -40.796875 C 21.597656 -38.929688 22.484375 -36.253906 22.484375 -32.765625 L 22.484375 -10.34375 C 22.484375 -6.851562 21.597656 -4.171875 19.828125 -2.296875 C 18.066406 -0.429688 15.523438 0.5 12.203125 0.5 C 8.867188 0.5 6.316406 -0.429688 4.546875 -2.296875 C 2.785156 -4.171875 1.90625 -6.851562 1.90625 -10.34375 Z M 1.90625 -32.765625 " transform="translate(328.69 53.564)" fill="#000000" class="color000 svgShape"></path><path d="M 2.46875 -43.109375 L 9.234375 -43.109375 L 9.234375 -6.15625 L 20.390625 -6.15625 L 20.390625 0 L 2.46875 0 Z M 2.46875 -43.109375 " transform="translate(353.078 53.564)" fill="#000000" class="color000 svgShape"></path><path d="M 1.59375 -32.765625 C 1.59375 -36.253906 2.425781 -38.929688 4.09375 -40.796875 C 5.757812 -42.671875 8.253906 -43.609375 11.578125 -43.609375 C 14.898438 -43.609375 17.394531 -42.671875 19.0625 -40.796875 C 20.726562 -38.929688 21.5625 -36.253906 21.5625 -32.765625 L 21.5625 -31.109375 L 15.15625 -31.109375 L 15.15625 -33.203125 C 15.15625 -34.765625 14.851562 -35.863281 14.25 -36.5 C 13.65625 -37.132812 12.828125 -37.453125 11.765625 -37.453125 C 10.691406 -37.453125 9.859375 -37.132812 9.265625 -36.5 C 8.671875 -35.863281 8.375 -34.765625 8.375 -33.203125 C 8.375 -31.722656 8.703125 -30.414062 9.359375 -29.28125 C 10.015625 -28.15625 10.832031 -27.085938 11.8125 -26.078125 C 12.800781 -25.078125 13.859375 -24.070312 14.984375 -23.0625 C 16.117188 -22.0625 17.175781 -20.960938 18.15625 -19.765625 C 19.144531 -18.578125 19.96875 -17.222656 20.625 -15.703125 C 21.289062 -14.179688 21.625 -12.394531 21.625 -10.34375 C 21.625 -6.851562 20.769531 -4.171875 19.0625 -2.296875 C 17.351562 -0.429688 14.835938 0.5 11.515625 0.5 C 8.191406 0.5 5.675781 -0.429688 3.96875 -2.296875 C 2.269531 -4.171875 1.421875 -6.851562 1.421875 -10.34375 L 1.421875 -13.296875 L 7.828125 -13.296875 L 7.828125 -9.921875 C 7.828125 -8.359375 8.144531 -7.269531 8.78125 -6.65625 C 9.414062 -6.039062 10.265625 -5.734375 11.328125 -5.734375 C 12.398438 -5.734375 13.253906 -6.039062 13.890625 -6.65625 C 14.523438 -7.269531 14.84375 -8.359375 14.84375 -9.921875 C 14.84375 -11.398438 14.515625 -12.703125 13.859375 -13.828125 C 13.203125 -14.953125 12.378906 -16.019531 11.390625 -17.03125 C 10.410156 -18.039062 9.351562 -19.046875 8.21875 -20.046875 C 7.09375 -21.054688 6.035156 -22.15625 5.046875 -23.34375 C 4.066406 -24.53125 3.242188 -25.882812 2.578125 -27.40625 C 1.921875 -28.925781 1.59375 -30.710938 1.59375 -32.765625 Z M 1.59375 -32.765625 " transform="translate(374.078 53.564)" fill="#000000" class="color000 svgShape"></path><g clip-path="url(#a)" fill="#000000" class="color000 svgShape"><path fill="#00401a" d="M 38.5 6.402344 L 67.5 6.402344 C 70.472656 6.402344 73.324219 7.582031 75.425781 9.683594 C 77.527344 11.785156 78.707031 14.636719 78.707031 17.609375 L 78.707031 46.605469 C 78.707031 49.578125 77.527344 52.429688 75.425781 54.53125 C 73.324219 56.632812 70.472656 57.8125 67.5 57.8125 L 38.5 57.8125 C 35.53125 57.8125 32.679688 56.632812 30.578125 54.53125 C 28.476562 52.429688 27.296875 49.578125 27.296875 46.605469 L 27.296875 17.609375 C 27.296875 14.636719 28.476562 11.785156 30.578125 9.683594 C 32.679688 7.582031 35.53125 6.402344 38.5 6.402344 " class="color00401a svgShape"></path></g><path fill="#ffffff" d="M 45.957031 27.238281 C 43.941406 27.238281 42.109375 28.058594 40.785156 29.382812 C 39.464844 30.703125 38.644531 32.542969 38.648438 34.558594 C 38.648438 36.582031 39.464844 38.417969 40.785156 39.738281 C 42.105469 41.0625 43.9375 41.882812 45.953125 41.882812 C 45.953125 41.882812 45.957031 41.882812 45.957031 41.882812 C 47.972656 41.882812 49.804688 41.0625 51.125 39.738281 C 52.445312 38.417969 53.265625 36.578125 53.265625 34.558594 L 51.46875 34.558594 C 51.46875 36.089844 50.851562 37.460938 49.851562 38.464844 C 48.851562 39.464844 47.480469 40.082031 45.957031 40.082031 C 44.429688 40.082031 43.058594 39.464844 42.058594 38.464844 C 41.058594 37.460938 40.445312 36.085938 40.445312 34.558594 C 40.445312 33.03125 41.058594 31.65625 42.058594 30.65625 C 43.058594 29.652344 44.429688 29.039062 45.957031 29.039062 C 47.480469 29.039062 48.851562 29.652344 49.851562 30.65625 C 50.851562 31.65625 51.46875 33.03125 51.46875 34.558594 L 53.265625 34.558594 C 53.265625 32.539062 52.445312 30.703125 51.125 29.382812 C 49.804688 28.058594 47.972656 27.238281 45.957031 27.238281 " class="colorf1f1f1 svgShape"></path><g clip-path="url(#b)" fill="#000000" class="color000 svgShape"><path fill="#ffffff" d="M 53.25 22.484375 C 52.046875 21.753906 50.726562 21.199219 49.324219 20.855469 L 49.109375 21.730469 L 50.007812 21.730469 L 50.007812 20.121094 C 50.007812 19.453125 49.734375 18.835938 49.296875 18.398438 C 48.859375 17.957031 48.246094 17.683594 47.578125 17.683594 L 44.335938 17.683594 C 43.667969 17.683594 43.054688 17.957031 42.617188 18.398438 C 42.179688 18.835938 41.902344 19.453125 41.90625 20.121094 L 41.90625 21.730469 L 42.804688 21.730469 L 42.589844 20.855469 C 41.1875 21.199219 39.863281 21.753906 38.664062 22.484375 L 39.128906 23.253906 L 39.765625 22.617188 L 38.628906 21.480469 C 38.394531 21.246094 38.117188 21.0625 37.824219 20.945312 C 37.53125 20.828125 37.21875 20.765625 36.910156 20.765625 C 36.597656 20.765625 36.285156 20.828125 35.992188 20.945312 C 35.699219 21.0625 35.425781 21.246094 35.1875 21.480469 L 32.898438 23.777344 C 32.660156 24.011719 32.480469 24.289062 32.363281 24.582031 C 32.246094 24.875 32.1875 25.1875 32.1875 25.5 C 32.1875 25.808594 32.246094 26.121094 32.363281 26.414062 C 32.480469 26.707031 32.660156 26.984375 32.898438 27.222656 L 34.035156 28.359375 L 34.667969 27.722656 L 33.898438 27.257812 C 33.167969 28.460938 32.617188 29.785156 32.273438 31.191406 L 33.148438 31.402344 L 33.148438 30.503906 L 31.539062 30.503906 C 30.871094 30.503906 30.257812 30.777344 29.820312 31.21875 C 29.382812 31.65625 29.105469 32.269531 29.109375 32.941406 L 29.109375 36.1875 C 29.109375 36.855469 29.382812 37.46875 29.820312 37.910156 C 30.257812 38.347656 30.871094 38.625 31.539062 38.621094 L 33.148438 38.621094 L 33.148438 37.722656 L 32.273438 37.9375 C 32.617188 39.339844 33.167969 40.664062 33.898438 41.871094 L 34.667969 41.402344 L 34.035156 40.765625 L 32.898438 41.902344 C 32.660156 42.140625 32.480469 42.417969 32.363281 42.710938 C 32.246094 43.003906 32.1875 43.316406 32.1875 43.625 C 32.1875 43.9375 32.246094 44.25 32.363281 44.542969 C 32.480469 44.835938 32.660156 45.113281 32.898438 45.351562 L 35.1875 47.644531 C 35.425781 47.882812 35.699219 48.0625 35.992188 48.179688 C 36.285156 48.300781 36.597656 48.359375 36.910156 48.359375 C 37.21875 48.359375 37.53125 48.300781 37.824219 48.179688 C 38.117188 48.0625 38.394531 47.882812 38.628906 47.644531 L 39.765625 46.507812 L 39.128906 45.871094 L 38.664062 46.640625 C 39.867188 47.371094 41.1875 47.925781 42.589844 48.269531 L 42.804688 47.394531 L 41.90625 47.394531 L 41.90625 49.003906 C 41.90625 49.671875 42.179688 50.285156 42.617188 50.726562 C 43.054688 51.164062 43.667969 51.441406 44.335938 51.4375 L 47.578125 51.4375 C 48.246094 51.4375 48.859375 51.164062 49.296875 50.726562 C 49.734375 50.289062 50.011719 49.671875 50.007812 49.003906 L 50.007812 47.394531 L 49.109375 47.394531 L 49.324219 48.269531 C 50.726562 47.925781 52.046875 47.371094 53.25 46.640625 L 52.785156 45.871094 L 52.148438 46.507812 L 53.285156 47.644531 C 53.519531 47.882812 53.796875 48.0625 54.089844 48.179688 C 54.382812 48.300781 54.691406 48.359375 55.003906 48.359375 C 55.316406 48.359375 55.625 48.300781 55.917969 48.179688 C 56.210938 48.0625 56.488281 47.882812 56.722656 47.644531 L 59.015625 45.351562 C 59.25 45.113281 59.429688 44.835938 59.550781 44.542969 C 59.667969 44.25 59.726562 43.9375 59.726562 43.625 C 59.726562 43.316406 59.667969 43.003906 59.550781 42.710938 C 59.429688 42.417969 59.25 42.140625 59.015625 41.902344 L 57.878906 40.765625 L 57.246094 41.402344 L 58.015625 41.871094 C 58.742188 40.664062 59.296875 39.339844 59.640625 37.9375 L 58.765625 37.722656 L 58.765625 38.621094 L 60.371094 38.621094 C 61.039062 38.621094 61.65625 38.347656 62.09375 37.910156 C 62.53125 37.472656 62.804688 36.855469 62.804688 36.1875 C 62.804688 35.6875 62.402344 35.285156 61.90625 35.285156 C 61.410156 35.285156 61.007812 35.6875 61.007812 36.1875 C 61.007812 36.363281 60.9375 36.515625 60.820312 36.636719 C 60.703125 36.753906 60.550781 36.820312 60.371094 36.824219 L 58.0625 36.824219 L 57.894531 37.507812 C 57.59375 38.734375 57.113281 39.890625 56.476562 40.9375 L 56.113281 41.542969 L 57.746094 43.179688 C 57.808594 43.242188 57.855469 43.3125 57.886719 43.386719 C 57.917969 43.464844 57.933594 43.546875 57.933594 43.625 C 57.933594 43.707031 57.917969 43.789062 57.886719 43.867188 C 57.855469 43.941406 57.8125 44.011719 57.746094 44.074219 L 55.457031 46.371094 C 55.390625 46.433594 55.320312 46.480469 55.246094 46.511719 C 55.171875 46.542969 55.089844 46.558594 55.007812 46.558594 C 54.925781 46.558594 54.84375 46.542969 54.769531 46.511719 C 54.691406 46.480469 54.625 46.433594 54.558594 46.371094 L 52.925781 44.734375 L 52.324219 45.097656 C 51.273438 45.738281 50.121094 46.21875 48.898438 46.519531 L 48.214844 46.6875 L 48.214844 49 C 48.214844 49.179688 48.144531 49.332031 48.03125 49.449219 C 47.914062 49.566406 47.757812 49.636719 47.582031 49.636719 L 44.339844 49.636719 C 44.160156 49.636719 44.007812 49.566406 43.890625 49.449219 C 43.773438 49.335938 43.707031 49.179688 43.703125 49 L 43.703125 46.6875 L 43.019531 46.519531 C 41.796875 46.21875 40.644531 45.734375 39.59375 45.097656 L 38.992188 44.734375 L 37.359375 46.371094 C 37.296875 46.433594 37.226562 46.480469 37.152344 46.511719 C 37.074219 46.542969 36.992188 46.558594 36.914062 46.558594 C 36.828125 46.558594 36.75 46.542969 36.671875 46.511719 C 36.597656 46.480469 36.527344 46.433594 36.464844 46.371094 L 34.171875 44.074219 C 34.109375 44.011719 34.0625 43.941406 34.03125 43.867188 C 34 43.789062 33.984375 43.707031 33.984375 43.625 C 33.984375 43.546875 34 43.464844 34.03125 43.386719 C 34.0625 43.3125 34.105469 43.242188 34.171875 43.179688 L 35.804688 41.542969 L 35.441406 40.9375 C 34.804688 39.890625 34.324219 38.734375 34.023438 37.507812 L 33.855469 36.824219 L 31.539062 36.824219 C 31.363281 36.824219 31.210938 36.753906 31.089844 36.636719 C 30.972656 36.519531 30.90625 36.367188 30.90625 36.1875 L 30.90625 32.941406 C 30.90625 32.761719 30.972656 32.609375 31.089844 32.488281 C 31.207031 32.371094 31.359375 32.304688 31.539062 32.304688 L 33.851562 32.304688 L 34.019531 31.617188 C 34.320312 30.390625 34.800781 29.238281 35.4375 28.1875 L 35.800781 27.585938 L 34.167969 25.949219 C 34.105469 25.882812 34.058594 25.816406 34.027344 25.738281 C 33.996094 25.664062 33.980469 25.582031 33.980469 25.5 C 33.980469 25.414062 33.996094 25.335938 34.027344 25.257812 C 34.058594 25.183594 34.101562 25.113281 34.167969 25.050781 L 36.460938 22.753906 C 36.523438 22.691406 36.59375 22.648438 36.667969 22.613281 C 36.742188 22.582031 36.824219 22.566406 36.90625 22.566406 C 36.988281 22.566406 37.070312 22.582031 37.144531 22.613281 C 37.222656 22.644531 37.292969 22.691406 37.355469 22.753906 L 38.988281 24.390625 L 39.59375 24.027344 C 40.640625 23.390625 41.792969 22.90625 43.015625 22.605469 L 43.699219 22.441406 L 43.699219 20.125 C 43.699219 19.945312 43.769531 19.792969 43.886719 19.675781 C 44.003906 19.558594 44.15625 19.488281 44.335938 19.488281 L 47.578125 19.488281 C 47.753906 19.488281 47.90625 19.558594 48.027344 19.675781 C 48.144531 19.792969 48.210938 19.945312 48.210938 20.125 L 48.210938 22.441406 L 48.894531 22.605469 C 50.121094 22.90625 51.269531 23.390625 52.320312 24.027344 C 52.742188 24.285156 53.296875 24.148438 53.554688 23.722656 C 53.808594 23.296875 53.675781 22.742188 53.25 22.484375 " class="colorfff svgShape"></path></g><path fill="#ffffff" d="M 64.285156 19.632812 C 64.285156 19.632812 64.28125 19.632812 64.28125 19.632812 C 62.753906 19.632812 61.359375 20.257812 60.359375 21.261719 C 59.355469 22.261719 58.730469 23.660156 58.730469 25.191406 C 58.730469 26.726562 59.355469 28.121094 60.359375 29.125 C 61.359375 30.128906 62.75 30.753906 64.28125 30.753906 C 65.8125 30.753906 67.207031 30.128906 68.207031 29.125 C 69.210938 28.121094 69.835938 26.726562 69.835938 25.191406 L 68.035156 25.191406 C 68.035156 26.234375 67.617188 27.167969 66.9375 27.851562 C 66.253906 28.535156 65.320312 28.953125 64.28125 28.953125 C 63.242188 28.953125 62.308594 28.535156 61.628906 27.851562 C 60.945312 27.167969 60.527344 26.234375 60.527344 25.191406 C 60.527344 24.152344 60.945312 23.214844 61.628906 22.535156 C 62.3125 21.851562 63.242188 21.433594 64.28125 21.433594 C 65.320312 21.433594 66.257812 21.851562 66.9375 22.535156 C 67.617188 23.21875 68.035156 24.152344 68.035156 25.191406 L 69.835938 25.191406 C 69.835938 23.660156 69.210938 22.261719 68.207031 21.261719 C 67.207031 20.257812 65.8125 19.632812 64.285156 19.632812 " class="colorfff svgShape"></path><g clip-path="url(#c)" fill="#000000" class="color000 svgShape"><path fill="#ffffff" d="M 59.191406 18.121094 L 59.792969 17.757812 C 60.53125 17.308594 61.34375 16.96875 62.207031 16.757812 L 62.894531 16.589844 L 62.894531 14.710938 C 62.894531 14.652344 62.914062 14.601562 62.957031 14.5625 C 62.996094 14.523438 63.046875 14.5 63.105469 14.5 L 65.457031 14.5 C 65.519531 14.5 65.566406 14.523438 65.609375 14.5625 C 65.648438 14.601562 65.671875 14.652344 65.671875 14.710938 L 65.671875 16.585938 L 66.355469 16.753906 C 67.222656 16.964844 68.035156 17.308594 68.773438 17.753906 L 69.375 18.121094 L 70.695312 16.796875 C 70.71875 16.773438 70.742188 16.757812 70.765625 16.75 C 70.792969 16.738281 70.820312 16.734375 70.847656 16.734375 C 70.875 16.734375 70.902344 16.738281 70.929688 16.75 C 70.953125 16.757812 70.976562 16.773438 71 16.796875 L 72.660156 18.460938 C 72.683594 18.484375 72.695312 18.507812 72.707031 18.53125 C 72.71875 18.554688 72.722656 18.582031 72.722656 18.613281 C 72.722656 18.640625 72.71875 18.667969 72.707031 18.691406 C 72.695312 18.71875 72.683594 18.738281 72.660156 18.761719 L 71.339844 20.089844 L 71.703125 20.691406 C 72.152344 21.433594 72.492188 22.246094 72.703125 23.113281 L 72.871094 23.796875 L 74.742188 23.796875 C 74.800781 23.796875 74.851562 23.820312 74.890625 23.859375 C 74.929688 23.902344 74.953125 23.949219 74.953125 24.011719 L 74.953125 26.367188 C 74.953125 26.429688 74.929688 26.476562 74.890625 26.519531 C 74.851562 26.558594 74.800781 26.582031 74.742188 26.582031 L 72.871094 26.582031 L 72.703125 27.265625 C 72.492188 28.132812 72.152344 28.945312 71.703125 29.6875 L 71.339844 30.289062 L 72.660156 31.613281 C 72.683594 31.636719 72.695312 31.660156 72.707031 31.683594 C 72.71875 31.710938 72.722656 31.738281 72.722656 31.765625 C 72.722656 31.792969 72.71875 31.820312 72.707031 31.847656 C 72.695312 31.871094 72.683594 31.894531 72.660156 31.917969 L 71 33.582031 C 70.976562 33.605469 70.953125 33.621094 70.929688 33.628906 C 70.902344 33.640625 70.875 33.644531 70.847656 33.644531 C 70.820312 33.644531 70.792969 33.640625 70.765625 33.628906 C 70.742188 33.617188 70.71875 33.605469 70.695312 33.582031 L 69.375 32.257812 L 68.773438 32.621094 C 68.035156 33.070312 67.222656 33.410156 66.355469 33.625 L 65.671875 33.792969 L 65.671875 35.667969 C 65.671875 35.730469 65.648438 35.777344 65.609375 35.820312 C 65.566406 35.859375 65.519531 35.882812 65.457031 35.882812 L 63.105469 35.882812 C 63.046875 35.882812 62.996094 35.859375 62.957031 35.820312 C 62.917969 35.777344 62.894531 35.730469 62.894531 35.667969 L 62.894531 33.792969 L 62.207031 33.625 C 61.34375 33.410156 60.53125 33.070312 59.792969 32.621094 L 59.191406 32.257812 L 57.867188 33.582031 C 57.84375 33.605469 57.824219 33.621094 57.796875 33.628906 C 57.773438 33.640625 57.746094 33.644531 57.71875 33.644531 C 57.6875 33.644531 57.660156 33.640625 57.636719 33.628906 C 57.613281 33.617188 57.589844 33.605469 57.566406 33.582031 L 55.90625 31.917969 C 55.882812 31.894531 55.867188 31.871094 55.859375 31.847656 C 55.847656 31.820312 55.839844 31.792969 55.839844 31.765625 C 55.839844 31.738281 55.847656 31.710938 55.859375 31.683594 C 55.867188 31.660156 55.882812 31.636719 55.90625 31.613281 L 57.226562 30.289062 L 56.863281 29.6875 C 56.414062 28.945312 56.074219 28.132812 55.863281 27.265625 L 55.695312 26.582031 L 53.824219 26.582031 C 53.761719 26.582031 53.714844 26.558594 53.671875 26.519531 C 53.632812 26.476562 53.609375 26.429688 53.609375 26.367188 L 53.609375 24.011719 C 53.609375 23.949219 53.632812 23.902344 53.671875 23.859375 C 53.714844 23.820312 53.761719 23.796875 53.824219 23.796875 L 55.695312 23.796875 L 55.863281 23.113281 C 56.074219 22.246094 56.414062 21.433594 56.863281 20.691406 L 57.226562 20.089844 L 55.90625 18.761719 C 55.882812 18.738281 55.867188 18.71875 55.859375 18.691406 C 55.847656 18.667969 55.839844 18.640625 55.839844 18.613281 C 55.839844 18.582031 55.847656 18.554688 55.859375 18.53125 C 55.867188 18.507812 55.882812 18.484375 55.90625 18.460938 L 57.566406 16.796875 C 57.589844 16.773438 57.613281 16.757812 57.636719 16.75 C 57.660156 16.738281 57.6875 16.734375 57.71875 16.734375 C 57.746094 16.734375 57.773438 16.738281 57.796875 16.75 C 57.824219 16.757812 57.84375 16.773438 57.867188 16.796875 L 59.191406 18.121094 M 65.460938 12.699219 L 63.109375 12.699219 C 63.109375 12.699219 63.105469 12.699219 63.105469 12.699219 C 62.554688 12.699219 62.050781 12.925781 61.6875 13.289062 C 61.324219 13.652344 61.097656 14.160156 61.097656 14.710938 L 61.097656 15.199219 C 60.539062 15.378906 60 15.605469 59.484375 15.867188 L 59.140625 15.523438 C 58.945312 15.332031 58.71875 15.179688 58.476562 15.082031 C 58.234375 14.984375 57.976562 14.933594 57.71875 14.933594 C 57.460938 14.933594 57.207031 14.984375 56.964844 15.082031 C 56.71875 15.179688 56.492188 15.328125 56.296875 15.523438 L 54.636719 17.191406 C 54.441406 17.382812 54.292969 17.613281 54.195312 17.855469 C 54.09375 18.097656 54.046875 18.355469 54.046875 18.613281 C 54.046875 18.871094 54.09375 19.128906 54.195312 19.371094 C 54.292969 19.613281 54.441406 19.84375 54.636719 20.039062 L 54.980469 20.382812 C 54.714844 20.898438 54.488281 21.4375 54.3125 22 L 53.828125 22 C 53.828125 22 53.824219 22 53.824219 22 C 53.476562 22 53.144531 22.089844 52.855469 22.25 C 52.992188 22.324219 53.125 22.402344 53.253906 22.480469 C 53.679688 22.738281 53.816406 23.292969 53.558594 23.71875 C 53.386719 23.996094 53.09375 24.152344 52.789062 24.152344 C 52.628906 24.152344 52.46875 24.109375 52.324219 24.019531 C 52.164062 23.921875 52 23.828125 51.832031 23.738281 C 51.820312 23.828125 51.816406 23.921875 51.816406 24.011719 L 51.816406 26.367188 C 51.816406 26.921875 52.042969 27.429688 52.40625 27.792969 C 52.765625 28.15625 53.273438 28.382812 53.828125 28.382812 L 54.3125 28.382812 C 54.492188 28.941406 54.714844 29.484375 54.980469 30 L 54.636719 30.34375 C 54.445312 30.539062 54.292969 30.765625 54.195312 31.007812 C 54.097656 31.253906 54.046875 31.511719 54.046875 31.769531 C 54.046875 32.023438 54.097656 32.28125 54.195312 32.527344 C 54.292969 32.769531 54.445312 32.996094 54.636719 33.191406 L 56.300781 34.855469 C 56.492188 35.050781 56.722656 35.199219 56.964844 35.300781 C 57.207031 35.398438 57.464844 35.449219 57.722656 35.449219 C 57.976562 35.449219 58.234375 35.398438 58.476562 35.300781 C 58.71875 35.199219 58.949219 35.050781 59.144531 34.855469 L 59.484375 34.511719 C 60 34.78125 60.539062 35.003906 61.101562 35.179688 L 61.101562 35.667969 C 61.101562 35.707031 61.101562 35.742188 61.105469 35.777344 C 61.25 35.480469 61.554688 35.277344 61.910156 35.277344 C 62.40625 35.277344 62.808594 35.683594 62.808594 36.179688 C 62.808594 36.683594 62.652344 37.15625 62.386719 37.546875 C 62.613281 37.632812 62.859375 37.683594 63.109375 37.683594 C 63.109375 37.683594 63.109375 37.683594 63.113281 37.683594 L 65.464844 37.683594 C 66.015625 37.683594 66.523438 37.457031 66.886719 37.089844 C 67.246094 36.730469 67.472656 36.21875 67.472656 35.667969 L 67.472656 35.179688 C 68.035156 35.003906 68.574219 34.777344 69.089844 34.511719 L 69.429688 34.855469 C 69.625 35.050781 69.855469 35.199219 70.097656 35.300781 C 70.339844 35.398438 70.597656 35.449219 70.851562 35.449219 C 71.109375 35.449219 71.367188 35.398438 71.609375 35.300781 C 71.851562 35.199219 72.082031 35.050781 72.273438 34.855469 L 73.9375 33.191406 C 74.132812 32.996094 74.28125 32.769531 74.378906 32.527344 C 74.476562 32.28125 74.527344 32.023438 74.527344 31.769531 C 74.527344 31.511719 74.476562 31.253906 74.378906 31.007812 C 74.28125 30.765625 74.132812 30.539062 73.9375 30.34375 L 73.59375 30 C 73.859375 29.484375 74.082031 28.945312 74.261719 28.382812 L 74.746094 28.382812 C 75.300781 28.382812 75.808594 28.15625 76.167969 27.792969 C 76.53125 27.429688 76.757812 26.921875 76.757812 26.367188 L 76.757812 24.011719 C 76.757812 23.460938 76.53125 22.953125 76.167969 22.589844 C 75.808594 22.226562 75.300781 22 74.75 22 C 74.75 22 74.746094 22 74.746094 22 L 74.261719 22 C 74.082031 21.4375 73.859375 20.898438 73.59375 20.382812 L 73.9375 20.039062 C 74.132812 19.84375 74.28125 19.613281 74.378906 19.371094 C 74.476562 19.128906 74.527344 18.871094 74.527344 18.613281 C 74.527344 18.355469 74.476562 18.097656 74.378906 17.855469 C 74.28125 17.613281 74.132812 17.382812 73.9375 17.191406 L 72.273438 15.523438 C 72.082031 15.332031 71.851562 15.179688 71.609375 15.082031 C 71.367188 14.984375 71.109375 14.933594 70.851562 14.933594 C 70.597656 14.933594 70.339844 14.984375 70.097656 15.082031 C 69.855469 15.179688 69.625 15.328125 69.429688 15.523438 L 69.089844 15.867188 C 68.574219 15.601562 68.035156 15.378906 67.472656 15.199219 L 67.472656 14.714844 C 67.472656 14.160156 67.246094 13.652344 66.886719 13.289062 C 66.519531 12.925781 66.011719 12.699219 65.460938 12.699219 " class="colorfff svgShape"></path></g><path fill="#ffffff" d="M 61.902344 35.285156 C 61.550781 35.285156 61.246094 35.488281 61.097656 35.78125 C 61.125 36.292969 61.347656 36.761719 61.683594 37.097656 C 61.878906 37.292969 62.117188 37.449219 62.382812 37.550781 C 62.644531 37.160156 62.800781 36.6875 62.800781 36.183594 C 62.800781 35.6875 62.398438 35.285156 61.902344 35.285156 M 52.851562 22.25 C 52.683594 22.34375 52.53125 22.457031 52.398438 22.589844 C 52.097656 22.890625 51.890625 23.296875 51.832031 23.742188 C 51.996094 23.832031 52.160156 23.925781 52.320312 24.023438 C 52.464844 24.109375 52.625 24.152344 52.785156 24.152344 C 53.089844 24.152344 53.386719 24 53.554688 23.71875 C 53.8125 23.296875 53.675781 22.742188 53.25 22.484375 C 53.117188 22.402344 52.984375 22.328125 52.851562 22.25 " class="colorfff svgShape"></path></svg></g></svg>