<svg id="svg" version="1.1" xmlns="http://www.w3.org/2000/svg" xmlns:xlink="http://www.w3.org/1999/xlink" width="400" height="400" viewBox="0, 0, 400,400"><g id="svgg"><path id="path0" d="M0.030 90.813 C 0.055 166.606,0.114 181.356,0.389 180.000 C 0.570 179.106,1.007 176.631,1.360 174.500 C 3.420 162.083,3.772 160.164,5.026 154.500 C 6.533 147.699,9.196 138.645,11.499 132.500 C 11.936 131.331,12.384 130.094,12.493 129.750 C 13.924 125.235,20.081 111.667,23.496 105.500 C 24.219 104.194,25.064 102.669,25.374 102.111 C 25.683 101.553,26.442 100.260,27.060 99.236 C 27.678 98.212,28.396 96.969,28.655 96.472 C 29.188 95.448,33.921 88.104,35.250 86.238 C 39.951 79.638,43.000 75.615,45.110 73.226 C 45.668 72.594,46.688 71.363,47.375 70.491 C 51.330 65.472,62.668 53.942,68.250 49.262 C 73.844 44.571,75.825 42.954,77.750 41.504 C 78.919 40.624,79.931 39.831,80.000 39.743 C 80.069 39.654,80.969 38.977,82.000 38.238 C 83.031 37.499,83.931 36.822,84.000 36.734 C 84.069 36.647,84.379 36.441,84.690 36.277 C 85.001 36.114,86.238 35.277,87.440 34.418 C 90.184 32.456,97.331 27.973,100.875 25.992 C 107.700 22.175,120.041 16.000,120.844 16.000 C 121.012 16.000,121.257 15.905,121.387 15.789 C 121.518 15.672,122.750 15.119,124.125 14.560 C 132.988 10.954,141.970 8.027,151.125 5.761 C 153.638 5.139,157.510 4.257,158.875 3.995 C 164.585 2.902,170.966 1.814,174.875 1.268 C 184.046 -0.013,188.832 0.057,90.313 0.027 L 0.000 0.000 0.030 90.813 M219.625 0.369 C 220.738 0.656,223.601 1.126,231.875 2.377 C 233.250 2.585,234.966 2.866,235.688 3.002 C 236.409 3.139,237.534 3.348,238.188 3.469 C 257.319 6.992,280.782 15.489,296.241 24.492 C 297.140 25.016,298.325 25.694,298.875 26.001 C 303.808 28.750,311.160 33.434,315.573 36.640 C 317.896 38.327,324.409 43.223,324.911 43.659 C 325.205 43.916,326.493 44.969,327.772 46.000 C 334.986 51.818,348.082 64.578,351.597 69.216 C 351.872 69.578,352.441 70.279,352.861 70.773 C 355.048 73.345,358.524 77.720,360.788 80.750 C 363.736 84.696,368.434 91.799,371.373 96.750 C 372.719 99.019,374.188 101.494,374.636 102.250 C 375.610 103.893,381.367 115.243,382.308 117.375 C 382.672 118.200,383.273 119.548,383.644 120.370 C 384.553 122.387,386.647 127.666,387.515 130.125 C 387.902 131.225,388.570 133.081,388.997 134.250 C 392.420 143.608,395.701 156.863,397.629 169.125 C 397.975 171.325,398.425 174.025,398.629 175.125 C 398.833 176.225,399.005 177.575,399.011 178.125 C 399.016 178.675,399.233 179.969,399.492 181.000 C 399.956 182.847,399.963 181.521,399.982 91.438 L 400.000 0.000 309.188 0.023 C 234.436 0.041,218.596 0.103,219.625 0.369 M158.125 85.168 C 147.606 86.046,137.050 91.131,129.336 99.035 C 121.948 106.605,118.070 114.120,115.807 125.250 C 115.296 127.762,115.223 218.568,115.731 219.440 C 115.964 219.839,115.986 219.834,116.001 219.375 C 116.015 218.909,116.535 217.319,117.213 215.667 C 117.373 215.277,117.688 214.377,117.913 213.667 C 118.138 212.956,118.419 212.268,118.536 212.137 C 118.654 212.007,118.750 211.767,118.750 211.603 C 118.750 209.688,124.648 200.448,128.320 196.611 C 138.148 186.343,149.092 181.678,164.196 181.318 C 169.488 181.192,169.785 181.159,170.134 180.662 C 170.447 180.214,170.500 177.617,170.500 162.709 C 170.500 149.040,170.567 145.236,170.813 145.077 C 170.984 144.966,190.813 144.813,214.875 144.737 L 258.625 144.600 261.385 143.844 C 271.343 141.116,278.918 134.218,282.078 125.000 C 284.332 118.424,284.231 109.854,281.832 104.250 C 279.978 99.918,278.192 97.026,275.777 94.443 C 270.512 88.816,264.455 85.910,256.625 85.256 C 253.905 85.029,160.789 84.945,158.125 85.168 M399.750 216.927 C 399.750 217.024,399.585 218.177,399.384 219.489 C 399.183 220.801,398.832 223.113,398.603 224.625 C 398.035 228.380,397.891 229.237,397.007 234.125 C 396.584 236.463,396.066 239.331,395.857 240.500 C 394.690 247.018,391.329 258.945,388.017 268.328 C 385.156 276.432,379.076 289.853,375.166 296.698 C 371.517 303.085,366.708 310.862,364.776 313.500 C 364.222 314.256,363.491 315.269,363.152 315.750 C 350.661 333.454,332.306 351.746,315.072 363.664 C 300.291 373.885,286.011 381.368,269.252 387.674 C 256.809 392.355,242.471 395.984,227.468 398.250 C 222.622 398.982,218.736 399.681,218.565 399.852 C 218.483 399.933,259.273 400.000,309.208 400.000 L 400.000 400.000 400.000 308.375 C 400.000 257.981,399.944 216.750,399.875 216.750 C 399.806 216.750,399.750 216.829,399.750 216.927 M0.025 309.313 L 0.000 400.000 90.675 400.000 C 158.897 400.000,181.279 399.929,181.063 399.713 C 180.905 399.555,179.055 399.173,176.951 398.865 C 174.847 398.556,171.100 397.948,168.625 397.513 C 166.150 397.079,163.563 396.625,162.875 396.505 C 160.354 396.063,154.433 394.803,152.250 394.244 C 151.769 394.121,149.912 393.670,148.125 393.242 C 146.338 392.814,144.594 392.367,144.250 392.249 C 143.906 392.131,142.781 391.787,141.750 391.484 C 140.719 391.182,138.581 390.487,137.000 389.939 C 135.419 389.392,133.675 388.801,133.125 388.625 C 126.911 386.643,111.005 379.470,104.250 375.603 C 103.631 375.249,102.000 374.329,100.625 373.557 C 96.244 371.101,87.964 365.809,84.125 363.012 C 82.888 362.110,81.425 361.063,80.875 360.685 C 78.618 359.132,71.917 353.723,67.641 350.000 C 62.016 345.104,51.417 334.211,46.477 328.250 C 44.141 325.432,40.054 320.294,39.299 319.228 C 38.869 318.621,37.660 316.944,36.611 315.500 C 31.442 308.387,25.524 298.517,20.781 289.099 C 19.389 286.335,18.250 284.011,18.250 283.936 C 18.250 283.861,17.796 282.825,17.240 281.634 C 16.685 280.443,16.004 278.894,15.727 278.192 C 15.450 277.490,14.991 276.405,14.707 275.781 C 14.142 274.541,11.903 268.723,11.375 267.125 C 11.194 266.575,10.486 264.494,9.803 262.500 C 8.032 257.330,7.416 255.177,5.404 247.125 C 4.309 242.743,3.075 236.192,1.495 226.375 C -0.070 216.646,0.053 209.699,0.025 309.313 M115.846 254.798 C 115.046 256.092,115.692 287.724,116.590 291.250 C 124.520 322.371,167.342 322.198,174.925 291.014 C 178.993 274.286,166.969 257.024,149.669 254.756 C 146.746 254.373,116.085 254.410,115.846 254.798 " stroke="none" fill="#fafafb" fill-rule="evenodd"></path><path id="path1" d="M185.962 0.121 C 185.891 0.192,184.605 0.420,183.104 0.627 C 181.603 0.834,179.306 1.168,178.000 1.369 C 176.694 1.570,173.825 1.967,171.625 2.252 C 169.425 2.536,166.556 2.981,165.250 3.241 C 163.944 3.501,161.300 4.009,159.375 4.371 C 149.601 6.207,134.983 10.514,126.250 14.130 C 121.165 16.236,111.273 20.736,110.625 21.239 C 110.487 21.345,109.194 22.033,107.750 22.768 C 106.306 23.502,104.070 24.698,102.780 25.426 C 101.491 26.154,100.399 26.750,100.354 26.750 C 99.553 26.750,83.999 37.102,79.750 40.463 C 78.444 41.496,76.717 42.855,75.913 43.483 C 74.563 44.538,72.690 46.100,68.879 49.349 C 60.032 56.893,48.656 68.950,41.630 78.230 C 40.945 79.135,40.298 79.912,40.192 79.958 C 40.087 80.004,40.000 80.150,40.000 80.283 C 40.000 80.415,39.128 81.691,38.063 83.118 C 36.997 84.545,35.868 86.086,35.553 86.543 C 33.639 89.325,31.054 93.357,29.329 96.250 C 28.551 97.556,27.477 99.336,26.942 100.205 C 26.079 101.608,20.750 111.420,20.750 111.606 C 20.750 111.646,19.906 113.437,18.875 115.584 C 17.844 117.732,17.000 119.544,17.000 119.612 C 17.000 119.680,16.735 120.329,16.410 121.055 C 15.574 122.928,13.414 128.306,12.668 130.375 C 10.607 136.088,9.028 140.863,8.119 144.125 C 7.927 144.813,7.427 146.613,7.007 148.125 C 5.680 152.906,4.041 160.632,3.109 166.500 C -0.054 186.427,0.173 184.022,0.060 198.750 C -0.004 207.081,0.055 212.287,0.228 213.500 C 0.375 214.531,0.671 216.838,0.886 218.625 C 1.101 220.412,1.376 222.269,1.497 222.750 C 1.617 223.231,1.841 224.694,1.993 226.000 C 4.936 251.255,13.168 275.415,27.421 300.625 C 30.153 305.458,37.922 317.179,40.179 319.875 C 40.294 320.012,40.779 320.631,41.257 321.250 C 41.734 321.869,42.181 322.431,42.250 322.500 C 42.319 322.569,43.324 323.806,44.484 325.250 C 52.098 334.727,63.465 346.301,71.625 352.883 C 73.138 354.103,74.431 355.163,74.500 355.238 C 79.490 360.701,106.146 377.126,118.625 382.427 C 119.313 382.719,120.719 383.314,121.750 383.748 C 122.781 384.182,123.963 384.690,124.375 384.876 C 132.441 388.513,148.548 393.384,159.125 395.385 C 167.574 396.983,168.665 397.155,181.990 399.003 C 184.116 399.298,186.055 399.646,186.298 399.776 C 186.947 400.123,213.079 399.919,215.750 399.545 C 216.919 399.382,219.506 398.979,221.500 398.650 C 223.494 398.320,226.137 397.920,227.375 397.760 C 228.613 397.599,230.188 397.366,230.875 397.240 C 231.563 397.115,233.531 396.776,235.250 396.487 C 238.104 396.007,246.965 394.122,249.375 393.482 C 249.925 393.336,250.769 393.121,251.250 393.005 C 253.425 392.478,261.246 390.086,264.750 388.876 C 275.028 385.325,288.622 379.324,295.625 375.247 C 296.175 374.927,297.581 374.140,298.750 373.498 C 301.380 372.054,304.363 370.281,306.500 368.890 C 312.298 365.116,316.771 362.016,319.564 359.835 C 320.592 359.032,322.883 357.252,324.654 355.880 C 326.426 354.508,328.269 353.034,328.750 352.603 C 329.231 352.173,331.224 350.395,333.179 348.654 C 341.254 341.460,350.042 332.128,356.867 323.500 C 359.420 320.273,359.848 319.707,362.151 316.500 C 368.486 307.682,373.742 298.972,378.748 289.000 C 383.281 279.968,386.172 272.946,389.656 262.500 C 390.413 260.231,391.322 257.306,391.675 256.000 C 392.029 254.694,392.539 252.838,392.809 251.875 C 393.079 250.912,393.401 249.703,393.525 249.188 C 393.649 248.672,393.854 247.828,393.982 247.313 C 394.408 245.592,395.512 240.399,395.883 238.375 C 397.587 229.069,398.275 224.704,398.756 220.125 C 398.901 218.750,399.088 217.400,399.172 217.125 C 400.029 214.309,400.281 190.957,399.512 185.500 C 399.232 183.506,398.775 180.075,398.497 177.875 C 398.219 175.675,397.884 173.256,397.752 172.500 C 397.620 171.744,397.390 170.281,397.240 169.250 C 394.160 148.080,386.412 124.759,376.227 106.000 C 371.840 97.920,365.764 88.161,361.903 82.991 C 361.200 82.049,359.986 80.397,359.204 79.320 C 357.884 77.499,357.037 76.439,353.542 72.230 C 352.042 70.425,350.252 68.307,349.875 67.892 C 349.738 67.741,348.618 66.494,347.386 65.121 C 342.903 60.122,335.275 52.737,330.505 48.776 C 328.921 47.461,327.280 46.074,326.859 45.695 C 324.752 43.796,315.839 37.217,310.782 33.828 C 299.438 26.224,286.553 19.331,275.509 14.956 C 274.473 14.546,273.288 14.067,272.875 13.892 C 270.055 12.698,260.260 9.329,256.500 8.259 C 253.140 7.303,251.592 6.897,247.451 5.885 C 244.880 5.256,240.943 4.408,238.701 3.999 C 236.459 3.590,234.063 3.144,233.375 3.009 C 232.225 2.784,229.642 2.432,221.250 1.357 C 219.531 1.136,217.113 0.780,215.875 0.564 C 213.669 0.180,186.309 -0.225,185.962 0.121 M257.207 84.773 C 261.591 85.269,263.731 85.922,267.927 88.048 C 289.892 99.178,289.411 131.637,267.125 142.144 C 260.216 145.401,257.927 145.515,201.061 145.452 C 184.664 145.434,171.186 145.481,171.111 145.556 C 170.934 145.732,170.969 180.498,171.146 180.784 C 171.219 180.903,179.738 181.003,190.077 181.006 C 219.446 181.016,221.411 181.254,228.531 185.658 C 249.345 198.533,247.625 228.814,225.505 238.924 C 221.251 240.869,218.088 241.491,211.000 241.779 C 202.865 242.109,116.190 241.869,115.528 241.515 C 114.722 241.084,114.318 132.679,115.103 127.195 C 118.360 104.413,136.097 86.828,158.000 84.666 C 160.486 84.421,254.991 84.523,257.207 84.773 M150.267 254.388 C 172.211 257.449,183.363 283.647,170.570 302.085 C 167.402 306.652,161.055 311.605,156.750 312.872 C 156.406 312.973,155.787 313.198,155.375 313.371 C 153.222 314.278,149.105 315.001,146.125 314.995 C 130.065 314.965,117.281 303.374,115.525 287.250 C 115.149 283.798,115.110 255.228,115.481 254.536 L 115.768 254.000 131.625 254.000 C 144.601 254.000,147.989 254.071,150.267 254.388 " stroke="none" fill="#2b3b53" fill-rule="evenodd"></path><path id="path2" d="M169.868 180.968 C 169.734 181.094,167.150 181.254,164.125 181.324 C 157.479 181.479,153.929 181.963,149.776 183.282 C 145.424 184.663,139.976 187.060,140.346 187.429 C 140.413 187.496,140.725 187.371,141.039 187.150 C 141.658 186.717,142.001 186.641,141.998 186.938 C 141.996 187.193,140.547 188.000,140.090 188.000 C 139.887 188.000,139.796 187.878,139.888 187.729 C 140.081 187.417,138.864 188.023,138.125 188.607 C 137.646 188.986,137.653 188.993,138.301 188.762 C 139.284 188.412,138.969 189.030,137.727 189.891 C 136.562 190.698,136.162 190.525,137.020 189.585 C 137.831 188.697,135.241 190.427,132.708 192.466 C 128.103 196.173,121.881 203.914,122.131 205.625 C 122.223 206.253,122.210 206.277,122.051 205.771 L 121.862 205.166 121.466 205.771 C 120.898 206.638,118.750 211.251,118.750 211.603 C 118.750 211.767,118.654 212.007,118.536 212.137 C 118.419 212.268,118.138 212.956,117.913 213.667 C 117.688 214.377,117.373 215.277,117.213 215.667 C 116.534 217.321,116.016 218.908,116.008 219.354 C 115.996 220.077,115.697 219.628,115.483 218.565 C 115.379 218.048,115.352 220.213,115.424 223.375 C 115.495 226.537,115.570 231.731,115.589 234.917 C 115.609 238.102,115.702 240.785,115.796 240.879 C 115.890 240.973,138.615 241.053,166.296 241.058 L 216.625 241.065 219.375 240.386 C 222.497 239.616,223.748 239.238,224.163 238.937 C 224.322 238.823,224.796 238.630,225.216 238.510 C 226.231 238.219,230.750 235.550,230.750 235.242 C 230.750 235.109,230.901 235.000,231.086 235.000 C 231.743 235.000,235.403 231.180,237.815 227.976 C 238.057 227.655,238.747 226.432,239.349 225.258 C 244.088 216.015,243.630 204.236,238.212 196.050 C 237.820 195.459,237.500 194.912,237.500 194.836 C 237.500 194.543,235.323 191.897,233.854 190.404 C 230.087 186.574,224.726 183.672,219.125 182.430 C 216.678 181.887,216.237 181.874,198.375 181.838 C 168.039 181.777,170.513 181.829,170.297 181.245 C 170.181 180.931,170.018 180.826,169.868 180.968 M136.250 190.512 C 136.250 190.656,135.913 190.965,135.502 191.199 C 135.090 191.433,134.752 191.709,134.752 191.813 C 134.751 191.916,134.497 192.000,134.188 191.999 C 133.672 191.998,133.688 191.960,134.375 191.540 C 134.787 191.287,135.279 190.894,135.468 190.666 C 135.855 190.197,136.250 190.119,136.250 190.512 M132.991 193.486 C 132.364 193.905,130.151 196.067,129.440 196.956 C 129.201 197.255,128.769 197.500,128.480 197.500 C 127.963 197.500,127.964 197.490,128.545 196.813 C 129.449 195.760,132.313 193.106,132.875 192.802 C 133.617 192.400,133.719 193.000,132.991 193.486 M126.751 199.374 C 126.428 199.717,126.118 199.952,126.062 199.895 C 125.923 199.756,126.814 198.797,127.106 198.771 C 127.233 198.759,127.073 199.031,126.751 199.374 M121.614 207.063 C 121.412 207.729,121.064 208.147,120.870 207.953 C 120.679 207.763,121.276 206.500,121.557 206.500 C 121.682 206.500,121.707 206.753,121.614 207.063 " stroke="none" fill="#4eacfb" fill-rule="evenodd"></path><path id="path3" d="M178.750 0.522 C 177.719 0.779,175.975 1.115,174.875 1.268 C 170.966 1.814,164.585 2.902,158.875 3.995 C 148.736 5.937,135.215 10.048,124.125 14.560 C 122.750 15.119,121.518 15.672,121.388 15.789 C 121.257 15.905,121.012 16.000,120.844 16.000 C 120.041 16.000,107.700 22.175,100.875 25.992 C 97.331 27.973,90.184 32.456,87.440 34.418 C 86.238 35.277,85.001 36.114,84.690 36.277 C 84.379 36.441,84.069 36.647,84.000 36.734 C 83.931 36.822,83.031 37.499,82.000 38.238 C 80.969 38.977,80.069 39.654,80.000 39.743 C 79.931 39.831,78.919 40.624,77.750 41.504 C 75.825 42.954,73.844 44.571,68.250 49.262 C 62.668 53.942,51.330 65.472,47.375 70.491 C 46.688 71.363,45.668 72.594,45.110 73.226 C 43.000 75.615,39.951 79.638,35.250 86.238 C 33.921 88.104,29.188 95.448,28.655 96.472 C 28.396 96.969,27.678 98.212,27.060 99.236 C 26.442 100.260,25.683 101.553,25.374 102.111 C 25.064 102.669,24.219 104.194,23.496 105.500 C 20.081 111.667,13.924 125.235,12.493 129.750 C 12.384 130.094,11.936 131.331,11.499 132.500 C 8.177 141.366,4.929 153.496,3.265 163.250 C 3.113 164.144,2.774 166.113,2.512 167.625 C 2.250 169.137,1.906 171.219,1.749 172.250 C 1.591 173.281,1.133 175.937,0.731 178.152 C 0.300 180.528,0.006 182.988,0.016 184.152 C 0.036 186.668,0.332 185.991,0.738 182.500 C 1.268 177.948,3.451 163.960,4.211 160.250 C 5.206 155.393,6.266 150.795,7.007 148.125 C 7.427 146.613,7.927 144.813,8.119 144.125 C 9.028 140.863,10.607 136.088,12.668 130.375 C 13.414 128.306,15.574 122.928,16.410 121.055 C 16.735 120.329,17.000 119.680,17.000 119.612 C 17.000 119.544,17.844 117.732,18.875 115.584 C 19.906 113.437,20.750 111.646,20.750 111.606 C 20.750 111.420,26.079 101.608,26.942 100.205 C 27.477 99.336,28.551 97.556,29.329 96.250 C 31.054 93.357,33.639 89.325,35.553 86.543 C 35.868 86.086,36.997 84.545,38.063 83.118 C 39.128 81.691,40.000 80.415,40.000 80.283 C 40.000 80.150,40.087 80.004,40.192 79.958 C 40.298 79.912,40.945 79.135,41.630 78.230 C 48.656 68.950,60.032 56.893,68.879 49.349 C 72.690 46.100,74.563 44.538,75.913 43.483 C 76.717 42.855,78.444 41.496,79.750 40.463 C 83.999 37.102,99.553 26.750,100.354 26.750 C 100.399 26.750,101.491 26.154,102.780 25.426 C 104.070 24.698,106.306 23.502,107.750 22.768 C 109.194 22.033,110.487 21.345,110.625 21.239 C 111.273 20.736,121.165 16.236,126.250 14.130 C 134.983 10.514,149.601 6.207,159.375 4.371 C 161.300 4.009,163.944 3.501,165.250 3.241 C 166.556 2.981,169.425 2.536,171.625 2.252 C 173.825 1.967,176.694 1.570,178.000 1.369 C 179.306 1.168,181.603 0.834,183.104 0.627 C 184.605 0.420,185.889 0.194,185.958 0.125 C 186.307 -0.224,180.449 0.099,178.750 0.522 M213.750 0.230 C 213.956 0.348,215.137 0.571,216.375 0.727 C 217.613 0.882,219.863 1.172,221.375 1.370 C 222.887 1.569,225.925 1.964,228.125 2.247 C 230.325 2.531,232.688 2.873,233.375 3.009 C 234.063 3.144,236.459 3.590,238.701 3.999 C 240.943 4.408,244.880 5.256,247.451 5.885 C 251.592 6.897,253.140 7.303,256.500 8.259 C 260.260 9.329,270.055 12.698,272.875 13.892 C 273.288 14.067,274.473 14.546,275.509 14.956 C 286.553 19.331,299.438 26.224,310.782 33.828 C 315.839 37.217,324.752 43.796,326.859 45.695 C 327.280 46.074,328.921 47.461,330.505 48.776 C 335.275 52.737,342.903 60.122,347.386 65.121 C 348.618 66.494,349.738 67.741,349.875 67.892 C 350.252 68.307,352.042 70.425,353.542 72.230 C 357.037 76.439,357.884 77.499,359.204 79.320 C 359.986 80.397,361.200 82.049,361.903 82.991 C 363.775 85.497,368.650 92.899,370.799 96.500 C 386.452 122.717,394.605 146.889,398.626 179.000 C 398.858 180.856,399.249 183.669,399.495 185.250 L 399.942 188.125 399.969 185.625 C 399.988 183.907,399.841 182.475,399.498 181.047 C 399.224 179.904,399.000 178.554,399.000 178.047 C 399.000 177.540,398.833 176.225,398.629 175.125 C 398.425 174.025,397.975 171.325,397.629 169.125 C 395.701 156.863,392.420 143.608,388.997 134.250 C 388.570 133.081,387.902 131.225,387.515 130.125 C 386.647 127.666,384.553 122.387,383.644 120.370 C 383.273 119.548,382.672 118.200,382.308 117.375 C 381.367 115.243,375.610 103.893,374.636 102.250 C 374.188 101.494,372.719 99.019,371.373 96.750 C 368.434 91.799,363.736 84.696,360.788 80.750 C 358.524 77.720,355.048 73.345,352.861 70.773 C 352.441 70.279,351.872 69.578,351.597 69.216 C 348.082 64.578,334.986 51.818,327.772 46.000 C 326.493 44.969,325.205 43.916,324.911 43.659 C 324.409 43.223,317.896 38.327,315.573 36.640 C 311.160 33.434,303.808 28.750,298.875 26.001 C 298.325 25.694,297.140 25.016,296.241 24.492 C 280.782 15.489,257.319 6.992,238.188 3.469 C 237.534 3.348,236.409 3.139,235.688 3.002 C 234.966 2.866,233.250 2.585,231.875 2.378 C 223.827 1.164,220.960 0.695,219.574 0.367 C 217.912 -0.026,213.105 -0.139,213.750 0.230 M158.000 84.666 C 139.290 86.513,122.693 100.279,117.039 118.641 C 114.582 126.621,114.714 123.234,114.794 176.250 C 114.838 205.679,114.947 222.031,115.093 221.000 C 115.224 220.068,115.333 199.707,115.348 173.250 C 115.377 122.919,115.273 126.866,116.724 121.250 C 121.134 104.177,134.747 90.349,151.029 86.403 C 156.667 85.037,152.746 85.136,204.750 85.049 C 252.193 84.970,257.802 85.044,261.000 85.794 C 269.515 87.790,277.339 94.150,280.791 101.882 C 282.050 104.701,282.208 105.131,282.909 107.625 C 283.806 110.818,283.938 117.681,283.168 121.125 C 280.612 132.553,272.780 140.723,261.385 143.844 L 258.625 144.600 214.825 144.737 C 185.270 144.830,170.941 144.959,170.767 145.133 C 170.269 145.631,170.394 180.857,170.894 180.962 C 171.122 181.009,171.242 180.940,171.161 180.808 C 170.974 180.506,170.925 145.742,171.111 145.556 C 171.186 145.481,184.664 145.434,201.061 145.452 C 257.927 145.515,260.216 145.401,267.125 142.144 C 289.411 131.637,289.892 99.178,267.927 88.048 C 263.731 85.922,261.591 85.269,257.207 84.773 C 254.991 84.523,160.486 84.421,158.000 84.666 M399.688 212.333 C 399.584 212.585,399.497 213.429,399.494 214.208 C 399.491 214.987,399.384 216.075,399.258 216.625 C 399.132 217.175,398.908 218.750,398.761 220.125 C 398.263 224.775,397.577 229.124,395.883 238.375 C 395.507 240.428,394.387 245.690,393.993 247.250 C 393.872 247.731,393.666 248.575,393.536 249.125 C 393.406 249.675,393.079 250.912,392.809 251.875 C 392.539 252.838,392.029 254.694,391.675 256.000 C 390.320 261.006,387.088 270.225,384.444 276.625 C 380.578 285.982,374.770 297.213,369.383 305.750 C 366.510 310.304,361.467 317.619,359.128 320.625 C 350.814 331.314,342.208 340.610,333.179 348.654 C 331.224 350.395,329.231 352.173,328.750 352.603 C 328.269 353.034,326.426 354.508,324.654 355.880 C 322.883 357.252,320.592 359.032,319.564 359.835 C 316.771 362.016,312.298 365.116,306.500 368.890 C 304.363 370.281,301.380 372.054,298.750 373.498 C 297.581 374.140,296.175 374.927,295.625 375.247 C 288.622 379.324,275.028 385.325,264.750 388.876 C 261.246 390.086,253.425 392.478,251.250 393.005 C 250.769 393.121,249.925 393.336,249.375 393.482 C 246.965 394.122,238.104 396.007,235.250 396.487 C 233.531 396.776,231.563 397.115,230.875 397.240 C 230.188 397.366,228.613 397.599,227.375 397.760 C 226.137 397.920,223.494 398.320,221.500 398.649 C 219.506 398.978,216.875 399.357,215.653 399.491 C 214.431 399.625,213.364 399.802,213.282 399.884 C 212.947 400.220,218.819 399.789,221.375 399.291 C 222.887 398.996,225.629 398.527,227.468 398.250 C 247.055 395.292,262.846 390.765,281.125 382.865 C 287.823 379.971,300.452 373.234,306.625 369.262 C 315.034 363.852,317.091 362.371,325.716 355.520 C 339.144 344.854,353.014 330.119,363.152 315.750 C 363.491 315.269,364.222 314.256,364.776 313.500 C 366.708 310.862,371.517 303.085,375.166 296.698 C 379.076 289.853,385.156 276.432,388.017 268.328 C 391.329 258.945,394.690 247.018,395.857 240.500 C 396.066 239.331,396.584 236.463,397.007 234.125 C 397.984 228.728,398.519 225.426,399.256 220.250 C 399.403 219.219,399.639 217.813,399.780 217.125 C 400.068 215.726,399.988 211.599,399.688 212.333 M0.025 215.546 C 0.010 217.107,0.161 218.978,0.388 220.046 C 0.601 221.052,1.100 223.900,1.498 226.375 C 3.058 236.100,4.306 242.730,5.404 247.125 C 7.416 255.177,8.032 257.330,9.803 262.500 C 10.486 264.494,11.194 266.575,11.375 267.125 C 11.903 268.723,14.142 274.541,14.707 275.781 C 14.991 276.405,15.450 277.490,15.727 278.192 C 16.004 278.894,16.685 280.443,17.240 281.634 C 17.796 282.825,18.250 283.861,18.250 283.936 C 18.250 285.865,30.985 307.758,36.611 315.500 C 37.660 316.944,38.869 318.621,39.299 319.228 C 40.054 320.294,44.141 325.432,46.477 328.250 C 51.417 334.211,62.016 345.104,67.641 350.000 C 71.917 353.723,78.618 359.132,80.875 360.685 C 81.425 361.063,82.888 362.110,84.125 363.012 C 87.964 365.809,96.244 371.101,100.625 373.557 C 102.000 374.329,103.631 375.249,104.250 375.603 C 111.005 379.470,126.911 386.643,133.125 388.625 C 133.675 388.801,135.419 389.392,137.000 389.939 C 138.581 390.487,140.719 391.182,141.750 391.484 C 142.781 391.787,143.906 392.131,144.250 392.249 C 144.594 392.367,146.338 392.814,148.125 393.242 C 149.912 393.670,151.769 394.121,152.250 394.244 C 157.242 395.522,170.478 397.987,177.250 398.900 C 178.969 399.131,180.624 399.474,180.929 399.661 C 181.303 399.890,182.314 399.998,184.054 399.992 C 187.474 399.982,186.833 399.675,181.996 399.004 C 168.660 397.155,167.575 396.983,159.125 395.385 C 148.548 393.384,132.441 388.513,124.375 384.876 C 123.963 384.690,122.781 384.182,121.750 383.748 C 120.719 383.314,119.313 382.719,118.625 382.427 C 106.146 377.126,79.490 360.701,74.500 355.238 C 74.431 355.163,73.138 354.103,71.625 352.883 C 63.465 346.301,52.098 334.727,44.484 325.250 C 43.324 323.806,42.319 322.569,42.250 322.500 C 42.181 322.431,41.734 321.869,41.257 321.250 C 40.779 320.631,40.294 320.012,40.179 319.875 C 37.922 317.179,30.153 305.458,27.421 300.625 C 13.182 275.439,5.061 251.639,2.002 226.125 C 1.854 224.887,1.579 223.088,1.392 222.125 C 1.205 221.162,0.912 219.081,0.741 217.500 C 0.257 213.015,0.054 212.460,0.025 215.546 M115.481 254.536 C 115.110 255.228,115.149 283.798,115.525 287.250 C 117.281 303.374,130.065 314.965,146.125 314.995 C 149.105 315.001,153.222 314.278,155.375 313.371 C 155.787 313.198,156.406 312.973,156.750 312.872 C 159.689 312.007,165.110 308.384,167.723 305.538 C 181.581 290.444,177.611 267.159,159.500 257.316 C 153.900 254.273,151.602 254.000,131.625 254.000 L 115.768 254.000 115.481 254.536 M149.669 254.756 C 168.965 257.285,180.699 277.417,173.499 295.639 C 164.824 317.591,135.070 321.224,121.396 302.000 C 119.121 298.801,117.710 295.647,116.590 291.250 C 115.692 287.724,115.046 256.092,115.846 254.798 C 116.085 254.410,146.746 254.373,149.669 254.756 " stroke="none" fill="#7d828f" fill-rule="evenodd"></path><path id="path4" d="M170.250 181.195 C 170.250 181.780,170.844 181.797,193.929 181.852 C 216.420 181.906,216.922 181.918,219.250 182.446 C 224.771 183.698,230.130 186.619,233.854 190.404 C 235.323 191.897,237.500 194.543,237.500 194.836 C 237.500 194.912,237.820 195.459,238.212 196.050 C 243.630 204.236,244.088 216.015,239.349 225.258 C 238.747 226.432,238.057 227.655,237.815 227.976 C 235.403 231.180,231.743 235.000,231.086 235.000 C 230.901 235.000,230.750 235.109,230.750 235.242 C 230.750 235.550,226.231 238.219,225.216 238.510 C 224.796 238.630,224.322 238.823,224.163 238.937 C 223.748 239.238,222.497 239.616,219.375 240.386 L 216.625 241.065 166.296 241.058 C 138.615 241.053,115.890 240.973,115.796 240.879 C 115.702 240.786,115.603 237.090,115.575 232.667 C 115.521 223.953,115.263 218.721,115.012 221.252 C 114.625 225.149,115.016 241.241,115.504 241.502 C 116.189 241.869,202.608 242.119,211.000 241.779 C 224.123 241.246,232.525 236.972,238.446 227.814 C 249.867 210.151,239.069 185.063,218.625 181.761 C 217.662 181.606,216.537 181.409,216.125 181.325 C 214.461 180.984,170.250 180.859,170.250 181.195 M140.643 187.314 C 140.103 187.606,139.803 187.893,139.977 187.951 C 140.334 188.070,142.000 187.240,142.000 186.943 C 142.000 186.654,141.726 186.729,140.643 187.314 M138.125 188.851 C 137.274 189.226,136.339 190.172,136.580 190.414 C 136.785 190.619,138.668 189.324,138.848 188.854 C 138.923 188.659,138.960 188.504,138.930 188.510 C 138.900 188.515,138.537 188.669,138.125 188.851 M135.468 190.666 C 135.279 190.894,134.787 191.287,134.375 191.540 C 133.688 191.960,133.672 191.998,134.188 191.999 C 134.497 192.000,134.751 191.916,134.752 191.813 C 134.752 191.709,135.090 191.433,135.502 191.199 C 135.913 190.965,136.250 190.656,136.250 190.512 C 136.250 190.119,135.855 190.197,135.468 190.666 M132.875 192.802 C 132.313 193.106,129.449 195.760,128.545 196.813 C 127.964 197.490,127.963 197.500,128.480 197.500 C 128.769 197.500,129.201 197.255,129.440 196.956 C 130.151 196.067,132.364 193.905,132.991 193.486 C 133.719 193.000,133.617 192.400,132.875 192.802 M126.417 199.292 C 126.165 199.567,126.005 199.838,126.062 199.895 C 126.118 199.952,126.428 199.717,126.751 199.374 C 127.073 199.031,127.233 198.759,127.106 198.771 C 126.979 198.782,126.669 199.017,126.417 199.292 M121.031 207.157 C 120.721 207.836,120.842 208.270,121.226 207.858 C 121.567 207.493,121.809 206.500,121.557 206.500 C 121.432 206.500,121.195 206.796,121.031 207.157 " stroke="none" fill="#4e8ac4" fill-rule="evenodd"></path></g></svg>