<?xml version="1.0" encoding="UTF-8" standalone="no"?>
<!DOCTYPE svg PUBLIC "-//W3C//DTD SVG 1.1//EN" "http://www.w3.org/Graphics/SVG/1.1/DTD/svg11.dtd">
<svg xmlns="http://www.w3.org/2000/svg" version="1.1" viewBox="0.00 0.00 24.00 24.00">
<rect fill="#007ad5" fill-opacity="0.996" x="2.72" y="2.80" width="1.26" height="18.44" rx="0.60"/>
<rect fill="#007ad5" fill-opacity="0.996" x="-0.64" y="-9.19" transform="translate(5.57,12.03) rotate(0.2)" width="1.28" height="18.38" rx="0.55"/>
<rect fill="#007ad5" fill-opacity="0.996" x="7.06" y="2.81" width="1.24" height="18.42" rx="0.53"/>
<rect fill="#007ad5" fill-opacity="0.996" x="-0.65" y="-9.12" transform="translate(16.40,12.01) rotate(-0.6)" width="1.30" height="18.24" rx="0.26"/>
<rect fill="#007ad5" fill-opacity="0.996" x="17.95" y="2.87" width="1.26" height="18.34" rx="0.49"/>
<rect fill="#007ad5" fill-opacity="0.996" x="20.09" y="2.80" width="1.16" height="18.46" rx="0.49"/>
<rect fill="#007ad5" fill-opacity="0.996" x="-0.66" y="-4.17" transform="translate(9.76,9.95) rotate(1.8)" width="1.32" height="8.34" rx="0.27"/>
<path fill="#007ad5" fill-opacity="0.996" d="
  M 13.15 11.79
  Q 13.15 11.67 13.03 11.68
  L 12.64 11.69
  Q 12.60 11.69 12.60 11.73
  Q 12.66 13.79 12.65 15.87
  Q 12.65 16.49 12.04 16.59
  L 11.72 16.64
  A 0.44 0.43 84.4 0 1 11.21 16.22
  L 11.14 9.33
  Q 11.13 8.74 11.68 8.52
  L 12.11 8.34
  A 0.28 0.27 -15.7 0 1 12.49 8.55
  L 12.72 10.19
  A 0.91 0.88 21.2 0 0 12.92 10.62
  Q 13.87 11.73 14.76 10.42
  Q 15.39 9.49 15.32 10.61
  L 14.81 18.74
  Q 14.79 19.01 14.52 19.06
  L 13.77 19.21
  Q 13.54 19.25 13.53 19.02
  L 13.15 11.79
  Z"
/>
</svg>
