<?xml version="1.0" encoding="UTF-8" standalone="no"?>
<!DOCTYPE svg PUBLIC "-//W3C//DTD SVG 1.1//EN" "http://www.w3.org/Graphics/SVG/1.1/DTD/svg11.dtd">
<svg xmlns="http://www.w3.org/2000/svg" version="1.1" viewBox="0.00 0.00 256.00 256.00">
<g stroke-width="2.00" fill="none" stroke-linecap="butt">
<path stroke="#5646c5" vector-effect="non-scaling-stroke" d="
  M 107.63 0.00
  L 110.09 2.15
  Q 110.42 2.44 110.84 2.58
  Q 113.13 3.37 115.04 4.86
  C 116.35 5.89 117.58 6.40 118.96 7.19
  Q 128.40 12.57 137.78 18.06
  Q 139.78 19.23 140.52 19.84
  Q 140.83 20.09 141.23 20.10
  Q 141.90 20.10 142.13 20.72
  A 0.60 0.59 80.5 0 0 142.67 21.11
  Q 142.83 21.12 143.01 21.11
  A 0.87 0.85 71.8 0 1 143.76 21.50
  Q 144.14 22.07 144.83 22.15
  Q 145.34 22.21 145.74 22.52
  L 147.58 23.95
  Q 147.76 24.09 147.99 24.11
  Q 148.13 24.12 148.29 24.10
  A 0.80 0.79 78.8 0 1 149.12 24.66
  Q 149.31 25.29 149.95 25.12
  A 0.69 0.68 66.6 0 1 150.72 25.43
  Q 151.09 26.06 151.83 26.15
  Q 152.34 26.21 152.76 26.52
  Q 153.54 27.08 154.13 27.82
  Q 154.28 28.01 154.47 28.07
  Q 154.72 28.14 154.97 28.14
  Q 155.49 28.13 155.80 28.56
  Q 156.20 29.11 156.93 29.17
  Q 157.37 29.20 157.70 29.49
  Q 158.49 30.19 159.57 30.28
  A 0.48 0.47 -75.6 0 1 159.96 30.95
  Q 159.56 31.85 160.24 32.02
  Q 160.72 32.13 160.98 32.56
  Q 161.80 33.91 163.28 34.18
  Q 163.71 34.25 163.94 34.63
  Q 164.29 35.22 164.96 35.12
  Q 165.44 35.04 165.78 35.39
  L 167.23 36.87
  A 0.86 0.85 -28.9 0 0 168.05 37.10
  Q 168.70 36.94 168.91 37.51
  Q 169.13 38.12 169.79 38.12
  Q 169.94 38.11 170.10 38.11
  Q 170.62 38.09 170.94 38.51
  C 171.98 39.85 173.75 40.35 174.83 40.95
  C 176.64 41.97 177.83 41.99 179.12 43.82
  A 0.80 0.79 63.9 0 0 179.99 44.12
  Q 180.69 43.91 180.91 44.52
  Q 181.12 45.11 181.75 45.11
  L 182.47 45.11
  Q 182.73 45.12 182.82 45.37
  Q 183.16 46.32 184.24 46.11
  A 0.59 0.58 67.6 0 1 184.85 46.37
  Q 185.77 47.81 187.40 48.37
  Q 187.73 48.48 187.97 48.73
  Q 188.46 49.26 189.19 49.11
  Q 189.66 49.02 189.86 49.46
  Q 190.28 50.35 191.22 50.11
  Q 191.71 49.98 191.88 50.46
  Q 192.15 51.24 192.97 51.11
  Q 193.47 51.04 193.74 51.46
  Q 194.13 52.07 194.86 52.15
  Q 195.32 52.20 195.71 52.47
  Q 196.52 53.05 197.13 53.82
  Q 197.28 54.01 197.48 54.07
  Q 197.72 54.14 197.97 54.14
  Q 198.49 54.13 198.80 54.55
  Q 199.20 55.10 199.91 55.16
  Q 200.41 55.20 200.80 55.53
  L 202.41 56.92
  Q 202.64 57.12 202.95 57.12
  Q 203.09 57.11 203.23 57.11
  Q 203.72 57.09 203.91 57.55
  Q 204.19 58.23 204.97 58.11
  A 0.79 0.78 -20.2 0 1 205.74 58.46
  Q 206.13 59.09 206.89 59.15
  Q 207.41 59.20 207.80 59.54
  L 209.41 60.92
  Q 209.64 61.12 209.95 61.12
  Q 210.09 61.11 210.23 61.11
  Q 210.72 61.09 210.91 61.55
  Q 211.20 62.23 211.97 62.11
  A 0.79 0.78 -20.2 0 1 212.74 62.46
  Q 213.12 63.07 213.85 63.15
  Q 214.48 63.21 214.94 63.64
  L 217.37 65.88
  Q 217.62 66.11 217.97 66.11
  L 218.25 66.11
  Q 218.56 66.11 218.72 66.38
  Q 219.26 67.30 220.19 67.12
  Q 220.66 67.02 220.86 67.46
  Q 221.28 68.33 222.19 68.11
  Q 222.66 68.00 222.86 68.44
  Q 223.23 69.28 224.14 69.22
  Q 224.59 69.19 224.85 69.55
  Q 225.82 70.85 227.34 71.16
  Q 227.78 71.24 227.98 71.65
  Q 228.22 72.15 228.80 72.12
  Q 229.30 72.10 229.67 72.42
  L 231.40 73.92
  Q 231.63 74.12 231.94 74.11
  Q 232.09 74.11 232.23 74.11
  Q 232.56 74.10 232.72 74.38
  Q 233.27 75.32 234.23 75.11
  Q 234.72 74.99 234.89 75.48
  Q 235.11 76.16 235.83 76.13
  Q 236.31 76.11 236.67 76.42
  L 238.48 77.99
  A 0.55 0.54 63.9 0 0 238.82 78.11
  L 239.46 78.11
  Q 239.73 78.12 239.82 78.37
  Q 240.17 79.31 241.23 79.11
  A 0.60 0.60 0.0 0 1 241.85 79.37
  Q 242.77 80.81 244.40 81.37
  Q 244.73 81.48 244.97 81.73
  Q 245.47 82.27 246.22 82.11
  Q 246.71 82.00 246.89 82.48
  Q 247.14 83.18 247.88 83.13
  Q 248.43 83.10 248.83 83.49
  L 250.27 84.89
  A 0.85 0.83 -28.0 0 0 251.01 85.11
  Q 251.82 84.96 251.99 85.67
  A 0.57 0.56 83.6 0 0 252.54 86.11
  L 253.24 86.11
  Q 253.66 86.11 253.93 86.42
  Q 255.24 87.88 256.00 86.63"
/>
<path stroke="#7444d5" vector-effect="non-scaling-stroke" d="
  M 256.00 122.87
  Q 255.66 122.75 255.21 123.46
  Q 254.91 123.94 254.77 123.38
  L 254.65 122.92
  Q 254.58 122.63 254.31 122.49
  Q 252.93 121.77 251.84 120.54
  Q 251.48 120.13 250.93 120.13
  Q 250.15 120.14 249.74 119.47
  Q 249.48 119.04 248.98 119.12
  Q 248.20 119.24 247.85 118.51
  Q 247.67 118.12 247.24 118.12
  L 246.82 118.12
  A 0.54 0.50 64.0 0 1 246.48 117.99
  L 244.68 116.43
  Q 244.33 116.13 243.87 116.14
  Q 243.10 116.15 242.89 115.48
  Q 242.73 115.00 242.24 115.11
  Q 241.27 115.33 240.72 114.39
  Q 240.56 114.12 240.24 114.12
  L 239.82 114.12
  A 0.54 0.50 64.0 0 1 239.48 113.99
  L 237.68 112.43
  Q 237.33 112.13 236.87 112.14
  Q 236.10 112.15 235.89 111.48
  Q 235.73 111.00 235.24 111.11
  Q 234.27 111.33 233.72 110.39
  Q 233.56 110.12 233.24 110.12
  L 232.82 110.12
  A 0.54 0.50 64.0 0 1 232.48 109.99
  L 230.67 108.42
  Q 230.31 108.11 229.83 108.13
  Q 229.29 108.16 228.98 107.73
  Q 228.68 107.32 228.19 107.19
  Q 226.64 106.76 225.80 105.31
  A 0.56 0.56 0.0 0 0 224.99 105.14
  Q 224.32 105.61 224.93 106.07
  Q 225.32 106.37 225.27 106.86
  Q 225.18 107.74 224.28 107.53"
/>
<path stroke="#b2a2e6" vector-effect="non-scaling-stroke" d="
  M 224.28 107.53
  Q 223.63 98.59 216.04 95.57
  C 212.75 94.26 208.29 94.77 204.57 93.66
  Q 195.28 90.88 193.50 80.99
  C 192.86 77.39 192.92 73.39 191.41 70.31
  Q 187.84 63.03 179.51 63.09
  Q 169.50 63.17 160.26 63.06"
/>
<path stroke="#7444d5" vector-effect="non-scaling-stroke" d="
  M 160.26 63.06
  Q 158.82 59.85 155.13 58.83
  A 3.37 0.00 34.0 0 0 152.35 56.95
  Q 148.64 54.44 144.16 52.33
  C 143.06 51.80 142.10 50.74 141.02 50.20
  Q 134.08 46.68 127.38 42.70
  Q 124.67 41.09 121.93 39.51
  C 121.29 39.13 120.96 38.42 120.12 38.31
  Q 119.66 38.25 119.26 38.01
  L 60.64 3.69"
/>
<path stroke="#474fb9" vector-effect="non-scaling-stroke" d="
  M 151.18 0.00
  Q 150.68 1.74 155.02 3.44
  C 158.59 4.83 162.30 7.61 164.82 9.01
  Q 168.17 10.87 171.50 12.75
  Q 173.46 13.86 174.28 14.57
  Q 174.58 14.83 174.98 14.85
  Q 175.24 14.86 175.45 15.02
  Q 175.73 15.23 175.80 15.27
  Q 179.41 17.23 182.87 19.39
  C 183.89 20.03 185.21 20.08 186.07 21.44
  Q 186.35 21.88 186.87 21.86
  Q 187.78 21.81 188.31 22.57
  Q 188.61 23.01 189.13 22.90
  Q 189.69 22.77 189.98 23.29
  Q 190.20 23.68 190.64 23.79
  Q 192.22 24.20 193.23 25.53
  Q 193.52 25.91 194.00 25.88
  Q 194.81 25.83 195.24 26.50
  A 0.82 0.81 71.9 0 0 195.98 26.88
  Q 196.81 26.83 197.24 27.51
  Q 197.47 27.88 197.90 27.88
  Q 198.03 27.89 198.16 27.88
  Q 198.44 27.88 198.66 28.07
  L 200.16 29.45
  Q 200.55 29.81 201.07 29.84
  Q 201.83 29.90 202.24 30.51
  A 0.86 0.84 -18.5 0 0 203.00 30.88
  Q 203.82 30.83 204.24 31.51
  Q 204.47 31.88 204.90 31.88
  Q 205.03 31.89 205.16 31.88
  Q 205.44 31.88 205.66 32.07
  L 207.16 33.45
  Q 207.55 33.81 208.07 33.84
  Q 208.83 33.90 209.24 34.51
  A 0.86 0.84 -18.5 0 0 210.00 34.88
  Q 210.82 34.83 211.24 35.51
  Q 211.47 35.88 211.90 35.88
  Q 212.03 35.89 212.16 35.88
  Q 212.44 35.88 212.66 36.07
  L 214.16 37.45
  Q 214.55 37.81 215.07 37.84
  Q 215.83 37.90 216.24 38.51
  A 0.86 0.84 -18.5 0 0 217.00 38.88
  Q 217.82 38.83 218.24 39.51
  Q 218.47 39.88 218.90 39.88
  Q 219.07 39.89 219.24 39.88
  Q 219.66 39.87 219.90 40.21
  Q 220.69 41.35 222.02 41.86
  Q 224.47 42.80 226.31 44.55
  Q 226.65 44.87 227.12 44.88
  Q 227.84 44.88 228.24 45.50
  A 0.82 0.81 71.9 0 0 228.98 45.88
  Q 229.83 45.83 230.25 46.53
  Q 230.47 46.89 230.89 46.86
  Q 231.30 46.83 231.61 47.14
  Q 233.50 48.98 235.92 49.91
  C 236.88 50.27 237.43 50.84 238.21 51.44
  Q 238.65 51.78 239.21 51.86
  Q 239.87 51.95 240.24 52.51
  A 0.86 0.84 -18.5 0 0 241.00 52.88
  Q 241.82 52.83 242.24 53.51
  Q 242.48 53.89 242.93 53.86
  Q 243.22 53.84 243.50 53.93
  C 243.92 54.05 245.18 55.40 246.00 55.90
  Q 248.72 57.56 251.89 59.10"
/>
<path stroke="#c1a1ee" vector-effect="non-scaling-stroke" d="
  M 160.26 63.06
  Q 118.88 63.07 78.25 63.11
  Q 73.19 63.11 69.77 64.81"
/>
<path stroke="#9143e5" vector-effect="non-scaling-stroke" d="
  M 69.77 64.81
  L 69.46 64.47
  Q 68.94 63.89 69.72 63.89
  L 70.47 63.88
  Q 70.51 63.88 70.51 63.84
  Q 70.51 63.63 70.51 63.43
  Q 70.51 63.28 70.38 63.21
  Q 69.12 62.53 68.00 61.71
  C 67.08 61.03 65.68 60.56 64.79 59.44
  Q 64.47 59.05 63.98 59.12
  Q 63.35 59.21 63.01 58.61
  Q 62.79 58.21 62.33 58.15
  Q 60.74 57.91 59.90 56.42
  Q 59.68 56.01 59.22 56.11
  Q 58.22 56.32 57.88 55.47
  Q 57.69 55.01 57.21 55.11
  Q 56.26 55.31 55.72 54.38
  Q 55.55 54.10 55.23 54.11
  Q 55.08 54.11 54.95 54.11
  Q 54.64 54.12 54.40 53.92
  L 52.69 52.43
  Q 52.33 52.12 51.85 52.13
  Q 51.10 52.14 50.89 51.48
  Q 50.74 50.99 50.24 51.11
  Q 49.27 51.33 48.72 50.38
  Q 48.55 50.10 48.23 50.11
  Q 48.08 50.11 47.95 50.11
  Q 47.64 50.12 47.40 49.92
  L 45.69 48.43
  Q 45.33 48.12 44.85 48.13
  Q 44.10 48.14 43.89 47.48
  Q 43.74 46.99 43.24 47.11
  Q 42.27 47.33 41.72 46.38
  Q 41.56 46.10 41.23 46.11
  Q 41.08 46.11 40.94 46.11
  Q 40.64 46.12 40.40 45.92
  L 38.69 44.43
  Q 38.33 44.12 37.85 44.13
  Q 37.10 44.14 36.89 43.48
  Q 36.74 42.99 36.24 43.11
  Q 35.27 43.33 34.72 42.38
  Q 34.56 42.10 34.23 42.11
  Q 34.08 42.11 33.95 42.11
  Q 33.64 42.12 33.40 41.92
  L 31.69 40.43
  Q 31.33 40.12 30.85 40.13
  Q 30.10 40.14 29.89 39.48
  Q 29.74 38.99 29.24 39.11
  Q 28.27 39.33 27.72 38.38
  Q 27.56 38.10 27.23 38.11
  Q 27.08 38.11 26.94 38.11
  Q 26.64 38.12 26.40 37.92
  L 24.69 36.44
  Q 24.33 36.12 23.85 36.13
  Q 23.10 36.14 22.89 35.48
  Q 22.74 34.99 22.24 35.10
  Q 21.33 35.30 20.95 34.64
  Q 20.75 34.29 20.34 34.22
  Q 19.39 34.08 18.12 32.71"
/>
<path stroke="#cfa1f6" vector-effect="non-scaling-stroke" d="
  M 69.77 64.81
  C 65.29 67.57 63.83 70.86 63.23 76.27
  C 62.22 85.29 59.42 92.22 49.56 94.06
  C 46.56 94.61 43.04 94.47 40.53 95.35
  Q 34.29 97.53 31.91 104.62"
/>
<path stroke="#af42f6" vector-effect="non-scaling-stroke" d="
  M 31.91 104.62
  Q 31.36 103.27 29.88 102.88
  Q 29.41 102.76 29.12 102.38
  Q 28.61 101.74 27.83 101.89
  Q 27.37 101.98 27.12 101.59
  Q 26.30 100.25 24.90 99.86
  Q 24.41 99.72 24.08 99.34
  Q 23.58 98.75 22.82 98.90
  Q 22.34 98.99 22.13 98.55
  Q 21.72 97.68 20.82 97.90
  Q 20.36 98.01 20.12 97.60
  Q 19.29 96.23 17.85 95.80
  Q 17.37 95.66 17.03 95.29
  Q 16.54 94.75 15.82 94.90
  Q 15.34 94.99 15.13 94.55
  Q 14.72 93.68 13.82 93.90
  Q 13.36 94.01 13.12 93.60
  Q 12.29 92.22 10.85 91.80
  Q 10.37 91.66 10.03 91.29
  Q 9.53 90.74 8.78 90.90
  Q 8.28 91.01 8.11 90.53
  Q 7.87 89.87 7.21 89.87
  Q 6.69 89.87 6.27 89.58
  Q 5.46 89.01 4.92 88.24
  Q 4.63 87.83 4.13 87.90
  Q 3.35 88.00 2.92 87.28
  Q 2.70 86.90 2.25 86.90
  L 1.46 86.90
  Q 0.86 86.90 0.75 87.49
  Q 0.58 88.42 0.00 88.98"
/>
<path stroke="#c1a1ee" vector-effect="non-scaling-stroke" d="
  M 224.28 107.53
  Q 224.25 124.77 224.22 142.00
  Q 224.21 145.20 221.40 149.04"
/>
<path stroke="#cfa1f6" vector-effect="non-scaling-stroke" d="
  M 221.40 149.04
  Q 217.99 153.14 214.26 153.53
  C 206.29 154.37 199.94 154.37 195.30 162.01
  C 192.71 166.29 193.46 173.23 191.61 177.53
  Q 188.15 185.56 178.23 185.29"
/>
<path stroke="#dfa0ff" vector-effect="non-scaling-stroke" d="
  M 178.23 185.29
  L 90.46 185.28
  Q 89.94 185.28 89.61 185.69
  L 74.60 204.46"
/>
<path stroke="#e6a5ff" vector-effect="non-scaling-stroke" d="
  M 74.60 204.46
  C 73.03 206.27 71.14 209.43 69.18 210.13
  C 66.30 211.16 63.33 209.24 63.31 206.00
  Q 63.29 199.66 63.21 193.55"
/>
<path stroke="#dfa0ff" vector-effect="non-scaling-stroke" d="
  M 63.21 193.55
  Q 63.28 183.29 63.14 173.25
  C 62.98 161.39 57.38 154.55 45.26 153.84
  C 39.91 153.53 35.58 151.68 33.17 146.75
  Q 31.76 143.88 31.74 137.53
  Q 31.66 120.99 31.91 104.62"
/>
<path stroke="#dfa0ff" vector-effect="non-scaling-stroke" d="
  M 57.67 122.47
  Q 57.47 131.53 57.85 140.99
  Q 58.58 159.00 76.48 159.18
  Q 99.28 159.42 122.04 159.36"
/>
<path stroke="#cfa1f6" vector-effect="non-scaling-stroke" d="
  M 122.04 159.36
  Q 151.01 159.42 180.00 159.37
  C 194.51 159.34 199.22 148.37 198.29 135.76"
/>
<path stroke="#c1a1ee" vector-effect="non-scaling-stroke" d="
  M 198.29 135.76
  Q 198.57 117.92 198.23 107.01
  C 197.93 97.42 191.78 89.15 181.51 89.14
  Q 152.74 89.10 123.53 89.15"
/>
<path stroke="#cfa1f6" vector-effect="non-scaling-stroke" d="
  M 123.53 89.15
  Q 85.42 89.07 75.00 89.15
  C 68.81 89.19 62.30 92.31 59.83 98.31
  C 56.82 105.62 57.57 114.49 57.67 122.47"
/>
<path stroke="#9143e5" vector-effect="non-scaling-stroke" d="
  M 123.53 89.15
  Q 125.02 90.05 126.79 90.44
  Q 127.28 90.54 127.59 90.93
  Q 128.38 91.95 129.51 92.62
  Q 132.28 94.24 134.88 96.06
  Q 135.14 96.25 135.43 96.13
  Q 135.81 95.99 135.93 96.69
  A 0.53 0.53 0.0 0 0 136.45 97.12
  L 136.96 97.12
  Q 137.56 97.12 137.95 97.58
  Q 138.36 98.08 138.97 98.12
  Q 139.48 98.15 139.82 98.53
  Q 140.85 99.63 142.19 100.17
  Q 142.66 100.36 142.98 100.74
  Q 143.31 101.14 143.77 101.14
  Q 144.28 101.14 144.69 101.42
  Q 145.61 102.04 146.23 102.88
  Q 146.41 103.12 146.72 103.12
  L 147.22 103.12
  Q 147.60 103.12 147.82 103.43
  Q 148.32 104.14 149.15 104.13
  Q 149.59 104.12 149.89 104.45
  Q 150.59 105.24 149.95 106.46"
/>
<path stroke="#cfa1f6" vector-effect="non-scaling-stroke" d="
  M 149.95 106.46
  C 142.02 111.54 143.72 120.33 143.75 128.25
  Q 143.77 133.19 144.74 135.60
  C 149.08 146.30 164.73 145.80 168.70 135.36
  C 170.21 131.42 169.64 125.26 169.58 120.60"
/>
<path stroke="#9143e5" vector-effect="non-scaling-stroke" d="
  M 169.58 120.60
  L 169.82 122.66
  A 0.06 0.06 0.0 0 0 169.93 122.69
  Q 170.09 122.50 170.10 122.25
  Q 170.10 122.12 170.20 122.20
  Q 170.30 122.27 170.44 122.25
  Q 170.60 122.23 170.60 122.07
  L 170.61 121.56
  Q 170.61 121.28 170.87 121.17
  Q 171.68 120.86 171.91 121.52
  Q 172.07 121.97 172.55 122.05
  Q 174.13 122.31 175.01 123.71
  Q 175.26 124.11 175.74 124.11
  L 176.25 124.11
  Q 176.56 124.11 176.72 124.38
  Q 177.27 125.32 178.23 125.11
  Q 178.73 124.99 178.89 125.48
  Q 179.11 126.15 179.83 126.13
  Q 180.31 126.11 180.68 126.43
  L 182.40 127.92
  Q 182.64 128.12 182.94 128.11
  Q 183.08 128.11 183.23 128.11
  Q 183.56 128.10 183.72 128.38
  Q 184.27 129.33 185.23 129.11
  Q 185.73 128.99 185.89 129.48
  Q 186.11 130.15 186.83 130.13
  Q 187.31 130.11 187.68 130.43
  L 189.40 131.92
  Q 189.64 132.12 189.94 132.11
  Q 190.08 132.11 190.23 132.11
  Q 190.55 132.10 190.72 132.38
  Q 191.27 133.32 192.23 133.11
  Q 192.73 132.99 192.89 133.48
  Q 193.12 134.17 193.85 134.13
  Q 194.35 134.10 194.72 134.44
  L 196.22 135.82
  Q 196.59 136.15 197.09 136.12
  Q 197.65 136.09 198.29 135.76"
/>
<path stroke="#af42f6" vector-effect="non-scaling-stroke" d="
  M 122.04 159.36
  Q 122.27 157.94 120.95 157.86
  Q 120.45 157.82 120.15 157.42
  Q 119.64 156.73 118.82 156.89
  Q 118.37 156.98 118.13 156.58
  Q 117.31 155.25 115.89 154.85
  Q 115.41 154.71 115.08 154.33
  Q 114.58 153.74 113.82 153.89
  Q 113.37 153.97 113.13 153.58
  Q 112.31 152.25 110.89 151.85
  Q 110.41 151.71 110.08 151.33
  Q 109.58 150.74 108.81 150.89
  Q 108.34 150.98 108.13 150.54
  Q 107.73 149.68 106.83 149.89
  Q 106.38 149.99 106.14 149.60
  Q 105.30 148.23 103.86 147.84
  Q 103.37 147.70 103.05 147.31
  Q 102.67 146.83 102.11 146.87
  Q 101.57 146.91 101.17 146.52
  L 99.70 145.08
  A 0.70 0.69 -22.8 0 0 99.22 144.89
  L 98.50 144.89
  Q 98.36 144.89 98.36 144.75
  Q 98.36 144.61 98.35 144.47
  A 0.15 0.14 6.4 0 1 98.53 144.33
  Q 99.84 144.65 100.03 143.55"
/>
<path stroke="#cfa1f6" vector-effect="non-scaling-stroke" d="
  M 100.03 143.55
  Q 108.18 142.44 111.11 135.80
  C 112.97 131.57 112.23 125.12 112.25 120.09
  Q 112.27 114.90 111.00 112.11
  C 106.47 102.19 91.90 102.03 87.51 112.30
  Q 86.33 115.05 86.38 121.38
  C 86.41 126.42 85.57 132.37 88.01 136.96"
/>
<path stroke="#af42f6" vector-effect="non-scaling-stroke" d="
  M 88.01 136.96
  L 87.53 137.01
  A 0.12 0.11 -35.6 0 0 87.49 137.23
  Q 87.70 137.32 87.62 137.56
  Q 87.50 137.89 87.15 137.89
  L 86.72 137.89
  Q 86.43 137.89 86.29 137.64
  Q 85.75 136.70 84.81 136.89
  Q 84.34 136.98 84.13 136.55
  Q 83.73 135.67 82.82 135.89
  Q 82.37 136.00 82.13 135.60
  Q 81.29 134.22 79.84 133.79
  Q 79.37 133.65 79.03 133.28
  Q 78.54 132.74 77.81 132.89
  Q 77.34 132.98 77.13 132.55
  Q 76.72 131.67 75.82 131.89
  Q 75.37 132.00 75.13 131.60
  Q 74.29 130.22 72.84 129.79
  Q 72.37 129.65 72.03 129.28
  Q 71.54 128.74 70.81 128.89
  Q 70.34 128.98 70.13 128.55
  Q 69.72 127.67 68.82 127.89
  Q 68.37 128.00 68.13 127.60
  Q 67.29 126.22 65.84 125.79
  Q 65.36 125.65 65.03 125.28
  Q 64.53 124.73 63.78 124.89
  Q 63.29 125.00 63.11 124.53
  Q 62.84 123.78 62.03 123.88
  Q 61.53 123.94 61.18 123.58
  L 59.85 122.21
  Q 59.47 121.82 58.93 121.89
  Q 58.27 121.98 57.67 122.47"
/>
<path stroke="#c1a1ee" vector-effect="non-scaling-stroke" d="
  M 169.58 120.60
  C 170.67 108.99 160.52 100.47 149.95 106.46"
/>
<path stroke="#dfa0ff" vector-effect="non-scaling-stroke" d="
  M 100.03 143.55
  Q 92.14 143.53 88.01 136.96"
/>
<path stroke="#c646ff" vector-effect="non-scaling-stroke" d="
  M 63.21 193.55
  Q 61.77 194.51 59.72 192.19
  Q 59.37 191.79 58.84 191.88
  Q 58.30 191.97 58.00 191.50
  Q 57.74 191.08 57.26 190.91
  Q 54.54 189.99 52.62 187.95
  Q 52.56 187.88 52.46 187.88
  L 51.99 187.88
  A 0.31 0.23 53.0 0 1 51.85 187.84
  Q 49.77 186.48 47.46 185.55
  Q 46.97 185.35 46.65 184.93
  Q 46.03 184.07 45.05 183.88
  Q 44.69 183.81 44.38 183.62
  L 34.69 177.84
  Q 34.35 177.63 34.08 177.32
  Q 33.59 176.76 32.86 176.86
  Q 32.44 176.92 32.20 176.57
  Q 31.69 175.83 30.77 175.68
  Q 30.33 175.61 30.03 175.28
  Q 29.55 174.73 28.81 174.88
  Q 28.30 174.99 28.11 174.50
  Q 27.82 173.73 26.93 173.89
  A 0.85 0.83 -22.3 0 1 26.12 173.56
  Q 25.23 172.34 23.83 171.84
  Q 23.39 171.69 23.08 171.36
  Q 21.95 170.20 20.45 169.69
  Q 20.06 169.56 19.78 169.25
  Q 19.51 168.95 19.11 168.88
  Q 18.81 168.83 18.54 168.68
  L 17.50 168.10
  Q 17.14 167.91 16.74 167.92
  Q 16.14 167.94 15.92 167.21
  Q 15.81 166.88 15.46 166.88
  L 14.77 166.88
  Q 14.38 166.88 14.15 166.57
  Q 13.20 165.28 11.70 164.72
  Q 11.32 164.59 11.06 164.29
  Q 10.56 163.74 9.81 163.88
  Q 9.34 163.97 9.14 163.54
  Q 8.72 162.65 7.78 162.89
  Q 7.29 163.01 7.12 162.54
  Q 6.85 161.77 6.02 161.87
  Q 5.46 161.94 5.12 161.48
  Q 3.46 159.23 0.00 159.95"
/>
<path stroke="#9143e5" vector-effect="non-scaling-stroke" d="
  M 256.00 169.12
  Q 255.46 168.82 255.08 168.40
  A 0.16 0.16 0.0 0 1 255.25 168.14
  Q 255.45 168.19 255.37 167.99
  Q 255.37 167.99 255.01 167.88
  Q 254.71 167.78 254.70 168.28
  A 0.12 0.12 0.0 0 1 254.48 168.34
  Q 253.78 167.17 252.63 166.41
  Q 252.24 166.15 251.77 166.14
  Q 251.08 166.11 250.89 165.48
  Q 250.74 165.00 250.24 165.11
  Q 249.27 165.33 248.72 164.38
  Q 248.56 164.10 248.23 164.11
  Q 248.09 164.12 247.95 164.12
  Q 247.64 164.13 247.40 163.92
  L 245.69 162.44
  Q 245.33 162.13 244.86 162.14
  Q 244.10 162.15 243.89 161.48
  Q 243.74 161.00 243.24 161.11
  Q 242.27 161.33 241.72 160.38
  Q 241.56 160.10 241.23 160.11
  Q 241.09 160.12 240.95 160.12
  Q 240.64 160.13 240.40 159.92
  L 238.69 158.44
  Q 238.33 158.13 237.86 158.14
  Q 237.10 158.15 236.89 157.48
  Q 236.74 157.00 236.24 157.11
  Q 235.27 157.33 234.72 156.38
  Q 234.56 156.10 234.23 156.11
  Q 234.09 156.12 233.95 156.12
  Q 233.64 156.13 233.40 155.92
  L 231.69 154.44
  Q 231.33 154.13 230.86 154.14
  Q 230.10 154.15 229.89 153.48
  Q 229.74 153.00 229.24 153.11
  Q 228.27 153.33 227.72 152.38
  Q 227.56 152.10 227.23 152.11
  Q 227.05 152.12 226.88 152.12
  Q 226.36 152.13 226.04 151.72
  Q 225.38 150.86 224.46 150.28
  Q 224.14 150.08 224.12 150.45
  Q 224.11 150.57 224.12 150.71
  Q 224.13 150.85 224.01 150.91
  Q 223.07 151.35 222.34 150.91
  Q 221.99 150.70 222.10 150.30
  Q 222.28 149.63 221.40 149.04"
/>
<path stroke="#af42f6" vector-effect="non-scaling-stroke" d="
  M 237.31 223.87
  Q 236.65 223.37 236.89 222.45
  Q 237.03 221.90 236.46 221.90
  L 235.75 221.90
  Q 235.31 221.90 235.11 221.50
  Q 234.70 220.69 233.84 220.89
  Q 233.38 221.00 233.13 220.60
  Q 232.31 219.26 230.90 218.86
  Q 230.41 218.72 230.08 218.34
  Q 229.58 217.75 228.82 217.90
  Q 228.34 217.99 228.13 217.55
  Q 227.72 216.68 226.82 216.90
  Q 226.36 217.01 226.12 216.60
  Q 225.29 215.22 223.84 214.80
  Q 223.36 214.66 223.03 214.29
  Q 222.55 213.76 221.82 213.90
  Q 221.37 213.98 221.12 213.59
  Q 220.30 212.25 218.90 211.86
  Q 218.41 211.72 218.08 211.34
  Q 217.58 210.75 216.82 210.90
  Q 216.34 210.99 216.13 210.55
  Q 215.72 209.68 214.82 209.90
  Q 214.36 210.01 214.12 209.60
  Q 213.29 208.23 211.85 207.80
  Q 211.37 207.66 211.03 207.29
  Q 210.54 206.75 209.82 206.90
  Q 209.34 206.99 209.13 206.55
  Q 208.72 205.68 207.82 205.90
  Q 207.36 206.01 207.12 205.60
  Q 206.29 204.23 204.85 203.80
  Q 204.37 203.66 204.03 203.29
  Q 203.54 202.75 202.82 202.90
  Q 202.34 202.99 202.13 202.55
  Q 201.72 201.68 200.82 201.90
  Q 200.36 202.01 200.12 201.60
  Q 199.29 200.23 197.85 199.80
  Q 197.37 199.66 197.03 199.29
  Q 196.54 198.75 195.82 198.90
  Q 195.34 198.99 195.13 198.55
  Q 194.72 197.68 193.82 197.90
  Q 193.36 198.01 193.12 197.60
  Q 192.29 196.23 190.85 195.80
  Q 190.37 195.66 190.03 195.29
  Q 189.54 194.75 188.82 194.90
  Q 188.34 194.99 188.13 194.55
  Q 187.73 193.69 186.84 193.89
  Q 186.38 194.00 186.13 193.60
  Q 185.30 192.24 183.86 191.85
  Q 183.37 191.71 183.05 191.31
  Q 182.71 190.88 182.21 190.88
  Q 181.69 190.89 181.27 190.58
  Q 180.40 189.94 179.81 189.11
  Q 179.65 188.88 179.37 188.90
  Q 179.15 188.91 178.93 188.87
  Q 178.42 188.80 178.06 188.42
  Q 177.44 187.75 176.59 187.45
  Q 176.05 187.26 176.33 186.76
  Q 176.76 185.99 177.48 185.99
  Q 177.78 185.99 177.58 185.82
  Q 177.53 185.77 177.51 185.71
  A 0.28 0.15 -20.7 0 1 177.72 185.47
  L 178.23 185.29"
/>
<path stroke="#c646ff" vector-effect="non-scaling-stroke" d="
  M 74.60 204.46
  Q 75.96 205.07 77.13 206.53
  Q 77.46 206.94 77.98 206.87
  Q 78.68 206.78 79.05 207.29
  Q 79.33 207.69 79.80 207.81
  Q 81.33 208.20 82.14 209.63
  A 0.55 0.55 0.0 0 0 82.74 209.89
  Q 83.77 209.66 84.12 210.52
  Q 84.31 210.97 84.80 210.88
  Q 85.57 210.72 86.07 211.32
  Q 86.33 211.62 86.70 211.75
  Q 88.21 212.31 89.21 213.60
  Q 89.47 213.93 89.88 213.86
  Q 90.80 213.72 91.13 214.53
  Q 91.31 214.98 91.78 214.88
  Q 92.52 214.73 93.01 215.25
  Q 93.35 215.60 93.81 215.77
  Q 95.25 216.28 96.16 217.59
  Q 96.41 217.94 96.83 217.86
  Q 97.78 217.70 98.13 218.52
  Q 98.31 218.97 98.79 218.88
  Q 99.59 218.74 99.98 219.33
  Q 100.21 219.69 100.64 219.78
  Q 102.24 220.11 103.12 221.58
  Q 103.35 221.97 103.80 221.88
  Q 104.76 221.69 105.11 222.49
  Q 105.29 222.90 105.74 222.87
  Q 106.86 222.78 107.45 223.72
  Q 107.55 223.88 107.73 223.88
  L 108.20 223.88
  Q 108.72 223.88 108.99 224.33
  Q 109.44 225.08 110.23 225.54
  Q 110.65 225.79 111.12 225.88
  Q 111.79 226.01 112.18 226.58
  Q 112.43 226.94 112.85 226.87
  Q 113.60 226.74 114.09 227.32
  Q 114.37 227.64 114.77 227.80
  Q 116.22 228.36 117.16 229.65
  A 0.60 0.59 -24.2 0 0 117.78 229.88
  Q 118.50 229.72 118.99 230.23
  Q 119.26 230.50 119.62 230.63
  Q 121.25 231.20 122.16 232.63
  A 0.59 0.57 -21.3 0 0 122.77 232.89
  Q 123.77 232.67 124.12 233.52
  Q 124.31 233.98 124.80 233.88
  Q 125.75 233.69 126.11 234.48
  Q 126.29 234.89 126.75 234.87
  Q 127.57 234.83 127.99 235.53
  A 0.76 0.74 69.0 0 0 128.76 235.88
  Q 129.73 235.72 130.25 236.51
  Q 130.48 236.87 130.91 236.88
  Q 131.09 236.88 131.27 236.87
  Q 131.56 236.85 131.74 237.09
  Q 132.78 238.47 134.36 238.91
  Q 134.88 239.05 135.20 239.48
  Q 135.54 239.94 136.14 239.89
  Q 136.63 239.84 136.93 240.24
  Q 137.54 241.06 138.44 241.61
  Q 138.83 241.85 139.30 241.87
  Q 139.77 241.89 140.04 242.32
  Q 140.31 242.76 140.83 242.84
  Q 142.38 243.07 143.10 244.53
  Q 143.30 244.93 143.75 244.87
  Q 144.74 244.76 145.28 245.51
  Q 145.54 245.88 145.99 245.88
  L 146.49 245.88
  A 0.30 0.30 0.0 0 1 146.78 246.10
  Q 147.00 246.84 147.78 246.92
  Q 148.33 246.97 148.76 247.31
  L 150.26 248.50
  Q 150.69 248.85 151.25 248.86
  Q 151.73 248.88 152.01 249.27
  Q 152.25 249.59 152.62 249.73
  Q 154.18 250.28 155.20 251.59
  Q 155.46 251.93 155.87 251.86
  Q 156.60 251.75 157.08 252.32
  Q 157.41 252.69 157.87 252.86
  Q 158.90 253.24 159.76 253.95
  Q 160.16 254.29 160.12 254.80
  L 160.01 256.00"
/>
<path stroke="#da51ff" vector-effect="non-scaling-stroke" d="
  M 130.73 256.00
  L 131.74 255.11
  Q 132.14 254.76 131.62 254.64
  L 131.31 254.57
  Q 130.77 254.44 130.37 254.07
  Q 127.93 251.79 124.88 250.37
  C 123.29 249.64 122.21 248.51 120.66 247.69
  Q 117.73 246.13 117.39 245.92
  Q 113.68 243.58 109.86 241.44
  Q 108.13 240.48 106.33 239.64
  C 102.97 238.07 99.97 235.93 96.73 234.16
  C 96.00 233.76 95.99 233.19 94.92 233.08
  Q 94.45 233.03 94.20 232.63
  Q 93.67 231.81 92.74 231.88
  Q 92.28 231.92 92.10 231.49
  Q 91.82 230.80 91.07 230.87
  Q 90.51 230.91 90.14 230.48
  Q 89.31 229.51 87.94 229.94
  A 0.74 0.74 0.0 0 1 87.09 229.62
  Q 86.63 228.86 85.76 228.88
  Q 85.18 228.90 84.86 228.41
  Q 84.10 227.23 82.75 227.03
  A 1.07 1.06 -11.2 0 1 81.98 226.52
  Q 81.57 225.83 80.81 225.88
  Q 80.30 225.91 80.01 225.50
  Q 79.56 224.86 78.76 224.88
  Q 78.17 224.90 77.85 224.41
  Q 77.03 223.14 75.58 222.78
  Q 75.04 222.64 74.71 222.20
  Q 74.25 221.57 73.45 221.62
  A 0.98 0.97 73.3 0 1 72.56 221.14
  Q 71.94 220.10 70.80 220.05
  A 0.94 0.94 0.0 0 1 70.03 219.59
  Q 69.68 218.97 69.00 218.86
  Q 68.53 218.78 68.14 218.52
  Q 66.25 217.25 62.87 215.38
  Q 58.31 212.85 45.89 205.68
  Q 37.65 200.93 29.46 196.07
  Q 29.16 195.89 28.74 195.86
  Q 28.33 195.84 28.11 195.49
  Q 27.30 194.16 25.78 194.05
  A 0.96 0.95 -12.4 0 1 25.02 193.57
  Q 24.60 192.83 23.80 192.88
  Q 23.39 192.90 23.10 192.61
  L 22.50 192.00
  Q 22.18 191.69 21.73 191.66
  Q 21.01 191.61 20.61 191.08
  Q 20.37 190.77 20.04 190.58
  C 14.68 187.51 9.42 184.45 3.76 181.96
  Q 1.63 181.02 0.49 179.59"
/>
</g>
<path fill="#6544cd" d="
  M 80.65 0.00
  L 107.63 0.00
  L 110.09 2.15
  Q 110.42 2.44 110.84 2.58
  Q 113.13 3.37 115.04 4.86
  C 116.35 5.89 117.58 6.40 118.96 7.19
  Q 128.40 12.57 137.78 18.06
  Q 139.78 19.23 140.52 19.84
  Q 140.83 20.09 141.23 20.10
  Q 141.90 20.10 142.13 20.72
  A 0.60 0.59 80.5 0 0 142.67 21.11
  Q 142.83 21.12 143.01 21.11
  A 0.87 0.85 71.8 0 1 143.76 21.50
  Q 144.14 22.07 144.83 22.15
  Q 145.34 22.21 145.74 22.52
  L 147.58 23.95
  Q 147.76 24.09 147.99 24.11
  Q 148.13 24.12 148.29 24.10
  A 0.80 0.79 78.8 0 1 149.12 24.66
  Q 149.31 25.29 149.95 25.12
  A 0.69 0.68 66.6 0 1 150.72 25.43
  Q 151.09 26.06 151.83 26.15
  Q 152.34 26.21 152.76 26.52
  Q 153.54 27.08 154.13 27.82
  Q 154.28 28.01 154.47 28.07
  Q 154.72 28.14 154.97 28.14
  Q 155.49 28.13 155.80 28.56
  Q 156.20 29.11 156.93 29.17
  Q 157.37 29.20 157.70 29.49
  Q 158.49 30.19 159.57 30.28
  A 0.48 0.47 -75.6 0 1 159.96 30.95
  Q 159.56 31.85 160.24 32.02
  Q 160.72 32.13 160.98 32.56
  Q 161.80 33.91 163.28 34.18
  Q 163.71 34.25 163.94 34.63
  Q 164.29 35.22 164.96 35.12
  Q 165.44 35.04 165.78 35.39
  L 167.23 36.87
  A 0.86 0.85 -28.9 0 0 168.05 37.10
  Q 168.70 36.94 168.91 37.51
  Q 169.13 38.12 169.79 38.12
  Q 169.94 38.11 170.10 38.11
  Q 170.62 38.09 170.94 38.51
  C 171.98 39.85 173.75 40.35 174.83 40.95
  C 176.64 41.97 177.83 41.99 179.12 43.82
  A 0.80 0.79 63.9 0 0 179.99 44.12
  Q 180.69 43.91 180.91 44.52
  Q 181.12 45.11 181.75 45.11
  L 182.47 45.11
  Q 182.73 45.12 182.82 45.37
  Q 183.16 46.32 184.24 46.11
  A 0.59 0.58 67.6 0 1 184.85 46.37
  Q 185.77 47.81 187.40 48.37
  Q 187.73 48.48 187.97 48.73
  Q 188.46 49.26 189.19 49.11
  Q 189.66 49.02 189.86 49.46
  Q 190.28 50.35 191.22 50.11
  Q 191.71 49.98 191.88 50.46
  Q 192.15 51.24 192.97 51.11
  Q 193.47 51.04 193.74 51.46
  Q 194.13 52.07 194.86 52.15
  Q 195.32 52.20 195.71 52.47
  Q 196.52 53.05 197.13 53.82
  Q 197.28 54.01 197.48 54.07
  Q 197.72 54.14 197.97 54.14
  Q 198.49 54.13 198.80 54.55
  Q 199.20 55.10 199.91 55.16
  Q 200.41 55.20 200.80 55.53
  L 202.41 56.92
  Q 202.64 57.12 202.95 57.12
  Q 203.09 57.11 203.23 57.11
  Q 203.72 57.09 203.91 57.55
  Q 204.19 58.23 204.97 58.11
  A 0.79 0.78 -20.2 0 1 205.74 58.46
  Q 206.13 59.09 206.89 59.15
  Q 207.41 59.20 207.80 59.54
  L 209.41 60.92
  Q 209.64 61.12 209.95 61.12
  Q 210.09 61.11 210.23 61.11
  Q 210.72 61.09 210.91 61.55
  Q 211.20 62.23 211.97 62.11
  A 0.79 0.78 -20.2 0 1 212.74 62.46
  Q 213.12 63.07 213.85 63.15
  Q 214.48 63.21 214.94 63.64
  L 217.37 65.88
  Q 217.62 66.11 217.97 66.11
  L 218.25 66.11
  Q 218.56 66.11 218.72 66.38
  Q 219.26 67.30 220.19 67.12
  Q 220.66 67.02 220.86 67.46
  Q 221.28 68.33 222.19 68.11
  Q 222.66 68.00 222.86 68.44
  Q 223.23 69.28 224.14 69.22
  Q 224.59 69.19 224.85 69.55
  Q 225.82 70.85 227.34 71.16
  Q 227.78 71.24 227.98 71.65
  Q 228.22 72.15 228.80 72.12
  Q 229.30 72.10 229.67 72.42
  L 231.40 73.92
  Q 231.63 74.12 231.94 74.11
  Q 232.09 74.11 232.23 74.11
  Q 232.56 74.10 232.72 74.38
  Q 233.27 75.32 234.23 75.11
  Q 234.72 74.99 234.89 75.48
  Q 235.11 76.16 235.83 76.13
  Q 236.31 76.11 236.67 76.42
  L 238.48 77.99
  A 0.55 0.54 63.9 0 0 238.82 78.11
  L 239.46 78.11
  Q 239.73 78.12 239.82 78.37
  Q 240.17 79.31 241.23 79.11
  A 0.60 0.60 0.0 0 1 241.85 79.37
  Q 242.77 80.81 244.40 81.37
  Q 244.73 81.48 244.97 81.73
  Q 245.47 82.27 246.22 82.11
  Q 246.71 82.00 246.89 82.48
  Q 247.14 83.18 247.88 83.13
  Q 248.43 83.10 248.83 83.49
  L 250.27 84.89
  A 0.85 0.83 -28.0 0 0 251.01 85.11
  Q 251.82 84.96 251.99 85.67
  A 0.57 0.56 83.6 0 0 252.54 86.11
  L 253.24 86.11
  Q 253.66 86.11 253.93 86.42
  Q 255.24 87.88 256.00 86.63
  L 256.00 122.87
  Q 255.66 122.75 255.21 123.46
  Q 254.91 123.94 254.77 123.38
  L 254.65 122.92
  Q 254.58 122.63 254.31 122.49
  Q 252.93 121.77 251.84 120.54
  Q 251.48 120.13 250.93 120.13
  Q 250.15 120.14 249.74 119.47
  Q 249.48 119.04 248.98 119.12
  Q 248.20 119.24 247.85 118.51
  Q 247.67 118.12 247.24 118.12
  L 246.82 118.12
  A 0.54 0.50 64.0 0 1 246.48 117.99
  L 244.68 116.43
  Q 244.33 116.13 243.87 116.14
  Q 243.10 116.15 242.89 115.48
  Q 242.73 115.00 242.24 115.11
  Q 241.27 115.33 240.72 114.39
  Q 240.56 114.12 240.24 114.12
  L 239.82 114.12
  A 0.54 0.50 64.0 0 1 239.48 113.99
  L 237.68 112.43
  Q 237.33 112.13 236.87 112.14
  Q 236.10 112.15 235.89 111.48
  Q 235.73 111.00 235.24 111.11
  Q 234.27 111.33 233.72 110.39
  Q 233.56 110.12 233.24 110.12
  L 232.82 110.12
  A 0.54 0.50 64.0 0 1 232.48 109.99
  L 230.67 108.42
  Q 230.31 108.11 229.83 108.13
  Q 229.29 108.16 228.98 107.73
  Q 228.68 107.32 228.19 107.19
  Q 226.64 106.76 225.80 105.31
  A 0.56 0.56 0.0 0 0 224.99 105.14
  Q 224.32 105.61 224.93 106.07
  Q 225.32 106.37 225.27 106.86
  Q 225.18 107.74 224.28 107.53
  Q 223.63 98.59 216.04 95.57
  C 212.75 94.26 208.29 94.77 204.57 93.66
  Q 195.28 90.88 193.50 80.99
  C 192.86 77.39 192.92 73.39 191.41 70.31
  Q 187.84 63.03 179.51 63.09
  Q 169.50 63.17 160.26 63.06
  Q 158.82 59.85 155.13 58.83
  A 3.37 0.00 34.0 0 0 152.35 56.95
  Q 148.64 54.44 144.16 52.33
  C 143.06 51.80 142.10 50.74 141.02 50.20
  Q 134.08 46.68 127.38 42.70
  Q 124.67 41.09 121.93 39.51
  C 121.29 39.13 120.96 38.42 120.12 38.31
  Q 119.66 38.25 119.26 38.01
  L 60.64 3.69
  Q 71.00 0.66 80.65 0.00
  Z"
/>
<path fill="#4747bc" d="
  M 107.63 0.00
  L 151.18 0.00
  Q 150.68 1.74 155.02 3.44
  C 158.59 4.83 162.30 7.61 164.82 9.01
  Q 168.17 10.87 171.50 12.75
  Q 173.46 13.86 174.28 14.57
  Q 174.58 14.83 174.98 14.85
  Q 175.24 14.86 175.45 15.02
  Q 175.73 15.23 175.80 15.27
  Q 179.41 17.23 182.87 19.39
  C 183.89 20.03 185.21 20.08 186.07 21.44
  Q 186.35 21.88 186.87 21.86
  Q 187.78 21.81 188.31 22.57
  Q 188.61 23.01 189.13 22.90
  Q 189.69 22.77 189.98 23.29
  Q 190.20 23.68 190.64 23.79
  Q 192.22 24.20 193.23 25.53
  Q 193.52 25.91 194.00 25.88
  Q 194.81 25.83 195.24 26.50
  A 0.82 0.81 71.9 0 0 195.98 26.88
  Q 196.81 26.83 197.24 27.51
  Q 197.47 27.88 197.90 27.88
  Q 198.03 27.89 198.16 27.88
  Q 198.44 27.88 198.66 28.07
  L 200.16 29.45
  Q 200.55 29.81 201.07 29.84
  Q 201.83 29.90 202.24 30.51
  A 0.86 0.84 -18.5 0 0 203.00 30.88
  Q 203.82 30.83 204.24 31.51
  Q 204.47 31.88 204.90 31.88
  Q 205.03 31.89 205.16 31.88
  Q 205.44 31.88 205.66 32.07
  L 207.16 33.45
  Q 207.55 33.81 208.07 33.84
  Q 208.83 33.90 209.24 34.51
  A 0.86 0.84 -18.5 0 0 210.00 34.88
  Q 210.82 34.83 211.24 35.51
  Q 211.47 35.88 211.90 35.88
  Q 212.03 35.89 212.16 35.88
  Q 212.44 35.88 212.66 36.07
  L 214.16 37.45
  Q 214.55 37.81 215.07 37.84
  Q 215.83 37.90 216.24 38.51
  A 0.86 0.84 -18.5 0 0 217.00 38.88
  Q 217.82 38.83 218.24 39.51
  Q 218.47 39.88 218.90 39.88
  Q 219.07 39.89 219.24 39.88
  Q 219.66 39.87 219.90 40.21
  Q 220.69 41.35 222.02 41.86
  Q 224.47 42.80 226.31 44.55
  Q 226.65 44.87 227.12 44.88
  Q 227.84 44.88 228.24 45.50
  A 0.82 0.81 71.9 0 0 228.98 45.88
  Q 229.83 45.83 230.25 46.53
  Q 230.47 46.89 230.89 46.86
  Q 231.30 46.83 231.61 47.14
  Q 233.50 48.98 235.92 49.91
  C 236.88 50.27 237.43 50.84 238.21 51.44
  Q 238.65 51.78 239.21 51.86
  Q 239.87 51.95 240.24 52.51
  A 0.86 0.84 -18.5 0 0 241.00 52.88
  Q 241.82 52.83 242.24 53.51
  Q 242.48 53.89 242.93 53.86
  Q 243.22 53.84 243.50 53.93
  C 243.92 54.05 245.18 55.40 246.00 55.90
  Q 248.72 57.56 251.89 59.10
  Q 255.12 69.34 256.00 80.64
  L 256.00 86.63
  Q 255.24 87.88 253.93 86.42
  Q 253.66 86.11 253.24 86.11
  L 252.54 86.11
  A 0.57 0.56 83.6 0 1 251.99 85.67
  Q 251.82 84.96 251.01 85.11
  A 0.85 0.83 -28.0 0 1 250.27 84.89
  L 248.83 83.49
  Q 248.43 83.10 247.88 83.13
  Q 247.14 83.18 246.89 82.48
  Q 246.71 82.00 246.22 82.11
  Q 245.47 82.27 244.97 81.73
  Q 244.73 81.48 244.40 81.37
  Q 242.77 80.81 241.85 79.37
  A 0.60 0.60 0.0 0 0 241.23 79.11
  Q 240.17 79.31 239.82 78.37
  Q 239.73 78.12 239.46 78.11
  L 238.82 78.11
  A 0.55 0.54 63.9 0 1 238.48 77.99
  L 236.67 76.42
  Q 236.31 76.11 235.83 76.13
  Q 235.11 76.16 234.89 75.48
  Q 234.72 74.99 234.23 75.11
  Q 233.27 75.32 232.72 74.38
  Q 232.56 74.10 232.23 74.11
  Q 232.09 74.11 231.94 74.11
  Q 231.63 74.12 231.40 73.92
  L 229.67 72.42
  Q 229.30 72.10 228.80 72.12
  Q 228.22 72.15 227.98 71.65
  Q 227.78 71.24 227.34 71.16
  Q 225.82 70.85 224.85 69.55
  Q 224.59 69.19 224.14 69.22
  Q 223.23 69.28 222.86 68.44
  Q 222.66 68.00 222.19 68.11
  Q 221.28 68.33 220.86 67.46
  Q 220.66 67.02 220.19 67.12
  Q 219.26 67.30 218.72 66.38
  Q 218.56 66.11 218.25 66.11
  L 217.97 66.11
  Q 217.62 66.11 217.37 65.88
  L 214.94 63.64
  Q 214.48 63.21 213.85 63.15
  Q 213.12 63.07 212.74 62.46
  A 0.79 0.78 -20.2 0 0 211.97 62.11
  Q 211.20 62.23 210.91 61.55
  Q 210.72 61.09 210.23 61.11
  Q 210.09 61.11 209.95 61.12
  Q 209.64 61.12 209.41 60.92
  L 207.80 59.54
  Q 207.41 59.20 206.89 59.15
  Q 206.13 59.09 205.74 58.46
  A 0.79 0.78 -20.2 0 0 204.97 58.11
  Q 204.19 58.23 203.91 57.55
  Q 203.72 57.09 203.23 57.11
  Q 203.09 57.11 202.95 57.12
  Q 202.64 57.12 202.41 56.92
  L 200.80 55.53
  Q 200.41 55.20 199.91 55.16
  Q 199.20 55.10 198.80 54.55
  Q 198.49 54.13 197.97 54.14
  Q 197.72 54.14 197.48 54.07
  Q 197.28 54.01 197.13 53.82
  Q 196.52 53.05 195.71 52.47
  Q 195.32 52.20 194.86 52.15
  Q 194.13 52.07 193.74 51.46
  Q 193.47 51.04 192.97 51.11
  Q 192.15 51.24 191.88 50.46
  Q 191.71 49.98 191.22 50.11
  Q 190.28 50.35 189.86 49.46
  Q 189.66 49.02 189.19 49.11
  Q 188.46 49.26 187.97 48.73
  Q 187.73 48.48 187.40 48.37
  Q 185.77 47.81 184.85 46.37
  A 0.59 0.58 67.6 0 0 184.24 46.11
  Q 183.16 46.32 182.82 45.37
  Q 182.73 45.12 182.47 45.11
  L 181.75 45.11
  Q 181.12 45.11 180.91 44.52
  Q 180.69 43.91 179.99 44.12
  A 0.80 0.79 63.9 0 1 179.12 43.82
  C 177.83 41.99 176.64 41.97 174.83 40.95
  C 173.75 40.35 171.98 39.85 170.94 38.51
  Q 170.62 38.09 170.10 38.11
  Q 169.94 38.11 169.79 38.12
  Q 169.13 38.12 168.91 37.51
  Q 168.70 36.94 168.05 37.10
  A 0.86 0.85 -28.9 0 1 167.23 36.87
  L 165.78 35.39
  Q 165.44 35.04 164.96 35.12
  Q 164.29 35.22 163.94 34.63
  Q 163.71 34.25 163.28 34.18
  Q 161.80 33.91 160.98 32.56
  Q 160.72 32.13 160.24 32.02
  Q 159.56 31.85 159.96 30.95
  A 0.48 0.47 -75.6 0 0 159.57 30.28
  Q 158.49 30.19 157.70 29.49
  Q 157.37 29.20 156.93 29.17
  Q 156.20 29.11 155.80 28.56
  Q 155.49 28.13 154.97 28.14
  Q 154.72 28.14 154.47 28.07
  Q 154.28 28.01 154.13 27.82
  Q 153.54 27.08 152.76 26.52
  Q 152.34 26.21 151.83 26.15
  Q 151.09 26.06 150.72 25.43
  A 0.69 0.68 66.6 0 0 149.95 25.12
  Q 149.31 25.29 149.12 24.66
  A 0.80 0.79 78.8 0 0 148.29 24.10
  Q 148.13 24.12 147.99 24.11
  Q 147.76 24.09 147.58 23.95
  L 145.74 22.52
  Q 145.34 22.21 144.83 22.15
  Q 144.14 22.07 143.76 21.50
  A 0.87 0.85 71.8 0 0 143.01 21.11
  Q 142.83 21.12 142.67 21.11
  A 0.60 0.59 80.5 0 1 142.13 20.72
  Q 141.90 20.10 141.23 20.10
  Q 140.83 20.09 140.52 19.84
  Q 139.78 19.23 137.78 18.06
  Q 128.40 12.57 118.96 7.19
  C 117.58 6.40 116.35 5.89 115.04 4.86
  Q 113.13 3.37 110.84 2.58
  Q 110.42 2.44 110.09 2.15
  L 107.63 0.00
  Z"
/>
<path fill="#4657b6" d="
  M 151.18 0.00
  L 175.23 0.00
  C 211.00 2.79 240.64 24.86 251.89 59.10
  Q 248.72 57.56 246.00 55.90
  C 245.18 55.40 243.92 54.05 243.50 53.93
  Q 243.22 53.84 242.93 53.86
  Q 242.48 53.89 242.24 53.51
  Q 241.82 52.83 241.00 52.88
  A 0.86 0.84 -18.5 0 1 240.24 52.51
  Q 239.87 51.95 239.21 51.86
  Q 238.65 51.78 238.21 51.44
  C 237.43 50.84 236.88 50.27 235.92 49.91
  Q 233.50 48.98 231.61 47.14
  Q 231.30 46.83 230.89 46.86
  Q 230.47 46.89 230.25 46.53
  Q 229.83 45.83 228.98 45.88
  A 0.82 0.81 71.9 0 1 228.24 45.50
  Q 227.84 44.88 227.12 44.88
  Q 226.65 44.87 226.31 44.55
  Q 224.47 42.80 222.02 41.86
  Q 220.69 41.35 219.90 40.21
  Q 219.66 39.87 219.24 39.88
  Q 219.07 39.89 218.90 39.88
  Q 218.47 39.88 218.24 39.51
  Q 217.82 38.83 217.00 38.88
  A 0.86 0.84 -18.5 0 1 216.24 38.51
  Q 215.83 37.90 215.07 37.84
  Q 214.55 37.81 214.16 37.45
  L 212.66 36.07
  Q 212.44 35.88 212.16 35.88
  Q 212.03 35.89 211.90 35.88
  Q 211.47 35.88 211.24 35.51
  Q 210.82 34.83 210.00 34.88
  A 0.86 0.84 -18.5 0 1 209.24 34.51
  Q 208.83 33.90 208.07 33.84
  Q 207.55 33.81 207.16 33.45
  L 205.66 32.07
  Q 205.44 31.88 205.16 31.88
  Q 205.03 31.89 204.90 31.88
  Q 204.47 31.88 204.24 31.51
  Q 203.82 30.83 203.00 30.88
  A 0.86 0.84 -18.5 0 1 202.24 30.51
  Q 201.83 29.90 201.07 29.84
  Q 200.55 29.81 200.16 29.45
  L 198.66 28.07
  Q 198.44 27.88 198.16 27.88
  Q 198.03 27.89 197.90 27.88
  Q 197.47 27.88 197.24 27.51
  Q 196.81 26.83 195.98 26.88
  A 0.82 0.81 71.9 0 1 195.24 26.50
  Q 194.81 25.83 194.00 25.88
  Q 193.52 25.91 193.23 25.53
  Q 192.22 24.20 190.64 23.79
  Q 190.20 23.68 189.98 23.29
  Q 189.69 22.77 189.13 22.90
  Q 188.61 23.01 188.31 22.57
  Q 187.78 21.81 186.87 21.86
  Q 186.35 21.88 186.07 21.44
  C 185.21 20.08 183.89 20.03 182.87 19.39
  Q 179.41 17.23 175.80 15.27
  Q 175.73 15.23 175.45 15.02
  Q 175.24 14.86 174.98 14.85
  Q 174.58 14.83 174.28 14.57
  Q 173.46 13.86 171.50 12.75
  Q 168.17 10.87 164.82 9.01
  C 162.30 7.61 158.59 4.83 155.02 3.44
  Q 150.68 1.74 151.18 0.00
  Z"
/>
<path fill="#8243dd" d="
  M 60.64 3.69
  L 119.26 38.01
  Q 119.66 38.25 120.12 38.31
  C 120.96 38.42 121.29 39.13 121.93 39.51
  Q 124.67 41.09 127.38 42.70
  Q 134.08 46.68 141.02 50.20
  C 142.10 50.74 143.06 51.80 144.16 52.33
  Q 148.64 54.44 152.35 56.95
  A 3.37 0.00 34.0 0 1 155.13 58.83
  Q 158.82 59.85 160.26 63.06
  Q 118.88 63.07 78.25 63.11
  Q 73.19 63.11 69.77 64.81
  L 69.46 64.47
  Q 68.94 63.89 69.72 63.89
  L 70.47 63.88
  Q 70.51 63.88 70.51 63.84
  Q 70.51 63.63 70.51 63.43
  Q 70.51 63.28 70.38 63.21
  Q 69.12 62.53 68.00 61.71
  C 67.08 61.03 65.68 60.56 64.79 59.44
  Q 64.47 59.05 63.98 59.12
  Q 63.35 59.21 63.01 58.61
  Q 62.79 58.21 62.33 58.15
  Q 60.74 57.91 59.90 56.42
  Q 59.68 56.01 59.22 56.11
  Q 58.22 56.32 57.88 55.47
  Q 57.69 55.01 57.21 55.11
  Q 56.26 55.31 55.72 54.38
  Q 55.55 54.10 55.23 54.11
  Q 55.08 54.11 54.95 54.11
  Q 54.64 54.12 54.40 53.92
  L 52.69 52.43
  Q 52.33 52.12 51.85 52.13
  Q 51.10 52.14 50.89 51.48
  Q 50.74 50.99 50.24 51.11
  Q 49.27 51.33 48.72 50.38
  Q 48.55 50.10 48.23 50.11
  Q 48.08 50.11 47.95 50.11
  Q 47.64 50.12 47.40 49.92
  L 45.69 48.43
  Q 45.33 48.12 44.85 48.13
  Q 44.10 48.14 43.89 47.48
  Q 43.74 46.99 43.24 47.11
  Q 42.27 47.33 41.72 46.38
  Q 41.56 46.10 41.23 46.11
  Q 41.08 46.11 40.94 46.11
  Q 40.64 46.12 40.40 45.92
  L 38.69 44.43
  Q 38.33 44.12 37.85 44.13
  Q 37.10 44.14 36.89 43.48
  Q 36.74 42.99 36.24 43.11
  Q 35.27 43.33 34.72 42.38
  Q 34.56 42.10 34.23 42.11
  Q 34.08 42.11 33.95 42.11
  Q 33.64 42.12 33.40 41.92
  L 31.69 40.43
  Q 31.33 40.12 30.85 40.13
  Q 30.10 40.14 29.89 39.48
  Q 29.74 38.99 29.24 39.11
  Q 28.27 39.33 27.72 38.38
  Q 27.56 38.10 27.23 38.11
  Q 27.08 38.11 26.94 38.11
  Q 26.64 38.12 26.40 37.92
  L 24.69 36.44
  Q 24.33 36.12 23.85 36.13
  Q 23.10 36.14 22.89 35.48
  Q 22.74 34.99 22.24 35.10
  Q 21.33 35.30 20.95 34.64
  Q 20.75 34.29 20.34 34.22
  Q 19.39 34.08 18.12 32.71
  Q 35.48 11.21 60.64 3.69
  Z"
/>
<path fill="#9f42ed" d="
  M 18.12 32.71
  Q 19.39 34.08 20.34 34.22
  Q 20.75 34.29 20.95 34.64
  Q 21.33 35.30 22.24 35.10
  Q 22.74 34.99 22.89 35.48
  Q 23.10 36.14 23.85 36.13
  Q 24.33 36.12 24.69 36.44
  L 26.40 37.92
  Q 26.64 38.12 26.94 38.11
  Q 27.08 38.11 27.23 38.11
  Q 27.56 38.10 27.72 38.38
  Q 28.27 39.33 29.24 39.11
  Q 29.74 38.99 29.89 39.48
  Q 30.10 40.14 30.85 40.13
  Q 31.33 40.12 31.69 40.43
  L 33.40 41.92
  Q 33.64 42.12 33.95 42.11
  Q 34.08 42.11 34.23 42.11
  Q 34.56 42.10 34.72 42.38
  Q 35.27 43.33 36.24 43.11
  Q 36.74 42.99 36.89 43.48
  Q 37.10 44.14 37.85 44.13
  Q 38.33 44.12 38.69 44.43
  L 40.40 45.92
  Q 40.64 46.12 40.94 46.11
  Q 41.08 46.11 41.23 46.11
  Q 41.56 46.10 41.72 46.38
  Q 42.27 47.33 43.24 47.11
  Q 43.74 46.99 43.89 47.48
  Q 44.10 48.14 44.85 48.13
  Q 45.33 48.12 45.69 48.43
  L 47.40 49.92
  Q 47.64 50.12 47.95 50.11
  Q 48.08 50.11 48.23 50.11
  Q 48.55 50.10 48.72 50.38
  Q 49.27 51.33 50.24 51.11
  Q 50.74 50.99 50.89 51.48
  Q 51.10 52.14 51.85 52.13
  Q 52.33 52.12 52.69 52.43
  L 54.40 53.92
  Q 54.64 54.12 54.95 54.11
  Q 55.08 54.11 55.23 54.11
  Q 55.55 54.10 55.72 54.38
  Q 56.26 55.31 57.21 55.11
  Q 57.69 55.01 57.88 55.47
  Q 58.22 56.32 59.22 56.11
  Q 59.68 56.01 59.90 56.42
  Q 60.74 57.91 62.33 58.15
  Q 62.79 58.21 63.01 58.61
  Q 63.35 59.21 63.98 59.12
  Q 64.47 59.05 64.79 59.44
  C 65.68 60.56 67.08 61.03 68.00 61.71
  Q 69.12 62.53 70.38 63.21
  Q 70.51 63.28 70.51 63.43
  Q 70.51 63.63 70.51 63.84
  Q 70.51 63.88 70.47 63.88
  L 69.72 63.89
  Q 68.94 63.89 69.46 64.47
  L 69.77 64.81
  C 65.29 67.57 63.83 70.86 63.23 76.27
  C 62.22 85.29 59.42 92.22 49.56 94.06
  C 46.56 94.61 43.04 94.47 40.53 95.35
  Q 34.29 97.53 31.91 104.62
  Q 31.36 103.27 29.88 102.88
  Q 29.41 102.76 29.12 102.38
  Q 28.61 101.74 27.83 101.89
  Q 27.37 101.98 27.12 101.59
  Q 26.30 100.25 24.90 99.86
  Q 24.41 99.72 24.08 99.34
  Q 23.58 98.75 22.82 98.90
  Q 22.34 98.99 22.13 98.55
  Q 21.72 97.68 20.82 97.90
  Q 20.36 98.01 20.12 97.60
  Q 19.29 96.23 17.85 95.80
  Q 17.37 95.66 17.03 95.29
  Q 16.54 94.75 15.82 94.90
  Q 15.34 94.99 15.13 94.55
  Q 14.72 93.68 13.82 93.90
  Q 13.36 94.01 13.12 93.60
  Q 12.29 92.22 10.85 91.80
  Q 10.37 91.66 10.03 91.29
  Q 9.53 90.74 8.78 90.90
  Q 8.28 91.01 8.11 90.53
  Q 7.87 89.87 7.21 89.87
  Q 6.69 89.87 6.27 89.58
  Q 5.46 89.01 4.92 88.24
  Q 4.63 87.83 4.13 87.90
  Q 3.35 88.00 2.92 87.28
  Q 2.70 86.90 2.25 86.90
  L 1.46 86.90
  Q 0.86 86.90 0.75 87.49
  Q 0.58 88.42 0.00 88.98
  L 0.00 81.26
  Q 1.67 54.11 18.12 32.71
  Z"
/>
<path fill="#ffffff" d="
  M 160.26 63.06
  Q 169.50 63.17 179.51 63.09
  Q 187.84 63.03 191.41 70.31
  C 192.92 73.39 192.86 77.39 193.50 80.99
  Q 195.28 90.88 204.57 93.66
  C 208.29 94.77 212.75 94.26 216.04 95.57
  Q 223.63 98.59 224.28 107.53
  Q 224.25 124.77 224.22 142.00
  Q 224.21 145.20 221.40 149.04
  Q 217.99 153.14 214.26 153.53
  C 206.29 154.37 199.94 154.37 195.30 162.01
  C 192.71 166.29 193.46 173.23 191.61 177.53
  Q 188.15 185.56 178.23 185.29
  L 90.46 185.28
  Q 89.94 185.28 89.61 185.69
  L 74.60 204.46
  C 73.03 206.27 71.14 209.43 69.18 210.13
  C 66.30 211.16 63.33 209.24 63.31 206.00
  Q 63.29 199.66 63.21 193.55
  Q 63.28 183.29 63.14 173.25
  C 62.98 161.39 57.38 154.55 45.26 153.84
  C 39.91 153.53 35.58 151.68 33.17 146.75
  Q 31.76 143.88 31.74 137.53
  Q 31.66 120.99 31.91 104.62
  Q 34.29 97.53 40.53 95.35
  C 43.04 94.47 46.56 94.61 49.56 94.06
  C 59.42 92.22 62.22 85.29 63.23 76.27
  C 63.83 70.86 65.29 67.57 69.77 64.81
  Q 73.19 63.11 78.25 63.11
  Q 118.88 63.07 160.26 63.06
  Z
  M 57.67 122.47
  Q 57.47 131.53 57.85 140.99
  Q 58.58 159.00 76.48 159.18
  Q 99.28 159.42 122.04 159.36
  Q 151.01 159.42 180.00 159.37
  C 194.51 159.34 199.22 148.37 198.29 135.76
  Q 198.57 117.92 198.23 107.01
  C 197.93 97.42 191.78 89.15 181.51 89.14
  Q 152.74 89.10 123.53 89.15
  Q 85.42 89.07 75.00 89.15
  C 68.81 89.19 62.30 92.31 59.83 98.31
  C 56.82 105.62 57.57 114.49 57.67 122.47
  Z"
/>
<path fill="#be41ff" d="
  M 31.91 104.62
  Q 31.66 120.99 31.74 137.53
  Q 31.76 143.88 33.17 146.75
  C 35.58 151.68 39.91 153.53 45.26 153.84
  C 57.38 154.55 62.98 161.39 63.14 173.25
  Q 63.28 183.29 63.21 193.55
  Q 61.77 194.51 59.72 192.19
  Q 59.37 191.79 58.84 191.88
  Q 58.30 191.97 58.00 191.50
  Q 57.74 191.08 57.26 190.91
  Q 54.54 189.99 52.62 187.95
  Q 52.56 187.88 52.46 187.88
  L 51.99 187.88
  A 0.31 0.23 53.0 0 1 51.85 187.84
  Q 49.77 186.48 47.46 185.55
  Q 46.97 185.35 46.65 184.93
  Q 46.03 184.07 45.05 183.88
  Q 44.69 183.81 44.38 183.62
  L 34.69 177.84
  Q 34.35 177.63 34.08 177.32
  Q 33.59 176.76 32.86 176.86
  Q 32.44 176.92 32.20 176.57
  Q 31.69 175.83 30.77 175.68
  Q 30.33 175.61 30.03 175.28
  Q 29.55 174.73 28.81 174.88
  Q 28.30 174.99 28.11 174.50
  Q 27.82 173.73 26.93 173.89
  A 0.85 0.83 -22.3 0 1 26.12 173.56
  Q 25.23 172.34 23.83 171.84
  Q 23.39 171.69 23.08 171.36
  Q 21.95 170.20 20.45 169.69
  Q 20.06 169.56 19.78 169.25
  Q 19.51 168.95 19.11 168.88
  Q 18.81 168.83 18.54 168.68
  L 17.50 168.10
  Q 17.14 167.91 16.74 167.92
  Q 16.14 167.94 15.92 167.21
  Q 15.81 166.88 15.46 166.88
  L 14.77 166.88
  Q 14.38 166.88 14.15 166.57
  Q 13.20 165.28 11.70 164.72
  Q 11.32 164.59 11.06 164.29
  Q 10.56 163.74 9.81 163.88
  Q 9.34 163.97 9.14 163.54
  Q 8.72 162.65 7.78 162.89
  Q 7.29 163.01 7.12 162.54
  Q 6.85 161.77 6.02 161.87
  Q 5.46 161.94 5.12 161.48
  Q 3.46 159.23 0.00 159.95
  L 0.00 88.98
  Q 0.58 88.42 0.75 87.49
  Q 0.86 86.90 1.46 86.90
  L 2.25 86.90
  Q 2.70 86.90 2.92 87.28
  Q 3.35 88.00 4.13 87.90
  Q 4.63 87.83 4.92 88.24
  Q 5.46 89.01 6.27 89.58
  Q 6.69 89.87 7.21 89.87
  Q 7.87 89.87 8.11 90.53
  Q 8.28 91.01 8.78 90.90
  Q 9.53 90.74 10.03 91.29
  Q 10.37 91.66 10.85 91.80
  Q 12.29 92.22 13.12 93.60
  Q 13.36 94.01 13.82 93.90
  Q 14.72 93.68 15.13 94.55
  Q 15.34 94.99 15.82 94.90
  Q 16.54 94.75 17.03 95.29
  Q 17.37 95.66 17.85 95.80
  Q 19.29 96.23 20.12 97.60
  Q 20.36 98.01 20.82 97.90
  Q 21.72 97.68 22.13 98.55
  Q 22.34 98.99 22.82 98.90
  Q 23.58 98.75 24.08 99.34
  Q 24.41 99.72 24.90 99.86
  Q 26.30 100.25 27.12 101.59
  Q 27.37 101.98 27.83 101.89
  Q 28.61 101.74 29.12 102.38
  Q 29.41 102.76 29.88 102.88
  Q 31.36 103.27 31.91 104.62
  Z"
/>
<path fill="#9f42ed" d="
  M 123.53 89.15
  Q 125.02 90.05 126.79 90.44
  Q 127.28 90.54 127.59 90.93
  Q 128.38 91.95 129.51 92.62
  Q 132.28 94.24 134.88 96.06
  Q 135.14 96.25 135.43 96.13
  Q 135.81 95.99 135.93 96.69
  A 0.53 0.53 0.0 0 0 136.45 97.12
  L 136.96 97.12
  Q 137.56 97.12 137.95 97.58
  Q 138.36 98.08 138.97 98.12
  Q 139.48 98.15 139.82 98.53
  Q 140.85 99.63 142.19 100.17
  Q 142.66 100.36 142.98 100.74
  Q 143.31 101.14 143.77 101.14
  Q 144.28 101.14 144.69 101.42
  Q 145.61 102.04 146.23 102.88
  Q 146.41 103.12 146.72 103.12
  L 147.22 103.12
  Q 147.60 103.12 147.82 103.43
  Q 148.32 104.14 149.15 104.13
  Q 149.59 104.12 149.89 104.45
  Q 150.59 105.24 149.95 106.46
  C 142.02 111.54 143.72 120.33 143.75 128.25
  Q 143.77 133.19 144.74 135.60
  C 149.08 146.30 164.73 145.80 168.70 135.36
  C 170.21 131.42 169.64 125.26 169.58 120.60
  L 169.82 122.66
  A 0.06 0.06 0.0 0 0 169.93 122.69
  Q 170.09 122.50 170.10 122.25
  Q 170.10 122.12 170.20 122.20
  Q 170.30 122.27 170.44 122.25
  Q 170.60 122.23 170.60 122.07
  L 170.61 121.56
  Q 170.61 121.28 170.87 121.17
  Q 171.68 120.86 171.91 121.52
  Q 172.07 121.97 172.55 122.05
  Q 174.13 122.31 175.01 123.71
  Q 175.26 124.11 175.74 124.11
  L 176.25 124.11
  Q 176.56 124.11 176.72 124.38
  Q 177.27 125.32 178.23 125.11
  Q 178.73 124.99 178.89 125.48
  Q 179.11 126.15 179.83 126.13
  Q 180.31 126.11 180.68 126.43
  L 182.40 127.92
  Q 182.64 128.12 182.94 128.11
  Q 183.08 128.11 183.23 128.11
  Q 183.56 128.10 183.72 128.38
  Q 184.27 129.33 185.23 129.11
  Q 185.73 128.99 185.89 129.48
  Q 186.11 130.15 186.83 130.13
  Q 187.31 130.11 187.68 130.43
  L 189.40 131.92
  Q 189.64 132.12 189.94 132.11
  Q 190.08 132.11 190.23 132.11
  Q 190.55 132.10 190.72 132.38
  Q 191.27 133.32 192.23 133.11
  Q 192.73 132.99 192.89 133.48
  Q 193.12 134.17 193.85 134.13
  Q 194.35 134.10 194.72 134.44
  L 196.22 135.82
  Q 196.59 136.15 197.09 136.12
  Q 197.65 136.09 198.29 135.76
  C 199.22 148.37 194.51 159.34 180.00 159.37
  Q 151.01 159.42 122.04 159.36
  Q 122.27 157.94 120.95 157.86
  Q 120.45 157.82 120.15 157.42
  Q 119.64 156.73 118.82 156.89
  Q 118.37 156.98 118.13 156.58
  Q 117.31 155.25 115.89 154.85
  Q 115.41 154.71 115.08 154.33
  Q 114.58 153.74 113.82 153.89
  Q 113.37 153.97 113.13 153.58
  Q 112.31 152.25 110.89 151.85
  Q 110.41 151.71 110.08 151.33
  Q 109.58 150.74 108.81 150.89
  Q 108.34 150.98 108.13 150.54
  Q 107.73 149.68 106.83 149.89
  Q 106.38 149.99 106.14 149.60
  Q 105.30 148.23 103.86 147.84
  Q 103.37 147.70 103.05 147.31
  Q 102.67 146.83 102.11 146.87
  Q 101.57 146.91 101.17 146.52
  L 99.70 145.08
  A 0.70 0.69 -22.8 0 0 99.22 144.89
  L 98.50 144.89
  Q 98.36 144.89 98.36 144.75
  Q 98.36 144.61 98.35 144.47
  A 0.15 0.14 6.4 0 1 98.53 144.33
  Q 99.84 144.65 100.03 143.55
  Q 108.18 142.44 111.11 135.80
  C 112.97 131.57 112.23 125.12 112.25 120.09
  Q 112.27 114.90 111.00 112.11
  C 106.47 102.19 91.90 102.03 87.51 112.30
  Q 86.33 115.05 86.38 121.38
  C 86.41 126.42 85.57 132.37 88.01 136.96
  L 87.53 137.01
  A 0.12 0.11 -35.6 0 0 87.49 137.23
  Q 87.70 137.32 87.62 137.56
  Q 87.50 137.89 87.15 137.89
  L 86.72 137.89
  Q 86.43 137.89 86.29 137.64
  Q 85.75 136.70 84.81 136.89
  Q 84.34 136.98 84.13 136.55
  Q 83.73 135.67 82.82 135.89
  Q 82.37 136.00 82.13 135.60
  Q 81.29 134.22 79.84 133.79
  Q 79.37 133.65 79.03 133.28
  Q 78.54 132.74 77.81 132.89
  Q 77.34 132.98 77.13 132.55
  Q 76.72 131.67 75.82 131.89
  Q 75.37 132.00 75.13 131.60
  Q 74.29 130.22 72.84 129.79
  Q 72.37 129.65 72.03 129.28
  Q 71.54 128.74 70.81 128.89
  Q 70.34 128.98 70.13 128.55
  Q 69.72 127.67 68.82 127.89
  Q 68.37 128.00 68.13 127.60
  Q 67.29 126.22 65.84 125.79
  Q 65.36 125.65 65.03 125.28
  Q 64.53 124.73 63.78 124.89
  Q 63.29 125.00 63.11 124.53
  Q 62.84 123.78 62.03 123.88
  Q 61.53 123.94 61.18 123.58
  L 59.85 122.21
  Q 59.47 121.82 58.93 121.89
  Q 58.27 121.98 57.67 122.47
  C 57.57 114.49 56.82 105.62 59.83 98.31
  C 62.30 92.31 68.81 89.19 75.00 89.15
  Q 85.42 89.07 123.53 89.15
  Z"
/>
<path fill="#8243dd" d="
  M 123.53 89.15
  Q 152.74 89.10 181.51 89.14
  C 191.78 89.15 197.93 97.42 198.23 107.01
  Q 198.57 117.92 198.29 135.76
  Q 197.65 136.09 197.09 136.12
  Q 196.59 136.15 196.22 135.82
  L 194.72 134.44
  Q 194.35 134.10 193.85 134.13
  Q 193.12 134.17 192.89 133.48
  Q 192.73 132.99 192.23 133.11
  Q 191.27 133.32 190.72 132.38
  Q 190.55 132.10 190.23 132.11
  Q 190.08 132.11 189.94 132.11
  Q 189.64 132.12 189.40 131.92
  L 187.68 130.43
  Q 187.31 130.11 186.83 130.13
  Q 186.11 130.15 185.89 129.48
  Q 185.73 128.99 185.23 129.11
  Q 184.27 129.33 183.72 128.38
  Q 183.56 128.10 183.23 128.11
  Q 183.08 128.11 182.94 128.11
  Q 182.64 128.12 182.40 127.92
  L 180.68 126.43
  Q 180.31 126.11 179.83 126.13
  Q 179.11 126.15 178.89 125.48
  Q 178.73 124.99 178.23 125.11
  Q 177.27 125.32 176.72 124.38
  Q 176.56 124.11 176.25 124.11
  L 175.74 124.11
  Q 175.26 124.11 175.01 123.71
  Q 174.13 122.31 172.55 122.05
  Q 172.07 121.97 171.91 121.52
  Q 171.68 120.86 170.87 121.17
  Q 170.61 121.28 170.61 121.56
  L 170.60 122.07
  Q 170.60 122.23 170.44 122.25
  Q 170.30 122.27 170.20 122.20
  Q 170.10 122.12 170.10 122.25
  Q 170.09 122.50 169.93 122.69
  A 0.06 0.06 0.0 0 1 169.82 122.66
  L 169.58 120.60
  C 170.67 108.99 160.52 100.47 149.95 106.46
  Q 150.59 105.24 149.89 104.45
  Q 149.59 104.12 149.15 104.13
  Q 148.32 104.14 147.82 103.43
  Q 147.60 103.12 147.22 103.12
  L 146.72 103.12
  Q 146.41 103.12 146.23 102.88
  Q 145.61 102.04 144.69 101.42
  Q 144.28 101.14 143.77 101.14
  Q 143.31 101.14 142.98 100.74
  Q 142.66 100.36 142.19 100.17
  Q 140.85 99.63 139.82 98.53
  Q 139.48 98.15 138.97 98.12
  Q 138.36 98.08 137.95 97.58
  Q 137.56 97.12 136.96 97.12
  L 136.45 97.12
  A 0.53 0.53 0.0 0 1 135.93 96.69
  Q 135.81 95.99 135.43 96.13
  Q 135.14 96.25 134.88 96.06
  Q 132.28 94.24 129.51 92.62
  Q 128.38 91.95 127.59 90.93
  Q 127.28 90.54 126.79 90.44
  Q 125.02 90.05 123.53 89.15
  Z"
/>
<path fill="#ffffff" d="
  M 100.03 143.55
  Q 92.14 143.53 88.01 136.96
  C 85.57 132.37 86.41 126.42 86.38 121.38
  Q 86.33 115.05 87.51 112.30
  C 91.90 102.03 106.47 102.19 111.00 112.11
  Q 112.27 114.90 112.25 120.09
  C 112.23 125.12 112.97 131.57 111.11 135.80
  Q 108.18 142.44 100.03 143.55
  Z"
/>
<path fill="#ffffff" d="
  M 169.58 120.60
  C 169.64 125.26 170.21 131.42 168.70 135.36
  C 164.73 145.80 149.08 146.30 144.74 135.60
  Q 143.77 133.19 143.75 128.25
  C 143.72 120.33 142.02 111.54 149.95 106.46
  C 160.52 100.47 170.67 108.99 169.58 120.60
  Z"
/>
<path fill="#8243dd" d="
  M 256.00 122.87
  L 256.00 169.12
  Q 255.46 168.82 255.08 168.40
  A 0.16 0.16 0.0 0 1 255.25 168.14
  Q 255.45 168.19 255.37 167.99
  Q 255.37 167.99 255.01 167.88
  Q 254.71 167.78 254.70 168.28
  A 0.12 0.12 0.0 0 1 254.48 168.34
  Q 253.78 167.17 252.63 166.41
  Q 252.24 166.15 251.77 166.14
  Q 251.08 166.11 250.89 165.48
  Q 250.74 165.00 250.24 165.11
  Q 249.27 165.33 248.72 164.38
  Q 248.56 164.10 248.23 164.11
  Q 248.09 164.12 247.95 164.12
  Q 247.64 164.13 247.40 163.92
  L 245.69 162.44
  Q 245.33 162.13 244.86 162.14
  Q 244.10 162.15 243.89 161.48
  Q 243.74 161.00 243.24 161.11
  Q 242.27 161.33 241.72 160.38
  Q 241.56 160.10 241.23 160.11
  Q 241.09 160.12 240.95 160.12
  Q 240.64 160.13 240.40 159.92
  L 238.69 158.44
  Q 238.33 158.13 237.86 158.14
  Q 237.10 158.15 236.89 157.48
  Q 236.74 157.00 236.24 157.11
  Q 235.27 157.33 234.72 156.38
  Q 234.56 156.10 234.23 156.11
  Q 234.09 156.12 233.95 156.12
  Q 233.64 156.13 233.40 155.92
  L 231.69 154.44
  Q 231.33 154.13 230.86 154.14
  Q 230.10 154.15 229.89 153.48
  Q 229.74 153.00 229.24 153.11
  Q 228.27 153.33 227.72 152.38
  Q 227.56 152.10 227.23 152.11
  Q 227.05 152.12 226.88 152.12
  Q 226.36 152.13 226.04 151.72
  Q 225.38 150.86 224.46 150.28
  Q 224.14 150.08 224.12 150.45
  Q 224.11 150.57 224.12 150.71
  Q 224.13 150.85 224.01 150.91
  Q 223.07 151.35 222.34 150.91
  Q 221.99 150.70 222.10 150.30
  Q 222.28 149.63 221.40 149.04
  Q 224.21 145.20 224.22 142.00
  Q 224.25 124.77 224.28 107.53
  Q 225.18 107.74 225.27 106.86
  Q 225.32 106.37 224.93 106.07
  Q 224.32 105.61 224.99 105.14
  A 0.56 0.56 0.0 0 1 225.80 105.31
  Q 226.64 106.76 228.19 107.19
  Q 228.68 107.32 228.98 107.73
  Q 229.29 108.16 229.83 108.13
  Q 230.31 108.11 230.67 108.42
  L 232.48 109.99
  A 0.54 0.50 64.0 0 0 232.82 110.12
  L 233.24 110.12
  Q 233.56 110.12 233.72 110.39
  Q 234.27 111.33 235.24 111.11
  Q 235.73 111.00 235.89 111.48
  Q 236.10 112.15 236.87 112.14
  Q 237.33 112.13 237.68 112.43
  L 239.48 113.99
  A 0.54 0.50 64.0 0 0 239.82 114.12
  L 240.24 114.12
  Q 240.56 114.12 240.72 114.39
  Q 241.27 115.33 242.24 115.11
  Q 242.73 115.00 242.89 115.48
  Q 243.10 116.15 243.87 116.14
  Q 244.33 116.13 244.68 116.43
  L 246.48 117.99
  A 0.54 0.50 64.0 0 0 246.82 118.12
  L 247.24 118.12
  Q 247.67 118.12 247.85 118.51
  Q 248.20 119.24 248.98 119.12
  Q 249.48 119.04 249.74 119.47
  Q 250.15 120.14 250.93 120.13
  Q 251.48 120.13 251.84 120.54
  Q 252.93 121.77 254.31 122.49
  Q 254.58 122.63 254.65 122.92
  L 254.77 123.38
  Q 254.91 123.94 255.21 123.46
  Q 255.66 122.75 256.00 122.87
  Z"
/>
<path fill="#be41ff" d="
  M 88.01 136.96
  Q 92.14 143.53 100.03 143.55
  Q 99.84 144.65 98.53 144.33
  A 0.15 0.14 6.4 0 0 98.35 144.47
  Q 98.36 144.61 98.36 144.75
  Q 98.36 144.89 98.50 144.89
  L 99.22 144.89
  A 0.70 0.69 -22.8 0 1 99.70 145.08
  L 101.17 146.52
  Q 101.57 146.91 102.11 146.87
  Q 102.67 146.83 103.05 147.31
  Q 103.37 147.70 103.86 147.84
  Q 105.30 148.23 106.14 149.60
  Q 106.38 149.99 106.83 149.89
  Q 107.73 149.68 108.13 150.54
  Q 108.34 150.98 108.81 150.89
  Q 109.58 150.74 110.08 151.33
  Q 110.41 151.71 110.89 151.85
  Q 112.31 152.25 113.13 153.58
  Q 113.37 153.97 113.82 153.89
  Q 114.58 153.74 115.08 154.33
  Q 115.41 154.71 115.89 154.85
  Q 117.31 155.25 118.13 156.58
  Q 118.37 156.98 118.82 156.89
  Q 119.64 156.73 120.15 157.42
  Q 120.45 157.82 120.95 157.86
  Q 122.27 157.94 122.04 159.36
  Q 99.28 159.42 76.48 159.18
  Q 58.58 159.00 57.85 140.99
  Q 57.47 131.53 57.67 122.47
  Q 58.27 121.98 58.93 121.89
  Q 59.47 121.82 59.85 122.21
  L 61.18 123.58
  Q 61.53 123.94 62.03 123.88
  Q 62.84 123.78 63.11 124.53
  Q 63.29 125.00 63.78 124.89
  Q 64.53 124.73 65.03 125.28
  Q 65.36 125.65 65.84 125.79
  Q 67.29 126.22 68.13 127.60
  Q 68.37 128.00 68.82 127.89
  Q 69.72 127.67 70.13 128.55
  Q 70.34 128.98 70.81 128.89
  Q 71.54 128.74 72.03 129.28
  Q 72.37 129.65 72.84 129.79
  Q 74.29 130.22 75.13 131.60
  Q 75.37 132.00 75.82 131.89
  Q 76.72 131.67 77.13 132.55
  Q 77.34 132.98 77.81 132.89
  Q 78.54 132.74 79.03 133.28
  Q 79.37 133.65 79.84 133.79
  Q 81.29 134.22 82.13 135.60
  Q 82.37 136.00 82.82 135.89
  Q 83.73 135.67 84.13 136.55
  Q 84.34 136.98 84.81 136.89
  Q 85.75 136.70 86.29 137.64
  Q 86.43 137.89 86.72 137.89
  L 87.15 137.89
  Q 87.50 137.89 87.62 137.56
  Q 87.70 137.32 87.49 137.23
  A 0.12 0.11 -35.6 0 1 87.53 137.01
  L 88.01 136.96
  Z"
/>
<path fill="#9f42ed" d="
  M 221.40 149.04
  Q 222.28 149.63 222.10 150.30
  Q 221.99 150.70 222.34 150.91
  Q 223.07 151.35 224.01 150.91
  Q 224.13 150.85 224.12 150.71
  Q 224.11 150.57 224.12 150.45
  Q 224.14 150.08 224.46 150.28
  Q 225.38 150.86 226.04 151.72
  Q 226.36 152.13 226.88 152.12
  Q 227.05 152.12 227.23 152.11
  Q 227.56 152.10 227.72 152.38
  Q 228.27 153.33 229.24 153.11
  Q 229.74 153.00 229.89 153.48
  Q 230.10 154.15 230.86 154.14
  Q 231.33 154.13 231.69 154.44
  L 233.40 155.92
  Q 233.64 156.13 233.95 156.12
  Q 234.09 156.12 234.23 156.11
  Q 234.56 156.10 234.72 156.38
  Q 235.27 157.33 236.24 157.11
  Q 236.74 157.00 236.89 157.48
  Q 237.10 158.15 237.86 158.14
  Q 238.33 158.13 238.69 158.44
  L 240.40 159.92
  Q 240.64 160.13 240.95 160.12
  Q 241.09 160.12 241.23 160.11
  Q 241.56 160.10 241.72 160.38
  Q 242.27 161.33 243.24 161.11
  Q 243.74 161.00 243.89 161.48
  Q 244.10 162.15 244.86 162.14
  Q 245.33 162.13 245.69 162.44
  L 247.40 163.92
  Q 247.64 164.13 247.95 164.12
  Q 248.09 164.12 248.23 164.11
  Q 248.56 164.10 248.72 164.38
  Q 249.27 165.33 250.24 165.11
  Q 250.74 165.00 250.89 165.48
  Q 251.08 166.11 251.77 166.14
  Q 252.24 166.15 252.63 166.41
  Q 253.78 167.17 254.48 168.34
  A 0.12 0.12 0.0 0 0 254.70 168.28
  Q 254.71 167.78 255.01 167.88
  Q 255.37 167.99 255.37 167.99
  Q 255.45 168.19 255.25 168.14
  A 0.16 0.16 0.0 0 0 255.08 168.40
  Q 255.46 168.82 256.00 169.12
  L 256.00 174.73
  C 254.95 192.16 248.67 210.44 237.31 223.87
  Q 236.65 223.37 236.89 222.45
  Q 237.03 221.90 236.46 221.90
  L 235.75 221.90
  Q 235.31 221.90 235.11 221.50
  Q 234.70 220.69 233.84 220.89
  Q 233.38 221.00 233.13 220.60
  Q 232.31 219.26 230.90 218.86
  Q 230.41 218.72 230.08 218.34
  Q 229.58 217.75 228.82 217.90
  Q 228.34 217.99 228.13 217.55
  Q 227.72 216.68 226.82 216.90
  Q 226.36 217.01 226.12 216.60
  Q 225.29 215.22 223.84 214.80
  Q 223.36 214.66 223.03 214.29
  Q 222.55 213.76 221.82 213.90
  Q 221.37 213.98 221.12 213.59
  Q 220.30 212.25 218.90 211.86
  Q 218.41 211.72 218.08 211.34
  Q 217.58 210.75 216.82 210.90
  Q 216.34 210.99 216.13 210.55
  Q 215.72 209.68 214.82 209.90
  Q 214.36 210.01 214.12 209.60
  Q 213.29 208.23 211.85 207.80
  Q 211.37 207.66 211.03 207.29
  Q 210.54 206.75 209.82 206.90
  Q 209.34 206.99 209.13 206.55
  Q 208.72 205.68 207.82 205.90
  Q 207.36 206.01 207.12 205.60
  Q 206.29 204.23 204.85 203.80
  Q 204.37 203.66 204.03 203.29
  Q 203.54 202.75 202.82 202.90
  Q 202.34 202.99 202.13 202.55
  Q 201.72 201.68 200.82 201.90
  Q 200.36 202.01 200.12 201.60
  Q 199.29 200.23 197.85 199.80
  Q 197.37 199.66 197.03 199.29
  Q 196.54 198.75 195.82 198.90
  Q 195.34 198.99 195.13 198.55
  Q 194.72 197.68 193.82 197.90
  Q 193.36 198.01 193.12 197.60
  Q 192.29 196.23 190.85 195.80
  Q 190.37 195.66 190.03 195.29
  Q 189.54 194.75 188.82 194.90
  Q 188.34 194.99 188.13 194.55
  Q 187.73 193.69 186.84 193.89
  Q 186.38 194.00 186.13 193.60
  Q 185.30 192.24 183.86 191.85
  Q 183.37 191.71 183.05 191.31
  Q 182.71 190.88 182.21 190.88
  Q 181.69 190.89 181.27 190.58
  Q 180.40 189.94 179.81 189.11
  Q 179.65 188.88 179.37 188.90
  Q 179.15 188.91 178.93 188.87
  Q 178.42 188.80 178.06 188.42
  Q 177.44 187.75 176.59 187.45
  Q 176.05 187.26 176.33 186.76
  Q 176.76 185.99 177.48 185.99
  Q 177.78 185.99 177.58 185.82
  Q 177.53 185.77 177.51 185.71
  A 0.28 0.15 -20.7 0 1 177.72 185.47
  L 178.23 185.29
  Q 188.15 185.56 191.61 177.53
  C 193.46 173.23 192.71 166.29 195.30 162.01
  C 199.94 154.37 206.29 154.37 214.26 153.53
  Q 217.99 153.14 221.40 149.04
  Z"
/>
<path fill="#cd4aff" d="
  M 0.00 159.95
  Q 3.46 159.23 5.12 161.48
  Q 5.46 161.94 6.02 161.87
  Q 6.85 161.77 7.12 162.54
  Q 7.29 163.01 7.78 162.89
  Q 8.72 162.65 9.14 163.54
  Q 9.34 163.97 9.81 163.88
  Q 10.56 163.74 11.06 164.29
  Q 11.32 164.59 11.70 164.72
  Q 13.20 165.28 14.15 166.57
  Q 14.38 166.88 14.77 166.88
  L 15.46 166.88
  Q 15.81 166.88 15.92 167.21
  Q 16.14 167.94 16.74 167.92
  Q 17.14 167.91 17.50 168.10
  L 18.54 168.68
  Q 18.81 168.83 19.11 168.88
  Q 19.51 168.95 19.78 169.25
  Q 20.06 169.56 20.45 169.69
  Q 21.95 170.20 23.08 171.36
  Q 23.39 171.69 23.83 171.84
  Q 25.23 172.34 26.12 173.56
  A 0.85 0.83 -22.3 0 0 26.93 173.89
  Q 27.82 173.73 28.11 174.50
  Q 28.30 174.99 28.81 174.88
  Q 29.55 174.73 30.03 175.28
  Q 30.33 175.61 30.77 175.68
  Q 31.69 175.83 32.20 176.57
  Q 32.44 176.92 32.86 176.86
  Q 33.59 176.76 34.08 177.32
  Q 34.35 177.63 34.69 177.84
  L 44.38 183.62
  Q 44.69 183.81 45.05 183.88
  Q 46.03 184.07 46.65 184.93
  Q 46.97 185.35 47.46 185.55
  Q 49.77 186.48 51.85 187.84
  A 0.31 0.23 53.0 0 0 51.99 187.88
  L 52.46 187.88
  Q 52.56 187.88 52.62 187.95
  Q 54.54 189.99 57.26 190.91
  Q 57.74 191.08 58.00 191.50
  Q 58.30 191.97 58.84 191.88
  Q 59.37 191.79 59.72 192.19
  Q 61.77 194.51 63.21 193.55
  Q 63.29 199.66 63.31 206.00
  C 63.33 209.24 66.30 211.16 69.18 210.13
  C 71.14 209.43 73.03 206.27 74.60 204.46
  Q 75.96 205.07 77.13 206.53
  Q 77.46 206.94 77.98 206.87
  Q 78.68 206.78 79.05 207.29
  Q 79.33 207.69 79.80 207.81
  Q 81.33 208.20 82.14 209.63
  A 0.55 0.55 0.0 0 0 82.74 209.89
  Q 83.77 209.66 84.12 210.52
  Q 84.31 210.97 84.80 210.88
  Q 85.57 210.72 86.07 211.32
  Q 86.33 211.62 86.70 211.75
  Q 88.21 212.31 89.21 213.60
  Q 89.47 213.93 89.88 213.86
  Q 90.80 213.72 91.13 214.53
  Q 91.31 214.98 91.78 214.88
  Q 92.52 214.73 93.01 215.25
  Q 93.35 215.60 93.81 215.77
  Q 95.25 216.28 96.16 217.59
  Q 96.41 217.94 96.83 217.86
  Q 97.78 217.70 98.13 218.52
  Q 98.31 218.97 98.79 218.88
  Q 99.59 218.74 99.98 219.33
  Q 100.21 219.69 100.64 219.78
  Q 102.24 220.11 103.12 221.58
  Q 103.35 221.97 103.80 221.88
  Q 104.76 221.69 105.11 222.49
  Q 105.29 222.90 105.74 222.87
  Q 106.86 222.78 107.45 223.72
  Q 107.55 223.88 107.73 223.88
  L 108.20 223.88
  Q 108.72 223.88 108.99 224.33
  Q 109.44 225.08 110.23 225.54
  Q 110.65 225.79 111.12 225.88
  Q 111.79 226.01 112.18 226.58
  Q 112.43 226.94 112.85 226.87
  Q 113.60 226.74 114.09 227.32
  Q 114.37 227.64 114.77 227.80
  Q 116.22 228.36 117.16 229.65
  A 0.60 0.59 -24.2 0 0 117.78 229.88
  Q 118.50 229.72 118.99 230.23
  Q 119.26 230.50 119.62 230.63
  Q 121.25 231.20 122.16 232.63
  A 0.59 0.57 -21.3 0 0 122.77 232.89
  Q 123.77 232.67 124.12 233.52
  Q 124.31 233.98 124.80 233.88
  Q 125.75 233.69 126.11 234.48
  Q 126.29 234.89 126.75 234.87
  Q 127.57 234.83 127.99 235.53
  A 0.76 0.74 69.0 0 0 128.76 235.88
  Q 129.73 235.72 130.25 236.51
  Q 130.48 236.87 130.91 236.88
  Q 131.09 236.88 131.27 236.87
  Q 131.56 236.85 131.74 237.09
  Q 132.78 238.47 134.36 238.91
  Q 134.88 239.05 135.20 239.48
  Q 135.54 239.94 136.14 239.89
  Q 136.63 239.84 136.93 240.24
  Q 137.54 241.06 138.44 241.61
  Q 138.83 241.85 139.30 241.87
  Q 139.77 241.89 140.04 242.32
  Q 140.31 242.76 140.83 242.84
  Q 142.38 243.07 143.10 244.53
  Q 143.30 244.93 143.75 244.87
  Q 144.74 244.76 145.28 245.51
  Q 145.54 245.88 145.99 245.88
  L 146.49 245.88
  A 0.30 0.30 0.0 0 1 146.78 246.10
  Q 147.00 246.84 147.78 246.92
  Q 148.33 246.97 148.76 247.31
  L 150.26 248.50
  Q 150.69 248.85 151.25 248.86
  Q 151.73 248.88 152.01 249.27
  Q 152.25 249.59 152.62 249.73
  Q 154.18 250.28 155.20 251.59
  Q 155.46 251.93 155.87 251.86
  Q 156.60 251.75 157.08 252.32
  Q 157.41 252.69 157.87 252.86
  Q 158.90 253.24 159.76 253.95
  Q 160.16 254.29 160.12 254.80
  L 160.01 256.00
  L 130.73 256.00
  L 131.74 255.11
  Q 132.14 254.76 131.62 254.64
  L 131.31 254.57
  Q 130.77 254.44 130.37 254.07
  Q 127.93 251.79 124.88 250.37
  C 123.29 249.64 122.21 248.51 120.66 247.69
  Q 117.73 246.13 117.39 245.92
  Q 113.68 243.58 109.86 241.44
  Q 108.13 240.48 106.33 239.64
  C 102.97 238.07 99.97 235.93 96.73 234.16
  C 96.00 233.76 95.99 233.19 94.92 233.08
  Q 94.45 233.03 94.20 232.63
  Q 93.67 231.81 92.74 231.88
  Q 92.28 231.92 92.10 231.49
  Q 91.82 230.80 91.07 230.87
  Q 90.51 230.91 90.14 230.48
  Q 89.31 229.51 87.94 229.94
  A 0.74 0.74 0.0 0 1 87.09 229.62
  Q 86.63 228.86 85.76 228.88
  Q 85.18 228.90 84.86 228.41
  Q 84.10 227.23 82.75 227.03
  A 1.07 1.06 -11.2 0 1 81.98 226.52
  Q 81.57 225.83 80.81 225.88
  Q 80.30 225.91 80.01 225.50
  Q 79.56 224.86 78.76 224.88
  Q 78.17 224.90 77.85 224.41
  Q 77.03 223.14 75.58 222.78
  Q 75.04 222.64 74.71 222.20
  Q 74.25 221.57 73.45 221.62
  A 0.98 0.97 73.3 0 1 72.56 221.14
  Q 71.94 220.10 70.80 220.05
  A 0.94 0.94 0.0 0 1 70.03 219.59
  Q 69.68 218.97 69.00 218.86
  Q 68.53 218.78 68.14 218.52
  Q 66.25 217.25 62.87 215.38
  Q 58.31 212.85 45.89 205.68
  Q 37.65 200.93 29.46 196.07
  Q 29.16 195.89 28.74 195.86
  Q 28.33 195.84 28.11 195.49
  Q 27.30 194.16 25.78 194.05
  A 0.96 0.95 -12.4 0 1 25.02 193.57
  Q 24.60 192.83 23.80 192.88
  Q 23.39 192.90 23.10 192.61
  L 22.50 192.00
  Q 22.18 191.69 21.73 191.66
  Q 21.01 191.61 20.61 191.08
  Q 20.37 190.77 20.04 190.58
  C 14.68 187.51 9.42 184.45 3.76 181.96
  Q 1.63 181.02 0.49 179.59
  L 0.00 174.62
  L 0.00 159.95
  Z"
/>
<path fill="#e758ff" d="
  M 0.49 179.59
  Q 1.63 181.02 3.76 181.96
  C 9.42 184.45 14.68 187.51 20.04 190.58
  Q 20.37 190.77 20.61 191.08
  Q 21.01 191.61 21.73 191.66
  Q 22.18 191.69 22.50 192.00
  L 23.10 192.61
  Q 23.39 192.90 23.80 192.88
  Q 24.60 192.83 25.02 193.57
  A 0.96 0.95 -12.4 0 0 25.78 194.05
  Q 27.30 194.16 28.11 195.49
  Q 28.33 195.84 28.74 195.86
  Q 29.16 195.89 29.46 196.07
  Q 37.65 200.93 45.89 205.68
  Q 58.31 212.85 62.87 215.38
  Q 66.25 217.25 68.14 218.52
  Q 68.53 218.78 69.00 218.86
  Q 69.68 218.97 70.03 219.59
  A 0.94 0.94 0.0 0 0 70.80 220.05
  Q 71.94 220.10 72.56 221.14
  A 0.98 0.97 73.3 0 0 73.45 221.62
  Q 74.25 221.57 74.71 222.20
  Q 75.04 222.64 75.58 222.78
  Q 77.03 223.14 77.85 224.41
  Q 78.17 224.90 78.76 224.88
  Q 79.56 224.86 80.01 225.50
  Q 80.30 225.91 80.81 225.88
  Q 81.57 225.83 81.98 226.52
  A 1.07 1.06 -11.2 0 0 82.75 227.03
  Q 84.10 227.23 84.86 228.41
  Q 85.18 228.90 85.76 228.88
  Q 86.63 228.86 87.09 229.62
  A 0.74 0.74 0.0 0 0 87.94 229.94
  Q 89.31 229.51 90.14 230.48
  Q 90.51 230.91 91.07 230.87
  Q 91.82 230.80 92.10 231.49
  Q 92.28 231.92 92.74 231.88
  Q 93.67 231.81 94.20 232.63
  Q 94.45 233.03 94.92 233.08
  C 95.99 233.19 96.00 233.76 96.73 234.16
  C 99.97 235.93 102.97 238.07 106.33 239.64
  Q 108.13 240.48 109.86 241.44
  Q 113.68 243.58 117.39 245.92
  Q 117.73 246.13 120.66 247.69
  C 122.21 248.51 123.29 249.64 124.88 250.37
  Q 127.93 251.79 130.37 254.07
  Q 130.77 254.44 131.31 254.57
  L 131.62 254.64
  Q 132.14 254.76 131.74 255.11
  L 130.73 256.00
  L 80.78 256.00
  C 38.55 252.67 4.98 221.97 0.49 179.59
  Z"
/>
<path fill="#be41ff" d="
  M 178.23 185.29
  L 177.72 185.47
  A 0.28 0.15 -20.7 0 0 177.51 185.71
  Q 177.53 185.77 177.58 185.82
  Q 177.78 185.99 177.48 185.99
  Q 176.76 185.99 176.33 186.76
  Q 176.05 187.26 176.59 187.45
  Q 177.44 187.75 178.06 188.42
  Q 178.42 188.80 178.93 188.87
  Q 179.15 188.91 179.37 188.90
  Q 179.65 188.88 179.81 189.11
  Q 180.40 189.94 181.27 190.58
  Q 181.69 190.89 182.21 190.88
  Q 182.71 190.88 183.05 191.31
  Q 183.37 191.71 183.86 191.85
  Q 185.30 192.24 186.13 193.60
  Q 186.38 194.00 186.84 193.89
  Q 187.73 193.69 188.13 194.55
  Q 188.34 194.99 188.82 194.90
  Q 189.54 194.75 190.03 195.29
  Q 190.37 195.66 190.85 195.80
  Q 192.29 196.23 193.12 197.60
  Q 193.36 198.01 193.82 197.90
  Q 194.72 197.68 195.13 198.55
  Q 195.34 198.99 195.82 198.90
  Q 196.54 198.75 197.03 199.29
  Q 197.37 199.66 197.85 199.80
  Q 199.29 200.23 200.12 201.60
  Q 200.36 202.01 200.82 201.90
  Q 201.72 201.68 202.13 202.55
  Q 202.34 202.99 202.82 202.90
  Q 203.54 202.75 204.03 203.29
  Q 204.37 203.66 204.85 203.80
  Q 206.29 204.23 207.12 205.60
  Q 207.36 206.01 207.82 205.90
  Q 208.72 205.68 209.13 206.55
  Q 209.34 206.99 209.82 206.90
  Q 210.54 206.75 211.03 207.29
  Q 211.37 207.66 211.85 207.80
  Q 213.29 208.23 214.12 209.60
  Q 214.36 210.01 214.82 209.90
  Q 215.72 209.68 216.13 210.55
  Q 216.34 210.99 216.82 210.90
  Q 217.58 210.75 218.08 211.34
  Q 218.41 211.72 218.90 211.86
  Q 220.30 212.25 221.12 213.59
  Q 221.37 213.98 221.82 213.90
  Q 222.55 213.76 223.03 214.29
  Q 223.36 214.66 223.84 214.80
  Q 225.29 215.22 226.12 216.60
  Q 226.36 217.01 226.82 216.90
  Q 227.72 216.68 228.13 217.55
  Q 228.34 217.99 228.82 217.90
  Q 229.58 217.75 230.08 218.34
  Q 230.41 218.72 230.90 218.86
  Q 232.31 219.26 233.13 220.60
  Q 233.38 221.00 233.84 220.89
  Q 234.70 220.69 235.11 221.50
  Q 235.31 221.90 235.75 221.90
  L 236.46 221.90
  Q 237.03 221.90 236.89 222.45
  Q 236.65 223.37 237.31 223.87
  C 221.89 243.41 199.37 254.38 174.62 256.00
  L 160.01 256.00
  L 160.12 254.80
  Q 160.16 254.29 159.76 253.95
  Q 158.90 253.24 157.87 252.86
  Q 157.41 252.69 157.08 252.32
  Q 156.60 251.75 155.87 251.86
  Q 155.46 251.93 155.20 251.59
  Q 154.18 250.28 152.62 249.73
  Q 152.25 249.59 152.01 249.27
  Q 151.73 248.88 151.25 248.86
  Q 150.69 248.85 150.26 248.50
  L 148.76 247.31
  Q 148.33 246.97 147.78 246.92
  Q 147.00 246.84 146.78 246.10
  A 0.30 0.30 0.0 0 0 146.49 245.88
  L 145.99 245.88
  Q 145.54 245.88 145.28 245.51
  Q 144.74 244.76 143.75 244.87
  Q 143.30 244.93 143.10 244.53
  Q 142.38 243.07 140.83 242.84
  Q 140.31 242.76 140.04 242.32
  Q 139.77 241.89 139.30 241.87
  Q 138.83 241.85 138.44 241.61
  Q 137.54 241.06 136.93 240.24
  Q 136.63 239.84 136.14 239.89
  Q 135.54 239.94 135.20 239.48
  Q 134.88 239.05 134.36 238.91
  Q 132.78 238.47 131.74 237.09
  Q 131.56 236.85 131.27 236.87
  Q 131.09 236.88 130.91 236.88
  Q 130.48 236.87 130.25 236.51
  Q 129.73 235.72 128.76 235.88
  A 0.76 0.74 69.0 0 1 127.99 235.53
  Q 127.57 234.83 126.75 234.87
  Q 126.29 234.89 126.11 234.48
  Q 125.75 233.69 124.80 233.88
  Q 124.31 233.98 124.12 233.52
  Q 123.77 232.67 122.77 232.89
  A 0.59 0.57 -21.3 0 1 122.16 232.63
  Q 121.25 231.20 119.62 230.63
  Q 119.26 230.50 118.99 230.23
  Q 118.50 229.72 117.78 229.88
  A 0.60 0.59 -24.2 0 1 117.16 229.65
  Q 116.22 228.36 114.77 227.80
  Q 114.37 227.64 114.09 227.32
  Q 113.60 226.74 112.85 226.87
  Q 112.43 226.94 112.18 226.58
  Q 111.79 226.01 111.12 225.88
  Q 110.65 225.79 110.23 225.54
  Q 109.44 225.08 108.99 224.33
  Q 108.72 223.88 108.20 223.88
  L 107.73 223.88
  Q 107.55 223.88 107.45 223.72
  Q 106.86 222.78 105.74 222.87
  Q 105.29 222.90 105.11 222.49
  Q 104.76 221.69 103.80 221.88
  Q 103.35 221.97 103.12 221.58
  Q 102.24 220.11 100.64 219.78
  Q 100.21 219.69 99.98 219.33
  Q 99.59 218.74 98.79 218.88
  Q 98.31 218.97 98.13 218.52
  Q 97.78 217.70 96.83 217.86
  Q 96.41 217.94 96.16 217.59
  Q 95.25 216.28 93.81 215.77
  Q 93.35 215.60 93.01 215.25
  Q 92.52 214.73 91.78 214.88
  Q 91.31 214.98 91.13 214.53
  Q 90.80 213.72 89.88 213.86
  Q 89.47 213.93 89.21 213.60
  Q 88.21 212.31 86.70 211.75
  Q 86.33 211.62 86.07 211.32
  Q 85.57 210.72 84.80 210.88
  Q 84.31 210.97 84.12 210.52
  Q 83.77 209.66 82.74 209.89
  A 0.55 0.55 0.0 0 1 82.14 209.63
  Q 81.33 208.20 79.80 207.81
  Q 79.33 207.69 79.05 207.29
  Q 78.68 206.78 77.98 206.87
  Q 77.46 206.94 77.13 206.53
  Q 75.96 205.07 74.60 204.46
  L 89.61 185.69
  Q 89.94 185.28 90.46 185.28
  L 178.23 185.29
  Z"
/>
</svg>
