<?xml version="1.0" encoding="UTF-8" standalone="no"?>
<!DOCTYPE svg PUBLIC "-//W3C//DTD SVG 1.1//EN" "http://www.w3.org/Graphics/SVG/1.1/DTD/svg11.dtd">
<svg xmlns="http://www.w3.org/2000/svg" version="1.1" viewBox="0.00 0.00 256.00 256.00">
<g stroke-width="2.00" fill="none" stroke-linecap="butt">
<path stroke="#000000" stroke-opacity="0.588" vector-effect="non-scaling-stroke" d="
  M 2.55 0.85
  Q 1.67 0.54 1.12 0.76
  Q 0.63 0.95 0.63 1.48
  L 0.64 256.00"
/>
<path stroke="#000000" stroke-opacity="0.706" vector-effect="non-scaling-stroke" d="
  M 256.00 0.86
  L 2.55 0.85"
/>
<path stroke="#805720" vector-effect="non-scaling-stroke" d="
  M 142.33 64.94
  C 137.54 53.25 122.81 49.94 113.71 58.96
  Q 92.28 80.23 70.94 101.67
  A 1.45 1.42 68.2 0 0 70.51 102.70
  L 70.51 150.76
  A 0.26 0.26 0.0 0 0 70.96 150.94
  Q 103.14 118.79 135.27 86.63
  Q 141.02 80.88 142.45 77.37
  Q 144.93 71.29 142.33 64.94"
/>
<path stroke="#805720" vector-effect="non-scaling-stroke" d="
  M 181.01 102.55
  A 0.33 0.33 0.0 0 0 180.77 101.99
  L 132.42 101.99
  A 0.33 0.33 0.0 0 0 132.18 102.09
  L 77.36 156.97
  A 0.33 0.33 0.0 0 0 77.60 157.53
  L 125.94 157.53
  A 0.33 0.33 0.0 0 0 126.18 157.43
  L 181.01 102.55"
/>
<path stroke="#805720" vector-effect="non-scaling-stroke" d="
  M 119.60 176.60
  C 112.26 184.00 113.72 195.69 121.08 201.69
  C 130.44 209.33 139.42 205.90 147.18 198.17
  Q 166.90 178.52 186.88 158.48
  A 3.56 3.55 -22.7 0 0 187.91 155.98
  L 187.89 108.52
  A 0.23 0.23 0.0 0 0 187.49 108.36
  Q 153.52 142.36 119.60 176.60"
/>
</g>
<path fill="#000000" fill-opacity="0.173" d="
  M 0.00 0.00
  L 2.00 0.00
  Q 2.50 0.49 2.55 0.85
  Q 1.67 0.54 1.12 0.76
  Q 0.63 0.95 0.63 1.48
  L 0.64 256.00
  L 0.00 256.00
  L 0.00 0.00
  Z"
/>
<path fill="#000000" fill-opacity="0.408" d="
  M 2.00 0.00
  L 256.00 0.00
  L 256.00 0.86
  L 2.55 0.85
  Q 2.50 0.49 2.00 0.00
  Z"
/>
<path fill="#000000" d="
  M 2.55 0.85
  L 256.00 0.86
  L 256.00 256.00
  L 0.64 256.00
  L 0.63 1.48
  Q 0.63 0.95 1.12 0.76
  Q 1.67 0.54 2.55 0.85
  Z
  M 142.33 64.94
  C 137.54 53.25 122.81 49.94 113.71 58.96
  Q 92.28 80.23 70.94 101.67
  A 1.45 1.42 68.2 0 0 70.51 102.70
  L 70.51 150.76
  A 0.26 0.26 0.0 0 0 70.96 150.94
  Q 103.14 118.79 135.27 86.63
  Q 141.02 80.88 142.45 77.37
  Q 144.93 71.29 142.33 64.94
  Z
  M 181.01 102.55
  A 0.33 0.33 0.0 0 0 180.77 101.99
  L 132.42 101.99
  A 0.33 0.33 0.0 0 0 132.18 102.09
  L 77.36 156.97
  A 0.33 0.33 0.0 0 0 77.60 157.53
  L 125.94 157.53
  A 0.33 0.33 0.0 0 0 126.18 157.43
  L 181.01 102.55
  Z
  M 119.60 176.60
  C 112.26 184.00 113.72 195.69 121.08 201.69
  C 130.44 209.33 139.42 205.90 147.18 198.17
  Q 166.90 178.52 186.88 158.48
  A 3.56 3.55 -22.7 0 0 187.91 155.98
  L 187.89 108.52
  A 0.23 0.23 0.0 0 0 187.49 108.36
  Q 153.52 142.36 119.60 176.60
  Z"
/>
<path fill="#ffae3f" d="
  M 142.33 64.94
  Q 144.93 71.29 142.45 77.37
  Q 141.02 80.88 135.27 86.63
  Q 103.14 118.79 70.96 150.94
  A 0.26 0.26 0.0 0 1 70.51 150.76
  L 70.51 102.70
  A 1.45 1.42 68.2 0 1 70.94 101.67
  Q 92.28 80.23 113.71 58.96
  C 122.81 49.94 137.54 53.25 142.33 64.94
  Z"
/>
<path fill="#ffae3f" d="
  M 181.01 102.55
  L 126.18 157.43
  A 0.33 0.33 0.0 0 1 125.94 157.53
  L 77.60 157.53
  A 0.33 0.33 0.0 0 1 77.36 156.97
  L 132.18 102.09
  A 0.33 0.33 0.0 0 1 132.42 101.99
  L 180.77 101.99
  A 0.33 0.33 0.0 0 1 181.01 102.55
  Z"
/>
<path fill="#ffae3f" d="
  M 121.08 201.69
  C 113.72 195.69 112.26 184.00 119.60 176.60
  Q 153.52 142.36 187.49 108.36
  A 0.23 0.23 0.0 0 1 187.89 108.52
  L 187.91 155.98
  A 3.56 3.55 -22.7 0 1 186.88 158.48
  Q 166.90 178.52 147.18 198.17
  C 139.42 205.90 130.44 209.33 121.08 201.69
  Z"
/>
</svg>
