<svg width="884" height="135" viewBox="0 0 884 135" fill="none" xmlns="http://www.w3.org/2000/svg">
    <path d="M129.13 75.94L68.5801 40.99L45.5201 54.29L32.0701 46.53C31.2701 46.07 31.2701 44.92 32.0701 44.45L66.7601 24.41C67.8901 23.76 69.2801 23.76 70.4001 24.41L129.76 58.68C139.57 52.51 139.49 38.14 129.32 32.26L80.3901 4.01998C73.0801 -0.200019 64.0801 -0.200019 56.7801 4.01998C39.1101 14.22 7.85005 32.27 7.85005 32.27C-2.50995 38.25 -2.40992 53.04 7.95008 59.01L68.54 94.12L91.6701 80.92L105.1 88.66C105.9 89.12 105.9 90.27 105.1 90.74L70.41 110.77C69.28 111.42 67.8101 111.18 66.6901 110.53L7.41004 76.31C-2.39996 82.48 -2.30995 96.73 7.86005 102.6L56.79 130.85C64.1 135.07 73.1 135.07 80.41 130.85L129.34 102.6C139.67 96.62 139.57 81.84 129.13 75.94Z" fill="#8D639E"/>
    <path d="M323.08 100.57V115.67C323.08 116.81 322.16 117.73 321.02 117.73H261.48C260.34 117.73 259.42 116.81 259.42 115.67V18.88C259.42 17.74 260.34 16.82 261.48 16.82H285.81C286.95 16.82 287.87 17.74 287.87 18.88V96.46C287.87 97.6 288.79 98.52 289.93 98.52H321.03C322.16 98.51 323.08 99.43 323.08 100.57Z" fill="#121212"/>
    <path d="M829.59 121.01C803.52 121.01 775.67 106.96 775.67 67.51C775.67 28.06 803.52 14.01 829.59 14.01C855.71 14.01 883.62 28.06 883.62 67.51C883.62 106.96 855.71 121.01 829.59 121.01ZM829.59 35.17C814.61 35.17 804.16 48.47 804.16 67.5C804.16 85.93 815.1 99.83 829.59 99.83C844.15 99.83 855.13 85.93 855.13 67.5C855.13 48.47 844.63 35.17 829.59 35.17Z" fill="#121212"/>
    <path d="M202.65 119.23C193.54 119.23 184.27 117.36 175.83 113.82C175.19 113.55 174.76 112.87 174.76 112.13V94.1C174.76 92.92 176.04 92.22 177.06 92.82C184.99 97.46 192.72 99.94 199.33 99.94C207.47 99.94 213.42 96.1 214.48 90.15C215.29 85.58 212.83 79 203.23 75.48C179.39 66.73 172.5 60.12 172.5 45.99C172.5 26.79 187.41 15.78 213.4 15.78C224.84 15.78 233.65 18.04 237.89 19.38C238.57 19.6 239 20.22 239 21V37.2C239 38.33 237.83 39.05 236.83 38.54C231.3 35.75 223.28 33.82 216.58 33.82C204.54 33.82 203.24 39.81 203.24 42.38C203.24 48.69 209.79 51.39 217.38 54.53C229.05 59.36 243.58 65.36 243.58 86.32C243.58 96.63 239.39 105.16 231.44 110.98C224.18 116.3 213.96 119.23 202.65 119.23Z" fill="#121212"/>
    <path d="M368.74 16.82H344.41C343.27 16.82 342.35 17.74 342.35 18.88V115.67C342.35 116.81 343.27 117.73 344.41 117.73H368.74C369.88 117.73 370.8 116.81 370.8 115.67V18.88C370.8 17.74 369.88 16.82 368.74 16.82Z" fill="#121212"/>
    <path d="M556.33 34.3V18.87C556.33 17.74 555.41 16.82 554.28 16.82H494.37C493.24 16.82 492.32 17.74 492.32 18.87V115.73C492.32 116.86 493.24 117.78 494.37 117.78H554.28C555.41 117.78 556.33 116.86 556.33 115.73V100.3C556.33 99.17 555.41 98.25 554.28 98.25H522.82C521.69 98.25 520.77 97.33 520.77 96.2V78.11C520.77 76.98 521.69 76.06 522.82 76.06H554.28C555.41 76.06 556.33 75.14 556.33 74.01V58.58C556.33 57.45 555.41 56.53 554.28 56.53H522.82C521.69 56.53 520.77 55.61 520.77 54.48V38.4C520.77 37.27 521.69 36.35 522.82 36.35H554.28C555.41 36.35 556.33 35.43 556.33 34.3Z" fill="#121212"/>
    <path d="M429.37 16.81H393.06C391.95 16.81 391.06 17.71 391.07 18.81L391.56 115.73C391.57 116.83 392.46 117.71 393.55 117.71H429.37C464.12 117.71 476.44 90.17 476.44 66.21C476.44 47.77 470.33 16.81 429.37 16.81ZM429.22 97.2H420.39C419.59 97.2 418.94 96.55 418.94 95.75V38.7C418.94 37.9 419.59 37.25 420.39 37.25H429.06C440.69 37.25 447.63 48.05 447.63 66.13C447.63 85.3 440.57 97.2 429.22 97.2Z" fill="#121212"/>
    <path d="M601.86 119.23C592.75 119.23 583.48 117.36 575.04 113.82C574.4 113.55 573.97 112.87 573.97 112.13V94.1C573.97 92.92 575.25 92.22 576.27 92.82C584.2 97.46 591.93 99.94 598.54 99.94C606.68 99.94 612.63 96.1 613.69 90.15C614.5 85.58 612.04 79 602.44 75.48C578.6 66.73 571.71 60.12 571.71 45.99C571.71 26.79 586.62 15.78 612.61 15.78C624.05 15.78 632.86 18.04 637.1 19.38C637.78 19.6 638.21 20.22 638.21 21V37.2C638.21 38.33 637.04 39.05 636.04 38.54C630.51 35.75 622.49 33.82 615.79 33.82C603.75 33.82 602.45 39.81 602.45 42.38C602.45 48.69 609 51.39 616.59 54.53C628.26 59.36 642.79 65.36 642.79 86.32C642.79 96.63 638.6 105.16 630.65 110.98C623.39 116.3 613.17 119.23 601.86 119.23Z" fill="#121212"/>
    <path d="M759.37 64.26H716.96C715.88 64.26 715.01 65.17 715.01 66.28V79.06C715.01 80.18 715.88 81.08 716.96 81.08H730.9H730.91C731.32 81.08 731.66 81.42 731.66 81.83C731.66 81.85 731.66 81.9 731.66 81.9C731.59 82.66 731.46 83.84 731.19 84.92C728.86 94.27 720.62 99.87 709.18 99.87C694.68 99.87 683.74 85.96 683.74 67.51C683.74 48.46 694.2 35.15 709.18 35.15C718.02 35.15 725.57 39.9 729.88 48.1C730.29 48.88 731.05 49.39 731.91 49.39H758.02C759.43 49.39 760.37 47.93 759.9 46.55C752.83 26.08 734.12 13.96 709.18 13.96C683.11 13.96 655.25 28.02 655.25 67.51C655.25 106.99 683.11 121.06 709.18 121.06C721.21 121.06 732.24 118.15 741.09 112.62C741.42 112.42 741.78 112.32 742.15 112.32C742.48 112.32 742.82 112.41 743.12 112.57C743.62 112.85 743.96 113.32 744.09 113.86V115.63C744.09 116.78 744.99 117.72 746.11 117.72H759.33C760.44 117.72 761.33 116.79 761.33 115.65L761.39 66.34C761.39 65.19 760.49 64.26 759.37 64.26Z" fill="#121212"/>
</svg>
