<?xml version="1.0" encoding="UTF-8" standalone="no"?>
<!DOCTYPE svg PUBLIC "-//W3C//DTD SVG 1.1//EN" "http://www.w3.org/Graphics/SVG/1.1/DTD/svg11.dtd">
<svg xmlns="http://www.w3.org/2000/svg" version="1.1" viewBox="0.00 0.00 48.00 48.00">
<g stroke-width="2.00" fill="none" stroke-linecap="butt">
<path stroke="#f785a4" vector-effect="non-scaling-stroke" d="
  M 19.28 32.83
  L 19.21 32.10
  Q 19.13 31.27 18.35 30.97
  Q 17.29 30.57 16.42 31.04
  Q 16.33 31.09 16.32 30.99
  L 16.17 29.46"
/>
<path stroke="#ff9ab4" vector-effect="non-scaling-stroke" d="
  M 16.17 29.46
  Q 16.54 27.96 15.95 26.31"
/>
<path stroke="#ffc594" vector-effect="non-scaling-stroke" d="
  M 15.95 26.31
  Q 16.43 23.29 16.41 22.50
  Q 16.23 11.57 15.78 0.62"
/>
<path stroke="#f771d8" vector-effect="non-scaling-stroke" d="
  M 16.17 29.46
  L 15.86 47.48"
/>
<path stroke="#ffb1c8" vector-effect="non-scaling-stroke" d="
  M 15.95 26.31
  Q 15.58 28.18 11.39 28.68"
/>
<path stroke="#ffac92" vector-effect="non-scaling-stroke" d="
  M 26.94 0.99
  Q 28.15 7.34 27.74 14.33"
/>
<path stroke="#fe92aa" vector-effect="non-scaling-stroke" d="
  M 27.74 14.33
  L 27.63 16.59
  Q 27.61 17.05 27.32 17.42
  Q 26.79 18.07 26.64 18.90
  Q 26.55 19.37 26.28 19.76
  Q 24.23 22.86 23.35 21.45"
/>
<path stroke="#ff8794" vector-effect="non-scaling-stroke" d="
  M 38.06 9.99
  C 35.13 11.43 32.47 11.44 29.79 12.19
  Q 29.45 12.28 29.41 12.62
  Q 29.37 12.93 28.98 13.04
  Q 28.78 13.10 28.51 13.01
  Q 28.31 12.94 28.22 13.14
  L 27.74 14.33"
/>
<path stroke="#9d6df0" vector-effect="non-scaling-stroke" d="
  M 32.75 47.19
  C 33.64 43.83 32.81 41.24 33.29 38.09
  A 1.35 1.35 0.0 0 0 32.03 36.53
  L 29.54 36.40"
/>
</g>
<path fill="#feae80" d="
  M 19.28 32.83
  L 19.21 32.10
  Q 19.13 31.27 18.35 30.97
  Q 17.29 30.57 16.42 31.04
  Q 16.33 31.09 16.32 30.99
  L 16.17 29.46
  Q 16.54 27.96 15.95 26.31
  Q 16.43 23.29 16.41 22.50
  Q 16.23 11.57 15.78 0.62
  Q 16.92 0.12 18.74 1.26
  Q 19.20 1.55 19.20 2.09
  L 19.28 32.83
  Z"
/>
<path fill="#ffdba7" d="
  M 15.78 0.62
  Q 16.23 11.57 16.41 22.50
  Q 16.43 23.29 15.95 26.31
  Q 15.58 28.18 11.39 28.68
  L 11.29 2.24
  Q 11.29 1.66 11.85 1.53
  L 15.78 0.62
  Z"
/>
<path fill="#feb7a7" d="
  M 26.94 0.99
  Q 28.15 7.34 27.74 14.33
  L 27.63 16.59
  Q 27.61 17.05 27.32 17.42
  Q 26.79 18.07 26.64 18.90
  Q 26.55 19.37 26.28 19.76
  Q 24.23 22.86 23.35 21.45
  L 23.40 1.39
  A 0.53 0.53 0.0 0 1 23.95 0.86
  L 26.94 0.99
  Z"
/>
<path fill="#ffa07c" d="
  M 26.94 0.99
  Q 35.17 2.16 38.06 9.99
  C 35.13 11.43 32.47 11.44 29.79 12.19
  Q 29.45 12.28 29.41 12.62
  Q 29.37 12.93 28.98 13.04
  Q 28.78 13.10 28.51 13.01
  Q 28.31 12.94 28.22 13.14
  L 27.74 14.33
  Q 28.15 7.34 26.94 0.99
  Z"
/>
<path fill="#fe6dac" d="
  M 38.06 9.99
  C 39.57 18.75 32.16 24.21 24.00 24.02
  Q 23.54 24.01 23.43 23.57
  Q 23.15 22.48 23.35 21.45
  Q 24.23 22.86 26.28 19.76
  Q 26.55 19.37 26.64 18.90
  Q 26.79 18.07 27.32 17.42
  Q 27.61 17.05 27.63 16.59
  L 27.74 14.33
  L 28.22 13.14
  Q 28.31 12.94 28.51 13.01
  Q 28.78 13.10 28.98 13.04
  Q 29.37 12.93 29.41 12.62
  Q 29.45 12.28 29.79 12.19
  C 32.47 11.44 35.13 11.43 38.06 9.99
  Z"
/>
<path fill="#ff86e8" d="
  M 15.95 26.31
  Q 16.54 27.96 16.17 29.46
  L 15.86 47.48
  L 12.06 47.12
  Q 11.52 47.06 11.52 46.52
  L 11.39 28.68
  Q 15.58 28.18 15.95 26.31
  Z"
/>
<circle fill="#ff86e8" cx="31.97" cy="30.60" r="3.50"/>
<path fill="#ef5cc7" d="
  M 16.17 29.46
  L 16.32 30.99
  Q 16.33 31.09 16.42 31.04
  Q 17.29 30.57 18.35 30.97
  Q 19.13 31.27 19.21 32.10
  L 19.28 32.83
  L 19.31 46.46
  Q 19.31 47.02 18.78 47.21
  Q 17.20 47.79 15.86 47.48
  L 16.17 29.46
  Z"
/>
<path fill="#8951e5" d="
  M 32.75 47.19
  C 33.64 43.83 32.81 41.24 33.29 38.09
  A 1.35 1.35 0.0 0 0 32.03 36.53
  L 29.54 36.40
  L 34.97 36.30
  Q 35.95 36.28 35.96 37.26
  L 35.99 46.45
  Q 35.99 46.89 35.56 47.00
  Q 34.09 47.37 32.75 47.19
  Z"
/>
<path fill="#b088fb" d="
  M 29.54 36.40
  L 32.03 36.53
  A 1.35 1.35 0.0 0 1 33.29 38.09
  C 32.81 41.24 33.64 43.83 32.75 47.19
  L 28.73 46.91
  Q 28.12 46.86 28.11 46.25
  L 28.08 37.17
  Q 28.08 36.55 28.70 36.49
  L 29.54 36.40
  Z"
/>
</svg>
