<svg id="SvgjsSvg1001" width="288" height="288" xmlns="http://www.w3.org/2000/svg" version="1.1" xmlns:xlink="http://www.w3.org/1999/xlink" xmlns:svgjs="http://svgjs.com/svgjs"><defs id="SvgjsDefs1002"></defs><g id="SvgjsG1008"><svg xmlns="http://www.w3.org/2000/svg" viewBox="0 0 400 400" width="288" height="288"><path fill="#ffffff" fill-rule="evenodd" d="M0.000 200.000 L 0.000 400.000 200.000 400.000 L 400.000 400.000 400.000 200.000 L 400.000 0.000 200.000 0.000 L 0.000 0.000 0.000 200.000 M193.800 13.988 C 210.659 14.289,212.910 14.406,215.600 15.122 C 217.250 15.562,219.860 16.039,221.400 16.182 C 226.237 16.634,228.941 17.226,230.758 18.234 C 231.725 18.770,233.947 19.565,235.695 20.000 C 237.603 20.475,239.349 21.191,240.064 21.792 C 240.718 22.343,242.233 23.078,243.431 23.426 C 244.629 23.775,246.114 24.484,246.731 25.003 C 247.348 25.523,248.789 26.303,249.933 26.738 C 251.076 27.172,252.646 28.084,253.420 28.764 C 254.194 29.444,255.081 30.000,255.390 30.000 C 255.699 30.000,256.786 30.723,257.807 31.606 C 258.827 32.489,260.156 33.467,260.761 33.780 C 261.365 34.092,262.450 34.900,263.172 35.574 C 263.894 36.248,264.689 36.800,264.939 36.800 C 265.189 36.800,266.025 37.441,266.797 38.224 C 267.568 39.008,269.370 40.812,270.800 42.235 C 273.975 45.394,275.402 47.028,276.357 48.600 C 276.757 49.260,277.464 50.137,277.927 50.548 C 278.391 50.960,279.157 52.040,279.630 52.948 C 280.103 53.857,281.081 55.255,281.803 56.055 C 282.526 56.855,283.239 58.068,283.389 58.750 C 283.539 59.433,283.835 60.098,284.047 60.229 C 284.676 60.618,286.241 63.291,286.754 64.852 C 287.016 65.650,287.584 66.624,288.017 67.016 C 288.450 67.407,289.184 69.004,289.648 70.564 C 290.112 72.124,290.852 73.908,291.293 74.529 C 292.280 75.918,293.200 78.875,293.200 80.659 C 293.200 81.391,293.808 83.478,294.551 85.295 C 298.881 95.885,299.025 121.322,294.819 132.800 C 294.134 134.670,293.296 137.409,292.957 138.887 C 292.619 140.365,291.886 142.246,291.329 143.067 C 290.772 143.888,289.970 145.642,289.547 146.966 C 289.124 148.289,288.437 149.738,288.019 150.186 C 287.602 150.634,286.873 151.990,286.400 153.200 C 285.927 154.410,285.206 155.760,284.797 156.200 C 284.388 156.640,283.676 157.882,283.215 158.961 C 282.754 160.039,281.842 161.530,281.188 162.274 C 280.535 163.019,280.000 163.905,280.000 164.245 C 280.000 164.584,279.415 165.431,278.700 166.126 C 277.985 166.821,276.950 168.045,276.400 168.845 C 273.146 173.577,265.357 181.227,262.000 182.988 C 261.010 183.507,259.976 184.303,259.702 184.757 C 259.429 185.210,258.529 185.935,257.702 186.368 C 255.757 187.386,252.000 190.895,252.000 191.693 C 252.000 193.896,252.813 194.087,261.908 194.025 C 270.721 193.965,283.804 194.804,290.400 195.851 C 292.490 196.183,295.898 196.724,297.973 197.053 C 300.300 197.422,302.370 198.013,303.373 198.595 C 304.268 199.113,306.170 199.744,307.600 199.996 C 309.030 200.248,310.575 200.528,311.034 200.618 C 311.492 200.708,312.541 201.317,313.363 201.971 C 314.275 202.696,315.574 203.267,316.689 203.434 C 317.911 203.618,318.996 204.130,319.959 204.981 C 320.752 205.680,322.248 206.568,323.284 206.953 C 324.320 207.339,325.580 208.094,326.084 208.631 C 326.588 209.169,327.977 209.899,329.170 210.253 C 330.484 210.643,331.889 211.431,332.731 212.249 C 333.497 212.992,334.302 213.600,334.522 213.600 C 335.507 213.600,353.200 230.884,353.200 231.846 C 353.200 232.155,353.575 232.721,354.034 233.104 C 354.492 233.487,355.374 234.790,355.993 236.000 C 356.612 237.210,357.672 238.894,358.349 239.742 C 359.026 240.590,359.693 241.889,359.832 242.628 C 359.970 243.367,360.348 244.191,360.671 244.459 C 361.516 245.160,362.688 247.595,363.011 249.321 C 363.165 250.136,363.790 251.495,364.402 252.340 C 365.014 253.184,365.743 254.938,366.021 256.238 C 366.300 257.537,367.118 259.680,367.838 261.000 C 368.654 262.494,369.315 264.457,369.590 266.200 C 369.833 267.740,370.430 270.350,370.916 272.000 C 371.760 274.864,371.800 275.691,371.800 290.200 L 371.800 305.400 370.500 309.913 C 369.785 312.394,369.200 314.636,369.200 314.895 C 369.200 315.153,368.591 316.722,367.847 318.382 C 367.102 320.042,366.266 322.390,365.989 323.600 C 365.712 324.810,365.075 326.293,364.573 326.895 C 364.070 327.498,363.361 329.017,362.996 330.272 C 362.632 331.526,361.835 333.284,361.227 334.176 C 360.619 335.069,359.999 336.300,359.850 336.910 C 359.702 337.521,358.980 338.691,358.247 339.510 C 357.515 340.330,356.410 341.808,355.792 342.796 C 355.174 343.784,353.834 345.674,352.813 346.996 C 351.793 348.318,350.373 350.255,349.660 351.300 C 348.946 352.345,348.107 353.200,347.795 353.200 C 347.483 353.200,347.013 353.605,346.751 354.100 C 346.172 355.191,341.289 360.000,340.760 360.000 C 340.553 360.000,340.176 360.453,339.924 361.007 C 339.672 361.561,338.640 362.549,337.633 363.203 C 336.625 363.856,334.720 365.291,333.400 366.391 C 332.080 367.491,330.158 368.839,329.129 369.387 C 328.101 369.935,326.795 370.814,326.227 371.340 C 325.660 371.866,324.147 372.590,322.866 372.949 C 321.557 373.317,320.130 374.035,319.609 374.590 C 319.099 375.133,317.724 375.856,316.553 376.196 C 315.383 376.537,313.945 377.260,313.358 377.804 C 312.243 378.837,310.133 379.594,308.356 379.598 C 307.781 379.599,305.441 380.217,303.156 380.970 C 300.870 381.724,297.650 382.536,296.000 382.776 C 294.350 383.016,290.660 383.588,287.800 384.048 C 281.436 385.070,131.414 386.171,124.200 385.249 C 122.220 384.995,119.070 384.602,117.200 384.376 C 113.993 383.986,104.789 381.789,102.189 380.792 C 101.535 380.541,99.408 380.077,97.463 379.760 C 94.936 379.349,93.555 378.902,92.625 378.192 C 91.909 377.646,90.278 376.840,89.000 376.400 C 87.722 375.960,86.107 375.166,85.411 374.635 C 84.714 374.104,83.350 373.456,82.379 373.194 C 81.408 372.933,80.032 372.209,79.322 371.585 C 78.611 370.961,77.225 370.095,76.242 369.660 C 75.259 369.225,74.050 368.404,73.555 367.835 C 73.061 367.266,72.404 366.800,72.096 366.800 C 71.789 366.800,70.838 366.125,69.984 365.300 C 69.130 364.475,67.220 362.900,65.739 361.800 C 63.438 360.091,61.086 358.041,58.087 355.134 C 57.709 354.767,56.410 353.167,55.200 351.577 C 53.990 349.987,52.325 347.927,51.500 346.999 C 50.675 346.070,50.000 345.147,50.000 344.948 C 50.000 344.749,49.280 343.714,48.400 342.649 C 47.520 341.584,46.800 340.482,46.800 340.200 C 46.800 339.918,46.096 338.835,45.235 337.793 C 44.374 336.751,43.479 335.142,43.246 334.218 C 43.013 333.294,42.483 332.101,42.068 331.569 C 40.902 330.073,40.000 328.135,39.998 327.120 C 39.996 326.260,39.603 325.509,37.923 323.150 C 37.551 322.628,36.980 320.915,36.654 319.344 C 36.328 317.774,35.709 315.794,35.277 314.944 C 32.629 309.731,31.649 287.905,32.084 243.800 C 32.240 227.960,32.354 191.420,32.337 162.600 C 32.301 98.789,32.611 90.772,35.400 83.600 C 36.127 81.730,36.936 79.390,37.197 78.400 C 37.459 77.410,38.003 76.060,38.406 75.400 C 38.810 74.740,39.360 73.300,39.628 72.200 C 40.184 69.926,40.980 68.165,41.980 67.000 C 42.358 66.560,42.988 65.300,43.381 64.200 C 43.774 63.100,44.614 61.536,45.248 60.723 C 45.881 59.911,46.400 59.062,46.400 58.837 C 46.400 58.611,47.210 57.515,48.200 56.400 C 49.190 55.285,50.000 54.234,50.000 54.063 C 50.000 52.782,63.910 37.967,66.217 36.791 C 67.543 36.115,69.998 34.178,72.923 31.500 C 73.824 30.675,74.778 30.000,75.043 30.000 C 75.308 30.000,76.262 29.384,77.163 28.631 C 78.065 27.877,79.477 27.046,80.301 26.783 C 81.126 26.520,82.345 25.790,83.011 25.160 C 83.677 24.530,85.090 23.754,86.150 23.435 C 87.210 23.116,88.779 22.369,89.637 21.774 C 90.495 21.180,92.322 20.434,93.698 20.117 C 95.074 19.799,97.370 19.030,98.800 18.407 C 100.308 17.750,103.164 16.997,105.600 16.614 C 107.910 16.251,111.420 15.575,113.400 15.110 C 119.514 13.677,151.421 13.231,193.800 13.988 " class="color040405 svgShape"></path><path fill="#97c6fa" fill-rule="evenodd" d="M125.600 15.191 C 123.028 15.316,119.413 15.798,117.400 16.284 C 115.420 16.763,111.525 17.307,108.746 17.493 C 104.174 17.798,103.456 17.953,101.234 19.118 C 99.710 19.917,97.739 20.553,96.046 20.793 C 92.651 21.275,92.051 21.486,90.797 22.641 C 90.238 23.155,88.690 23.821,87.302 24.145 C 85.424 24.583,84.556 25.028,83.781 25.950 C 83.170 26.676,82.204 27.276,81.402 27.426 C 80.660 27.565,79.726 28.041,79.326 28.482 C 78.485 29.412,75.911 30.800,75.026 30.800 C 74.693 30.800,74.143 31.337,73.804 31.993 C 73.464 32.650,72.653 33.462,72.000 33.800 C 71.348 34.137,70.423 34.942,69.946 35.588 C 69.468 36.234,68.363 37.048,67.490 37.397 C 66.552 37.773,64.522 39.416,62.527 41.416 C 60.670 43.277,58.986 44.800,58.786 44.800 C 58.585 44.800,58.127 45.367,57.768 46.061 C 57.410 46.755,56.600 47.757,55.969 48.288 C 55.338 48.819,54.422 49.963,53.935 50.830 C 53.448 51.698,52.636 52.677,52.133 53.007 C 51.629 53.337,50.922 54.178,50.561 54.875 C 50.201 55.572,49.297 56.717,48.553 57.419 C 47.809 58.120,47.200 59.061,47.200 59.509 C 47.200 59.958,46.562 61.088,45.783 62.021 C 45.003 62.953,44.157 64.497,43.902 65.451 C 43.647 66.405,43.006 67.684,42.477 68.293 C 41.269 69.685,40.912 70.610,40.431 73.602 C 40.190 75.097,39.660 76.499,39.017 77.342 C 38.374 78.185,37.710 79.944,37.242 82.045 C 36.566 85.079,36.160 86.378,34.694 90.200 C 34.058 91.859,33.769 163.340,34.392 164.980 L 34.823 166.113 38.712 165.853 C 44.857 165.442,49.834 164.629,59.600 162.442 C 65.641 161.089,70.584 160.108,85.000 157.398 C 106.561 153.346,119.767 150.648,128.936 148.424 C 139.803 145.787,152.781 142.827,159.800 141.382 C 161.560 141.020,165.520 140.125,168.600 139.393 C 171.680 138.661,175.346 137.856,176.747 137.605 C 178.148 137.353,179.588 136.982,179.947 136.779 C 180.306 136.576,181.950 136.145,183.600 135.823 C 185.250 135.500,189.480 134.564,193.000 133.742 C 200.993 131.876,206.667 131.688,212.800 133.086 C 222.588 135.318,225.747 136.100,231.000 137.596 C 235.878 138.984,237.330 139.337,246.600 141.390 C 252.134 142.615,256.483 143.682,268.200 146.691 C 269.931 147.136,272.829 147.321,278.600 147.354 C 287.615 147.406,287.780 147.353,288.830 144.061 C 289.086 143.258,289.910 141.798,290.661 140.818 C 292.124 138.908,292.227 138.605,292.603 135.141 C 292.768 133.611,293.245 132.256,294.079 130.941 C 296.984 126.363,297.140 93.057,294.278 88.523 C 293.036 86.556,292.550 84.731,292.204 80.738 C 291.977 78.111,291.771 77.487,290.755 76.349 C 289.578 75.031,289.459 74.729,289.014 71.947 C 288.886 71.148,288.232 69.736,287.560 68.808 C 286.888 67.880,286.099 66.327,285.807 65.357 C 285.515 64.386,284.728 62.968,284.058 62.205 C 283.388 61.441,282.723 60.196,282.581 59.437 C 282.423 58.598,281.787 57.571,280.956 56.815 C 280.206 56.132,279.219 54.780,278.763 53.811 C 278.308 52.842,277.516 51.775,277.003 51.439 C 276.491 51.103,275.866 50.207,275.615 49.447 C 275.365 48.687,274.704 47.767,274.146 47.402 C 273.589 47.037,272.885 46.143,272.581 45.416 C 272.242 44.605,271.656 44.000,271.065 43.852 C 270.494 43.709,269.895 43.111,269.595 42.387 C 269.280 41.628,268.577 40.951,267.741 40.601 C 266.971 40.279,266.227 39.598,266.003 39.007 C 265.750 38.343,264.979 37.705,263.834 37.214 C 262.856 36.795,261.867 36.100,261.637 35.668 C 261.406 35.237,260.629 34.679,259.910 34.428 C 259.191 34.178,257.882 33.281,257.001 32.436 C 256.121 31.591,254.888 30.779,254.262 30.632 C 253.636 30.486,252.646 29.854,252.062 29.228 C 251.395 28.513,250.112 27.837,248.612 27.408 C 247.298 27.033,245.831 26.303,245.352 25.786 C 244.873 25.269,243.427 24.546,242.140 24.179 C 240.853 23.812,239.336 23.078,238.770 22.548 C 237.568 21.424,235.658 20.801,233.403 20.798 C 231.894 20.796,231.273 20.515,228.618 18.633 C 227.725 18.000,226.476 17.811,221.476 17.555 C 218.143 17.385,213.793 17.046,211.808 16.803 C 209.824 16.560,206.850 16.194,205.200 15.991 C 200.690 15.435,134.317 14.768,125.600 15.191 " class="color97c6fa svgShape"></path><path fill="#116ae5" fill-rule="evenodd" d="M122.800 14.004 C 119.179 14.168,115.648 14.583,113.400 15.110 C 111.420 15.575,107.910 16.251,105.600 16.614 C 103.096 17.008,100.312 17.749,98.704 18.450 C 97.222 19.096,95.017 19.824,93.806 20.067 C 92.594 20.311,90.663 21.115,89.515 21.855 C 88.366 22.595,87.166 23.200,86.847 23.200 C 86.528 23.200,86.377 23.311,86.513 23.446 C 86.900 23.833,89.145 22.918,90.400 21.861 C 91.127 21.250,92.530 20.719,94.270 20.397 C 95.772 20.120,98.166 19.370,99.590 18.731 C 101.448 17.897,103.748 17.342,107.729 16.768 C 110.780 16.327,114.835 15.574,116.739 15.095 C 123.249 13.454,208.933 14.068,215.200 15.800 C 216.410 16.134,219.560 16.585,222.200 16.801 C 227.812 17.260,228.523 17.422,230.430 18.675 C 231.217 19.191,233.179 19.889,234.790 20.225 C 237.968 20.887,238.789 21.223,239.586 22.183 C 239.872 22.527,241.325 23.179,242.816 23.632 C 244.307 24.085,245.834 24.795,246.210 25.211 C 246.585 25.626,248.116 26.433,249.612 27.005 C 251.108 27.576,252.435 28.313,252.561 28.642 C 252.687 28.971,253.620 29.608,254.634 30.056 C 255.647 30.504,257.134 31.461,257.938 32.181 C 258.742 32.902,259.940 33.768,260.600 34.107 C 261.260 34.447,262.236 35.191,262.770 35.762 C 263.303 36.333,263.907 36.800,264.112 36.800 C 264.659 36.800,262.043 34.443,260.761 33.780 C 260.156 33.467,258.827 32.489,257.807 31.606 C 256.786 30.723,255.699 30.000,255.390 30.000 C 255.081 30.000,254.194 29.444,253.420 28.764 C 252.646 28.084,251.076 27.172,249.933 26.738 C 248.789 26.303,247.348 25.523,246.731 25.003 C 246.114 24.484,244.629 23.775,243.431 23.426 C 242.233 23.078,240.718 22.343,240.064 21.792 C 239.349 21.191,237.603 20.475,235.695 20.000 C 233.947 19.565,231.725 18.770,230.758 18.234 C 228.941 17.226,226.237 16.634,221.400 16.182 C 219.860 16.039,217.250 15.562,215.600 15.122 C 210.971 13.890,143.344 13.075,122.800 14.004 M83.301 24.944 C 82.476 25.683,81.126 26.506,80.301 26.774 C 78.908 27.227,75.099 30.000,75.871 30.000 C 76.062 30.000,76.884 29.451,77.699 28.779 C 78.513 28.108,80.006 27.277,81.016 26.933 C 82.025 26.589,83.065 25.947,83.326 25.506 C 83.586 25.065,84.340 24.463,85.000 24.168 C 85.744 23.835,85.934 23.625,85.501 23.616 C 85.117 23.607,84.127 24.205,83.301 24.944 M73.542 31.011 C 73.024 31.567,71.790 32.646,70.800 33.409 C 69.810 34.172,68.298 35.337,67.441 35.998 C 65.443 37.538,66.168 37.579,68.240 36.044 C 70.552 34.331,75.296 30.000,74.861 30.000 C 74.654 30.000,74.060 30.455,73.542 31.011 M270.040 42.041 C 272.892 44.923,275.560 47.938,275.970 48.741 C 276.380 49.543,277.113 50.560,277.600 51.000 C 278.087 51.440,278.818 52.452,279.225 53.249 C 279.632 54.047,280.513 55.217,281.184 55.849 C 281.855 56.482,282.605 57.630,282.851 58.400 C 283.098 59.170,283.738 60.387,284.274 61.105 C 284.810 61.823,285.690 63.409,286.230 64.628 C 286.769 65.848,287.568 67.331,288.004 67.923 C 288.441 68.515,289.127 70.170,289.529 71.600 C 289.930 73.030,290.729 74.882,291.303 75.716 C 291.979 76.698,292.439 78.038,292.609 79.516 C 292.968 82.638,293.516 84.658,294.586 86.793 C 297.143 91.899,298.117 108.433,296.644 121.738 C 295.755 129.777,296.027 130.308,297.036 122.503 C 298.818 108.726,297.781 93.194,294.551 85.295 C 293.808 83.478,293.200 81.391,293.200 80.659 C 293.200 78.875,292.280 75.918,291.293 74.529 C 290.852 73.908,290.112 72.124,289.648 70.564 C 289.184 69.004,288.450 67.407,288.017 67.016 C 287.584 66.624,287.016 65.650,286.754 64.852 C 286.241 63.291,284.676 60.618,284.047 60.229 C 283.835 60.098,283.539 59.433,283.389 58.750 C 283.239 58.068,282.526 56.855,281.803 56.055 C 281.081 55.255,280.103 53.857,279.630 52.948 C 279.157 52.040,278.391 50.960,277.927 50.548 C 277.464 50.137,276.757 49.260,276.357 48.600 C 275.402 47.028,273.975 45.394,270.800 42.235 C 269.370 40.812,267.568 39.008,266.797 38.224 C 266.025 37.441,265.272 36.800,265.124 36.800 C 264.976 36.800,267.188 39.158,270.040 42.041 M61.000 41.415 C 54.310 48.388,51.693 51.385,50.187 53.800 C 49.775 54.460,48.755 55.761,47.919 56.691 C 47.084 57.621,46.405 58.611,46.412 58.891 C 46.419 59.171,46.627 59.040,46.874 58.600 C 47.121 58.160,47.970 57.049,48.761 56.130 C 49.553 55.212,51.010 53.428,52.000 52.165 C 55.611 47.559,60.058 42.629,62.658 40.350 C 63.960 39.209,65.680 37.199,65.334 37.223 C 65.150 37.235,63.200 39.122,61.000 41.415 M45.020 60.938 C 43.584 62.821,43.743 63.233,45.200 61.400 C 45.860 60.569,46.400 59.825,46.400 59.745 C 46.400 59.335,45.939 59.734,45.020 60.938 M43.191 64.673 C 42.922 65.513,42.385 66.560,41.998 67.000 C 40.965 68.174,39.922 70.383,40.144 70.927 C 40.253 71.195,40.351 71.115,40.368 70.745 C 40.386 70.385,40.999 69.215,41.731 68.145 C 43.026 66.253,44.168 63.635,43.842 63.308 C 43.753 63.219,43.460 63.833,43.191 64.673 M39.630 72.200 C 39.612 72.640,39.058 74.080,38.400 75.400 C 36.994 78.220,36.767 79.734,38.137 77.158 C 39.344 74.887,40.119 72.527,39.864 71.897 C 39.753 71.623,39.648 71.760,39.630 72.200 M36.800 79.609 C 36.800 79.833,36.177 81.611,35.416 83.558 C 34.509 85.880,33.964 88.046,33.833 89.850 L 33.634 92.600 34.023 90.115 C 34.237 88.748,34.931 86.318,35.565 84.715 C 36.771 81.667,37.427 79.200,37.032 79.200 C 36.904 79.200,36.800 79.384,36.800 79.609 M33.192 94.033 C 33.188 94.785,32.992 98.550,32.757 102.400 C 32.489 106.787,32.336 129.108,32.348 162.200 C 32.358 191.240,32.239 227.960,32.083 243.800 C 31.650 287.909,32.629 309.732,35.277 314.944 C 35.709 315.794,36.328 317.774,36.654 319.344 C 36.980 320.915,37.551 322.628,37.923 323.150 C 39.603 325.509,39.996 326.260,39.998 327.120 C 40.000 328.135,40.902 330.073,42.068 331.569 C 42.483 332.101,43.013 333.294,43.246 334.218 C 43.479 335.142,44.374 336.751,45.235 337.793 C 46.096 338.835,46.800 339.918,46.800 340.200 C 46.800 340.482,47.520 341.584,48.400 342.649 C 49.280 343.714,50.000 344.749,50.000 344.948 C 50.000 345.147,50.675 346.070,51.500 346.999 C 52.325 347.927,53.990 349.987,55.200 351.577 C 56.410 353.167,57.709 354.767,58.087 355.134 C 61.086 358.041,63.438 360.091,65.739 361.800 C 67.220 362.900,69.130 364.475,69.984 365.300 C 70.838 366.125,71.789 366.800,72.096 366.800 C 72.404 366.800,73.061 367.266,73.555 367.835 C 74.050 368.404,75.259 369.225,76.242 369.660 C 77.225 370.095,78.611 370.961,79.322 371.585 C 80.032 372.209,81.408 372.933,82.379 373.194 C 83.350 373.456,84.714 374.104,85.411 374.635 C 86.107 375.166,87.722 375.960,89.000 376.400 C 90.278 376.840,91.909 377.646,92.625 378.192 C 93.555 378.902,94.936 379.349,97.463 379.760 C 99.408 380.077,101.535 380.541,102.189 380.792 C 104.789 381.789,113.993 383.986,117.200 384.376 C 119.070 384.602,122.220 384.995,124.200 385.249 C 131.414 386.171,281.436 385.070,287.800 384.048 C 290.660 383.588,294.350 383.016,296.000 382.776 C 297.650 382.536,300.870 381.724,303.156 380.970 C 305.441 380.217,307.781 379.599,308.356 379.598 C 310.133 379.594,312.243 378.837,313.358 377.804 C 313.945 377.260,315.383 376.537,316.553 376.196 C 317.724 375.856,319.099 375.133,319.609 374.590 C 320.130 374.035,321.557 373.317,322.866 372.949 C 324.147 372.590,325.660 371.866,326.227 371.340 C 326.795 370.814,328.101 369.935,329.129 369.387 C 330.158 368.839,332.080 367.491,333.400 366.391 C 334.720 365.291,336.625 363.856,337.633 363.203 C 338.640 362.549,339.672 361.561,339.924 361.007 C 340.176 360.453,340.553 360.000,340.760 360.000 C 341.289 360.000,346.172 355.191,346.751 354.100 C 347.013 353.605,347.483 353.200,347.795 353.200 C 348.107 353.200,348.946 352.345,349.660 351.300 C 350.373 350.255,351.793 348.318,352.813 346.996 C 353.834 345.674,355.174 343.784,355.792 342.796 C 356.410 341.808,357.515 340.330,358.247 339.510 C 358.980 338.691,359.702 337.521,359.850 336.910 C 359.999 336.300,360.619 335.069,361.227 334.176 C 361.835 333.284,362.632 331.526,362.996 330.272 C 363.361 329.017,364.070 327.498,364.573 326.895 C 365.075 326.293,365.712 324.810,365.989 323.600 C 366.266 322.390,367.102 320.042,367.847 318.382 C 368.591 316.722,369.200 315.153,369.200 314.895 C 369.200 314.636,369.785 312.394,370.500 309.913 L 371.800 305.400 371.800 290.200 C 371.800 275.691,371.760 274.864,370.916 272.000 C 370.430 270.350,369.833 267.740,369.590 266.200 C 369.315 264.457,368.654 262.494,367.838 261.000 C 367.118 259.680,366.300 257.537,366.021 256.238 C 365.743 254.938,365.014 253.184,364.402 252.340 C 363.790 251.495,363.165 250.136,363.011 249.321 C 362.688 247.595,361.516 245.160,360.671 244.459 C 360.348 244.191,359.970 243.367,359.832 242.628 C 359.693 241.889,359.026 240.590,358.349 239.742 C 357.672 238.894,356.612 237.210,355.993 236.000 C 355.374 234.790,354.492 233.487,354.034 233.104 C 353.575 232.721,353.200 232.155,353.200 231.846 C 353.200 230.884,335.507 213.600,334.522 213.600 C 334.302 213.600,333.497 212.992,332.731 212.249 C 331.889 211.431,330.484 210.643,329.170 210.253 C 327.977 209.899,326.588 209.169,326.084 208.631 C 325.580 208.094,324.320 207.339,323.284 206.953 C 322.248 206.568,320.752 205.680,319.959 204.981 C 318.996 204.130,317.911 203.618,316.689 203.434 C 315.574 203.267,314.275 202.696,313.363 201.971 C 312.541 201.317,311.492 200.708,311.034 200.618 C 310.575 200.528,309.030 200.248,307.600 199.996 C 306.170 199.744,304.268 199.113,303.373 198.595 C 302.370 198.013,300.300 197.422,297.973 197.053 C 295.898 196.724,292.490 196.183,290.400 195.851 C 283.804 194.804,270.721 193.965,261.908 194.025 C 252.813 194.087,252.000 193.896,252.000 191.693 C 252.000 190.895,255.757 187.386,257.702 186.368 C 258.529 185.935,259.429 185.210,259.702 184.757 C 259.976 184.303,261.010 183.507,262.000 182.988 C 265.357 181.227,273.146 173.577,276.400 168.845 C 276.950 168.045,277.985 166.821,278.700 166.126 C 279.415 165.431,280.000 164.584,280.000 164.245 C 280.000 163.905,280.535 163.019,281.188 162.274 C 281.842 161.530,282.754 160.039,283.215 158.961 C 283.676 157.882,284.388 156.640,284.797 156.200 C 285.206 155.760,285.927 154.410,286.400 153.200 C 286.873 151.990,287.602 150.634,288.019 150.186 C 288.437 149.738,289.124 148.289,289.547 146.966 C 289.970 145.642,290.772 143.888,291.329 143.067 C 291.886 142.246,292.619 140.365,292.957 138.887 C 293.296 137.409,294.119 134.710,294.787 132.888 C 295.454 131.067,295.996 129.357,295.991 129.088 C 295.970 128.036,293.901 133.600,293.009 137.108 C 292.456 139.280,291.570 141.563,290.869 142.621 C 290.212 143.614,289.464 145.302,289.207 146.371 C 288.950 147.441,288.305 148.725,287.774 149.224 C 287.243 149.723,286.434 151.137,285.976 152.366 C 285.519 153.595,284.721 155.050,284.204 155.600 C 283.687 156.150,282.826 157.590,282.290 158.800 C 281.754 160.010,280.929 161.344,280.456 161.764 C 279.983 162.183,279.418 163.189,279.200 163.998 C 278.947 164.940,278.451 165.631,277.821 165.917 C 277.281 166.164,276.550 166.923,276.198 167.604 C 274.649 170.599,263.649 181.468,261.079 182.541 C 260.331 182.854,259.330 183.656,258.854 184.324 C 258.378 184.992,257.479 185.651,256.855 185.788 C 256.231 185.925,255.109 186.671,254.361 187.445 C 253.612 188.219,252.405 189.222,251.678 189.672 C 250.901 190.154,250.100 191.133,249.735 192.047 C 249.139 193.536,248.967 193.645,245.656 194.633 C 243.755 195.200,241.480 195.907,240.600 196.203 C 239.720 196.500,237.110 197.315,234.800 198.014 C 229.750 199.543,221.312 202.323,220.200 202.823 C 219.760 203.022,218.050 203.658,216.400 204.237 C 214.750 204.817,212.645 205.630,211.722 206.045 C 210.799 206.460,209.836 206.800,209.582 206.800 C 209.329 206.800,208.554 207.053,207.860 207.362 C 206.689 207.885,205.076 208.446,201.599 209.540 C 196.473 211.152,189.564 211.467,185.665 210.267 C 184.639 209.951,182.270 209.468,180.400 209.194 C 178.530 208.919,176.820 208.561,176.600 208.397 C 176.380 208.233,175.182 207.976,173.937 207.825 C 172.693 207.675,170.990 207.203,170.153 206.776 C 169.316 206.349,167.904 205.999,167.015 205.998 C 166.127 205.996,164.928 205.749,164.350 205.447 C 163.773 205.146,162.333 204.664,161.150 204.376 C 159.968 204.087,158.716 203.615,158.369 203.326 C 158.021 203.037,157.374 202.800,156.931 202.800 C 156.488 202.800,155.069 202.436,153.777 201.992 C 152.486 201.548,150.523 201.027,149.415 200.835 C 148.307 200.642,146.050 200.081,144.400 199.588 C 142.750 199.094,140.824 198.683,140.120 198.674 C 139.416 198.666,138.923 198.525,139.023 198.363 C 139.210 198.060,135.778 197.200,134.380 197.200 C 133.951 197.200,133.600 197.020,133.600 196.800 C 133.600 196.580,133.284 196.400,132.898 196.400 C 132.512 196.400,131.015 195.971,129.571 195.448 C 128.127 194.924,125.833 194.366,124.473 194.208 C 123.113 194.051,122.000 193.773,122.000 193.592 C 122.000 193.172,120.018 192.532,117.200 192.041 C 113.939 191.473,111.956 190.916,111.471 190.431 C 111.234 190.194,110.401 189.997,109.620 189.994 C 108.839 189.991,107.935 189.820,107.611 189.615 C 107.222 189.369,106.921 189.405,106.726 189.719 C 106.511 190.067,106.292 190.015,105.916 189.525 C 105.632 189.157,104.860 188.766,104.200 188.657 C 102.740 188.417,97.630 187.203,96.800 186.899 C 95.579 186.452,94.934 186.325,92.025 185.961 C 90.389 185.756,88.755 185.321,88.394 184.994 C 88.033 184.667,87.385 184.400,86.955 184.400 C 86.524 184.400,85.179 184.051,83.965 183.624 C 82.751 183.198,80.777 182.734,79.579 182.594 C 78.381 182.454,77.040 182.190,76.600 182.006 C 75.428 181.516,70.431 180.813,69.812 181.051 C 69.520 181.163,69.162 181.062,69.017 180.827 C 68.872 180.592,68.303 180.400,67.753 180.400 C 67.066 180.400,66.843 180.243,67.041 179.900 C 67.199 179.625,67.196 179.518,67.034 179.663 C 66.873 179.808,65.121 179.493,63.141 178.963 C 61.162 178.433,59.240 177.999,58.871 177.998 C 58.502 177.996,57.695 177.732,57.079 177.410 C 56.462 177.088,54.752 176.716,53.279 176.582 C 51.624 176.432,50.423 176.111,50.136 175.743 C 49.881 175.415,49.565 175.167,49.433 175.193 C 48.565 175.359,44.255 174.168,43.569 173.573 C 42.691 172.811,40.503 172.164,40.115 172.551 C 39.990 172.677,39.328 172.488,38.644 172.132 C 36.357 170.944,36.014 170.800,35.461 170.800 C 35.158 170.800,34.481 169.765,33.956 168.500 L 33.000 166.200 32.977 143.800 C 32.964 131.480,33.090 115.017,33.258 107.215 C 33.426 99.413,33.481 92.948,33.381 92.848 C 33.282 92.748,33.197 93.282,33.192 94.033 " class="color116ae5 svgShape"></path><path fill="#579afa" fill-rule="evenodd" d="M124.200 14.398 C 120.679 14.546,117.208 14.920,115.800 15.305 C 114.480 15.665,110.876 16.321,107.790 16.764 C 103.739 17.345,101.461 17.891,99.590 18.731 C 98.166 19.370,95.772 20.120,94.270 20.397 C 92.495 20.725,91.129 21.248,90.364 21.892 C 89.717 22.436,88.039 23.226,86.636 23.647 C 84.942 24.155,83.874 24.732,83.462 25.362 C 83.120 25.884,82.016 26.592,81.010 26.935 C 80.003 27.278,78.513 28.108,77.699 28.779 C 76.884 29.451,76.001 30.000,75.736 30.000 C 75.471 30.000,73.622 31.439,71.626 33.198 C 69.631 34.958,67.188 36.777,66.199 37.242 C 65.210 37.708,64.400 38.218,64.400 38.377 C 64.400 38.536,63.905 39.140,63.300 39.718 C 58.865 43.955,55.720 47.420,52.000 52.165 C 51.010 53.428,49.548 55.212,48.752 56.130 C 47.955 57.049,46.934 58.532,46.481 59.427 C 46.029 60.321,45.385 61.280,45.051 61.558 C 44.717 61.835,44.135 62.993,43.758 64.131 C 43.381 65.269,42.483 67.057,41.763 68.105 C 41.042 69.155,40.251 70.991,40.001 72.195 C 39.752 73.396,39.114 75.195,38.584 76.191 C 38.055 77.187,37.330 79.126,36.974 80.500 C 36.618 81.874,35.896 84.021,35.370 85.271 C 34.844 86.521,34.325 88.591,34.217 89.872 C 34.025 92.156,34.028 92.166,34.406 90.402 C 34.618 89.412,35.058 87.938,35.383 87.126 C 35.708 86.313,36.442 83.983,37.014 81.949 C 37.586 79.914,38.478 77.518,38.996 76.625 C 39.514 75.731,40.134 73.920,40.374 72.600 C 40.644 71.111,41.257 69.576,41.989 68.556 C 42.638 67.652,43.540 65.921,43.993 64.710 C 44.446 63.500,45.167 62.192,45.594 61.805 C 46.021 61.419,46.670 60.320,47.035 59.365 C 47.400 58.409,48.124 57.349,48.644 57.008 C 49.164 56.667,49.960 55.662,50.413 54.775 C 50.866 53.887,51.486 53.065,51.792 52.948 C 52.098 52.830,53.019 51.759,53.840 50.567 C 54.661 49.375,55.481 48.400,55.661 48.400 C 55.841 48.400,56.484 47.635,57.090 46.700 C 57.696 45.765,58.446 44.841,58.756 44.647 C 59.066 44.452,60.697 42.899,62.381 41.195 C 64.064 39.491,66.233 37.693,67.200 37.200 C 68.868 36.349,69.514 35.817,73.103 32.334 C 73.935 31.527,75.376 30.563,76.307 30.190 C 77.238 29.818,78.000 29.366,78.000 29.186 C 78.000 29.006,79.035 28.366,80.300 27.764 C 81.565 27.161,83.140 26.172,83.800 25.566 C 84.497 24.926,85.985 24.209,87.347 23.857 C 88.638 23.524,90.078 22.907,90.547 22.485 C 91.833 21.330,92.134 21.212,95.408 20.586 C 97.074 20.267,99.554 19.478,100.919 18.833 C 102.981 17.858,104.414 17.552,109.400 17.024 C 112.700 16.674,116.570 16.014,118.000 15.556 C 123.439 13.816,204.838 14.519,214.314 16.388 C 216.577 16.835,219.547 17.204,220.914 17.208 C 225.197 17.222,228.325 17.848,229.825 18.992 C 230.773 19.715,232.176 20.209,234.384 20.597 C 237.847 21.206,238.983 21.658,239.331 22.563 C 239.454 22.885,240.733 23.502,242.171 23.934 C 243.610 24.365,245.328 25.174,245.989 25.730 C 246.650 26.286,248.138 27.018,249.295 27.358 C 250.544 27.724,251.849 28.456,252.505 29.157 C 253.113 29.807,254.122 30.451,254.749 30.589 C 255.375 30.726,256.408 31.387,257.044 32.057 C 257.680 32.727,259.033 33.699,260.050 34.219 C 261.068 34.738,262.009 35.446,262.142 35.792 C 262.274 36.138,263.180 36.763,264.155 37.181 C 265.135 37.601,266.041 38.298,266.181 38.741 C 266.321 39.182,267.059 39.910,267.821 40.359 C 268.583 40.809,269.405 41.612,269.647 42.144 C 269.890 42.676,270.512 43.305,271.029 43.541 C 271.547 43.777,272.422 44.684,272.974 45.558 C 273.525 46.432,274.228 47.294,274.534 47.474 C 274.841 47.653,275.413 48.430,275.805 49.200 C 276.198 49.970,276.855 50.837,277.265 51.126 C 277.675 51.416,278.387 52.406,278.848 53.326 C 279.308 54.247,280.275 55.630,280.996 56.400 C 281.717 57.170,282.507 58.430,282.752 59.200 C 282.997 59.970,283.828 61.487,284.598 62.570 C 285.369 63.654,286.000 64.849,286.000 65.226 C 286.000 65.602,286.601 66.785,287.335 67.855 C 288.070 68.925,288.775 70.070,288.904 70.400 C 289.101 70.908,289.142 70.901,289.168 70.356 C 289.186 70.002,288.733 69.024,288.163 68.183 C 287.593 67.343,286.704 65.700,286.187 64.533 C 285.671 63.365,284.810 61.823,284.274 61.105 C 283.738 60.387,283.098 59.170,282.851 58.400 C 282.605 57.630,281.855 56.482,281.184 55.849 C 280.513 55.217,279.632 54.047,279.225 53.249 C 278.818 52.452,278.087 51.440,277.600 51.000 C 277.113 50.560,276.380 49.543,275.970 48.741 C 275.088 47.012,265.105 36.800,264.297 36.800 C 263.990 36.800,263.303 36.333,262.770 35.762 C 262.236 35.191,261.260 34.447,260.600 34.107 C 259.940 33.768,258.742 32.902,257.938 32.181 C 257.134 31.461,255.647 30.504,254.634 30.056 C 253.620 29.608,252.687 28.971,252.561 28.642 C 252.435 28.313,251.108 27.576,249.612 27.005 C 248.116 26.433,246.585 25.626,246.210 25.211 C 245.834 24.795,244.307 24.085,242.816 23.632 C 241.325 23.179,239.872 22.527,239.586 22.183 C 238.789 21.223,237.968 20.887,234.790 20.225 C 233.179 19.889,231.217 19.191,230.430 18.675 C 228.523 17.422,227.812 17.260,222.200 16.801 C 219.560 16.585,216.410 16.134,215.200 15.798 C 210.729 14.559,144.620 13.543,124.200 14.398 M289.424 72.600 C 289.554 73.480,289.961 74.622,290.330 75.137 C 290.698 75.652,291.315 76.642,291.699 77.337 C 292.087 78.037,292.399 78.313,292.399 77.956 C 292.400 77.602,291.921 76.612,291.335 75.756 C 290.749 74.900,290.027 73.480,289.730 72.600 L 289.190 71.000 289.424 72.600 M292.454 80.600 C 292.399 82.572,293.224 85.735,294.278 87.600 C 294.714 88.370,295.277 89.540,295.530 90.200 L 295.991 91.400 295.754 90.057 C 295.624 89.318,294.993 87.593,294.353 86.225 C 293.712 84.856,293.033 82.670,292.843 81.368 C 292.545 79.323,292.492 79.219,292.454 80.600 M296.220 95.200 C 296.317 97.290,296.515 101.548,296.659 104.662 C 296.815 108.040,296.716 113.330,296.412 117.780 C 295.820 126.454,296.050 128.027,296.782 120.306 C 297.669 110.940,297.565 103.376,296.424 94.400 L 296.043 91.400 296.220 95.200 M33.407 98.900 C 33.254 102.475,33.100 118.990,33.064 135.600 L 33.000 165.800 33.949 168.300 C 34.486 169.715,35.139 170.800,35.454 170.800 C 36.014 170.800,36.355 170.942,38.644 172.132 C 39.328 172.488,39.990 172.677,40.115 172.551 C 40.503 172.164,42.691 172.811,43.569 173.573 C 44.255 174.168,48.565 175.359,49.433 175.193 C 49.565 175.167,49.881 175.415,50.136 175.743 C 50.423 176.111,51.624 176.432,53.279 176.582 C 54.752 176.716,56.462 177.088,57.079 177.410 C 57.695 177.732,58.513 177.996,58.896 177.998 C 59.846 178.001,65.636 179.538,66.495 180.014 C 66.877 180.226,67.541 180.400,67.971 180.400 C 68.401 180.400,68.872 180.592,69.017 180.827 C 69.162 181.062,69.520 181.163,69.812 181.051 C 70.431 180.813,75.428 181.516,76.600 182.006 C 77.040 182.190,78.381 182.454,79.579 182.594 C 80.777 182.734,82.751 183.198,83.965 183.624 C 85.179 184.051,86.524 184.400,86.955 184.400 C 87.385 184.400,88.033 184.667,88.394 184.994 C 88.755 185.321,90.389 185.756,92.025 185.961 C 94.934 186.325,95.579 186.452,96.800 186.899 C 97.630 187.203,102.740 188.417,104.200 188.657 C 104.860 188.766,105.632 189.157,105.916 189.525 C 106.292 190.015,106.511 190.067,106.726 189.719 C 106.921 189.405,107.222 189.369,107.611 189.615 C 107.935 189.820,108.839 189.991,109.620 189.994 C 110.401 189.997,111.234 190.194,111.471 190.431 C 111.956 190.916,113.939 191.473,117.200 192.041 C 120.018 192.532,122.000 193.172,122.000 193.592 C 122.000 193.773,123.113 194.051,124.473 194.208 C 125.833 194.366,128.127 194.924,129.571 195.448 C 131.015 195.971,132.512 196.400,132.898 196.400 C 133.284 196.400,133.600 196.580,133.600 196.800 C 133.600 197.020,133.951 197.200,134.380 197.200 C 135.778 197.200,139.210 198.060,139.023 198.363 C 138.923 198.525,139.416 198.666,140.120 198.674 C 140.824 198.683,142.750 199.094,144.400 199.588 C 146.050 200.081,148.307 200.642,149.415 200.835 C 150.523 201.027,152.486 201.548,153.777 201.992 C 155.069 202.436,156.488 202.800,156.931 202.800 C 157.374 202.800,158.021 203.037,158.369 203.326 C 158.716 203.615,159.968 204.087,161.150 204.376 C 162.333 204.664,163.773 205.146,164.350 205.447 C 164.928 205.749,166.127 205.996,167.015 205.998 C 167.904 205.999,169.316 206.349,170.153 206.776 C 170.990 207.203,172.693 207.675,173.937 207.825 C 175.182 207.976,176.380 208.233,176.600 208.397 C 176.820 208.561,178.530 208.919,180.400 209.194 C 182.270 209.468,184.639 209.951,185.665 210.267 C 189.564 211.467,196.473 211.152,201.599 209.540 C 205.076 208.446,206.689 207.885,207.860 207.362 C 208.554 207.053,209.329 206.800,209.582 206.800 C 209.836 206.800,210.799 206.460,211.722 206.045 C 212.645 205.630,214.750 204.817,216.400 204.237 C 218.050 203.658,219.760 203.022,220.200 202.823 C 221.312 202.323,229.750 199.543,234.800 198.014 C 237.110 197.315,239.720 196.500,240.600 196.203 C 241.480 195.907,243.755 195.200,245.656 194.633 C 248.967 193.645,249.139 193.536,249.735 192.047 C 250.100 191.133,250.901 190.154,251.678 189.672 C 252.405 189.222,253.612 188.219,254.361 187.445 C 255.109 186.671,256.231 185.925,256.855 185.788 C 257.479 185.651,258.378 184.992,258.854 184.324 C 259.330 183.656,260.331 182.854,261.079 182.541 C 263.649 181.468,274.649 170.599,276.198 167.604 C 276.550 166.923,277.281 166.164,277.821 165.917 C 278.451 165.631,278.947 164.940,279.200 163.998 C 279.418 163.189,279.982 162.183,280.453 161.764 C 280.924 161.344,281.800 159.920,282.400 158.600 C 283.000 157.280,283.868 155.864,284.329 155.453 C 284.790 155.042,285.464 153.811,285.828 152.716 C 286.191 151.622,286.985 150.158,287.591 149.463 C 288.197 148.769,288.986 147.210,289.344 146.000 C 289.702 144.790,290.536 143.008,291.197 142.040 C 291.859 141.072,292.400 140.012,292.400 139.686 C 292.400 139.359,291.680 140.151,290.801 141.446 C 289.921 142.741,289.200 143.980,289.199 144.200 C 289.189 145.420,288.210 147.827,287.390 148.647 C 286.870 149.166,285.896 150.742,285.225 152.148 C 284.466 153.739,283.701 154.785,283.202 154.915 C 282.714 155.043,282.400 155.461,282.400 155.982 C 282.400 157.036,281.320 159.200,280.794 159.200 C 280.060 159.200,278.800 160.582,278.798 161.389 C 278.792 163.497,277.979 165.200,276.978 165.200 C 276.205 165.200,275.858 165.539,275.362 166.777 C 274.836 168.092,274.521 168.375,273.466 168.477 C 272.387 168.582,272.200 168.760,272.200 169.683 C 272.200 171.129,270.939 172.466,270.392 171.600 C 270.032 171.031,269.777 171.787,269.953 172.900 C 269.979 173.065,269.730 173.200,269.400 173.200 C 269.032 173.200,268.800 172.826,268.800 172.233 C 268.800 170.760,269.220 169.921,269.747 170.340 C 269.996 170.539,270.560 170.556,271.000 170.379 C 271.759 170.073,271.754 170.055,270.900 170.028 C 269.736 169.992,269.765 169.700,271.032 168.703 C 271.701 168.177,271.996 167.627,271.869 167.142 C 271.757 166.715,271.964 166.181,272.351 165.897 C 272.724 165.624,273.270 164.655,273.564 163.744 C 273.961 162.515,274.472 161.891,275.549 161.320 C 276.617 160.754,276.968 160.329,276.880 159.709 C 276.801 159.147,277.034 158.780,277.580 158.606 C 278.034 158.462,278.400 158.001,278.400 157.573 C 278.400 157.148,278.580 156.800,278.800 156.800 C 279.020 156.800,279.203 156.035,279.206 155.100 C 279.211 153.855,279.316 153.561,279.600 154.000 C 279.824 154.347,279.990 154.402,279.994 154.131 C 280.018 152.272,273.666 149.603,273.119 151.242 C 272.889 151.932,266.800 151.268,266.800 150.553 C 266.800 150.232,266.339 149.974,265.700 149.937 C 263.064 149.787,262.527 149.696,261.714 149.261 C 261.240 149.007,260.487 148.800,260.040 148.800 C 259.593 148.800,258.637 148.288,257.914 147.663 C 256.391 146.345,255.186 145.952,254.257 146.472 C 253.831 146.710,253.600 146.692,253.600 146.420 C 253.600 146.189,253.375 145.999,253.100 145.998 C 252.825 145.996,252.074 145.721,251.431 145.385 C 250.721 145.015,250.168 144.928,250.023 145.163 C 249.788 145.543,247.240 144.572,246.785 143.930 C 246.666 143.763,245.496 143.537,244.185 143.426 C 242.873 143.316,242.115 143.323,242.500 143.442 C 243.765 143.833,243.232 144.400,241.600 144.400 C 240.421 144.400,240.000 144.237,240.000 143.780 C 240.000 143.294,239.717 143.374,238.700 144.146 C 237.762 144.859,237.087 145.073,236.276 144.915 C 235.381 144.742,235.109 144.863,234.940 145.508 C 234.749 146.238,234.496 146.297,232.364 146.103 C 230.737 145.956,230.000 146.031,230.000 146.344 C 230.000 146.595,230.382 146.800,230.849 146.800 C 231.558 146.800,231.616 146.899,231.200 147.400 C 230.882 147.783,229.997 148.000,228.751 148.000 C 227.283 148.000,226.800 147.851,226.800 147.400 C 226.800 146.883,225.422 146.800,216.800 146.800 C 208.178 146.800,206.800 146.883,206.800 147.400 C 206.800 147.886,206.156 148.000,203.400 148.000 C 200.644 148.000,200.000 147.886,200.000 147.400 C 200.000 146.967,199.556 146.800,198.400 146.800 C 197.244 146.800,196.800 146.967,196.800 147.400 C 196.800 147.844,196.333 148.000,195.000 148.000 C 193.667 148.000,193.200 147.844,193.200 147.400 C 193.200 146.929,192.649 146.800,190.643 146.800 C 188.739 146.800,188.027 146.953,187.855 147.400 C 187.729 147.730,187.349 148.000,187.013 148.000 C 186.676 148.000,186.400 147.730,186.400 147.400 C 186.400 146.917,185.778 146.800,183.200 146.800 C 180.622 146.800,180.000 146.917,180.000 147.400 C 180.000 147.844,179.533 148.000,178.200 148.000 C 176.867 148.000,176.400 147.844,176.400 147.400 C 176.400 146.981,175.978 146.800,175.000 146.800 C 174.022 146.800,173.600 146.981,173.600 147.400 C 173.600 147.844,173.133 148.000,171.800 148.000 C 170.147 148.000,170.000 148.081,170.000 149.000 L 170.000 150.000 165.000 150.000 C 160.822 150.000,160.000 149.901,160.000 149.400 C 160.000 148.967,159.556 148.800,158.400 148.800 C 157.196 148.800,156.800 148.959,156.800 149.444 C 156.800 150.000,156.243 150.074,152.700 149.988 C 146.464 149.836,146.800 149.744,146.800 151.600 L 146.800 153.200 148.400 153.200 L 150.000 153.200 150.000 154.800 L 150.000 156.400 145.000 156.400 L 140.000 156.400 140.000 158.200 L 140.000 160.000 136.600 160.000 L 133.200 160.000 133.200 161.600 L 133.200 163.200 126.600 163.200 L 120.000 163.200 120.000 164.800 L 120.000 166.400 116.600 166.400 L 113.200 166.400 113.200 168.200 L 113.200 170.000 101.600 170.000 C 91.556 170.000,90.000 169.920,90.000 169.400 C 90.000 168.967,89.556 168.800,88.400 168.800 C 87.244 168.800,86.800 168.967,86.800 169.400 C 86.800 169.833,86.356 170.000,85.200 170.000 L 83.600 170.000 83.600 171.613 C 83.600 172.542,83.388 173.300,83.100 173.401 C 82.129 173.743,76.800 173.849,76.800 173.527 C 76.800 173.347,77.520 173.200,78.400 173.200 C 79.280 173.200,80.000 173.020,80.000 172.800 C 80.000 172.580,79.274 172.400,78.387 172.400 C 77.323 172.400,76.697 172.196,76.545 171.800 C 76.031 170.461,73.663 171.058,73.374 172.600 C 73.122 173.939,72.324 174.447,71.800 173.600 C 71.664 173.380,71.203 173.200,70.776 173.200 C 70.349 173.200,70.000 172.930,70.000 172.600 C 70.000 172.156,69.533 172.000,68.200 172.000 C 67.210 172.000,66.400 171.841,66.400 171.647 C 66.400 171.452,65.185 171.180,63.700 171.041 C 59.710 170.668,59.642 170.655,59.853 170.314 C 59.960 170.141,59.227 170.000,58.224 170.000 C 56.758 170.000,56.398 170.138,56.387 170.700 C 56.375 171.353,56.337 171.351,55.821 170.670 C 55.387 170.097,54.703 169.937,52.634 169.925 C 51.185 169.917,50.000 169.750,50.000 169.555 C 50.000 169.360,49.235 169.196,48.300 169.190 C 47.365 169.185,45.790 168.984,44.800 168.744 C 43.810 168.505,41.110 168.104,38.801 167.854 L 34.602 167.400 34.063 165.800 C 33.623 164.491,33.555 157.671,33.693 128.300 C 33.786 108.555,33.822 92.400,33.773 92.400 C 33.725 92.400,33.560 95.325,33.407 98.900 M295.660 127.444 C 295.627 128.128,295.084 129.658,294.452 130.844 C 293.321 132.970,292.368 136.402,292.433 138.120 C 292.452 138.604,292.708 138.010,293.003 136.800 C 293.298 135.590,294.104 133.193,294.794 131.473 C 295.514 129.677,295.978 127.890,295.884 127.273 C 295.729 126.263,295.716 126.273,295.660 127.444 M176.800 146.000 C 176.800 146.220,177.520 146.400,178.400 146.400 C 179.280 146.400,180.000 146.220,180.000 146.000 C 180.000 145.780,179.280 145.600,178.400 145.600 C 177.520 145.600,176.800 145.780,176.800 146.000 M190.000 149.400 C 190.000 149.730,189.730 150.000,189.400 150.000 C 189.070 150.000,188.800 149.730,188.800 149.400 C 188.800 149.070,189.070 148.800,189.400 148.800 C 189.730 148.800,190.000 149.070,190.000 149.400 M140.400 152.800 C 140.400 153.020,141.030 153.200,141.800 153.200 C 142.570 153.200,143.200 153.020,143.200 152.800 C 143.200 152.580,142.570 152.400,141.800 152.400 C 141.030 152.400,140.400 152.580,140.400 152.800 M133.600 153.200 C 133.600 153.420,134.151 153.600,134.824 153.600 C 135.537 153.600,135.944 153.433,135.800 153.200 C 135.664 152.980,135.113 152.800,134.576 152.800 C 134.039 152.800,133.600 152.980,133.600 153.200 M163.200 153.800 C 163.200 154.233,162.756 154.400,161.600 154.400 C 160.444 154.400,160.000 154.233,160.000 153.800 C 160.000 153.367,160.444 153.200,161.600 153.200 C 162.756 153.200,163.200 153.367,163.200 153.800 M120.109 158.402 L 120.018 160.000 123.186 160.000 C 126.667 160.000,126.911 159.857,126.548 158.041 L 126.300 156.800 123.250 156.802 L 120.200 156.804 120.109 158.402 M268.115 174.445 C 267.440 175.120,266.637 174.478,267.244 173.747 C 267.578 173.344,267.854 173.294,268.143 173.583 C 268.432 173.872,268.424 174.136,268.115 174.445 " class="color579afa svgShape"></path><path fill="#5ca4fb" fill-rule="evenodd" d="M132.500 14.691 C 133.325 14.778,134.675 14.778,135.500 14.691 C 136.325 14.605,135.650 14.534,134.000 14.534 C 132.350 14.534,131.675 14.605,132.500 14.691 M117.764 15.617 C 116.425 16.042,114.085 16.549,112.564 16.744 L 109.800 17.099 112.036 17.149 C 113.266 17.177,115.696 16.811,117.436 16.335 C 119.341 15.814,122.509 15.365,125.400 15.206 L 130.200 14.942 125.200 14.893 C 121.267 14.855,119.680 15.010,117.764 15.617 M139.712 15.095 C 140.764 15.177,142.384 15.176,143.312 15.092 C 144.240 15.008,143.380 14.941,141.400 14.942 C 139.420 14.943,138.660 15.012,139.712 15.095 M149.249 14.982 C 149.349 15.082,156.804 15.191,165.815 15.223 C 184.595 15.291,204.416 15.825,208.800 16.383 C 210.450 16.592,213.150 16.862,214.800 16.981 L 217.800 17.198 214.200 16.417 C 208.137 15.103,148.041 13.775,149.249 14.982 M106.705 17.483 C 107.202 17.579,107.922 17.575,108.305 17.475 C 108.687 17.375,108.280 17.296,107.400 17.301 C 106.520 17.305,106.207 17.387,106.705 17.483 M219.500 17.493 C 220.435 17.577,221.965 17.577,222.900 17.493 C 223.835 17.409,223.070 17.340,221.200 17.340 C 219.330 17.340,218.565 17.409,219.500 17.493 M100.881 18.823 C 99.502 19.496,97.615 20.211,96.687 20.413 L 95.000 20.780 96.970 20.588 C 98.054 20.482,99.584 20.014,100.370 19.547 C 101.157 19.080,102.430 18.464,103.200 18.177 C 103.970 17.891,104.327 17.644,103.994 17.628 C 103.661 17.613,102.260 18.150,100.881 18.823 M229.069 18.941 C 230.771 20.356,231.810 20.805,233.274 20.756 C 234.530 20.715,234.510 20.695,232.901 20.377 C 231.966 20.193,230.599 19.583,229.863 19.021 C 228.182 17.738,227.547 17.674,229.069 18.941 M238.539 22.400 C 239.291 23.060,240.023 23.600,240.167 23.600 C 240.310 23.600,239.875 23.060,239.200 22.400 C 238.525 21.740,237.792 21.200,237.572 21.200 C 237.352 21.200,237.787 21.740,238.539 22.400 M90.278 22.613 C 89.660 23.156,89.314 23.600,89.508 23.600 C 89.702 23.600,90.283 23.150,90.800 22.600 C 91.995 21.328,91.731 21.334,90.278 22.613 M244.200 24.864 C 244.640 25.106,245.270 25.622,245.600 26.010 C 245.930 26.397,246.650 26.833,247.200 26.976 C 248.123 27.218,248.138 27.201,247.400 26.755 C 246.960 26.489,246.091 25.851,245.469 25.336 C 244.847 24.821,244.127 24.405,243.869 24.412 C 243.611 24.419,243.760 24.622,244.200 24.864 M83.078 26.213 C 82.460 26.756,82.114 27.200,82.308 27.200 C 82.502 27.200,83.083 26.750,83.600 26.200 C 84.795 24.928,84.531 24.934,83.078 26.213 M251.815 28.966 C 252.163 29.498,252.723 30.038,253.059 30.167 C 253.394 30.296,253.159 29.861,252.536 29.201 C 251.164 27.748,250.976 27.686,251.815 28.966 M257.460 32.700 C 258.391 33.635,259.389 34.395,259.677 34.388 C 259.965 34.381,259.840 34.178,259.400 33.936 C 258.960 33.694,257.962 32.934,257.183 32.248 C 256.228 31.406,256.318 31.553,257.460 32.700 M68.000 36.800 C 67.230 37.222,66.744 37.574,66.920 37.583 C 67.344 37.605,69.600 36.432,69.600 36.190 C 69.600 35.928,69.577 35.937,68.000 36.800 M266.000 39.191 C 266.000 39.717,267.959 40.975,268.279 40.654 C 268.419 40.514,268.323 40.400,268.067 40.400 C 267.810 40.400,267.240 40.040,266.800 39.600 C 266.360 39.160,266.000 38.976,266.000 39.191 M62.400 41.234 L 60.600 42.865 62.500 41.384 C 64.166 40.086,64.659 39.597,64.300 39.601 C 64.245 39.602,63.390 40.336,62.400 41.234 M272.412 45.078 C 272.405 45.340,272.805 45.979,273.300 46.497 C 273.795 47.015,274.000 47.160,273.756 46.820 C 273.512 46.479,273.112 45.840,272.868 45.400 C 272.624 44.960,272.419 44.815,272.412 45.078 M275.612 49.500 C 275.605 49.774,276.347 50.764,277.261 51.700 C 278.174 52.635,278.713 53.004,278.458 52.521 C 278.203 52.037,277.666 51.407,277.266 51.121 C 276.866 50.834,276.333 50.240,276.081 49.800 C 275.830 49.360,275.619 49.225,275.612 49.500 M278.812 53.738 C 278.788 54.417,280.121 56.224,281.345 57.171 C 282.550 58.103,282.542 58.079,281.152 56.571 C 280.356 55.707,279.506 54.640,279.264 54.200 C 279.022 53.760,278.819 53.552,278.812 53.738 M46.800 59.903 C 46.800 60.142,46.311 60.937,45.714 61.669 C 44.821 62.764,44.792 62.859,45.551 62.204 C 46.629 61.275,47.365 60.031,47.032 59.699 C 46.905 59.571,46.800 59.663,46.800 59.903 M282.812 60.278 C 282.805 60.540,283.205 61.179,283.700 61.697 C 284.195 62.215,284.400 62.360,284.156 62.020 C 283.912 61.679,283.512 61.040,283.268 60.600 C 283.024 60.160,282.819 60.015,282.812 60.278 M286.000 66.256 C 286.000 66.447,286.630 67.489,287.400 68.572 C 288.170 69.655,288.800 70.415,288.800 70.261 C 288.800 70.107,288.170 69.065,287.400 67.945 C 286.630 66.826,286.000 66.066,286.000 66.256 M289.234 73.326 C 289.190 74.267,289.757 75.304,291.073 76.687 C 292.240 77.915,291.934 77.105,290.720 75.752 C 290.301 75.286,289.804 74.386,289.614 73.752 C 289.409 73.069,289.255 72.895,289.234 73.326 M40.000 74.198 C 40.000 74.601,39.532 75.756,38.961 76.765 L 37.922 78.600 38.940 77.400 C 39.963 76.194,40.682 74.149,40.238 73.705 C 40.107 73.574,40.000 73.796,40.000 74.198 M292.438 83.200 C 292.352 84.738,294.554 89.980,295.069 89.464 C 295.163 89.371,294.844 88.598,294.361 87.747 C 293.877 86.896,293.255 85.390,292.977 84.400 C 292.699 83.410,292.456 82.870,292.438 83.200 M35.778 85.905 C 34.750 88.989,34.622 89.597,35.169 88.800 C 35.727 87.987,36.961 84.028,36.729 83.796 C 36.627 83.693,36.199 84.643,35.778 85.905 M295.709 92.800 C 295.709 93.790,295.787 94.195,295.882 93.700 C 295.978 93.205,295.978 92.395,295.882 91.900 C 295.787 91.405,295.709 91.810,295.709 92.800 M34.101 93.400 C 34.105 94.280,34.187 94.593,34.283 94.095 C 34.379 93.598,34.375 92.878,34.275 92.495 C 34.175 92.113,34.096 92.520,34.101 93.400 M296.128 99.200 C 296.128 100.630,296.201 101.215,296.289 100.500 C 296.378 99.785,296.378 98.615,296.289 97.900 C 296.201 97.185,296.128 97.770,296.128 99.200 M296.563 108.800 C 296.563 112.430,296.623 113.915,296.698 112.100 C 296.772 110.285,296.772 107.315,296.698 105.500 C 296.623 103.685,296.563 105.170,296.563 108.800 M33.750 109.000 C 33.751 111.420,33.816 112.358,33.896 111.085 C 33.976 109.812,33.975 107.832,33.894 106.685 C 33.814 105.538,33.749 106.580,33.750 109.000 M33.715 139.600 C 33.663 158.082,33.770 164.965,34.123 166.000 L 34.600 167.400 38.800 167.854 C 41.110 168.104,43.810 168.505,44.800 168.744 C 45.790 168.984,47.365 169.185,48.300 169.190 C 49.235 169.196,50.000 169.360,50.000 169.555 C 50.000 169.750,51.185 169.917,52.634 169.925 C 54.703 169.937,55.387 170.097,55.821 170.670 C 56.337 171.351,56.375 171.353,56.387 170.700 C 56.398 170.138,56.758 170.000,58.224 170.000 C 59.227 170.000,59.960 170.141,59.853 170.314 C 59.642 170.655,59.710 170.668,63.700 171.041 C 65.185 171.180,66.400 171.452,66.400 171.647 C 66.400 171.841,67.210 172.000,68.200 172.000 C 69.533 172.000,70.000 172.156,70.000 172.600 C 70.000 172.930,70.349 173.200,70.776 173.200 C 71.203 173.200,71.664 173.380,71.800 173.600 C 72.324 174.447,73.122 173.939,73.374 172.600 C 73.663 171.058,76.031 170.461,76.545 171.800 C 76.697 172.196,77.323 172.400,78.387 172.400 C 79.274 172.400,80.000 172.580,80.000 172.800 C 80.000 173.020,79.280 173.200,78.400 173.200 C 77.520 173.200,76.800 173.347,76.800 173.527 C 76.800 173.849,82.129 173.743,83.100 173.401 C 83.388 173.300,83.600 172.542,83.600 171.613 L 83.600 170.000 85.200 170.000 C 86.356 170.000,86.800 169.833,86.800 169.400 C 86.800 168.967,87.244 168.800,88.400 168.800 C 89.556 168.800,90.000 168.967,90.000 169.400 C 90.000 169.920,91.556 170.000,101.600 170.000 L 113.200 170.000 113.200 168.200 L 113.200 166.400 116.600 166.400 L 120.000 166.400 120.000 164.800 L 120.000 163.200 126.600 163.200 L 133.200 163.200 133.200 161.600 L 133.200 160.000 136.600 160.000 L 140.000 160.000 140.000 158.200 L 140.000 156.400 145.000 156.400 L 150.000 156.400 150.000 154.800 L 150.000 153.200 148.400 153.200 L 146.800 153.200 146.800 151.600 C 146.800 149.744,146.464 149.836,152.700 149.988 C 156.243 150.074,156.800 150.000,156.800 149.444 C 156.800 148.959,157.196 148.800,158.400 148.800 C 159.556 148.800,160.000 148.967,160.000 149.400 C 160.000 149.901,160.822 150.000,165.000 150.000 L 170.000 150.000 170.000 149.000 C 170.000 148.081,170.147 148.000,171.800 148.000 C 173.133 148.000,173.600 147.844,173.600 147.400 C 173.600 146.981,174.022 146.800,175.000 146.800 C 175.978 146.800,176.400 146.981,176.400 147.400 C 176.400 147.844,176.867 148.000,178.200 148.000 C 179.533 148.000,180.000 147.844,180.000 147.400 C 180.000 146.917,180.622 146.800,183.200 146.800 C 185.778 146.800,186.400 146.917,186.400 147.400 C 186.400 147.730,186.676 148.000,187.013 148.000 C 187.349 148.000,187.729 147.730,187.855 147.400 C 188.027 146.953,188.739 146.800,190.643 146.800 C 192.649 146.800,193.200 146.929,193.200 147.400 C 193.200 147.844,193.667 148.000,195.000 148.000 C 196.333 148.000,196.800 147.844,196.800 147.400 C 196.800 146.967,197.244 146.800,198.400 146.800 C 199.556 146.800,200.000 146.967,200.000 147.400 C 200.000 147.886,200.644 148.000,203.400 148.000 C 206.156 148.000,206.800 147.886,206.800 147.400 C 206.800 146.883,208.178 146.800,216.800 146.800 C 225.422 146.800,226.800 146.883,226.800 147.400 C 226.800 147.851,227.283 148.000,228.751 148.000 C 229.997 148.000,230.882 147.783,231.200 147.400 C 231.616 146.899,231.558 146.800,230.849 146.800 C 230.382 146.800,230.000 146.595,230.000 146.344 C 230.000 146.031,230.737 145.956,232.364 146.103 C 234.496 146.297,234.749 146.238,234.940 145.508 C 235.109 144.863,235.381 144.742,236.276 144.915 C 237.087 145.073,237.762 144.859,238.700 144.146 C 239.717 143.374,240.000 143.294,240.000 143.780 C 240.000 144.237,240.421 144.400,241.600 144.400 C 243.232 144.400,243.765 143.833,242.500 143.442 C 242.115 143.323,242.873 143.316,244.185 143.426 C 245.496 143.537,246.666 143.763,246.785 143.930 C 247.240 144.572,249.788 145.543,250.023 145.163 C 250.168 144.928,250.721 145.015,251.431 145.385 C 252.074 145.721,252.825 145.996,253.100 145.998 C 253.375 145.999,253.600 146.189,253.600 146.420 C 253.600 146.692,253.831 146.710,254.257 146.472 C 255.186 145.952,256.391 146.345,257.914 147.663 C 258.637 148.288,259.593 148.800,260.040 148.800 C 260.487 148.800,261.240 149.007,261.714 149.261 C 262.527 149.696,263.064 149.787,265.700 149.937 C 266.339 149.974,266.800 150.232,266.800 150.553 C 266.800 151.268,272.889 151.932,273.119 151.242 C 273.666 149.603,280.018 152.272,279.994 154.131 C 279.990 154.402,279.824 154.347,279.600 154.000 C 279.316 153.561,279.211 153.855,279.206 155.100 C 279.203 156.035,279.020 156.800,278.800 156.800 C 278.580 156.800,278.400 157.148,278.400 157.573 C 278.400 158.001,278.034 158.462,277.580 158.606 C 277.034 158.780,276.801 159.147,276.880 159.709 C 276.968 160.329,276.617 160.754,275.549 161.320 C 274.472 161.891,273.961 162.515,273.564 163.744 C 273.270 164.655,272.724 165.624,272.351 165.897 C 271.964 166.181,271.757 166.715,271.869 167.142 C 271.996 167.627,271.701 168.177,271.032 168.703 C 269.765 169.700,269.736 169.992,270.900 170.028 C 271.754 170.055,271.759 170.073,271.000 170.379 C 270.560 170.556,269.996 170.539,269.747 170.340 C 269.220 169.921,268.800 170.760,268.800 172.233 C 268.800 172.826,269.032 173.200,269.400 173.200 C 269.730 173.200,269.979 173.065,269.953 172.900 C 269.777 171.787,270.032 171.031,270.392 171.600 C 270.939 172.466,272.200 171.129,272.200 169.683 C 272.200 168.760,272.387 168.582,273.466 168.477 C 274.521 168.375,274.836 168.092,275.362 166.777 C 275.858 165.539,276.205 165.200,276.978 165.200 C 277.979 165.200,278.792 163.497,278.798 161.389 C 278.800 160.582,280.060 159.200,280.794 159.200 C 281.320 159.200,282.400 157.036,282.400 155.982 C 282.400 155.461,282.714 155.043,283.202 154.915 C 283.701 154.785,284.466 153.739,285.225 152.148 C 285.896 150.742,286.870 149.166,287.390 148.647 C 288.210 147.827,289.189 145.420,289.199 144.200 C 289.200 143.980,289.921 142.741,290.801 141.446 C 291.680 140.151,292.394 138.891,292.386 138.646 C 292.378 138.401,292.153 138.571,291.886 139.025 C 291.619 139.479,290.927 140.469,290.350 141.225 C 289.772 141.981,289.089 143.258,288.831 144.061 C 287.777 147.353,287.615 147.406,278.600 147.354 C 272.829 147.321,269.931 147.136,268.200 146.691 C 256.483 143.682,252.134 142.615,246.600 141.390 C 237.330 139.337,235.878 138.984,231.000 137.596 C 225.747 136.100,222.588 135.318,212.800 133.086 C 206.667 131.688,200.993 131.876,193.000 133.742 C 189.480 134.564,185.250 135.500,183.600 135.823 C 181.950 136.145,180.306 136.576,179.947 136.779 C 179.588 136.982,178.148 137.353,176.747 137.605 C 175.346 137.856,171.680 138.661,168.600 139.393 C 165.520 140.125,161.560 141.020,159.800 141.382 C 152.781 142.827,139.803 145.787,128.936 148.424 C 119.767 150.648,106.561 153.346,85.000 157.398 C 70.584 160.108,65.641 161.089,59.600 162.442 C 49.855 164.624,44.856 165.442,38.757 165.850 C 35.708 166.054,34.840 165.993,34.557 165.554 C 34.361 165.249,34.107 153.660,33.993 139.800 L 33.785 114.600 33.715 139.600 M296.124 118.600 C 296.126 119.920,296.201 120.412,296.290 119.693 C 296.379 118.974,296.377 117.894,296.286 117.293 C 296.195 116.692,296.122 117.280,296.124 118.600 M293.817 131.335 C 293.258 132.289,292.815 133.414,292.834 133.835 C 292.858 134.367,292.969 134.266,293.198 133.506 C 293.380 132.904,293.919 131.779,294.397 131.006 C 294.874 130.233,295.168 129.600,295.049 129.600 C 294.931 129.600,294.376 130.381,293.817 131.335 M180.000 146.000 C 180.000 146.220,179.280 146.400,178.400 146.400 C 177.520 146.400,176.800 146.220,176.800 146.000 C 176.800 145.780,177.520 145.600,178.400 145.600 C 179.280 145.600,180.000 145.780,180.000 146.000 M188.800 149.400 C 188.800 149.730,189.070 150.000,189.400 150.000 C 189.730 150.000,190.000 149.730,190.000 149.400 C 190.000 149.070,189.730 148.800,189.400 148.800 C 189.070 148.800,188.800 149.070,188.800 149.400 M143.200 152.800 C 143.200 153.020,142.570 153.200,141.800 153.200 C 141.030 153.200,140.400 153.020,140.400 152.800 C 140.400 152.580,141.030 152.400,141.800 152.400 C 142.570 152.400,143.200 152.580,143.200 152.800 M135.800 153.200 C 135.944 153.433,135.537 153.600,134.824 153.600 C 134.151 153.600,133.600 153.420,133.600 153.200 C 133.600 152.980,134.039 152.800,134.576 152.800 C 135.113 152.800,135.664 152.980,135.800 153.200 M160.000 153.800 C 160.000 154.233,160.444 154.400,161.600 154.400 C 162.756 154.400,163.200 154.233,163.200 153.800 C 163.200 153.367,162.756 153.200,161.600 153.200 C 160.444 153.200,160.000 153.367,160.000 153.800 M126.548 158.041 C 126.911 159.857,126.667 160.000,123.186 160.000 L 120.018 160.000 120.109 158.402 L 120.200 156.804 123.250 156.802 L 126.300 156.800 126.548 158.041 M267.244 173.747 C 266.887 174.177,266.880 174.402,267.215 174.610 C 267.868 175.013,268.677 174.117,268.143 173.583 C 267.854 173.294,267.578 173.344,267.244 173.747 " class="color5ca4fb svgShape"></path></svg></g></svg>