<?xml version="1.0" encoding="UTF-8" standalone="no"?>
<!DOCTYPE svg PUBLIC "-//W3C//DTD SVG 1.1//EN" "http://www.w3.org/Graphics/SVG/1.1/DTD/svg11.dtd">
<svg xmlns="http://www.w3.org/2000/svg" version="1.1" viewBox="0.00 0.00 180.00 180.00">
<g stroke-width="2.00" fill="none" stroke-linecap="butt">
<path stroke="#b3c0c9" vector-effect="non-scaling-stroke" d="
  M 95.48 20.60
  Q 93.77 20.56 88.48 19.31
  C 69.99 14.93 58.16 29.57 55.61 46.55
  A 0.80 0.80 0.0 0 1 55.04 47.19
  Q 54.23 47.43 53.40 47.39"
/>
<path stroke="#99a6ae" vector-effect="non-scaling-stroke" d="
  M 53.40 47.39
  Q 42.81 45.84 32.70 41.34"
/>
<path stroke="#b3c0c9" vector-effect="non-scaling-stroke" d="
  M 32.70 41.34
  Q 31.30 40.04 32.44 36.99
  Q 36.17 27.01 41.87 18.08"
/>
<path stroke="#80909a" vector-effect="non-scaling-stroke" d="
  M 54.51 47.44
  L 53.40 47.39"
/>
<path stroke="#99a6ae" vector-effect="non-scaling-stroke" d="
  M 52.13 56.41
  L 40.20 51.05"
/>
<path stroke="#80909a" vector-effect="non-scaling-stroke" d="
  M 40.20 51.05
  L 30.34 46.87"
/>
<path stroke="#99a6ae" vector-effect="non-scaling-stroke" d="
  M 50.26 128.48
  C 49.62 141.67 44.23 157.11 30.32 161.73"
/>
<path stroke="#b3c0c9" vector-effect="non-scaling-stroke" d="
  M 40.20 51.05
  Q 38.56 53.02 36.69 57.50
  C 26.06 82.91 20.00 109.25 22.89 136.25
  Q 24.31 149.48 30.32 161.73"
/>
<path stroke="#80909a" vector-effect="non-scaling-stroke" d="
  M 30.32 161.73
  Q 26.49 162.52 23.20 161.81"
/>
<path stroke="#80909a" vector-effect="non-scaling-stroke" d="
  M 50.39 171.18
  Q 56.90 162.77 57.43 152.91"
/>
<path stroke="#b3c0c9" vector-effect="non-scaling-stroke" d="
  M 177.28 127.27
  L 177.12 127.74
  Q 177.05 127.97 176.81 127.91
  Q 176.69 127.89 176.58 127.79
  Q 176.45 127.69 176.31 127.77
  C 149.16 142.72 120.57 149.82 89.75 152.23
  Q 76.32 153.28 57.43 152.91"
/>
<path stroke="#99a6ae" vector-effect="non-scaling-stroke" d="
  M 57.43 152.91
  Q 57.24 145.03 56.05 137.50
  Q 55.73 135.48 56.14 131.67"
/>
</g>
<path fill="#ccd6dd" d="
  M 95.48 20.60
  Q 93.77 20.56 88.48 19.31
  C 69.99 14.93 58.16 29.57 55.61 46.55
  A 0.80 0.80 0.0 0 1 55.04 47.19
  Q 54.23 47.43 53.40 47.39
  Q 42.81 45.84 32.70 41.34
  Q 31.30 40.04 32.44 36.99
  Q 36.17 27.01 41.87 18.08
  C 44.43 13.66 51.17 3.60 55.59 2.48
  Q 56.78 2.17 58.35 2.65
  Q 74.11 7.48 88.55 15.41
  Q 92.01 17.31 95.48 20.60
  Z"
/>
<path fill="#99aab5" d="
  M 41.87 18.08
  Q 36.17 27.01 32.44 36.99
  Q 31.30 40.04 32.70 41.34
  Q 32.34 41.74 31.78 40.97
  C 26.87 34.32 29.29 16.58 30.97 9.74
  C 31.71 6.72 35.03 6.32 37.50 7.47
  C 42.18 9.64 41.59 13.58 41.87 18.08
  Z"
/>
<path fill="#99aab5" d="
  M 95.48 20.60
  Q 97.82 22.67 97.81 25.77
  Q 97.77 36.71 90.48 46.76
  C 89.22 48.51 86.65 51.36 84.26 49.98
  C 80.19 47.62 80.87 40.88 81.49 36.92
  Q 81.71 35.52 80.53 34.76
  Q 78.96 33.74 76.76 35.28
  Q 68.84 40.83 60.96 46.46
  Q 59.05 47.83 54.51 47.44
  L 53.40 47.39
  Q 54.23 47.43 55.04 47.19
  A 0.80 0.80 0.0 0 0 55.61 46.55
  C 58.16 29.57 69.99 14.93 88.48 19.31
  Q 93.77 20.56 95.48 20.60
  Z"
/>
<path fill="#66757f" d="
  M 32.70 41.34
  Q 42.81 45.84 53.40 47.39
  L 54.51 47.44
  Q 54.77 52.36 52.13 56.41
  L 40.20 51.05
  L 30.34 46.87
  L 32.70 41.34
  Z"
/>
<path fill="#99aab5" d="
  M 30.34 46.87
  L 40.20 51.05
  Q 38.56 53.02 36.69 57.50
  C 26.06 82.91 20.00 109.25 22.89 136.25
  Q 24.31 149.48 30.32 161.73
  Q 26.49 162.52 23.20 161.81
  Q 16.22 161.45 12.89 157.12
  C 0.52 141.05 0.32 117.94 5.07 99.51
  Q 9.87 80.91 18.57 63.75
  Q 23.20 54.63 30.34 46.87
  Z"
/>
<path fill="#ccd6dd" d="
  M 40.20 51.05
  L 52.13 56.41
  Q 53.25 56.93 53.08 57.44
  Q 48.69 70.34 47.14 83.88
  C 45.43 98.84 51.25 113.43 50.26 128.48
  C 49.62 141.67 44.23 157.11 30.32 161.73
  Q 24.31 149.48 22.89 136.25
  C 20.00 109.25 26.06 82.91 36.69 57.50
  Q 38.56 53.02 40.20 51.05
  Z"
/>
<path fill="#ccd6dd" d="
  M 177.28 127.27
  L 177.12 127.74
  Q 177.05 127.97 176.81 127.91
  Q 176.69 127.89 176.58 127.79
  Q 176.45 127.69 176.31 127.77
  C 149.16 142.72 120.57 149.82 89.75 152.23
  Q 76.32 153.28 57.43 152.91
  Q 57.24 145.03 56.05 137.50
  Q 55.73 135.48 56.14 131.67
  C 59.19 115.63 86.65 102.98 100.51 99.09
  Q 123.99 92.50 147.53 98.41
  C 161.91 102.02 174.99 111.94 177.28 127.27
  Z"
/>
<path fill="#99aab5" d="
  M 177.28 127.27
  C 178.99 133.34 177.58 140.53 174.91 145.97
  C 171.18 153.57 162.78 160.35 155.42 165.30
  Q 149.42 169.34 142.50 171.43
  Q 134.11 173.97 123.74 175.49
  Q 96.18 179.55 68.50 176.28
  Q 59.36 175.21 50.39 171.18
  Q 56.90 162.77 57.43 152.91
  Q 76.32 153.28 89.75 152.23
  C 120.57 149.82 149.16 142.72 176.31 127.77
  Q 176.45 127.69 176.58 127.79
  Q 176.69 127.89 176.81 127.91
  Q 177.05 127.97 177.12 127.74
  L 177.28 127.27
  Z"
/>
<path fill="#66757f" d="
  M 50.26 128.48
  L 56.14 131.67
  Q 55.73 135.48 56.05 137.50
  Q 57.24 145.03 57.43 152.91
  Q 56.90 162.77 50.39 171.18
  Q 34.33 175.54 23.20 161.81
  Q 26.49 162.52 30.32 161.73
  C 44.23 157.11 49.62 141.67 50.26 128.48
  Z"
/>
</svg>
