<?xml version="1.0" encoding="UTF-8" standalone="no"?>
<!DOCTYPE svg PUBLIC "-//W3C//DTD SVG 1.1//EN" "http://www.w3.org/Graphics/SVG/1.1/DTD/svg11.dtd">
<svg xmlns="http://www.w3.org/2000/svg" version="1.1" viewBox="0.00 0.00 64.00 64.00">
<g stroke-width="2.00" fill="none" stroke-linecap="butt">
<path stroke="#2588e5" vector-effect="non-scaling-stroke" d="
  M 56.68 11.64
  L 43.22 11.54
  A 0.30 0.30 0.0 0 1 43.07 11.50
  Q 42.63 11.24 42.22 11.45
  Q 41.84 11.65 41.43 11.59
  Q 36.81 10.99 32.20 11.41
  Q 30.06 11.60 28.29 11.50
  C 26.82 11.42 25.07 11.54 23.66 11.24
  Q 23.27 11.15 22.91 11.37
  Q 22.50 11.60 22.09 11.39
  C 20.73 10.68 19.57 11.54 18.26 11.13
  Q 18.13 11.09 18.04 11.19
  L 17.68 11.58
  Q 17.42 11.85 17.05 11.86
  Q 15.10 11.92 13.20 12.38
  Q 12.80 12.47 12.38 12.45
  L 10.71 12.36
  Q 10.37 12.34 10.16 12.07
  Q 9.62 11.39 7.84 11.08"
/>
<path stroke="#307fe6" vector-effect="non-scaling-stroke" d="
  M 63.10 24.50
  L 62.41 24.71
  Q 62.25 24.76 62.19 24.60
  Q 62.13 24.46 62.12 24.33
  Q 62.11 24.15 61.93 24.15
  C 60.61 24.19 59.49 23.71 58.22 23.83
  C 56.04 24.05 54.28 24.17 52.10 23.84
  Q 51.10 23.69 49.76 24.11
  Q 47.90 24.69 47.29 23.33"
/>
<path stroke="#94c2f2" vector-effect="non-scaling-stroke" d="
  M 47.29 23.33
  C 47.23 21.50 47.81 18.38 45.91 17.33
  C 43.09 15.76 41.27 17.48 41.14 20.38
  Q 40.89 25.79 41.49 30.82"
/>
<path stroke="#307fe6" vector-effect="non-scaling-stroke" d="
  M 41.49 30.82
  L 35.88 30.76
  A 0.49 0.49 0.0 0 1 35.39 30.25
  Q 35.40 29.59 35.03 29.44"
/>
<path stroke="#94c2f2" vector-effect="non-scaling-stroke" d="
  M 35.03 29.44
  L 35.02 20.78
  A 3.71 3.71 0.0 0 0 32.80 17.40
  L 31.26 16.73
  Q 29.02 15.75 29.00 18.20
  L 28.94 24.53"
/>
<path stroke="#307fe6" vector-effect="non-scaling-stroke" d="
  M 28.94 24.53
  Q 28.61 21.84 25.84 23.53
  Q 25.49 23.75 25.14 23.52
  Q 22.93 22.06 22.92 23.93"
/>
<path stroke="#94c2f2" vector-effect="non-scaling-stroke" d="
  M 22.92 23.93
  C 22.78 21.28 23.52 15.66 18.83 16.92
  A 2.81 2.80 83.0 0 0 16.76 19.58
  L 16.70 22.64"
/>
<path stroke="#307fe6" vector-effect="non-scaling-stroke" d="
  M 16.70 22.64
  Q 16.23 22.74 16.00 21.71
  Q 15.87 21.12 15.27 21.12
  L 13.75 21.12
  A 17.54 3.44 -13.7 0 0 11.07 21.24
  Q 9.73 21.34 8.60 21.11
  A 1.06 1.06 0.0 0 0 7.69 21.34
  Q 6.56 22.30 5.26 21.45
  A 0.88 0.88 0.0 0 0 4.33 21.43
  Q 2.95 22.27 1.67 21.81"
/>
<path stroke="#9bbcf3" vector-effect="non-scaling-stroke" d="
  M 22.92 23.93
  L 22.74 29.38
  Q 22.64 32.41 19.64 32.00
  L 18.98 31.91
  A 2.46 2.45 -86.9 0 1 16.86 29.53
  L 16.70 22.64"
/>
<path stroke="#9bbcf3" vector-effect="non-scaling-stroke" d="
  M 35.03 29.44
  L 35.03 42.99"
/>
<path stroke="#a3b7f4" vector-effect="non-scaling-stroke" d="
  M 35.03 42.99
  L 34.98 46.70
  Q 34.97 47.24 34.44 47.25
  Q 28.40 47.38 28.98 40.81"
/>
<path stroke="#9bbcf3" vector-effect="non-scaling-stroke" d="
  M 28.98 40.81
  L 28.94 24.53"
/>
<path stroke="#9bbcf3" vector-effect="non-scaling-stroke" d="
  M 47.29 23.33
  Q 47.28 26.07 47.21 28.90
  C 47.12 32.41 43.83 32.67 41.49 30.82"
/>
<path stroke="#3f74e8" vector-effect="non-scaling-stroke" d="
  M 28.98 40.81
  Q 27.92 41.39 26.97 40.45
  Q 26.61 40.10 26.11 40.10
  Q 25.24 40.11 24.69 40.81
  Q 24.42 41.15 24.10 40.85
  Q 23.99 40.75 23.93 40.62
  Q 23.80 40.33 23.49 40.24
  Q 21.39 39.66 19.79 40.82
  Q 19.26 41.21 18.97 40.62
  Q 18.59 39.83 17.56 40.12
  Q 17.18 40.23 17.07 40.60
  Q 17.00 40.86 16.80 40.96
  Q 16.35 41.19 16.15 40.73
  Q 15.76 39.81 14.38 40.21
  Q 12.95 40.62 12.32 40.91
  A 1.70 1.52 26.4 0 1 11.92 41.02
  Q 10.73 41.15 10.06 40.46
  Q 9.72 40.12 9.25 40.12
  L 7.23 40.12
  Q 6.77 40.12 6.36 40.33
  Q 5.95 40.55 5.62 40.86
  A 0.38 0.37 52.2 0 1 5.03 40.78
  Q 4.94 40.63 4.87 40.45
  Q 4.70 40.04 4.28 40.14
  L 1.25 40.85"
/>
<path stroke="#3f74e8" vector-effect="non-scaling-stroke" d="
  M 61.97 43.33
  Q 55.76 41.34 48.76 41.99
  Q 48.49 42.02 48.31 42.14
  Q 48.08 42.30 47.90 42.51
  Q 47.63 42.82 47.21 42.87
  Q 45.87 43.04 44.61 42.61
  Q 44.44 42.55 44.33 42.70
  Q 44.24 42.83 43.97 42.95
  Q 43.66 43.09 43.33 43.02
  L 37.90 41.84
  Q 37.29 41.71 37.00 42.26
  Q 36.68 42.89 36.16 42.49
  Q 35.75 42.17 35.40 42.56
  L 35.03 42.99"
/>
</g>
<path fill="#208be4" d="
  M 29.43 0.00
  L 34.72 0.00
  Q 48.21 1.62 56.68 11.64
  L 43.22 11.54
  A 0.30 0.30 0.0 0 1 43.07 11.50
  Q 42.63 11.24 42.22 11.45
  Q 41.84 11.65 41.43 11.59
  Q 36.81 10.99 32.20 11.41
  Q 30.06 11.60 28.29 11.50
  C 26.82 11.42 25.07 11.54 23.66 11.24
  Q 23.27 11.15 22.91 11.37
  Q 22.50 11.60 22.09 11.39
  C 20.73 10.68 19.57 11.54 18.26 11.13
  Q 18.13 11.09 18.04 11.19
  L 17.68 11.58
  Q 17.42 11.85 17.05 11.86
  Q 15.10 11.92 13.20 12.38
  Q 12.80 12.47 12.38 12.45
  L 10.71 12.36
  Q 10.37 12.34 10.16 12.07
  Q 9.62 11.39 7.84 11.08
  Q 16.46 1.38 29.43 0.00
  Z"
/>
<path fill="#2984e5" d="
  M 7.84 11.08
  Q 9.62 11.39 10.16 12.07
  Q 10.37 12.34 10.71 12.36
  L 12.38 12.45
  Q 12.80 12.47 13.20 12.38
  Q 15.10 11.92 17.05 11.86
  Q 17.42 11.85 17.68 11.58
  L 18.04 11.19
  Q 18.13 11.09 18.26 11.13
  C 19.57 11.54 20.73 10.68 22.09 11.39
  Q 22.50 11.60 22.91 11.37
  Q 23.27 11.15 23.66 11.24
  C 25.07 11.54 26.82 11.42 28.29 11.50
  Q 30.06 11.60 32.20 11.41
  Q 36.81 10.99 41.43 11.59
  Q 41.84 11.65 42.22 11.45
  Q 42.63 11.24 43.07 11.50
  A 0.30 0.30 0.0 0 0 43.22 11.54
  L 56.68 11.64
  Q 61.44 17.55 63.10 24.50
  L 62.41 24.71
  Q 62.25 24.76 62.19 24.60
  Q 62.13 24.46 62.12 24.33
  Q 62.11 24.15 61.93 24.15
  C 60.61 24.19 59.49 23.71 58.22 23.83
  C 56.04 24.05 54.28 24.17 52.10 23.84
  Q 51.10 23.69 49.76 24.11
  Q 47.90 24.69 47.29 23.33
  C 47.23 21.50 47.81 18.38 45.91 17.33
  C 43.09 15.76 41.27 17.48 41.14 20.38
  Q 40.89 25.79 41.49 30.82
  L 35.88 30.76
  A 0.49 0.49 0.0 0 1 35.39 30.25
  Q 35.40 29.59 35.03 29.44
  L 35.02 20.78
  A 3.71 3.71 0.0 0 0 32.80 17.40
  L 31.26 16.73
  Q 29.02 15.75 29.00 18.20
  L 28.94 24.53
  Q 28.61 21.84 25.84 23.53
  Q 25.49 23.75 25.14 23.52
  Q 22.93 22.06 22.92 23.93
  C 22.78 21.28 23.52 15.66 18.83 16.92
  A 2.81 2.80 83.0 0 0 16.76 19.58
  L 16.70 22.64
  Q 16.23 22.74 16.00 21.71
  Q 15.87 21.12 15.27 21.12
  L 13.75 21.12
  A 17.54 3.44 -13.7 0 0 11.07 21.24
  Q 9.73 21.34 8.60 21.11
  A 1.06 1.06 0.0 0 0 7.69 21.34
  Q 6.56 22.30 5.26 21.45
  A 0.88 0.88 0.0 0 0 4.33 21.43
  Q 2.95 22.27 1.67 21.81
  Q 3.84 15.57 7.84 11.08
  Z"
/>
<path fill="#ffffff" d="
  M 22.92 23.93
  L 22.74 29.38
  Q 22.64 32.41 19.64 32.00
  L 18.98 31.91
  A 2.46 2.45 -86.9 0 1 16.86 29.53
  L 16.70 22.64
  L 16.76 19.58
  A 2.81 2.80 83.0 0 1 18.83 16.92
  C 23.52 15.66 22.78 21.28 22.92 23.93
  Z"
/>
<path fill="#ffffff" d="
  M 35.03 29.44
  L 35.03 42.99
  L 34.98 46.70
  Q 34.97 47.24 34.44 47.25
  Q 28.40 47.38 28.98 40.81
  L 28.94 24.53
  L 29.00 18.20
  Q 29.02 15.75 31.26 16.73
  L 32.80 17.40
  A 3.71 3.71 0.0 0 1 35.02 20.78
  L 35.03 29.44
  Z"
/>
<path fill="#ffffff" d="
  M 47.29 23.33
  Q 47.28 26.07 47.21 28.90
  C 47.12 32.41 43.83 32.67 41.49 30.82
  Q 40.89 25.79 41.14 20.38
  C 41.27 17.48 43.09 15.76 45.91 17.33
  C 47.81 18.38 47.23 21.50 47.29 23.33
  Z"
/>
<path fill="#3779e7" d="
  M 16.70 22.64
  L 16.86 29.53
  A 2.46 2.45 -86.9 0 0 18.98 31.91
  L 19.64 32.00
  Q 22.64 32.41 22.74 29.38
  L 22.92 23.93
  Q 22.93 22.06 25.14 23.52
  Q 25.49 23.75 25.84 23.53
  Q 28.61 21.84 28.94 24.53
  L 28.98 40.81
  Q 27.92 41.39 26.97 40.45
  Q 26.61 40.10 26.11 40.10
  Q 25.24 40.11 24.69 40.81
  Q 24.42 41.15 24.10 40.85
  Q 23.99 40.75 23.93 40.62
  Q 23.80 40.33 23.49 40.24
  Q 21.39 39.66 19.79 40.82
  Q 19.26 41.21 18.97 40.62
  Q 18.59 39.83 17.56 40.12
  Q 17.18 40.23 17.07 40.60
  Q 17.00 40.86 16.80 40.96
  Q 16.35 41.19 16.15 40.73
  Q 15.76 39.81 14.38 40.21
  Q 12.95 40.62 12.32 40.91
  A 1.70 1.52 26.4 0 1 11.92 41.02
  Q 10.73 41.15 10.06 40.46
  Q 9.72 40.12 9.25 40.12
  L 7.23 40.12
  Q 6.77 40.12 6.36 40.33
  Q 5.95 40.55 5.62 40.86
  A 0.38 0.37 52.2 0 1 5.03 40.78
  Q 4.94 40.63 4.87 40.45
  Q 4.70 40.04 4.28 40.14
  L 1.25 40.85
  L 0.00 34.36
  L 0.00 29.53
  L 1.67 21.81
  Q 2.95 22.27 4.33 21.43
  A 0.88 0.88 0.0 0 1 5.26 21.45
  Q 6.56 22.30 7.69 21.34
  A 1.06 1.06 0.0 0 1 8.60 21.11
  Q 9.73 21.34 11.07 21.24
  A 17.54 3.44 -13.7 0 1 13.75 21.12
  L 15.27 21.12
  Q 15.87 21.12 16.00 21.71
  Q 16.23 22.74 16.70 22.64
  Z"
/>
<path fill="#3779e7" d="
  M 47.29 23.33
  Q 47.90 24.69 49.76 24.11
  Q 51.10 23.69 52.10 23.84
  C 54.28 24.17 56.04 24.05 58.22 23.83
  C 59.49 23.71 60.61 24.19 61.93 24.15
  Q 62.11 24.15 62.12 24.33
  Q 62.13 24.46 62.19 24.60
  Q 62.25 24.76 62.41 24.71
  L 63.10 24.50
  L 64.00 29.64
  L 64.00 34.48
  L 61.97 43.33
  Q 55.76 41.34 48.76 41.99
  Q 48.49 42.02 48.31 42.14
  Q 48.08 42.30 47.90 42.51
  Q 47.63 42.82 47.21 42.87
  Q 45.87 43.04 44.61 42.61
  Q 44.44 42.55 44.33 42.70
  Q 44.24 42.83 43.97 42.95
  Q 43.66 43.09 43.33 43.02
  L 37.90 41.84
  Q 37.29 41.71 37.00 42.26
  Q 36.68 42.89 36.16 42.49
  Q 35.75 42.17 35.40 42.56
  L 35.03 42.99
  L 35.03 29.44
  Q 35.40 29.59 35.39 30.25
  A 0.49 0.49 0.0 0 0 35.88 30.76
  L 41.49 30.82
  C 43.83 32.67 47.12 32.41 47.21 28.90
  Q 47.28 26.07 47.29 23.33
  Z"
/>
<path fill="#466ee9" d="
  M 28.98 40.81
  Q 28.40 47.38 34.44 47.25
  Q 34.97 47.24 34.98 46.70
  L 35.03 42.99
  L 35.40 42.56
  Q 35.75 42.17 36.16 42.49
  Q 36.68 42.89 37.00 42.26
  Q 37.29 41.71 37.90 41.84
  L 43.33 43.02
  Q 43.66 43.09 43.97 42.95
  Q 44.24 42.83 44.33 42.70
  Q 44.44 42.55 44.61 42.61
  Q 45.87 43.04 47.21 42.87
  Q 47.63 42.82 47.90 42.51
  Q 48.08 42.30 48.31 42.14
  Q 48.49 42.02 48.76 41.99
  Q 55.76 41.34 61.97 43.33
  Q 54.19 61.59 34.38 64.00
  L 29.52 64.00
  C 16.21 62.50 4.96 53.93 1.25 40.85
  L 4.28 40.14
  Q 4.70 40.04 4.87 40.45
  Q 4.94 40.63 5.03 40.78
  A 0.38 0.37 52.2 0 0 5.62 40.86
  Q 5.95 40.55 6.36 40.33
  Q 6.77 40.12 7.23 40.12
  L 9.25 40.12
  Q 9.72 40.12 10.06 40.46
  Q 10.73 41.15 11.92 41.02
  A 1.70 1.52 26.4 0 0 12.32 40.91
  Q 12.95 40.62 14.38 40.21
  Q 15.76 39.81 16.15 40.73
  Q 16.35 41.19 16.80 40.96
  Q 17.00 40.86 17.07 40.60
  Q 17.18 40.23 17.56 40.12
  Q 18.59 39.83 18.97 40.62
  Q 19.26 41.21 19.79 40.82
  Q 21.39 39.66 23.49 40.24
  Q 23.80 40.33 23.93 40.62
  Q 23.99 40.75 24.10 40.85
  Q 24.42 41.15 24.69 40.81
  Q 25.24 40.11 26.11 40.10
  Q 26.61 40.10 26.97 40.45
  Q 27.92 41.39 28.98 40.81
  Z"
/>
</svg>
